<?xml version="1.0" encoding="UTF-8"?>
<svg xmlns="http://www.w3.org/2000/svg" xmlns:xlink="http://www.w3.org/1999/xlink" version="1.2" >
<font id="Blogger Sans Italic">
<font-face  font-family="Blogger Sans" units-per-em="1000" ascent="725" descent="-240" font-style="normal" font-weight="250" font-stretch="" cap-height="705" x-height="505" underline-position="-133" underline-thickness="20" />
<missing-glyph  horiz-adv-x="760" d="" />
<glyph glyph-name="NULL" d="" />
<glyph glyph-name="CR" unicode="&#xd;" horiz-adv-x="250" d="" />
<glyph glyph-name="space" unicode="&#x20;" horiz-adv-x="300" d="" />
<glyph glyph-name="exclam" unicode="&#x21;" horiz-adv-x="227" d="M111 202 L168 675 C171 696 192 715 214 715 C236 715 251 696 248 675 L172 202 C169 185 153 170 137 170 C120 170 109 185 111 202 L111 202 Z M175 51 C175 18 146 -10 114 -10 C87 -10 67 12 67 39 C67 71 96 98 129 98 C156 98 175 77 175 51 L175 51 Z " />
<glyph glyph-name="quotedbl" unicode="&#x22;" horiz-adv-x="342" d="M124 485 L188 728 C193 747 216 761 238 758 C261 754 274 735 266 716 L177 475 C171 460 155 449 141 451 C126 454 120 470 124 485 L124 485 Z M254 485 L318 728 C323 747 346 761 368 758 C391 754 404 735 396 716 L307 475 C301 460 285 449 271 451 C256 454 250 470 254 485 L254 485 Z " />
<glyph glyph-name="numbersign" unicode="&#x23;" horiz-adv-x="541" d="M179 483 L239 483 L313 684 C320 702 336 712 354 712 C369 710 382 697 382 680 C382 673 380 670 379 667 L312 483 L419 483 L493 684 C500 702 516 712 534 712 C550 710 562 697 562 680 C562 673 560 670 559 667 L492 483 L527 483 C545 483 561 468 561 448 C561 424 540 405 516 405 L464 405 L427 303 L472 303 C490 303 506 288 506 268 C506 244 485 225 461 225 L399 225 L326 22 C318 3 302 -7 284 -7 C266 -5 253 11 256 31 L259 40 L326 225 L219 225 L146 22 C138 3 122 -7 104 -7 C87 -5 73 11 76 31 L79 40 L146 225 L113 225 C93 225 79 240 79 259 C79 284 102 303 124 303 L174 303 L211 405 L168 405 C148 405 134 420 134 439 C134 464 158 483 179 483 L179 483 Z M284 405 L247 303 L354 303 L391 405 L284 405 L284 405 Z " />
<glyph glyph-name="dollar" unicode="&#x24;" horiz-adv-x="500" d="M221 -28 L228 20 C162 22 62 41 62 90 C62 111 82 133 105 133 C131 133 163 101 239 98 L271 326 C195 352 119 384 119 483 C119 600 199 674 321 684 L328 733 C330 747 344 759 358 759 C372 759 382 747 380 733 L373 684 C429 680 510 666 510 621 C510 600 492 579 465 579 C436 579 418 601 362 606 L332 391 C407 364 484 332 484 233 C484 113 396 38 280 22 L273 -28 C271 -42 258 -54 244 -54 C230 -54 219 -42 221 -28 L221 -28 Z M398 218 C398 264 373 284 352 294 C342 299 332 304 320 308 L291 101 C361 112 398 154 398 218 L398 218 Z M251 423 C260 418 271 413 282 408 L310 605 C254 597 204 570 204 499 C204 452 232 433 251 423 L251 423 Z " />
<glyph glyph-name="percent" unicode="&#x25;" horiz-adv-x="703" d="M252 396 C172 396 131 454 131 530 C131 631 192 716 297 716 C378 716 418 658 418 582 C418 481 356 396 252 396 L252 396 Z M261 458 C323 458 350 509 350 580 C350 626 330 654 288 654 C227 654 199 605 199 534 C199 486 219 458 261 458 L261 458 Z M506 -10 C425 -10 385 48 385 124 C385 225 446 310 551 310 C631 310 671 252 671 176 C671 75 610 -10 506 -10 L506 -10 Z M514 52 C576 52 603 103 603 174 C603 220 584 248 542 248 C481 248 453 199 453 128 C453 80 472 52 514 52 L514 52 Z M645 664 L217 17 C206 0 188 -6 172 -1 C155 5 148 25 155 44 L161 52 L588 698 C599 714 618 720 634 715 C646 711 653 697 653 683 C653 670 648 666 645 664 L645 664 Z " />
<glyph glyph-name="ampersand" unicode="&#x26;" horiz-adv-x="642" d="M599 30 C596 9 577 -10 555 -10 C539 -10 532 -2 523 11 L470 87 C413 36 343 -10 252 -10 C140 -10 70 61 70 157 C70 278 165 345 252 393 C216 439 191 489 191 539 C191 646 288 713 385 713 C469 713 530 654 530 593 C530 564 506 545 485 545 C467 545 456 558 454 575 C449 608 423 642 378 642 C324 642 270 604 270 547 C270 506 303 460 331 422 L486 209 C515 246 540 287 562 325 C576 349 585 350 601 350 C618 350 633 335 633 316 C633 277 573 199 528 147 L593 54 C598 47 600 39 599 30 L599 30 Z M429 146 L290 336 C222 301 149 254 149 172 C149 113 189 62 256 62 C325 62 379 98 429 146 L429 146 Z " />
<glyph glyph-name="quotesingle" unicode="&#x27;" horiz-adv-x="222" d="M124 485 L188 728 C193 747 216 761 238 758 C261 754 274 735 266 716 L177 475 C171 460 155 449 141 451 C126 454 120 470 124 485 L124 485 Z " />
<glyph glyph-name="parenleft" unicode="&#x28;" horiz-adv-x="276" d="M175 221 C156 85 166 -52 216 -171 C219 -179 222 -187 222 -195 C222 -215 207 -240 178 -240 C165 -240 154 -234 148 -221 C86 -89 75 71 96 221 C117 371 173 531 272 663 C282 676 295 682 308 682 C331 682 341 665 341 646 C341 633 333 623 326 613 C242 494 194 357 175 221 L175 221 Z " />
<glyph glyph-name="parenright" unicode="&#x29;" horiz-adv-x="275" d="M162 221 C182 357 172 494 122 613 C119 621 115 629 115 637 C115 657 130 682 159 682 C172 682 184 676 190 663 C252 531 263 371 241 221 C220 71 164 -89 65 -221 C55 -234 43 -240 30 -240 C7 -240 -3 -223 -3 -204 C-3 -191 4 -181 11 -171 C95 -52 143 85 162 221 L162 221 Z " />
<glyph glyph-name="asterisk" unicode="&#x2a;" horiz-adv-x="495" d="M437 595 C445 573 429 556 411 550 L295 518 L370 423 C382 408 385 386 364 372 C344 357 324 367 314 381 L247 484 C225 452 202 413 180 381 C169 367 150 359 130 372 C111 385 113 408 124 423 L200 518 L83 550 C65 556 50 573 57 595 C65 619 86 623 104 617 C142 603 180 586 218 573 L212 695 C211 713 222 732 247 732 C272 732 283 713 282 695 L276 573 C314 586 352 603 390 617 C408 623 429 619 437 595 L437 595 Z " />
<glyph glyph-name="plus" unicode="&#x2b;" horiz-adv-x="500" d="M251 145 L251 315 L91 315 C69 315 52 332 52 354 C52 376 71 393 91 393 L251 393 L251 563 C251 583 268 602 290 602 C312 602 329 585 329 563 L329 393 L489 393 C509 393 528 376 528 354 C528 332 511 315 489 315 L329 315 L329 145 C329 123 312 106 290 106 C268 106 251 125 251 145 L251 145 Z " />
<glyph glyph-name="comma" unicode="&#x2c;" horiz-adv-x="230" d="M174 51 C174 -9 104 -119 75 -119 C66 -119 58 -116 58 -105 C58 -72 89 -56 108 -10 C83 -7 66 13 66 38 C66 71 96 98 128 98 C155 98 174 77 174 51 L174 51 Z " />
<glyph glyph-name="hyphen" unicode="&#x2d;" horiz-adv-x="399" d="M400 295 C400 275 384 259 364 259 L115 259 C94 259 78 275 78 295 C78 315 94 332 115 332 L364 332 C384 332 400 315 400 295 L400 295 Z " />
<glyph glyph-name="period" unicode="&#x2e;" horiz-adv-x="230" d="M175 51 C175 18 146 -10 114 -10 C87 -10 67 12 67 39 C67 71 96 98 129 98 C156 98 175 77 175 51 L175 51 Z " />
<glyph glyph-name="slash" unicode="&#x2f;" horiz-adv-x="280" d="M402 707 L43 -18 C34 -36 16 -46 -2 -43 C-18 -40 -28 -25 -28 -9 C-28 2 -25 6 -23 9 L335 733 C344 751 363 760 381 757 C396 754 406 739 406 723 C406 713 403 709 402 707 L402 707 Z " />
<glyph glyph-name="zero" unicode="0" horiz-adv-x="500" d="M342 652 C255 652 211 590 199 504 L156 198 C145 118 180 64 259 64 C338 64 389 118 400 198 L443 504 C455 590 429 652 342 652 L342 652 Z M352 725 C492 725 539 622 521 496 L479 198 C463 82 379 -10 249 -10 C119 -10 61 82 77 198 L119 496 C137 622 212 725 352 725 L352 725 Z " />
<glyph glyph-name="one" unicode="1" horiz-adv-x="500" d="M276 31 L358 612 L223 533 C208 524 190 513 176 513 C161 513 146 527 146 544 C146 558 154 573 170 582 L384 708 C393 713 400 715 409 715 C433 715 449 696 446 672 L356 31 C353 10 332 -9 310 -9 C288 -9 273 10 276 31 L276 31 Z " />
<glyph glyph-name="two" unicode="2" horiz-adv-x="500" d="M459 42 C459 19 438 0 415 0 L86 0 C64 0 50 15 50 36 C50 55 56 70 62 81 C134 210 272 297 372 396 C410 434 447 480 447 543 C447 605 412 652 339 652 C301 652 271 645 242 633 C215 622 196 605 178 605 C160 605 144 618 144 638 C144 656 155 668 176 680 C233 713 287 725 350 725 C465 725 527 652 527 559 C527 469 486 406 427 349 C332 257 215 182 150 76 L425 76 C445 76 459 61 459 42 L459 42 Z " />
<glyph glyph-name="three" unicode="3" horiz-adv-x="500" d="M505 632 L306 415 C410 412 482 353 482 247 C482 140 405 -9 244 -9 C204 -9 61 1 61 61 C61 83 81 103 104 103 C111 103 118 101 124 97 C151 80 180 63 232 63 C361 63 401 164 401 237 C401 312 352 344 282 344 C264 344 250 342 238 338 C232 336 229 332 220 332 C194 332 180 367 203 393 L414 626 L192 626 C172 626 158 641 158 660 C158 684 179 706 203 706 L482 706 C505 706 520 691 520 667 C520 654 516 644 505 632 L505 632 Z " />
<glyph glyph-name="four" unicode="4" horiz-adv-x="500" d="M425 149 L409 30 C406 8 386 -9 364 -9 C342 -9 328 8 331 30 L347 149 L97 149 C76 149 62 166 62 187 C62 194 68 209 74 219 L334 700 C342 714 357 723 371 723 C389 723 405 707 405 687 C405 679 403 674 401 670 L159 224 L357 224 L385 420 C388 442 408 459 430 459 C451 459 466 442 463 420 L435 224 L479 224 C498 224 511 209 511 191 C511 168 491 149 468 149 L425 149 L425 149 Z " />
<glyph glyph-name="five" unicode="5" horiz-adv-x="500" d="M483 258 C483 139 407 -9 245 -9 C205 -9 61 1 61 61 C61 83 81 103 104 103 C111 103 118 101 124 97 C149 81 179 63 232 63 C364 63 403 165 403 248 C403 329 358 368 295 368 C266 368 242 360 219 348 C195 336 181 320 161 320 C139 320 123 338 127 363 L179 662 C184 690 209 706 231 706 L472 706 C493 706 514 697 514 673 C514 642 486 631 462 631 L246 631 L208 415 C239 432 272 439 307 439 C413 439 483 371 483 258 L483 258 Z " />
<glyph glyph-name="six" unicode="6" horiz-adv-x="500" d="M178 390 C222 425 274 437 319 437 C419 437 493 375 493 255 C493 118 408 -10 250 -10 C122 -10 78 91 78 232 C78 505 167 715 361 715 C394 715 508 708 508 663 C508 644 488 623 467 623 C461 623 454 625 445 628 C424 635 396 643 364 643 C242 643 197 529 178 390 L178 390 Z M163 305 L160 281 C146 170 154 68 265 68 C376 68 413 164 413 246 C413 324 371 361 306 361 C251 361 195 337 163 305 L163 305 Z " />
<glyph glyph-name="seven" unicode="7" horiz-adv-x="500" d="M544 670 C544 663 542 652 537 643 L200 16 C192 0 176 -9 160 -9 C141 -9 125 4 125 25 C125 28 127 37 131 45 L447 627 L177 627 C158 627 144 643 144 662 C144 686 165 706 188 706 L508 706 C529 706 544 690 544 670 L544 670 Z " />
<glyph glyph-name="eight" unicode="8" horiz-adv-x="500" d="M501 219 C501 90 391 -10 249 -10 C132 -10 53 64 53 167 C53 269 120 332 204 373 C159 403 126 450 126 513 C126 635 233 714 350 714 C450 714 523 650 523 558 C523 480 477 422 402 379 C458 346 501 295 501 219 L501 219 Z M444 546 C444 604 401 643 341 643 C268 643 205 592 205 520 C205 460 253 421 310 410 C382 425 444 475 444 546 L444 546 Z M421 211 C421 283 361 325 295 338 C207 321 133 264 133 180 C133 112 185 63 259 63 C349 63 421 129 421 211 L421 211 Z " />
<glyph glyph-name="nine" unicode="9" horiz-adv-x="500" d="M421 315 C377 280 325 268 280 268 C181 268 106 327 106 450 C106 585 183 715 345 715 C474 715 520 616 520 469 C520 193 438 -10 238 -10 C204 -10 91 -3 91 42 C91 61 111 82 132 82 C138 82 145 80 154 77 C175 70 203 62 235 62 C357 62 402 176 421 315 L421 315 Z M436 400 L439 424 C454 544 432 637 331 637 C225 637 186 541 186 459 C186 381 228 344 294 344 C349 344 404 368 436 400 L436 400 Z " />
<glyph glyph-name="colon" unicode="&#x3a;" horiz-adv-x="230" d="M175 51 C175 18 146 -10 114 -10 C87 -10 67 12 67 39 C67 71 96 98 129 98 C156 98 175 77 175 51 L175 51 Z M217 351 C217 318 188 290 156 290 C129 290 109 312 109 339 C109 371 138 398 171 398 C198 398 217 377 217 351 L217 351 Z " />
<glyph glyph-name="semicolon" unicode="&#x3b;" horiz-adv-x="230" d="M174 51 C174 -9 104 -119 75 -119 C66 -119 58 -116 58 -105 C58 -72 89 -56 108 -10 C83 -7 66 13 66 38 C66 71 96 98 128 98 C155 98 174 77 174 51 L174 51 Z M217 351 C217 318 188 290 156 290 C129 290 109 312 109 339 C109 371 138 398 171 398 C198 398 217 377 217 351 L217 351 Z " />
<glyph glyph-name="less" unicode="&#x3c;" horiz-adv-x="625" d="M553 172 C567 165 576 152 576 139 C576 112 544 84 519 98 L151 304 C133 315 117 323 117 346 C117 380 137 387 166 401 L591 605 C616 617 637 598 637 574 C637 556 623 541 604 532 L220 352 L553 172 L553 172 Z " />
<glyph glyph-name="equal" unicode="&#x3d;" horiz-adv-x="500" d="M131 303 L449 303 C469 303 488 286 488 264 C488 242 471 225 449 225 L131 225 C109 225 92 242 92 264 C92 286 111 303 131 303 L131 303 Z M131 483 L449 483 C469 483 488 466 488 444 C488 422 471 405 449 405 L131 405 C109 405 92 422 92 444 C92 466 111 483 131 483 L131 483 Z " />
<glyph glyph-name="greater" unicode="&#x3e;" horiz-adv-x="625" d="M504 352 L171 532 C157 539 148 552 148 566 C148 593 181 621 206 607 L572 402 C592 390 607 382 607 359 C607 325 586 317 559 304 L134 98 C109 86 87 107 87 131 C87 148 102 163 120 172 L504 352 L504 352 Z " />
<glyph glyph-name="question" unicode="&#x3f;" horiz-adv-x="462" d="M308 249 C301 238 299 223 297 210 C294 189 273 170 251 170 C231 170 216 187 216 206 C216 223 222 238 228 249 C259 310 310 350 355 396 C392 435 429 480 429 543 C429 605 394 652 322 652 C284 652 253 645 224 633 C197 622 178 605 160 605 C143 605 127 618 127 638 C127 656 138 668 159 680 C216 713 270 725 333 725 C448 725 509 652 509 559 C509 469 467 406 409 349 C374 314 331 287 308 249 L308 249 Z M288 51 C288 18 259 -10 227 -10 C200 -10 180 12 180 39 C180 71 209 98 242 98 C268 98 288 77 288 51 L288 51 Z " />
<glyph glyph-name="at" unicode="&#x40;" horiz-adv-x="744" d="M514 14 C477 -1 416 -13 360 -13 C196 -13 103 97 103 261 C103 474 235 635 459 635 C640 635 729 516 729 366 C729 257 692 158 581 158 C537 158 510 174 495 201 C452 162 415 148 377 148 C303 148 265 206 265 284 C265 395 329 478 441 478 C531 478 555 420 555 336 C555 267 559 230 591 230 C624 230 649 264 649 354 C649 474 584 563 450 563 C280 563 182 437 182 268 C182 144 249 59 384 59 C455 59 488 81 514 88 C533 93 556 92 559 66 C562 38 538 24 514 14 L514 14 Z M476 296 C476 371 471 406 427 406 C366 406 343 353 343 287 C343 244 359 218 394 218 C421 218 449 231 477 255 C476 266 476 283 476 296 L476 296 Z " />
<glyph glyph-name="A" unicode="A" horiz-adv-x="549" d="M108 20 C100 2 80 -10 66 -10 C45 -10 29 4 29 25 C29 32 32 42 34 45 L315 662 C329 692 346 715 375 715 C405 715 414 693 420 662 L528 45 C528 44 529 40 529 37 C529 8 507 -10 481 -10 C466 -10 449 2 446 20 L423 159 L170 159 L108 20 L108 20 Z M205 237 L411 237 L355 576 L205 237 L205 237 Z " />
<glyph glyph-name="B" unicode="B" horiz-adv-x="542" d="M210 405 L325 405 C395 405 480 448 480 539 C480 585 453 627 373 627 L241 627 L210 405 L210 405 Z M317 327 L199 327 L164 78 L286 78 C397 78 453 136 453 216 C453 288 397 327 317 327 L317 327 Z M286 0 L121 0 C94 0 76 22 80 48 L165 657 C169 684 194 705 220 705 L389 705 C506 705 560 629 560 545 C560 445 495 398 407 363 C465 344 534 316 534 223 C534 101 434 0 286 0 L286 0 Z " />
<glyph glyph-name="C" unicode="C" horiz-adv-x="482" d="M80 246 L110 460 C132 614 217 715 371 715 C458 715 536 678 536 633 C536 612 517 594 495 594 C481 594 475 600 461 611 C434 631 404 642 365 642 C252 642 206 572 190 460 L160 246 C144 134 171 64 284 64 C323 64 356 75 389 95 C407 106 413 112 427 112 C446 112 458 98 458 81 C458 32 363 -9 269 -9 C115 -9 58 92 80 246 L80 246 Z " />
<glyph glyph-name="D" unicode="D" horiz-adv-x="554" d="M545 264 C526 127 439 0 234 0 L121 0 C95 0 76 22 80 48 L165 658 C169 684 194 706 220 706 L333 706 C537 706 590 585 571 451 L545 264 L545 264 Z M465 264 L491 451 C505 550 469 628 339 628 L241 628 L164 78 L262 78 C394 78 451 161 465 264 L465 264 Z " />
<glyph glyph-name="E" unicode="E" horiz-adv-x="474" d="M448 45 C448 21 425 0 401 0 L136 0 C103 0 75 11 80 47 L166 658 C169 681 193 705 220 705 L491 705 C511 705 525 689 525 670 C525 645 503 627 480 627 L242 627 L209 393 L428 393 C446 393 462 378 462 358 C462 334 441 315 417 315 L198 315 L164 78 L412 78 C432 78 448 63 448 45 L448 45 Z " />
<glyph glyph-name="F" unicode="F" horiz-adv-x="474" d="M197 315 L157 30 C154 9 133 -10 111 -10 C89 -10 74 9 77 30 L165 658 C168 681 192 705 219 705 L490 705 C510 705 525 689 525 670 C525 645 503 627 479 627 L241 627 L208 393 L427 393 C445 393 461 378 461 358 C461 334 440 315 416 315 L197 315 L197 315 Z " />
<glyph glyph-name="G" unicode="G" horiz-adv-x="520" d="M190 460 L160 246 C144 134 171 64 284 64 C332 64 369 78 402 101 L432 316 L335 316 C317 316 302 331 302 350 C302 373 324 392 346 392 L465 392 C497 392 520 378 516 346 L482 107 C471 26 358 -9 269 -9 C115 -9 58 92 80 246 L110 460 C132 614 217 715 371 715 C458 715 536 678 536 633 C536 612 517 594 495 594 C481 594 475 600 461 611 C434 631 404 642 365 642 C252 642 206 572 190 460 L190 460 Z " />
<glyph glyph-name="H" unicode="H" horiz-adv-x="580" d="M510 31 C507 9 486 -10 464 -10 C443 -10 427 9 430 31 L470 314 L197 314 L157 31 C154 9 133 -10 111 -10 C89 -10 74 9 77 31 L168 675 C171 696 191 715 213 715 C235 715 251 696 248 675 L208 392 L481 392 L521 675 C524 696 545 715 566 715 C587 715 604 696 601 675 L510 31 L510 31 Z " />
<glyph glyph-name="I" unicode="I" horiz-adv-x="227" d="M77 30 L168 675 C171 696 191 715 213 715 C235 715 251 696 248 675 L157 30 C154 9 133 -10 111 -10 C89 -10 74 9 77 30 L77 30 Z " />
<glyph glyph-name="J" unicode="J" horiz-adv-x="385" d="M406 675 L343 225 C323 79 263 -10 108 -10 C81 -10 29 -7 29 30 C29 58 54 74 70 74 C81 74 99 67 130 67 C222 67 249 128 263 225 L326 675 C329 697 349 715 372 715 C393 715 409 696 406 675 L406 675 Z " />
<glyph glyph-name="K" unicode="K" horiz-adv-x="498" d="M421 9 L248 324 L190 263 L157 31 C154 9 133 -10 111 -10 C89 -10 74 9 77 31 L168 675 C171 696 191 715 213 715 C235 715 251 696 248 675 L207 384 L504 696 C512 706 528 715 542 715 C557 715 578 703 572 675 C570 664 565 657 559 650 L307 386 L493 52 C495 47 496 43 496 38 C496 21 486 -10 452 -10 C437 -10 428 -4 421 9 L421 9 Z " />
<glyph glyph-name="L" unicode="L" horiz-adv-x="448" d="M444 43 C444 19 423 0 400 0 L118 0 C94 0 76 20 79 45 L168 675 C171 696 192 715 214 715 C236 715 251 696 248 675 L164 77 L411 77 C429 77 444 62 444 43 L444 43 Z " />
<glyph glyph-name="M" unicode="M" horiz-adv-x="699" d="M722 673 L632 29 C629 8 608 -10 587 -10 C565 -10 549 8 552 29 L620 516 L411 172 C401 156 386 148 369 148 C353 148 339 156 334 172 L221 516 L153 29 C150 8 128 -10 105 -10 C84 -10 70 8 73 29 L163 673 C167 697 187 715 211 715 C231 715 244 706 251 689 L387 271 L641 690 C653 708 669 715 686 715 C710 715 725 696 722 673 L722 673 Z " />
<glyph glyph-name="N" unicode="N" horiz-adv-x="600" d="M480 -10 C464 -10 449 -1 443 13 L229 546 L157 31 C154 9 132 -10 110 -10 C88 -10 74 9 77 31 L167 671 C170 696 191 715 216 715 C233 715 249 706 255 691 L468 159 L540 674 C543 696 565 715 587 715 C609 715 623 696 620 674 L531 34 C527 10 506 -10 480 -10 L480 -10 Z " />
<glyph glyph-name="O" unicode="O" horiz-adv-x="551" d="M274 -10 C121 -10 60 104 80 246 L110 460 C130 599 211 715 376 715 C541 715 590 599 570 460 L540 246 C520 104 427 -10 274 -10 L274 -10 Z M365 637 C255 637 205 566 190 460 L160 246 C145 141 182 68 285 68 C388 68 445 141 460 246 L490 460 C505 566 475 637 365 637 L365 637 Z " />
<glyph glyph-name="P" unicode="P" horiz-adv-x="530" d="M304 260 L189 260 L157 32 C154 10 133 -10 111 -10 C90 -10 74 9 77 32 L165 657 C169 683 194 705 220 705 L367 705 C512 705 564 617 564 517 C564 355 458 260 304 260 L304 260 Z M241 627 L200 338 L315 338 C425 338 483 396 483 509 C483 570 456 627 356 627 L241 627 L241 627 Z " />
<glyph glyph-name="Q" unicode="Q" horiz-adv-x="551" d="M358 -177 C270 -177 228 -109 237 -7 C111 9 61 116 79 246 L109 460 C129 599 210 715 375 715 C540 715 589 599 569 460 L539 246 C521 117 443 12 316 -6 C308 -79 332 -105 381 -105 C391 -105 404 -104 410 -104 C431 -104 444 -116 444 -136 C444 -176 407 -177 358 -177 L358 -177 Z M364 637 C254 637 204 566 189 460 L159 246 C144 141 181 68 284 68 C387 68 444 141 459 246 L489 460 C504 566 474 637 364 637 L364 637 Z " />
<glyph glyph-name="R" unicode="R" horiz-adv-x="575" d="M584 535 C584 413 511 337 400 315 L523 52 C525 48 525 41 525 35 C525 9 493 -9 476 -9 C462 -9 451 -2 446 10 L311 310 L196 310 L157 32 C154 10 132 -10 110 -10 C89 -10 74 9 77 32 L165 657 C169 683 193 705 218 705 L392 705 C537 705 584 622 584 535 L584 535 Z M503 525 C503 576 477 627 377 627 L241 627 L207 387 L349 387 C448 387 503 436 503 525 L503 525 Z " />
<glyph glyph-name="S" unicode="S" horiz-adv-x="486" d="M389 210 C389 260 364 281 344 292 C262 338 113 343 113 492 C113 627 206 715 345 715 C393 715 507 704 507 651 C507 630 488 609 461 609 C430 609 408 637 340 637 C269 637 197 608 197 507 C197 455 224 436 243 425 C326 378 475 373 475 225 C475 79 363 -10 224 -10 C162 -10 50 9 50 60 C50 81 70 103 92 103 C120 103 158 68 236 68 C337 68 389 123 389 210 L389 210 Z " />
<glyph glyph-name="T" unicode="T" horiz-adv-x="483" d="M205 30 L289 627 L153 627 C132 627 118 643 118 662 C118 681 140 705 164 705 L516 705 C535 705 552 690 552 670 C552 647 529 627 505 627 L369 627 L285 30 C282 9 261 -10 239 -10 C217 -10 202 9 205 30 L205 30 Z " />
<glyph glyph-name="U" unicode="U" horiz-adv-x="572" d="M539 230 C520 91 424 -10 285 -10 C143 -10 78 92 97 230 L160 673 C163 697 184 715 207 715 C228 715 243 696 240 673 L177 230 C164 134 200 68 296 68 C392 68 445 136 458 230 L521 673 C524 695 544 715 566 715 C590 715 605 695 602 673 L539 230 L539 230 Z " />
<glyph glyph-name="V" unicode="V" horiz-adv-x="529" d="M191 685 L282 129 L529 685 C537 703 557 715 572 715 C594 715 609 701 609 680 C609 673 606 663 605 660 L323 43 C309 12 292 -10 262 -10 C233 -10 223 13 218 43 L109 660 L109 668 C109 697 132 715 157 715 C171 715 188 703 191 685 L191 685 Z " />
<glyph glyph-name="W" unicode="W" horiz-adv-x="776" d="M510 47 L465 550 L278 46 C268 20 250 -10 217 -10 C188 -10 174 16 171 46 L109 665 L109 668 C109 697 138 711 160 711 C176 711 190 702 192 682 L241 149 L428 657 C442 694 454 715 488 715 C520 715 528 692 531 657 L576 149 L776 682 C783 700 797 711 813 711 C832 711 856 701 856 679 C856 674 854 670 852 664 L616 46 C605 17 585 -10 555 -10 C525 -10 512 18 510 47 L510 47 Z " />
<glyph glyph-name="X" unicode="X" horiz-adv-x="500" d="M293 303 L94 19 C85 6 71 -10 52 -10 C33 -10 19 8 19 27 C19 37 24 47 28 53 L254 367 L128 654 C126 658 126 665 126 671 C126 694 147 715 168 715 C186 715 199 698 207 680 L311 431 L485 680 C496 695 513 715 533 715 C551 715 564 699 564 680 C564 671 561 661 556 654 L348 367 L486 53 C488 49 490 42 490 35 C490 13 467 -10 447 -10 C428 -10 418 5 412 19 L293 303 L293 303 Z " />
<glyph glyph-name="Y" unicode="Y" horiz-adv-x="476" d="M236 -10 C213 -10 198 9 201 32 L236 277 L111 655 C110 659 109 665 109 670 C109 694 134 715 156 715 C168 715 180 710 185 699 L290 370 L487 699 C494 710 508 715 520 715 C539 715 556 698 556 678 C556 670 552 661 549 655 L317 275 L283 32 C280 10 259 -10 236 -10 L236 -10 Z " />
<glyph glyph-name="Z" unicode="Z" horiz-adv-x="484" d="M460 45 C460 21 438 0 414 0 L71 0 C50 0 35 17 35 39 C35 51 45 68 50 76 L435 625 L158 625 C138 625 124 640 124 660 C124 683 145 705 169 705 L508 705 C531 705 546 689 546 667 C546 653 538 641 531 631 L144 80 L426 80 C445 80 460 65 460 45 L460 45 Z " />
<glyph glyph-name="bracketleft" unicode="&#x5b;" horiz-adv-x="294" d="M257 -78 C257 -111 226 -121 200 -121 L98 -121 C78 -121 63 -103 66 -83 L185 763 C189 791 214 801 242 801 L344 801 C361 801 376 786 376 768 C376 736 347 726 321 726 L259 726 L150 -46 L212 -46 C236 -46 257 -54 257 -78 L257 -78 Z " />
<glyph glyph-name="backslash" unicode="&#x5c;" horiz-adv-x="280" d="M75 707 C75 709 74 711 74 713 C74 734 90 753 110 757 C128 760 145 751 149 733 L304 9 C305 7 305 4 305 2 C305 -20 290 -39 269 -43 C251 -46 234 -36 230 -18 L75 707 L75 707 Z " />
<glyph glyph-name="bracketright" unicode="&#x5d;" horiz-adv-x="294" d="M204 -83 C201 -104 182 -121 161 -121 L59 -121 C36 -121 12 -113 12 -88 C12 -55 42 -46 69 -46 L131 -46 L239 726 L177 726 C155 726 131 733 131 759 C131 791 162 801 189 801 L291 801 C310 801 326 782 323 763 L204 -83 L204 -83 Z " />
<glyph glyph-name="asciicircum" unicode="&#x5e;" horiz-adv-x="326" d="M254 650 L130 520 C125 513 113 507 103 507 C85 507 75 518 77 534 C80 546 89 559 102 572 L232 708 C240 717 251 723 264 723 C277 723 285 717 291 708 L384 572 C393 559 398 546 397 534 C395 518 381 507 363 507 C353 507 343 513 340 520 L254 650 L254 650 Z " />
<glyph glyph-name="underscore" unicode="&#x5f;" horiz-adv-x="600" d="M45 -161 L635 -161 C655 -161 674 -178 674 -200 C674 -222 657 -239 635 -239 L45 -239 C23 -239 6 -222 6 -200 C6 -178 25 -161 45 -161 L45 -161 Z " />
<glyph glyph-name="grave" unicode="&#x60;" horiz-adv-x="197" d="M194 705 L260 624 C263 621 264 616 264 612 C264 590 244 574 225 574 C212 574 205 581 196 592 L127 678 C125 681 124 687 124 691 C124 712 145 728 160 728 C178 728 182 718 194 705 L194 705 Z " />
<glyph glyph-name="a" unicode="a" horiz-adv-x="482" d="M302 514 C423 514 462 442 444 312 L413 92 C410 72 415 62 427 62 C430 62 431 63 435 63 C452 63 460 49 460 34 C460 5 433 -5 410 -5 C379 -5 354 12 343 41 C293 11 249 -8 199 -8 C100 -8 55 69 71 181 L89 308 C106 427 169 514 302 514 L302 514 Z M337 105 L370 338 C380 410 356 442 287 442 C211 442 180 403 167 308 L149 181 C138 103 165 62 225 62 C266 62 305 81 337 105 L337 105 Z " />
<glyph glyph-name="b" unicode="b" horiz-adv-x="485" d="M208 396 L173 150 C165 96 201 64 266 64 C338 64 377 104 386 170 L413 358 C421 413 396 446 329 446 C279 446 240 427 208 396 L208 396 Z M95 150 L171 687 C174 707 190 725 215 725 C240 725 252 707 249 687 L219 473 C259 499 304 514 358 514 C472 514 503 446 491 358 L464 170 C450 70 378 -8 256 -8 C140 -8 83 62 95 150 L95 150 Z " />
<glyph glyph-name="c" unicode="c" horiz-adv-x="393" d="M70 176 L91 327 C105 430 171 511 296 511 C341 511 426 498 426 454 C426 434 408 416 387 416 C382 416 377 416 372 419 C349 430 329 442 294 442 C216 442 179 400 169 327 L147 176 C137 103 162 61 240 61 C275 61 299 73 325 84 C331 87 336 87 341 87 C358 87 371 73 371 57 C371 7 271 -8 223 -8 C98 -8 55 73 70 176 L70 176 Z " />
<glyph glyph-name="d" unicode="d" horiz-adv-x="488" d="M284 510 C317 510 358 503 392 491 L420 687 C423 708 439 725 464 725 C489 725 501 708 498 687 L417 114 C413 86 417 69 435 54 C437 49 439 44 439 38 C439 15 418 -1 399 -1 C376 -1 360 12 351 31 C304 9 253 -8 203 -8 C98 -8 55 69 71 181 L89 308 C106 427 157 510 284 510 L284 510 Z M339 114 L382 421 C351 435 308 442 284 442 C211 442 180 401 167 308 L149 181 C138 103 163 62 229 62 C261 62 302 73 338 91 C337 99 338 107 339 114 L339 114 Z " />
<glyph glyph-name="e" unicode="e" horiz-adv-x="435" d="M241 61 C283 61 312 73 349 89 C351 90 356 92 363 92 C381 92 393 77 393 61 C393 9 278 -8 222 -8 C109 -8 54 64 67 158 L94 345 C108 441 181 514 300 514 C398 514 446 461 446 378 C446 273 390 203 254 203 C224 203 187 206 153 212 L145 153 C137 97 169 61 241 61 L241 61 Z M368 369 C368 421 339 443 288 443 C223 443 180 408 172 352 L161 276 C198 271 246 269 266 269 C342 269 368 310 368 369 L368 369 Z " />
<glyph glyph-name="f" unicode="f" horiz-adv-x="329" d="M149 537 C167 664 250 721 351 725 C366 726 436 726 436 684 C436 659 414 643 392 643 C375 643 360 650 332 650 C273 650 236 602 228 545 L219 483 L324 483 C342 483 355 469 355 451 C355 427 335 409 313 409 L209 409 L127 -177 C124 -198 108 -215 83 -215 C58 -215 46 -198 49 -177 L149 537 L149 537 Z " />
<glyph glyph-name="g" unicode="g" horiz-adv-x="485" d="M348 107 L383 353 C391 409 355 442 290 442 C218 442 179 401 170 333 L148 175 C138 104 159 61 230 61 C271 61 314 75 348 107 L348 107 Z M461 353 L405 -40 C391 -143 326 -224 201 -224 C155 -224 70 -211 70 -167 C70 -147 88 -129 109 -129 C114 -129 119 -130 124 -132 C147 -144 167 -155 202 -155 C280 -155 317 -113 327 -40 L337 30 C298 7 255 -7 204 -7 C83 -7 55 71 70 175 L92 333 C106 435 178 514 300 514 C416 514 474 443 461 353 L461 353 Z " />
<glyph glyph-name="h" unicode="h" horiz-adv-x="507" d="M367 94 L403 347 C411 408 391 441 329 441 C288 441 239 423 205 384 L155 31 C152 9 134 -8 112 -8 C90 -8 75 9 78 31 L171 692 C174 712 192 731 214 731 C236 731 251 714 248 692 L217 472 C255 498 300 514 348 514 C455 514 495 445 481 348 L445 94 C442 72 442 59 452 47 C454 44 457 38 457 31 C457 10 438 -8 416 -8 C391 -8 354 4 367 94 L367 94 Z " />
<glyph glyph-name="i" unicode="i" horiz-adv-x="245" d="M265 674 C265 645 239 620 210 620 C185 620 168 639 168 663 C168 692 194 716 223 716 C248 716 265 698 265 674 L265 674 Z M97 94 L150 472 C153 493 172 511 194 511 C216 511 231 493 228 472 L175 94 C172 72 172 59 182 47 C184 44 187 38 187 31 C187 10 167 -8 145 -8 C120 -8 84 4 97 94 L97 94 Z " />
<glyph glyph-name="j" unicode="j" horiz-adv-x="245" d="M227 472 L159 -15 C144 -120 84 -189 -8 -202 C-16 -203 -21 -203 -27 -203 C-43 -203 -55 -193 -57 -177 C-60 -150 -36 -137 -21 -134 C35 -122 70 -92 80 -19 L149 472 C152 493 172 511 194 511 C216 511 230 493 227 472 L227 472 Z M264 674 C264 645 239 620 209 620 C185 620 167 639 167 663 C167 692 193 716 223 716 C247 716 264 698 264 674 L264 674 Z " />
<glyph glyph-name="k" unicode="k" horiz-adv-x="439" d="M248 686 L196 313 L403 501 C409 507 419 510 428 510 C448 510 461 496 461 478 C461 468 457 457 447 448 L278 298 L412 48 C415 42 416 32 415 25 C411 5 394 -8 374 -8 C361 -8 351 -2 344 11 L223 247 L181 210 L156 31 C153 9 134 -8 112 -8 C90 -8 75 9 78 31 L170 686 C173 708 193 725 215 725 C237 725 251 708 248 686 L248 686 Z " />
<glyph glyph-name="l" unicode="l" horiz-adv-x="228" d="M88 94 L171 686 C174 707 193 725 215 725 C237 725 252 708 249 686 L166 94 C163 72 163 59 173 47 C175 44 178 38 178 31 C178 10 158 -8 136 -8 C111 -8 75 4 88 94 L88 94 Z " />
<glyph glyph-name="m" unicode="m" horiz-adv-x="778" d="M638 94 L673 342 C681 398 657 442 596 442 C553 442 506 419 478 389 C479 375 479 360 477 344 L433 31 C430 10 415 -7 389 -7 C363 -7 352 10 355 31 L396 321 C406 392 401 442 330 442 C286 442 239 423 208 402 C208 390 208 380 207 371 L159 31 C156 10 141 -7 115 -7 C89 -7 78 10 81 31 L129 371 C137 426 128 426 121 441 C120 444 116 450 116 458 C116 479 135 496 158 496 C175 496 187 485 195 469 C242 497 295 514 347 514 C402 514 435 496 456 463 C502 495 552 514 608 514 C716 514 765 445 751 344 L716 94 C713 72 713 59 723 47 C725 44 728 38 728 31 C728 10 708 -8 686 -8 C661 -8 625 4 638 94 L638 94 Z " />
<glyph glyph-name="n" unicode="n" horiz-adv-x="509" d="M368 94 L400 323 C411 399 385 442 325 442 C286 442 245 426 208 400 C208 389 208 379 207 371 L159 31 C156 10 141 -7 115 -7 C89 -7 78 10 81 31 L129 371 C137 426 128 426 121 441 C120 444 116 450 116 458 C116 479 135 496 158 496 C176 496 188 484 196 467 C245 498 298 512 346 512 C452 512 494 436 478 323 L446 94 C443 72 443 59 453 47 C455 44 458 38 458 31 C458 10 438 -8 416 -8 C391 -8 355 4 368 94 L368 94 Z " />
<glyph glyph-name="o" unicode="o" horiz-adv-x="464" d="M231 -8 C109 -8 55 70 69 170 L93 337 C107 437 183 515 305 515 C427 515 481 437 467 337 L443 170 C429 70 353 -8 231 -8 L231 -8 Z M241 64 C313 64 356 104 365 170 L389 338 C398 403 366 443 294 443 C222 443 180 403 171 338 L147 170 C138 104 169 64 241 64 L241 64 Z " />
<glyph glyph-name="p" unicode="p" horiz-adv-x="478" d="M265 -7 C231 -7 191 0 157 12 L130 -177 C127 -198 111 -215 86 -215 C61 -215 49 -198 52 -177 L129 369 C134 402 132 421 123 439 C120 444 118 449 118 455 C118 478 140 494 158 494 C174 494 186 484 194 470 C242 494 294 514 346 514 C451 514 495 437 479 325 L460 195 C443 76 392 -7 265 -7 L265 -7 Z M207 369 L167 82 C196 67 239 61 264 61 C337 61 369 102 382 195 L401 325 C412 403 386 444 320 444 C286 444 244 431 207 410 C208 395 209 381 207 369 L207 369 Z " />
<glyph glyph-name="q" unicode="q" horiz-adv-x="485" d="M348 107 L383 353 C391 409 355 442 290 442 C218 442 179 401 170 333 L148 175 C138 104 159 61 230 61 C271 61 314 75 348 107 L348 107 Z M461 353 L386 -177 C383 -198 368 -215 342 -215 C316 -215 305 -198 308 -177 L337 30 C298 7 255 -7 204 -7 C83 -7 55 71 70 175 L92 333 C106 435 178 514 300 514 C416 514 474 443 461 353 L461 353 Z " />
<glyph glyph-name="r" unicode="r" horiz-adv-x="337" d="M207 369 L159 31 C156 9 137 -8 115 -8 C93 -8 78 9 81 31 L129 369 C133 402 131 421 122 439 C119 444 118 449 118 455 C118 478 138 494 159 494 C175 494 188 483 195 467 C242 494 300 510 338 510 C374 510 386 496 386 478 C386 450 363 431 340 432 C299 433 264 433 208 396 C208 386 208 377 207 369 L207 369 Z " />
<glyph glyph-name="s" unicode="s" horiz-adv-x="406" d="M103 350 C103 445 169 514 287 514 C337 514 413 501 413 462 C413 441 394 422 371 422 C364 422 360 424 354 427 C334 437 317 445 281 445 C212 445 181 416 181 365 C181 341 193 325 220 311 C280 279 383 269 383 159 C383 59 317 -8 193 -8 C144 -8 54 3 54 46 C54 64 70 86 96 86 C102 86 103 85 106 84 C133 73 163 61 203 61 C264 61 306 87 306 146 C306 174 293 188 277 197 C223 229 103 237 103 350 L103 350 Z " />
<glyph glyph-name="t" unicode="t" horiz-adv-x="321" d="M102 203 L161 621 C164 642 180 659 205 659 C230 659 242 642 239 621 L220 483 L324 483 C342 483 355 469 355 451 C355 427 335 409 313 409 L209 409 L181 210 C167 107 172 69 244 69 C250 69 257 70 263 70 C284 70 310 66 310 39 C310 1 278 -4 247 -4 C107 -4 83 65 102 203 L102 203 Z " />
<glyph glyph-name="u" unicode="u" horiz-adv-x="509" d="M370 123 L419 473 C422 494 437 511 463 511 C489 511 500 494 497 473 L448 123 C440 68 450 68 456 53 C457 50 460 43 460 36 C460 16 441 -2 418 -2 C399 -2 388 10 379 28 C332 3 279 -8 232 -8 C126 -8 84 68 100 181 L141 473 C144 494 160 511 185 511 C210 511 222 494 219 473 L178 181 C167 105 193 62 253 62 C292 62 332 74 368 95 C368 105 369 115 370 123 L370 123 Z " />
<glyph glyph-name="v" unicode="v" horiz-adv-x="430" d="M469 462 L274 39 C258 6 242 -8 216 -8 C189 -8 178 6 172 38 L93 465 C88 489 114 511 137 511 C152 511 165 502 168 485 L232 108 L401 485 C408 500 424 511 439 511 C463 511 480 488 469 462 L469 462 Z " />
<glyph glyph-name="w" unicode="w" horiz-adv-x="655" d="M694 465 L519 37 C506 7 492 -8 463 -8 C442 -8 424 4 421 26 L381 377 L242 26 C232 2 216 -8 191 -8 C164 -8 151 9 147 37 L91 468 L91 471 C91 491 111 511 135 511 C151 511 165 501 167 483 L210 115 C258 236 304 354 351 476 C359 496 376 511 400 511 C423 511 436 496 438 476 C450 354 465 236 479 115 L624 483 C630 499 646 511 663 511 C682 511 696 496 696 477 C696 471 695 467 694 465 L694 465 Z " />
<glyph glyph-name="x" unicode="x" horiz-adv-x="431" d="M297 258 L408 50 C410 46 411 41 411 37 C411 14 391 -8 365 -8 C347 -8 340 0 331 19 L242 193 L99 12 C88 -2 77 -8 64 -8 C44 -8 29 6 29 26 C29 37 32 42 37 48 L206 256 L103 454 C101 458 99 464 99 468 C99 489 120 511 144 511 C166 511 175 492 183 477 L262 322 L390 485 C402 501 413 511 431 511 C448 511 464 497 464 478 C464 468 461 461 456 455 L297 258 L297 258 Z " />
<glyph glyph-name="y" unicode="y" horiz-adv-x="509" d="M377 107 L428 473 C431 494 447 511 473 511 C499 511 509 494 506 473 L434 -40 C420 -143 355 -224 230 -224 C184 -224 99 -211 99 -167 C99 -147 117 -129 138 -129 C143 -129 148 -130 153 -132 C176 -144 196 -155 231 -155 C309 -155 346 -113 356 -40 L366 30 C327 7 284 -7 233 -7 C112 -7 84 71 99 175 L140 473 C143 494 160 511 185 511 C210 511 221 494 218 473 L177 175 C167 104 188 61 259 61 C300 61 343 75 377 107 L377 107 Z " />
<glyph glyph-name="z" unicode="z" horiz-adv-x="384" d="M432 470 C432 459 428 448 419 437 L121 72 L342 72 C361 72 374 58 374 40 C374 18 354 0 332 0 L55 0 C35 0 20 16 20 37 C20 46 23 57 31 67 L330 433 L121 433 C103 433 90 447 90 465 C90 488 110 505 132 505 L397 505 C417 505 432 492 432 470 L432 470 Z " />
<glyph glyph-name="braceleft" unicode="&#x7b;" horiz-adv-x="417" d="M98 205 C78 205 64 215 64 236 C64 263 83 277 109 277 C160 277 187 305 200 367 C213 428 225 497 237 552 C253 628 323 675 411 675 C437 675 465 671 465 639 C465 596 435 600 418 602 C410 603 399 604 392 604 C357 604 319 581 311 540 L280 373 C268 311 238 264 189 241 C231 218 249 171 243 109 L227 -58 C223 -99 254 -122 288 -122 C295 -122 309 -121 317 -120 C332 -118 355 -115 355 -143 C355 -187 320 -193 289 -193 C201 -193 144 -146 150 -70 L165 115 C170 177 149 205 98 205 L98 205 Z " />
<glyph glyph-name="bar" unicode="&#x7c;" horiz-adv-x="227" d="M49 -204 L179 723 C182 742 200 759 220 759 C240 759 254 742 251 723 L121 -204 C118 -223 100 -240 80 -240 C60 -240 46 -223 49 -204 L49 -204 Z " />
<glyph glyph-name="braceright" unicode="&#x7d;" horiz-adv-x="417" d="M376 205 C325 205 296 177 284 115 L247 -70 C232 -146 161 -193 73 -193 C47 -193 19 -189 19 -157 C19 -114 49 -118 66 -120 C74 -121 87 -122 94 -122 C128 -122 164 -99 172 -58 L204 109 C216 171 245 218 294 241 C252 264 235 311 241 373 L257 540 C261 581 230 604 195 604 C188 604 175 603 167 602 C152 600 129 597 129 625 C129 669 164 675 195 675 C279 675 335 631 335 560 C335 551 319 362 319 353 C319 301 339 277 386 277 C406 277 420 267 420 246 C420 219 402 205 376 205 L376 205 Z " />
<glyph glyph-name="asciitilde" unicode="&#x7e;" horiz-adv-x="454" d="M443 357 C443 312 379 282 334 279 C283 279 254 314 219 318 C175 318 164 285 137 285 C119 285 106 298 106 318 C112 362 164 396 216 396 C266 396 292 361 330 357 C375 357 383 387 412 391 C430 391 443 376 443 357 L443 357 Z " />
<glyph glyph-name="exclamdown" unicode="&#xa1;" horiz-adv-x="227" d="M124 298 C127 315 142 330 159 330 C175 330 187 315 185 298 L128 -175 C125 -196 104 -215 82 -215 C60 -215 45 -196 48 -175 L124 298 L124 298 Z M232 461 C232 429 202 402 171 402 C144 402 124 423 124 449 C124 482 153 510 186 510 C212 510 232 488 232 461 L232 461 Z " />
<glyph glyph-name="cent" unicode="&#xa2;" horiz-adv-x="500" d="M220 -28 L227 23 C122 34 86 110 100 206 L115 307 C129 402 185 478 292 489 L298 533 C300 547 313 559 328 559 C343 559 352 547 350 533 L344 490 C390 486 450 470 450 434 C450 414 432 396 411 396 C406 396 401 397 396 399 C377 409 359 418 335 421 L288 91 C314 94 334 104 356 114 C362 116 367 117 372 117 C389 117 402 103 402 87 C402 44 329 27 279 23 L272 -28 C270 -42 256 -54 242 -54 C228 -54 218 -42 220 -28 L220 -28 Z M179 206 C170 145 185 106 237 94 L282 418 C228 407 202 368 193 307 L179 206 L179 206 Z " />
<glyph glyph-name="yen" unicode="&#xa5;" horiz-adv-x="476" d="M131 369 L205 369 L111 655 C110 659 109 665 109 670 C109 694 134 715 156 715 C168 715 181 710 185 699 L290 370 L487 699 C495 710 508 715 520 715 C540 715 556 698 556 678 C556 670 552 661 549 655 L374 369 L449 369 C467 369 483 355 483 336 C483 313 462 295 438 295 L329 295 L318 275 L313 239 L431 239 C449 239 465 225 465 206 C465 183 444 165 420 165 L302 165 L283 32 C280 10 260 -10 237 -10 C214 -10 198 9 201 32 L220 165 L102 165 C82 165 68 179 68 198 C68 221 91 239 113 239 L231 239 L236 277 L229 295 L120 295 C100 295 86 309 86 328 C86 351 109 369 131 369 L131 369 Z " />
<glyph glyph-name="dieresis" unicode="&#xa8;" horiz-adv-x="403" d="M425 644 C425 615 399 590 371 590 C347 590 329 610 329 634 C329 661 356 686 384 686 C408 686 425 668 425 644 L425 644 Z M256 644 C256 615 230 590 201 590 C177 590 161 610 161 633 C161 661 186 686 214 686 C239 686 256 668 256 644 L256 644 Z " />
<glyph glyph-name="copyright" unicode="&#xa9;" horiz-adv-x="740" d="M724 365 C724 152 592 -9 368 -9 C193 -9 103 102 103 261 C103 474 235 635 459 635 C634 635 724 524 724 365 L724 365 Z M663 355 C663 485 591 575 450 575 C270 575 164 444 164 271 C164 141 236 51 377 51 C557 51 663 182 663 355 L663 355 Z M275 283 L284 344 C296 426 348 491 448 491 C485 491 552 481 552 445 C552 430 537 415 521 415 C517 415 512 416 508 418 C490 428 475 436 447 436 C384 436 354 402 346 344 L337 283 C328 224 349 191 412 191 C440 191 459 200 479 209 C484 211 488 212 492 212 C506 212 516 201 516 187 C516 148 437 136 398 136 C298 136 264 200 275 283 L275 283 Z " />
<glyph glyph-name="guillemotleft" unicode="&#xab;" horiz-adv-x="431" d="M168 258 L279 50 C281 46 282 41 282 37 C282 14 262 -8 236 -8 C218 -8 211 0 201 19 L77 256 L261 485 C274 501 284 511 302 511 C319 511 335 497 335 478 C335 468 332 461 327 455 L168 258 L168 258 Z M328 256 L401 114 C403 110 404 105 404 100 C404 76 379 58 360 58 C342 58 335 68 327 84 L237 256 L375 428 C388 444 398 454 416 454 C432 454 449 440 449 421 C449 411 446 404 441 398 L328 256 L328 256 Z " />
<glyph glyph-name="registered" unicode="&#xae;" horiz-adv-x="700" d="M699 472 C699 277 578 131 368 131 C203 131 119 232 119 377 C119 573 241 725 451 725 C616 725 699 621 699 472 L699 472 Z M639 463 C639 582 573 665 443 665 C276 665 180 543 180 386 C180 271 246 191 376 191 C542 191 639 307 639 463 L639 463 Z M530 500 C530 450 504 416 465 399 L515 302 C516 298 517 296 517 293 C517 279 494 271 482 271 C471 271 461 275 457 281 L403 389 L356 389 L343 296 C341 283 325 271 309 271 C294 271 281 282 283 296 L319 551 C321 569 340 585 357 585 L434 585 C505 585 530 543 530 500 L530 500 Z M469 492 C469 509 460 526 424 526 L376 526 L364 447 L415 447 C451 447 469 464 469 492 L469 492 Z " />
<glyph glyph-name="macron" unicode="&#xaf;" horiz-adv-x="403" d="M452 641 C452 619 432 601 410 601 L161 601 C142 601 129 615 129 633 C129 655 149 674 172 674 L421 674 C439 674 452 659 452 641 L452 641 Z " />
<glyph glyph-name="degree" unicode="&#xb0;" horiz-adv-x="392" d="M257 436 C176 436 134 489 134 556 C134 642 194 716 296 716 C379 716 419 664 419 596 C419 510 360 436 257 436 L257 436 Z M266 498 C325 498 351 535 351 592 C351 631 331 654 288 654 C229 654 202 618 202 561 C202 520 223 498 266 498 L266 498 Z " />
<glyph glyph-name="plusminus" unicode="&#xb1;" horiz-adv-x="500" d="M251 175 L251 345 L91 345 C69 345 52 362 52 384 C52 406 71 423 91 423 L251 423 L251 593 C251 613 268 632 290 632 C312 632 329 615 329 593 L329 423 L489 423 C509 423 528 406 528 384 C528 362 511 345 489 345 L329 345 L329 175 C329 153 312 136 290 136 C268 136 251 155 251 175 L251 175 Z M91 78 L489 78 C509 78 528 61 528 39 C528 17 511 0 489 0 L91 0 C69 0 52 17 52 39 C52 61 71 78 91 78 L91 78 Z " />
<glyph glyph-name="twosuperior" unicode="&#xb2;" horiz-adv-x="250" d="M285 414 C285 399 272 390 260 390 L98 390 C83 390 74 398 74 410 C74 414 76 423 82 434 C108 479 149 514 186 546 C198 557 224 580 235 592 C252 606 270 629 270 659 C270 688 254 708 222 708 C207 708 191 704 176 699 L163 693 C157 690 149 686 143 686 C132 686 120 694 120 705 C120 716 124 720 129 724 C166 746 198 754 228 754 C288 754 318 716 318 668 C318 622 297 588 270 560 C259 549 246 538 233 527 L222 517 C190 491 159 464 139 436 L266 436 C276 436 285 426 285 414 L285 414 Z " />
<glyph glyph-name="threesuperior" unicode="&#xb3;" horiz-adv-x="250" d="M308 699 L216 599 C262 595 295 563 295 513 C295 460 256 385 174 385 C155 385 79 390 79 422 C79 436 92 449 107 449 C109 449 114 447 121 443 C132 436 146 429 171 429 C229 429 247 475 247 508 C247 544 223 558 192 558 C186 558 179 557 175 555 L171 553 C170 552 167 552 163 552 C146 552 138 573 151 588 L248 696 L149 696 C136 696 126 704 126 715 C126 731 140 745 156 745 L293 745 C306 745 314 736 314 721 C314 709 311 702 308 699 L308 699 Z " />
<glyph glyph-name="acute" unicode="&#xb4;" horiz-adv-x="276" d="M170 624 L259 705 C274 718 281 728 299 728 C312 728 326 716 326 699 C326 694 325 684 318 678 L225 592 C212 580 203 574 190 574 C174 574 162 586 162 604 C162 614 165 619 170 624 L170 624 Z " />
<glyph glyph-name="periodcentered" unicode="&#xb7;" horiz-adv-x="255" d="M217 280 C217 247 188 220 155 220 C129 220 109 241 109 268 C109 300 139 327 170 327 C197 327 217 306 217 280 L217 280 Z " />
<glyph glyph-name="cedilla" unicode="&#xb8;" horiz-adv-x="300" d="M229 -114 C229 -171 176 -225 77 -211 C47 -207 20 -187 35 -164 C46 -147 61 -156 89 -162 C138 -172 164 -140 164 -117 C164 -96 144 -87 108 -85 C77 -83 68 -77 76 -53 L99 20 L148 20 L130 -40 C202 -41 229 -70 229 -114 L229 -114 Z " />
<glyph glyph-name="onesuperior" unicode="&#xb9;" horiz-adv-x="250" d="M184 407 L224 685 L166 649 C158 644 150 640 142 640 C130 640 121 649 121 659 C121 669 127 676 137 683 L243 744 C249 748 254 749 258 749 C272 749 281 738 279 722 L234 407 C233 396 220 385 207 385 C192 385 183 396 184 407 L184 407 Z " />
<glyph glyph-name="ordmasculine" unicode="&#xba;" horiz-adv-x="384" d="M240 346 C146 346 108 408 119 490 L130 570 C141 652 198 715 292 715 C386 715 425 652 414 570 L403 490 C392 408 334 346 240 346 L240 346 Z M283 652 C228 652 204 620 196 566 L185 488 C178 438 197 408 249 408 C301 408 328 438 335 488 L346 566 C354 620 338 652 283 652 L283 652 Z " />
<glyph glyph-name="guillemotright" unicode="&#xbb;" horiz-adv-x="431" d="M166 50 L335 258 L232 455 C230 459 229 464 229 469 C229 493 254 511 273 511 C291 511 298 501 306 485 L426 256 L235 19 C220 0 211 -8 193 -8 C171 -8 158 8 158 28 C158 38 161 44 166 50 L166 50 Z M62 114 L175 256 L102 398 C100 402 99 407 99 412 C99 436 124 454 143 454 C161 454 168 444 176 428 L266 256 L128 84 C115 68 105 58 87 58 C70 58 54 72 54 91 C54 101 57 108 62 114 L62 114 Z " />
<glyph glyph-name="questiondown" unicode="&#xbf;" horiz-adv-x="462" d="M231 251 C238 262 241 277 243 290 C246 311 266 330 288 330 C309 330 323 313 323 294 C323 277 318 262 312 251 C281 190 229 150 184 104 C147 65 110 20 110 -43 C110 -105 145 -152 218 -152 C256 -152 286 -145 315 -133 C342 -122 361 -105 379 -105 C397 -105 412 -118 412 -138 C412 -156 402 -168 381 -180 C324 -213 269 -225 206 -225 C91 -225 30 -152 30 -59 C30 31 72 94 130 151 C165 186 208 213 231 251 L231 251 Z M251 449 C251 482 281 510 313 510 C340 510 359 488 359 461 C359 429 330 402 297 402 C270 402 251 423 251 449 L251 449 Z " />
<glyph glyph-name="Agrave" unicode="&#xc0;" horiz-adv-x="549" d="M108 20 C100 2 80 -10 66 -10 C45 -10 29 4 29 25 C29 32 32 42 34 45 L315 662 C329 692 346 715 375 715 C405 715 414 693 420 662 L528 45 C528 44 529 40 529 37 C529 8 507 -10 481 -10 C466 -10 449 2 446 20 L423 159 L170 159 L108 20 L108 20 Z M205 237 L411 237 L355 576 L205 237 L205 237 Z M354 905 L420 824 C423 821 424 816 424 812 C424 790 404 774 385 774 C372 774 365 781 356 792 L287 878 C285 881 284 887 284 891 C284 912 305 928 320 928 C338 928 342 918 354 905 L354 905 Z " />
<glyph glyph-name="Aacute" unicode="&#xc1;" horiz-adv-x="549" d="M108 20 C100 2 80 -10 66 -10 C45 -10 29 4 29 25 C29 32 32 42 34 45 L315 662 C329 692 346 715 375 715 C405 715 414 693 420 662 L528 45 C528 44 529 40 529 37 C529 8 507 -10 481 -10 C466 -10 449 2 446 20 L423 159 L170 159 L108 20 L108 20 Z M205 237 L411 237 L355 576 L205 237 L205 237 Z M363 824 L452 905 C467 918 474 928 492 928 C505 928 519 916 519 899 C519 894 518 884 511 878 L418 792 C405 780 396 774 383 774 C367 774 355 786 355 804 C355 814 358 819 363 824 L363 824 Z " />
<glyph glyph-name="Acircumflex" unicode="&#xc2;" horiz-adv-x="549" d="M108 20 C100 2 80 -10 66 -10 C45 -10 29 4 29 25 C29 32 32 42 34 45 L315 662 C329 692 346 715 375 715 C405 715 414 693 420 662 L528 45 C528 44 529 40 529 37 C529 8 507 -10 481 -10 C466 -10 449 2 446 20 L423 159 L170 159 L108 20 L108 20 Z M205 237 L411 237 L355 576 L205 237 L205 237 Z M392 836 L309 775 C305 772 295 769 289 769 C277 769 267 781 267 792 C267 805 277 815 290 825 L378 892 C384 896 392 900 401 900 C410 900 417 896 422 892 L491 825 C499 817 505 807 505 798 C505 784 491 769 476 769 C471 769 461 772 458 775 L392 836 L392 836 Z " />
<glyph glyph-name="Atilde" unicode="&#xc3;" horiz-adv-x="549" d="M108 20 C100 2 80 -10 66 -10 C45 -10 29 4 29 25 C29 32 32 42 34 45 L315 662 C329 692 346 715 375 715 C405 715 414 693 420 662 L528 45 C528 44 529 40 529 37 C529 8 507 -10 481 -10 C466 -10 449 2 446 20 L423 159 L170 159 L108 20 L108 20 Z M205 237 L411 237 L355 576 L205 237 L205 237 Z M532 854 C532 817 479 791 441 789 C398 789 375 818 345 821 C308 821 299 794 277 794 C262 794 251 805 251 821 C256 858 299 886 342 886 C384 886 406 857 438 854 C476 854 481 879 506 882 C520 882 532 870 532 854 L532 854 Z " />
<glyph glyph-name="Adieresis" unicode="&#xc4;" horiz-adv-x="549" d="M108 20 C100 2 80 -10 66 -10 C45 -10 29 4 29 25 C29 32 32 42 34 45 L315 662 C329 692 346 715 375 715 C405 715 414 693 420 662 L528 45 C528 44 529 40 529 37 C529 8 507 -10 481 -10 C466 -10 449 2 446 20 L423 159 L170 159 L108 20 L108 20 Z M205 237 L411 237 L355 576 L205 237 L205 237 Z M524 844 C524 815 498 790 470 790 C446 790 428 810 428 834 C428 861 455 886 483 886 C507 886 524 868 524 844 L524 844 Z M355 844 C355 815 329 790 300 790 C276 790 260 810 260 833 C260 861 285 886 313 886 C338 886 355 868 355 844 L355 844 Z " />
<glyph glyph-name="Aring" unicode="&#xc5;" horiz-adv-x="549" d="M488 738 C488 693 461 656 426 633 L529 45 L529 37 C529 8 507 -10 481 -10 C466 -10 449 2 446 20 L423 159 L170 159 L108 20 C100 2 80 -10 66 -10 C45 -10 29 4 29 25 C29 32 32 41 34 45 L303 633 C279 650 265 679 265 712 C265 778 325 835 393 835 C448 835 488 792 488 738 L488 738 Z M355 576 L205 237 L411 237 L355 576 L355 576 Z M438 732 C438 762 416 786 386 786 C350 786 317 754 317 718 C317 689 339 665 369 665 C405 665 438 695 438 732 L438 732 Z " />
<glyph glyph-name="AE" unicode="&#xc6;" horiz-adv-x="722" d="M414 0 C381 0 353 11 358 47 L374 159 L169 159 L108 20 C100 2 80 -10 66 -10 C44 -10 29 4 29 25 C29 32 32 41 34 45 L312 652 C326 682 343 705 371 705 L738 705 C758 705 773 689 773 670 C773 645 751 627 727 627 L519 627 L486 393 L675 393 C694 393 709 378 709 358 C709 334 689 315 665 315 L476 315 L442 78 L660 78 C680 78 695 63 695 45 C695 21 673 0 649 0 L414 0 L414 0 Z M439 627 L389 627 C380 627 376 624 375 617 L205 237 L385 237 L439 627 L439 627 Z " />
<glyph glyph-name="Ccedilla" unicode="&#xc7;" horiz-adv-x="482" d="M350 -114 C350 -171 297 -225 198 -211 C168 -207 141 -187 156 -164 C167 -147 182 -156 210 -162 C259 -172 285 -140 285 -117 C285 -96 265 -87 229 -85 C198 -83 189 -77 197 -53 L213 -4 C101 18 61 112 80 246 L110 460 C132 614 217 715 371 715 C458 715 536 678 536 633 C536 612 518 594 495 594 C481 594 475 600 461 611 C434 631 404 642 365 642 C252 642 206 572 190 460 L160 246 C144 134 171 64 284 64 C323 64 356 74 389 95 C407 105 413 112 427 112 C446 112 458 98 458 81 C458 32 363 -9 269 -9 L260 -9 L251 -40 C323 -41 350 -70 350 -114 L350 -114 Z " />
<glyph glyph-name="Egrave" unicode="&#xc8;" horiz-adv-x="474" d="M448 45 C448 21 425 0 401 0 L136 0 C103 0 75 11 80 47 L166 658 C169 681 193 705 220 705 L491 705 C511 705 525 689 525 670 C525 645 503 627 480 627 L242 627 L209 393 L428 393 C446 393 462 378 462 358 C462 334 441 315 417 315 L198 315 L164 78 L412 78 C432 78 448 63 448 45 L448 45 Z M356 905 L422 824 C425 821 426 816 426 812 C426 790 406 774 387 774 C374 774 367 781 358 792 L289 878 C287 881 286 887 286 891 C286 912 307 928 322 928 C340 928 344 918 356 905 L356 905 Z " />
<glyph glyph-name="Eacute" unicode="&#xc9;" horiz-adv-x="474" d="M448 45 C448 21 425 0 401 0 L136 0 C103 0 75 11 80 47 L166 658 C169 681 193 705 220 705 L491 705 C511 705 525 689 525 670 C525 645 503 627 480 627 L242 627 L209 393 L428 393 C446 393 462 378 462 358 C462 334 441 315 417 315 L198 315 L164 78 L412 78 C432 78 448 63 448 45 L448 45 Z M323 824 L412 905 C427 918 434 928 452 928 C465 928 479 916 479 899 C479 894 478 884 471 878 L378 792 C365 780 356 774 343 774 C327 774 315 786 315 804 C315 814 318 819 323 824 L323 824 Z " />
<glyph glyph-name="Ecircumflex" unicode="&#xca;" horiz-adv-x="474" d="M448 45 C448 21 425 0 401 0 L136 0 C103 0 75 11 80 47 L166 658 C169 681 193 705 220 705 L491 705 C511 705 525 689 525 670 C525 645 503 627 480 627 L242 627 L209 393 L428 393 C446 393 462 378 462 358 C462 334 441 315 417 315 L198 315 L164 78 L412 78 C432 78 448 63 448 45 L448 45 Z M379 836 L296 775 C292 772 282 769 276 769 C264 769 254 781 254 792 C254 805 264 815 277 825 L365 892 C371 896 379 900 388 900 C397 900 404 896 409 892 L478 825 C486 817 492 807 492 798 C492 784 478 769 463 769 C458 769 448 772 445 775 L379 836 L379 836 Z " />
<glyph glyph-name="Edieresis" unicode="&#xcb;" horiz-adv-x="474" d="M448 45 C448 21 425 0 401 0 L136 0 C103 0 75 11 80 47 L166 658 C169 681 193 705 220 705 L491 705 C511 705 525 689 525 670 C525 645 503 627 480 627 L242 627 L209 393 L428 393 C446 393 462 378 462 358 C462 334 441 315 417 315 L198 315 L164 78 L412 78 C432 78 448 63 448 45 L448 45 Z M510 844 C510 815 484 790 456 790 C432 790 414 810 414 834 C414 861 441 886 469 886 C493 886 510 868 510 844 L510 844 Z M341 844 C341 815 315 790 286 790 C262 790 246 810 246 833 C246 861 271 886 299 886 C324 886 341 868 341 844 L341 844 Z " />
<glyph glyph-name="Igrave" unicode="&#xcc;" horiz-adv-x="227" d="M77 30 L168 675 C171 696 191 715 213 715 C235 715 251 696 248 675 L157 30 C154 9 133 -10 111 -10 C89 -10 74 9 77 30 L77 30 Z M206 905 L272 824 C275 821 276 816 276 812 C276 790 256 774 237 774 C224 774 217 781 208 792 L139 878 C137 881 136 887 136 891 C136 912 157 928 172 928 C190 928 194 918 206 905 L206 905 Z " />
<glyph glyph-name="Iacute" unicode="&#xcd;" horiz-adv-x="227" d="M77 30 L168 675 C171 696 191 715 213 715 C235 715 251 696 248 675 L157 30 C154 9 133 -10 111 -10 C89 -10 74 9 77 30 L77 30 Z M186 824 L275 905 C290 918 297 928 315 928 C328 928 342 916 342 899 C342 894 341 884 334 878 L241 792 C228 780 219 774 206 774 C190 774 178 786 178 804 C178 814 181 819 186 824 L186 824 Z " />
<glyph glyph-name="Icircumflex" unicode="&#xce;" horiz-adv-x="227" d="M77 30 L168 675 C171 696 191 715 213 715 C235 715 251 696 248 675 L157 30 C154 9 133 -10 111 -10 C89 -10 74 9 77 30 L77 30 Z M232 836 L149 775 C145 772 135 769 129 769 C117 769 107 781 107 792 C107 805 117 815 130 825 L218 892 C224 896 232 900 241 900 C250 900 257 896 262 892 L331 825 C339 817 345 807 345 798 C345 784 331 769 316 769 C311 769 301 772 298 775 L232 836 L232 836 Z " />
<glyph glyph-name="Idieresis" unicode="&#xcf;" horiz-adv-x="227" d="M77 30 L168 675 C171 696 191 715 213 715 C235 715 251 696 248 675 L157 30 C154 9 133 -10 111 -10 C89 -10 74 9 77 30 L77 30 Z M363 844 C363 815 337 790 309 790 C285 790 267 810 267 834 C267 861 294 886 322 886 C346 886 363 868 363 844 L363 844 Z M194 844 C194 815 168 790 139 790 C115 790 99 810 99 833 C99 861 124 886 152 886 C177 886 194 868 194 844 L194 844 Z " />
<glyph glyph-name="Eth" unicode="&#xd0;" horiz-adv-x="574" d="M565 264 C546 127 459 0 254 0 L141 0 C115 0 95 22 99 48 L137 317 L98 317 C79 317 66 331 66 349 C66 371 86 390 109 390 L147 390 L185 658 C189 684 214 706 240 706 L353 706 C557 706 610 585 591 451 L565 264 L565 264 Z M389 357 C389 335 369 317 347 317 L217 317 L184 78 L282 78 C414 78 471 161 485 264 L511 451 C525 550 489 628 359 628 L261 628 L228 390 L358 390 C376 390 389 375 389 357 L389 357 Z " />
<glyph glyph-name="Ntilde" unicode="&#xd1;" horiz-adv-x="600" d="M480 -10 C464 -10 449 -1 443 13 L229 546 L157 31 C154 9 132 -10 110 -10 C88 -10 74 9 77 31 L167 671 C170 696 191 715 216 715 C233 715 249 706 255 691 L468 159 L540 674 C543 696 565 715 587 715 C609 715 623 696 620 674 L531 34 C527 10 506 -10 480 -10 L480 -10 Z M558 854 C558 817 505 791 467 789 C424 789 401 818 371 821 C334 821 325 794 303 794 C288 794 277 805 277 821 C282 858 325 886 368 886 C410 886 432 857 464 854 C502 854 507 879 532 882 C546 882 558 870 558 854 L558 854 Z " />
<glyph glyph-name="Ograve" unicode="&#xd2;" horiz-adv-x="551" d="M274 -10 C121 -10 60 104 80 246 L110 460 C130 599 211 715 376 715 C541 715 590 599 570 460 L540 246 C520 104 427 -10 274 -10 L274 -10 Z M365 637 C255 637 205 566 190 460 L160 246 C145 141 182 68 285 68 C388 68 445 141 460 246 L490 460 C505 566 475 637 365 637 L365 637 Z M374 905 L440 824 C443 821 444 816 444 812 C444 790 424 774 405 774 C392 774 385 781 376 792 L307 878 C305 881 304 887 304 891 C304 912 325 928 340 928 C358 928 362 918 374 905 L374 905 Z " />
<glyph glyph-name="Oacute" unicode="&#xd3;" horiz-adv-x="551" d="M274 -10 C121 -10 60 104 80 246 L110 460 C130 599 211 715 376 715 C541 715 590 599 570 460 L540 246 C520 104 427 -10 274 -10 L274 -10 Z M365 637 C255 637 205 566 190 460 L160 246 C145 141 182 68 285 68 C388 68 445 141 460 246 L490 460 C505 566 475 637 365 637 L365 637 Z M350 824 L439 905 C454 918 461 928 479 928 C492 928 506 916 506 899 C506 894 505 884 498 878 L405 792 C392 780 383 774 370 774 C354 774 342 786 342 804 C342 814 345 819 350 824 L350 824 Z " />
<glyph glyph-name="Ocircumflex" unicode="&#xd4;" horiz-adv-x="551" d="M274 -10 C121 -10 60 104 80 246 L110 460 C130 599 211 715 376 715 C541 715 590 599 570 460 L540 246 C520 104 427 -10 274 -10 L274 -10 Z M365 637 C255 637 205 566 190 460 L160 246 C145 141 182 68 285 68 C388 68 445 141 460 246 L490 460 C505 566 475 637 365 637 L365 637 Z M393 836 L310 775 C306 772 296 769 290 769 C278 769 268 781 268 792 C268 805 278 815 291 825 L379 892 C385 896 393 900 402 900 C411 900 418 896 423 892 L492 825 C500 817 506 807 506 798 C506 784 492 769 477 769 C472 769 462 772 459 775 L393 836 L393 836 Z " />
<glyph glyph-name="Otilde" unicode="&#xd5;" horiz-adv-x="551" d="M274 -10 C121 -10 60 104 80 246 L110 460 C130 599 211 715 376 715 C541 715 590 599 570 460 L540 246 C520 104 427 -10 274 -10 L274 -10 Z M365 637 C255 637 205 566 190 460 L160 246 C145 141 182 68 285 68 C388 68 445 141 460 246 L490 460 C505 566 475 637 365 637 L365 637 Z M533 854 C533 817 480 791 442 789 C399 789 376 818 346 821 C309 821 300 794 278 794 C263 794 252 805 252 821 C257 858 300 886 343 886 C385 886 407 857 439 854 C477 854 482 879 507 882 C521 882 533 870 533 854 L533 854 Z " />
<glyph glyph-name="Odieresis" unicode="&#xd6;" horiz-adv-x="551" d="M274 -10 C121 -10 60 104 80 246 L110 460 C130 599 211 715 376 715 C541 715 590 599 570 460 L540 246 C520 104 427 -10 274 -10 L274 -10 Z M365 637 C255 637 205 566 190 460 L160 246 C145 141 182 68 285 68 C388 68 445 141 460 246 L490 460 C505 566 475 637 365 637 L365 637 Z M525 844 C525 815 499 790 471 790 C447 790 429 810 429 834 C429 861 456 886 484 886 C508 886 525 868 525 844 L525 844 Z M356 844 C356 815 330 790 301 790 C277 790 261 810 261 833 C261 861 286 886 314 886 C339 886 356 868 356 844 L356 844 Z " />
<glyph glyph-name="multiply" unicode="&#xd7;" horiz-adv-x="500" d="M492 474 L354 354 L458 234 C472 218 468 194 450 179 C433 163 407 164 395 179 L291 299 L155 179 C139 164 113 163 100 179 C86 194 90 218 108 234 L245 354 L141 474 C128 488 131 514 149 529 C166 545 190 545 204 529 L307 409 L444 529 C462 545 486 545 499 529 C513 514 509 488 492 474 L492 474 Z " />
<glyph glyph-name="Oslash" unicode="&#xd8;" horiz-adv-x="551" d="M31 39 L90 109 C76 149 73 195 80 246 L110 460 C130 599 211 715 376 715 C456 715 508 688 539 644 L582 695 C592 707 609 710 620 702 C630 694 631 678 621 666 L562 596 C574 557 577 510 570 460 L540 246 C520 104 427 -10 274 -10 C199 -10 146 17 113 62 L70 10 C60 -2 43 -5 32 3 C22 11 21 27 31 39 L31 39 Z M365 637 C255 637 205 566 190 460 L160 246 C157 226 155 206 157 189 L481 575 C463 614 427 637 365 637 L365 637 Z M490 460 C493 479 493 497 492 514 L170 130 C189 91 227 68 285 68 C388 68 445 141 460 246 L490 460 L490 460 Z " />
<glyph glyph-name="Ugrave" unicode="&#xd9;" horiz-adv-x="572" d="M539 230 C520 91 424 -10 285 -10 C143 -10 78 92 97 230 L160 673 C163 697 184 715 207 715 C228 715 243 696 240 673 L177 230 C164 134 200 68 296 68 C392 68 445 136 458 230 L521 673 C524 695 544 715 566 715 C590 715 605 695 602 673 L539 230 L539 230 Z M371 905 L437 824 C440 821 441 816 441 812 C441 790 421 774 402 774 C389 774 382 781 373 792 L304 878 C302 881 301 887 301 891 C301 912 322 928 337 928 C355 928 359 918 371 905 L371 905 Z " />
<glyph glyph-name="Uacute" unicode="&#xda;" horiz-adv-x="572" d="M539 230 C520 91 424 -10 285 -10 C143 -10 78 92 97 230 L160 673 C163 697 184 715 207 715 C228 715 243 696 240 673 L177 230 C164 134 200 68 296 68 C392 68 445 136 458 230 L521 673 C524 695 544 715 566 715 C590 715 605 695 602 673 L539 230 L539 230 Z M367 824 L456 905 C471 918 478 928 496 928 C509 928 523 916 523 899 C523 894 522 884 515 878 L422 792 C409 780 400 774 387 774 C371 774 359 786 359 804 C359 814 362 819 367 824 L367 824 Z " />
<glyph glyph-name="Ucircumflex" unicode="&#xdb;" horiz-adv-x="572" d="M539 230 C520 91 424 -10 285 -10 C143 -10 78 92 97 230 L160 673 C163 697 184 715 207 715 C228 715 243 696 240 673 L177 230 C164 134 200 68 296 68 C392 68 445 136 458 230 L521 673 C524 695 544 715 566 715 C590 715 605 695 602 673 L539 230 L539 230 Z M404 836 L321 775 C317 772 307 769 301 769 C289 769 279 781 279 792 C279 805 289 815 302 825 L390 892 C396 896 404 900 413 900 C422 900 429 896 434 892 L503 825 C511 817 517 807 517 798 C517 784 503 769 488 769 C483 769 473 772 470 775 L404 836 L404 836 Z " />
<glyph glyph-name="Udieresis" unicode="&#xdc;" horiz-adv-x="572" d="M539 230 C520 91 424 -10 285 -10 C143 -10 78 92 97 230 L160 673 C163 697 184 715 207 715 C228 715 243 696 240 673 L177 230 C164 134 200 68 296 68 C392 68 445 136 458 230 L521 673 C524 695 544 715 566 715 C590 715 605 695 602 673 L539 230 L539 230 Z M535 844 C535 815 509 790 481 790 C457 790 439 810 439 834 C439 861 466 886 494 886 C518 886 535 868 535 844 L535 844 Z M366 844 C366 815 340 790 311 790 C287 790 271 810 271 833 C271 861 296 886 324 886 C349 886 366 868 366 844 L366 844 Z " />
<glyph glyph-name="Yacute" unicode="&#xdd;" horiz-adv-x="476" d="M236 -10 C213 -10 198 9 201 32 L236 277 L111 655 C110 659 109 665 109 670 C109 694 134 715 156 715 C168 715 180 710 185 699 L290 370 L487 699 C494 710 508 715 520 715 C539 715 556 698 556 678 C556 670 552 661 549 655 L317 275 L283 32 C280 10 259 -10 236 -10 L236 -10 Z M284 824 L373 905 C388 918 395 928 413 928 C426 928 440 916 440 899 C440 894 439 884 432 878 L339 792 C326 780 317 774 304 774 C288 774 276 786 276 804 C276 814 279 819 284 824 L284 824 Z " />
<glyph glyph-name="Thorn" unicode="&#xde;" horiz-adv-x="530" d="M77 30 L168 675 C171 696 191 715 213 715 C235 715 251 696 248 675 L235 586 L350 586 C495 586 547 498 547 397 C547 235 441 140 287 140 L172 140 L157 30 C154 9 133 -10 111 -10 C89 -10 74 9 77 30 L77 30 Z M224 508 L183 218 L298 218 C409 218 466 276 466 389 C466 450 439 508 339 508 L224 508 L224 508 Z " />
<glyph glyph-name="germandbls" unicode="&#xdf;" horiz-adv-x="544" d="M538 186 C538 73 463 -4 334 -4 C312 -4 212 -3 212 39 C212 54 224 78 258 78 C281 78 313 67 343 67 C393 67 458 97 458 175 C458 242 401 279 357 295 C322 307 274 317 274 362 C274 398 297 418 320 429 C364 451 453 466 453 559 C453 616 413 647 354 647 C276 647 234 598 220 497 L147 -26 C144 -47 124 -65 102 -65 C80 -65 66 -47 69 -26 L142 494 C162 634 244 719 370 719 C465 719 531 668 531 576 C531 492 484 438 422 412 C396 401 350 391 353 374 C355 362 376 359 413 345 C485 317 538 267 538 186 L538 186 Z " />
<glyph glyph-name="agrave" unicode="&#xe0;" horiz-adv-x="482" d="M302 514 C423 514 462 442 444 312 L413 92 C410 72 415 62 427 62 C430 62 431 63 435 63 C452 63 460 49 460 34 C460 5 433 -5 410 -5 C379 -5 354 12 343 41 C293 11 249 -8 199 -8 C100 -8 55 69 71 181 L89 308 C106 427 169 514 302 514 L302 514 Z M337 105 L370 338 C380 410 356 442 287 442 C211 442 180 403 167 308 L149 181 C138 103 165 62 225 62 C266 62 305 81 337 105 L337 105 Z M312 705 L378 624 C381 621 382 616 382 612 C382 590 362 574 343 574 C330 574 323 581 314 592 L245 678 C243 681 242 687 242 691 C242 712 263 728 278 728 C296 728 300 718 312 705 L312 705 Z " />
<glyph glyph-name="aacute" unicode="&#xe1;" horiz-adv-x="482" d="M302 514 C423 514 462 442 444 312 L413 92 C410 72 415 62 427 62 C430 62 431 63 435 63 C452 63 460 49 460 34 C460 5 433 -5 410 -5 C379 -5 354 12 343 41 C293 11 249 -8 199 -8 C100 -8 55 69 71 181 L89 308 C106 427 169 514 302 514 L302 514 Z M337 105 L370 338 C380 410 356 442 287 442 C211 442 180 403 167 308 L149 181 C138 103 165 62 225 62 C266 62 305 81 337 105 L337 105 Z M288 624 L377 705 C392 718 399 728 417 728 C430 728 444 716 444 699 C444 694 443 684 436 678 L343 592 C330 580 321 574 308 574 C292 574 280 586 280 604 C280 614 283 619 288 624 L288 624 Z " />
<glyph glyph-name="acircumflex" unicode="&#xe2;" horiz-adv-x="482" d="M302 514 C423 514 462 442 444 312 L413 92 C410 72 415 62 427 62 C430 62 431 63 435 63 C452 63 460 49 460 34 C460 5 433 -5 410 -5 C379 -5 354 12 343 41 C293 11 249 -8 199 -8 C100 -8 55 69 71 181 L89 308 C106 427 169 514 302 514 L302 514 Z M337 105 L370 338 C380 410 356 442 287 442 C211 442 180 403 167 308 L149 181 C138 103 165 62 225 62 C266 62 305 81 337 105 L337 105 Z M330 636 L247 575 C243 572 233 569 227 569 C215 569 205 581 205 592 C205 605 215 615 228 625 L316 692 C322 696 330 700 339 700 C348 700 355 696 360 692 L429 625 C437 617 443 607 443 598 C443 584 429 569 414 569 C409 569 399 572 396 575 L330 636 L330 636 Z " />
<glyph glyph-name="atilde" unicode="&#xe3;" horiz-adv-x="482" d="M302 514 C423 514 462 442 444 312 L413 92 C410 72 415 62 427 62 C430 62 431 63 435 63 C452 63 460 49 460 34 C460 5 433 -5 410 -5 C379 -5 354 12 343 41 C293 11 249 -8 199 -8 C100 -8 55 69 71 181 L89 308 C106 427 169 514 302 514 L302 514 Z M337 105 L370 338 C380 410 356 442 287 442 C211 442 180 403 167 308 L149 181 C138 103 165 62 225 62 C266 62 305 81 337 105 L337 105 Z M471 654 C471 617 418 591 380 589 C337 589 314 618 284 621 C247 621 238 594 216 594 C201 594 190 605 190 621 C195 658 238 686 281 686 C323 686 345 657 377 654 C415 654 420 679 445 682 C459 682 471 670 471 654 L471 654 Z " />
<glyph glyph-name="adieresis" unicode="&#xe4;" horiz-adv-x="482" d="M302 514 C423 514 462 442 444 312 L413 92 C410 72 415 62 427 62 C430 62 431 63 435 63 C452 63 460 49 460 34 C460 5 433 -5 410 -5 C379 -5 354 12 343 41 C293 11 249 -8 199 -8 C100 -8 55 69 71 181 L89 308 C106 427 169 514 302 514 L302 514 Z M337 105 L370 338 C380 410 356 442 287 442 C211 442 180 403 167 308 L149 181 C138 103 165 62 225 62 C266 62 305 81 337 105 L337 105 Z M462 644 C462 615 436 590 408 590 C384 590 366 610 366 634 C366 661 393 686 421 686 C445 686 462 668 462 644 L462 644 Z M293 644 C293 615 267 590 238 590 C214 590 198 610 198 633 C198 661 223 686 251 686 C276 686 293 668 293 644 L293 644 Z " />
<glyph glyph-name="aring" unicode="&#xe5;" horiz-adv-x="482" d="M302 514 C423 514 462 442 444 312 L413 92 C410 72 415 62 427 62 C430 62 431 63 435 63 C452 63 460 49 460 34 C460 5 433 -5 410 -5 C379 -5 354 12 343 41 C293 11 249 -8 199 -8 C100 -8 55 69 71 181 L89 308 C106 427 169 514 302 514 L302 514 Z M337 105 L370 338 C380 410 356 442 287 442 C211 442 180 403 167 308 L149 181 C138 103 165 62 225 62 C266 62 305 81 337 105 L337 105 Z M433 656 C433 595 379 545 319 545 C268 545 232 583 232 632 C232 693 286 743 347 743 C397 743 433 705 433 656 L433 656 Z M388 650 C388 677 368 699 341 699 C308 699 278 671 278 638 C278 611 298 590 325 590 C358 590 388 617 388 650 L388 650 Z " />
<glyph glyph-name="ae" unicode="&#xe6;" horiz-adv-x="712" d="M530 203 C500 203 464 206 429 212 L421 153 C413 97 445 61 517 61 C559 61 588 73 625 89 C628 90 632 92 639 92 C658 92 670 77 670 61 C670 9 553 -8 501 -8 C435 -8 393 19 373 63 C320 15 262 -8 196 -8 C93 -8 19 85 62 143 L65 147 C70 245 144 295 262 295 C298 295 331 290 361 281 L369 338 C379 411 349 445 277 445 C242 445 222 436 198 424 C195 423 182 416 171 416 C154 416 148 432 148 446 C148 495 227 514 297 514 C367 514 406 486 421 432 C452 481 506 514 581 514 C675 514 722 460 722 378 C722 273 667 203 530 203 L530 203 Z M645 369 C645 421 616 443 565 443 C500 443 457 408 449 352 L438 276 C475 272 522 269 542 269 C617 269 645 310 645 369 L645 369 Z M336 106 L352 214 C320 224 282 229 252 229 C170 229 161 183 144 146 L142 142 C140 95 151 62 218 62 C261 62 297 76 336 106 L336 106 Z " />
<glyph glyph-name="ccedilla" unicode="&#xe7;" horiz-adv-x="393" d="M317 -114 C317 -171 264 -225 165 -211 C135 -207 109 -187 124 -164 C135 -147 149 -156 177 -162 C226 -172 252 -140 252 -117 C252 -96 233 -87 197 -85 C166 -83 157 -77 164 -53 L179 -4 C88 12 57 86 70 176 L91 327 C105 430 171 511 296 511 C341 511 427 498 427 454 C427 434 408 416 387 416 C382 416 378 417 372 419 C349 431 329 442 294 442 C216 442 179 400 169 327 L148 176 C138 103 162 61 240 61 C275 61 299 72 325 84 C331 86 336 87 341 87 C359 87 371 73 371 57 C371 8 279 -7 228 -8 L218 -40 C291 -41 317 -70 317 -114 L317 -114 Z " />
<glyph glyph-name="egrave" unicode="&#xe8;" horiz-adv-x="435" d="M241 61 C283 61 312 73 349 89 C351 90 356 92 363 92 C381 92 393 77 393 61 C393 9 278 -8 222 -8 C109 -8 54 64 67 158 L94 345 C108 441 181 514 300 514 C398 514 446 461 446 378 C446 273 390 203 254 203 C224 203 187 206 153 212 L145 153 C137 97 169 61 241 61 L241 61 Z M368 369 C368 421 339 443 288 443 C223 443 180 408 172 352 L161 276 C198 271 246 269 266 269 C342 269 368 310 368 369 L368 369 Z M269 705 L335 624 C338 621 339 616 339 612 C339 590 319 574 300 574 C287 574 280 581 271 592 L202 678 C200 681 199 687 199 691 C199 712 220 728 235 728 C253 728 257 718 269 705 L269 705 Z " />
<glyph glyph-name="eacute" unicode="&#xe9;" horiz-adv-x="435" d="M241 61 C283 61 312 73 349 89 C351 90 356 92 363 92 C381 92 393 77 393 61 C393 9 278 -8 222 -8 C109 -8 54 64 67 158 L94 345 C108 441 181 514 300 514 C398 514 446 461 446 378 C446 273 390 203 254 203 C224 203 187 206 153 212 L145 153 C137 97 169 61 241 61 L241 61 Z M368 369 C368 421 339 443 288 443 C223 443 180 408 172 352 L161 276 C198 271 246 269 266 269 C342 269 368 310 368 369 L368 369 Z M272 624 L361 705 C376 718 383 728 401 728 C414 728 428 716 428 699 C428 694 427 684 420 678 L327 592 C314 580 305 574 292 574 C276 574 264 586 264 604 C264 614 267 619 272 624 L272 624 Z " />
<glyph glyph-name="ecircumflex" unicode="&#xea;" horiz-adv-x="435" d="M241 61 C283 61 312 73 349 89 C351 90 356 92 363 92 C381 92 393 77 393 61 C393 9 278 -8 222 -8 C109 -8 54 64 67 158 L94 345 C108 441 181 514 300 514 C398 514 446 461 446 378 C446 273 390 203 254 203 C224 203 187 206 153 212 L145 153 C137 97 169 61 241 61 L241 61 Z M368 369 C368 421 339 443 288 443 C223 443 180 408 172 352 L161 276 C198 271 246 269 266 269 C342 269 368 310 368 369 L368 369 Z M306 636 L223 575 C219 572 209 569 203 569 C191 569 181 581 181 592 C181 605 191 615 204 625 L292 692 C298 696 306 700 315 700 C324 700 331 696 336 692 L405 625 C413 617 419 607 419 598 C419 584 405 569 390 569 C385 569 375 572 372 575 L306 636 L306 636 Z " />
<glyph glyph-name="edieresis" unicode="&#xeb;" horiz-adv-x="435" d="M241 61 C283 61 312 73 349 89 C351 90 356 92 363 92 C381 92 393 77 393 61 C393 9 278 -8 222 -8 C109 -8 54 64 67 158 L94 345 C108 441 181 514 300 514 C398 514 446 461 446 378 C446 273 390 203 254 203 C224 203 187 206 153 212 L145 153 C137 97 169 61 241 61 L241 61 Z M368 369 C368 421 339 443 288 443 C223 443 180 408 172 352 L161 276 C198 271 246 269 266 269 C342 269 368 310 368 369 L368 369 Z M439 644 C439 615 413 590 385 590 C361 590 343 610 343 634 C343 661 370 686 398 686 C422 686 439 668 439 644 L439 644 Z M270 644 C270 615 244 590 215 590 C191 590 175 610 175 633 C175 661 200 686 228 686 C253 686 270 668 270 644 L270 644 Z " />
<glyph glyph-name="igrave" unicode="&#xec;" horiz-adv-x="245" d="M97 94 L150 472 C153 493 172 511 194 511 C216 511 231 493 228 472 L175 94 C172 72 172 59 182 47 C184 44 187 38 187 31 C187 10 167 -8 145 -8 C120 -8 84 4 97 94 L97 94 Z M182 705 L248 624 C251 621 252 616 252 612 C252 590 232 574 213 574 C200 574 193 581 184 592 L115 678 C113 681 112 687 112 691 C112 712 133 728 148 728 C166 728 170 718 182 705 L182 705 Z " />
<glyph glyph-name="iacute" unicode="&#xed;" horiz-adv-x="245" d="M97 94 L150 472 C153 493 172 511 194 511 C216 511 231 493 228 472 L175 94 C172 72 172 59 182 47 C184 44 187 38 187 31 C187 10 167 -8 145 -8 C120 -8 84 4 97 94 L97 94 Z M175 624 L264 705 C279 718 286 728 304 728 C317 728 331 716 331 699 C331 694 330 684 323 678 L230 592 C217 580 208 574 195 574 C179 574 167 586 167 604 C167 614 170 619 175 624 L175 624 Z " />
<glyph glyph-name="icircumflex" unicode="&#xee;" horiz-adv-x="245" d="M97 94 L150 472 C153 493 172 511 194 511 C216 511 231 493 228 472 L175 94 C172 72 172 59 182 47 C184 44 187 38 187 31 C187 10 167 -8 145 -8 C120 -8 84 4 97 94 L97 94 Z M212 636 L129 575 C125 572 115 569 109 569 C97 569 87 581 87 592 C87 605 97 615 110 625 L198 692 C204 696 212 700 221 700 C230 700 237 696 242 692 L311 625 C319 617 325 607 325 598 C325 584 311 569 296 569 C291 569 281 572 278 575 L212 636 L212 636 Z " />
<glyph glyph-name="idieresis" unicode="&#xef;" horiz-adv-x="245" d="M97 94 L150 472 C153 493 172 511 194 511 C216 511 231 493 228 472 L175 94 C172 72 172 59 182 47 C184 44 187 38 187 31 C187 10 167 -8 145 -8 C120 -8 84 4 97 94 L97 94 Z M344 644 C344 615 318 590 290 590 C266 590 248 610 248 634 C248 661 275 686 303 686 C327 686 344 668 344 644 L344 644 Z M175 644 C175 615 149 590 120 590 C96 590 80 610 80 633 C80 661 105 686 133 686 C158 686 175 668 175 644 L175 644 Z " />
<glyph glyph-name="eth" unicode="&#xf0;" horiz-adv-x="500" d="M584 647 C584 647 587 646 585 639 C582 629 576 620 566 615 L502 583 C510 550 515 492 515 438 C515 99 427 -10 256 -10 C124 -10 67 68 67 174 C67 313 149 437 288 437 C326 437 390 427 431 390 C441 461 441 512 433 548 L363 513 C351 507 343 506 339 506 C325 506 312 522 316 539 C319 549 325 558 335 563 L411 601 C386 634 349 639 316 643 C303 644 286 646 293 677 C298 699 309 709 352 709 C410 709 453 685 481 636 L538 665 C546 669 553 671 562 671 C586 670 584 647 584 647 L584 647 Z M418 281 L422 309 C395 343 331 365 285 365 C201 365 146 294 146 187 C146 117 179 64 262 64 C358 64 396 129 418 281 L418 281 Z " />
<glyph glyph-name="ntilde" unicode="&#xf1;" horiz-adv-x="509" d="M368 94 L400 323 C411 399 385 442 325 442 C286 442 245 426 208 400 C208 389 208 379 207 371 L159 31 C156 10 141 -7 115 -7 C89 -7 78 10 81 31 L129 371 C137 426 128 426 121 441 C120 444 116 450 116 458 C116 479 135 496 158 496 C176 496 188 484 196 467 C245 498 298 512 346 512 C452 512 494 436 478 323 L446 94 C443 72 443 59 453 47 C455 44 458 38 458 31 C458 10 438 -8 416 -8 C391 -8 355 4 368 94 L368 94 Z M473 654 C473 617 420 591 382 589 C339 589 316 618 286 621 C249 621 240 594 218 594 C203 594 192 605 192 621 C197 658 240 686 283 686 C325 686 347 657 379 654 C417 654 422 679 447 682 C461 682 473 670 473 654 L473 654 Z " />
<glyph glyph-name="ograve" unicode="&#xf2;" horiz-adv-x="464" d="M231 -8 C109 -8 55 70 69 170 L93 337 C107 437 183 515 305 515 C427 515 481 437 467 337 L443 170 C429 70 353 -8 231 -8 L231 -8 Z M241 64 C313 64 356 104 365 170 L389 338 C398 403 366 443 294 443 C222 443 180 403 171 338 L147 170 C138 104 169 64 241 64 L241 64 Z M296 705 L362 624 C365 621 366 616 366 612 C366 590 346 574 327 574 C314 574 307 581 298 592 L229 678 C227 681 226 687 226 691 C226 712 247 728 262 728 C280 728 284 718 296 705 L296 705 Z " />
<glyph glyph-name="oacute" unicode="&#xf3;" horiz-adv-x="464" d="M231 -8 C109 -8 55 70 69 170 L93 337 C107 437 183 515 305 515 C427 515 481 437 467 337 L443 170 C429 70 353 -8 231 -8 L231 -8 Z M241 64 C313 64 356 104 365 170 L389 338 C398 403 366 443 294 443 C222 443 180 403 171 338 L147 170 C138 104 169 64 241 64 L241 64 Z M249 624 L338 705 C353 718 360 728 378 728 C391 728 405 716 405 699 C405 694 404 684 397 678 L304 592 C291 580 282 574 269 574 C253 574 241 586 241 604 C241 614 244 619 249 624 L249 624 Z " />
<glyph glyph-name="ocircumflex" unicode="&#xf4;" horiz-adv-x="464" d="M231 -8 C109 -8 55 70 69 170 L93 337 C107 437 183 515 305 515 C427 515 481 437 467 337 L443 170 C429 70 353 -8 231 -8 L231 -8 Z M241 64 C313 64 356 104 365 170 L389 338 C398 403 366 443 294 443 C222 443 180 403 171 338 L147 170 C138 104 169 64 241 64 L241 64 Z M321 636 L238 575 C234 572 224 569 218 569 C206 569 196 581 196 592 C196 605 206 615 219 625 L307 692 C313 696 321 700 330 700 C339 700 346 696 351 692 L420 625 C428 617 434 607 434 598 C434 584 420 569 405 569 C400 569 390 572 387 575 L321 636 L321 636 Z " />
<glyph glyph-name="otilde" unicode="&#xf5;" horiz-adv-x="464" d="M231 -8 C109 -8 55 70 69 170 L93 337 C107 437 183 515 305 515 C427 515 481 437 467 337 L443 170 C429 70 353 -8 231 -8 L231 -8 Z M241 64 C313 64 356 104 365 170 L389 338 C398 403 366 443 294 443 C222 443 180 403 171 338 L147 170 C138 104 169 64 241 64 L241 64 Z M462 654 C462 617 409 591 371 589 C328 589 305 618 275 621 C238 621 229 594 207 594 C192 594 181 605 181 621 C186 658 229 686 272 686 C314 686 336 657 368 654 C406 654 411 679 436 682 C450 682 462 670 462 654 L462 654 Z " />
<glyph glyph-name="odieresis" unicode="&#xf6;" horiz-adv-x="464" d="M231 -8 C109 -8 55 70 69 170 L93 337 C107 437 183 515 305 515 C427 515 481 437 467 337 L443 170 C429 70 353 -8 231 -8 L231 -8 Z M241 64 C313 64 356 104 365 170 L389 338 C398 403 366 443 294 443 C222 443 180 403 171 338 L147 170 C138 104 169 64 241 64 L241 64 Z M453 644 C453 615 427 590 399 590 C375 590 357 610 357 634 C357 661 384 686 412 686 C436 686 453 668 453 644 L453 644 Z M284 644 C284 615 258 590 229 590 C205 590 189 610 189 633 C189 661 214 686 242 686 C267 686 284 668 284 644 L284 644 Z " />
<glyph glyph-name="oslash" unicode="&#xf8;" horiz-adv-x="464" d="M43 21 L82 68 C67 96 64 132 69 170 L92 337 C106 437 182 515 304 515 C357 515 397 500 424 475 L457 514 C466 525 483 529 494 520 C506 511 506 496 496 484 L454 435 C467 407 471 373 466 337 L443 170 C429 70 353 -8 231 -8 C180 -8 141 6 113 29 L81 -9 C72 -20 55 -23 45 -15 C34 -7 33 9 43 21 L43 21 Z M147 170 C145 160 145 151 145 143 L372 413 C356 432 331 443 294 443 C222 443 179 403 170 338 L147 170 L147 170 Z M241 64 C313 64 356 104 365 170 L388 338 C389 345 390 351 390 358 L164 90 C180 73 206 64 241 64 L241 64 Z " />
<glyph glyph-name="ugrave" unicode="&#xf9;" horiz-adv-x="509" d="M370 123 L419 473 C422 494 437 511 463 511 C489 511 500 494 497 473 L448 123 C440 68 450 68 456 53 C457 50 460 43 460 36 C460 16 441 -2 418 -2 C399 -2 388 10 379 28 C332 3 279 -8 232 -8 C126 -8 84 68 100 181 L141 473 C144 494 160 511 185 511 C210 511 222 494 219 473 L178 181 C167 105 193 62 253 62 C292 62 332 74 368 95 C368 105 369 115 370 123 L370 123 Z M305 705 L371 624 C374 621 375 616 375 612 C375 590 355 574 336 574 C323 574 316 581 307 592 L238 678 C236 681 235 687 235 691 C235 712 256 728 271 728 C289 728 293 718 305 705 L305 705 Z " />
<glyph glyph-name="uacute" unicode="&#xfa;" horiz-adv-x="509" d="M370 123 L419 473 C422 494 437 511 463 511 C489 511 500 494 497 473 L448 123 C440 68 450 68 456 53 C457 50 460 43 460 36 C460 16 441 -2 418 -2 C399 -2 388 10 379 28 C332 3 279 -8 232 -8 C126 -8 84 68 100 181 L141 473 C144 494 160 511 185 511 C210 511 222 494 219 473 L178 181 C167 105 193 62 253 62 C292 62 332 74 368 95 C368 105 369 115 370 123 L370 123 Z M305 624 L394 705 C409 718 416 728 434 728 C447 728 461 716 461 699 C461 694 460 684 453 678 L360 592 C347 580 338 574 325 574 C309 574 297 586 297 604 C297 614 300 619 305 624 L305 624 Z " />
<glyph glyph-name="ucircumflex" unicode="&#xfb;" horiz-adv-x="509" d="M370 123 L419 473 C422 494 437 511 463 511 C489 511 500 494 497 473 L448 123 C440 68 450 68 456 53 C457 50 460 43 460 36 C460 16 441 -2 418 -2 C399 -2 388 10 379 28 C332 3 279 -8 232 -8 C126 -8 84 68 100 181 L141 473 C144 494 160 511 185 511 C210 511 222 494 219 473 L178 181 C167 105 193 62 253 62 C292 62 332 74 368 95 C368 105 369 115 370 123 L370 123 Z M343 636 L260 575 C256 572 246 569 240 569 C228 569 218 581 218 592 C218 605 228 615 241 625 L329 692 C335 696 343 700 352 700 C361 700 368 696 373 692 L442 625 C450 617 456 607 456 598 C456 584 442 569 427 569 C422 569 412 572 409 575 L343 636 L343 636 Z " />
<glyph glyph-name="udieresis" unicode="&#xfc;" horiz-adv-x="509" d="M370 123 L419 473 C422 494 437 511 463 511 C489 511 500 494 497 473 L448 123 C440 68 450 68 456 53 C457 50 460 43 460 36 C460 16 441 -2 418 -2 C399 -2 388 10 379 28 C332 3 279 -8 232 -8 C126 -8 84 68 100 181 L141 473 C144 494 160 511 185 511 C210 511 222 494 219 473 L178 181 C167 105 193 62 253 62 C292 62 332 74 368 95 C368 105 369 115 370 123 L370 123 Z M476 644 C476 615 450 590 422 590 C398 590 380 610 380 634 C380 661 407 686 435 686 C459 686 476 668 476 644 L476 644 Z M307 644 C307 615 281 590 252 590 C228 590 212 610 212 633 C212 661 237 686 265 686 C290 686 307 668 307 644 L307 644 Z " />
<glyph glyph-name="yacute" unicode="&#xfd;" horiz-adv-x="509" d="M377 107 L428 473 C431 494 447 511 473 511 C499 511 509 494 506 473 L434 -40 C420 -143 355 -224 230 -224 C184 -224 99 -211 99 -167 C99 -147 117 -129 138 -129 C143 -129 148 -130 153 -132 C176 -144 196 -155 231 -155 C309 -155 346 -113 356 -40 L366 30 C327 7 284 -7 233 -7 C112 -7 84 71 99 175 L140 473 C143 494 160 511 185 511 C210 511 221 494 218 473 L177 175 C167 104 188 61 259 61 C300 61 343 75 377 107 L377 107 Z M316 624 L405 705 C420 718 427 728 445 728 C458 728 472 716 472 699 C472 694 471 684 464 678 L371 592 C358 580 349 574 336 574 C320 574 308 586 308 604 C308 614 311 619 316 624 L316 624 Z " />
<glyph glyph-name="thorn" unicode="&#xfe;" horiz-adv-x="485" d="M208 396 L171 132 C194 101 227 82 277 82 C344 82 378 115 386 170 L412 358 C420 413 396 446 329 446 C279 446 240 427 208 396 L208 396 Z M49 -179 L171 687 C174 707 190 725 215 725 C240 725 252 707 249 687 L219 473 C259 499 303 514 357 514 C471 514 502 446 490 358 L464 170 C451 82 401 14 287 14 C233 14 193 29 160 55 L127 -179 C124 -199 107 -217 82 -217 C57 -217 46 -199 49 -179 L49 -179 Z " />
<glyph glyph-name="ydieresis" unicode="&#xff;" horiz-adv-x="509" d="M377 107 L428 473 C431 494 447 511 473 511 C499 511 509 494 506 473 L434 -40 C420 -143 355 -224 230 -224 C184 -224 99 -211 99 -167 C99 -147 117 -129 138 -129 C143 -129 148 -130 153 -132 C176 -144 196 -155 231 -155 C309 -155 346 -113 356 -40 L366 30 C327 7 284 -7 233 -7 C112 -7 84 71 99 175 L140 473 C143 494 160 511 185 511 C210 511 221 494 218 473 L177 175 C167 104 188 61 259 61 C300 61 343 75 377 107 L377 107 Z M476 644 C476 615 450 590 422 590 C398 590 380 610 380 634 C380 661 407 686 435 686 C459 686 476 668 476 644 L476 644 Z M307 644 C307 615 281 590 252 590 C228 590 212 610 212 633 C212 661 237 686 265 686 C290 686 307 668 307 644 L307 644 Z " />
<glyph glyph-name="Amacron" unicode="&#x100;" horiz-adv-x="549" d="M108 20 C100 2 80 -10 66 -10 C45 -10 29 4 29 25 C29 32 32 42 34 45 L315 662 C329 692 346 715 375 715 C405 715 414 693 420 662 L528 45 C528 44 529 40 529 37 C529 8 507 -10 481 -10 C466 -10 449 2 446 20 L423 159 L170 159 L108 20 L108 20 Z M205 237 L411 237 L355 576 L205 237 L205 237 Z M553 841 C553 819 533 801 511 801 L262 801 C243 801 230 815 230 833 C230 855 250 874 273 874 L522 874 C540 874 553 859 553 841 L553 841 Z " />
<glyph glyph-name="amacron" unicode="&#x101;" horiz-adv-x="482" d="M302 514 C423 514 462 442 444 312 L413 92 C410 72 415 62 427 62 C430 62 431 63 435 63 C452 63 460 49 460 34 C460 5 433 -5 410 -5 C379 -5 354 12 343 41 C293 11 249 -8 199 -8 C100 -8 55 69 71 181 L89 308 C106 427 169 514 302 514 L302 514 Z M337 105 L370 338 C380 410 356 442 287 442 C211 442 180 403 167 308 L149 181 C138 103 165 62 225 62 C266 62 305 81 337 105 L337 105 Z M469 641 C469 619 449 601 427 601 L178 601 C159 601 146 615 146 633 C146 655 166 674 189 674 L438 674 C456 674 469 659 469 641 L469 641 Z " />
<glyph glyph-name="Abreve" unicode="&#x102;" horiz-adv-x="549" d="M108 20 C100 2 80 -10 66 -10 C45 -10 29 4 29 25 C29 32 32 42 34 45 L315 662 C329 692 346 715 375 715 C405 715 414 693 420 662 L528 45 C528 44 529 40 529 37 C529 8 507 -10 481 -10 C466 -10 449 2 446 20 L423 159 L170 159 L108 20 L108 20 Z M205 237 L411 237 L355 576 L205 237 L205 237 Z M392 833 C414 833 437 844 462 874 C471 885 484 890 495 890 C512 890 526 879 516 853 C495 799 428 772 383 772 C338 772 279 799 273 853 C270 879 288 890 305 890 C316 890 326 885 332 874 C348 844 369 833 392 833 L392 833 Z " />
<glyph glyph-name="abreve" unicode="&#x103;" horiz-adv-x="482" d="M302 514 C423 514 462 442 444 312 L413 92 C410 72 415 62 427 62 C430 62 431 63 435 63 C452 63 460 49 460 34 C460 5 433 -5 410 -5 C379 -5 354 12 343 41 C293 11 249 -8 199 -8 C100 -8 55 69 71 181 L89 308 C106 427 169 514 302 514 L302 514 Z M337 105 L370 338 C380 410 356 442 287 442 C211 442 180 403 167 308 L149 181 C138 103 165 62 225 62 C266 62 305 81 337 105 L337 105 Z M330 633 C352 633 375 644 400 674 C409 685 422 690 433 690 C450 690 464 679 454 653 C433 599 366 572 321 572 C276 572 217 599 211 653 C208 679 226 690 243 690 C254 690 264 685 270 674 C286 644 307 633 330 633 L330 633 Z " />
<glyph glyph-name="Aogonek" unicode="&#x104;" horiz-adv-x="549" d="M571 -153 C571 -190 521 -195 488 -195 C432 -195 396 -171 396 -119 C396 -78 423 -33 454 3 C449 7 447 13 446 20 L423 159 L170 159 L108 20 C100 2 80 -10 66 -10 C45 -10 29 4 29 25 C29 32 32 42 34 45 L315 662 C329 692 346 715 375 715 C405 715 414 693 420 662 L528 45 C528 44 529 40 529 37 C529 18 518 8 509 -1 C482 -28 466 -71 466 -96 C466 -117 478 -134 504 -134 C528 -134 536 -129 547 -129 C561 -129 571 -140 571 -153 L571 -153 Z M205 237 L411 237 L355 576 L205 237 L205 237 Z " />
<glyph glyph-name="aogonek" unicode="&#x105;" horiz-adv-x="482" d="M343 41 C293 11 249 -8 199 -8 C100 -8 55 69 71 181 L89 308 C106 427 169 514 302 514 C423 514 462 442 444 312 L413 92 C410 72 415 62 427 62 C430 62 431 63 435 63 C452 63 460 49 460 34 C460 15 447 9 436 0 C408 -24 392 -71 392 -96 C392 -117 404 -134 430 -134 C454 -134 462 -129 473 -129 C487 -129 497 -140 497 -153 C497 -190 447 -195 414 -195 C358 -195 322 -171 322 -119 C322 -78 346 -37 379 1 C362 8 350 22 343 41 L343 41 Z M337 105 L370 338 C380 410 356 442 287 442 C211 442 180 403 167 308 L149 181 C138 103 165 62 225 62 C266 62 305 81 337 105 L337 105 Z " />
<glyph glyph-name="Cacute" unicode="&#x106;" horiz-adv-x="482" d="M80 246 L110 460 C132 614 217 715 371 715 C458 715 536 678 536 633 C536 612 517 594 495 594 C481 594 475 600 461 611 C434 631 404 642 365 642 C252 642 206 572 190 460 L160 246 C144 134 171 64 284 64 C323 64 356 75 389 95 C407 106 413 112 427 112 C446 112 458 98 458 81 C458 32 363 -9 269 -9 C115 -9 58 92 80 246 L80 246 Z M354 824 L443 905 C458 918 465 928 483 928 C496 928 510 916 510 899 C510 894 509 884 502 878 L409 792 C396 780 387 774 374 774 C358 774 346 786 346 804 C346 814 349 819 354 824 L354 824 Z " />
<glyph glyph-name="cacute" unicode="&#x107;" horiz-adv-x="393" d="M70 176 L91 327 C105 430 171 511 296 511 C341 511 426 498 426 454 C426 434 408 416 387 416 C382 416 377 416 372 419 C349 430 329 442 294 442 C216 442 179 400 169 327 L147 176 C137 103 162 61 240 61 C275 61 299 73 325 84 C331 87 336 87 341 87 C358 87 371 73 371 57 C371 7 271 -8 223 -8 C98 -8 55 73 70 176 L70 176 Z M264 624 L353 705 C368 718 375 728 393 728 C406 728 420 716 420 699 C420 694 419 684 412 678 L319 592 C306 580 297 574 284 574 C268 574 256 586 256 604 C256 614 259 619 264 624 L264 624 Z " />
<glyph glyph-name="Ccircumflex" unicode="&#x108;" horiz-adv-x="482" d="M80 246 L110 460 C132 614 217 715 371 715 C458 715 536 678 536 633 C536 612 517 594 495 594 C481 594 475 600 461 611 C434 631 404 642 365 642 C252 642 206 572 190 460 L160 246 C144 134 171 64 284 64 C323 64 356 75 389 95 C407 106 413 112 427 112 C446 112 458 98 458 81 C458 32 363 -9 269 -9 C115 -9 58 92 80 246 L80 246 Z M385 836 L302 775 C298 772 288 769 282 769 C270 769 260 781 260 792 C260 805 270 815 283 825 L371 892 C377 896 385 900 394 900 C403 900 410 896 415 892 L484 825 C492 817 498 807 498 798 C498 784 484 769 469 769 C464 769 454 772 451 775 L385 836 L385 836 Z " />
<glyph glyph-name="ccircumflex" unicode="&#x109;" horiz-adv-x="393" d="M70 176 L91 327 C105 430 171 511 296 511 C341 511 426 498 426 454 C426 434 408 416 387 416 C382 416 377 416 372 419 C349 430 329 442 294 442 C216 442 179 400 169 327 L147 176 C137 103 162 61 240 61 C275 61 299 73 325 84 C331 87 336 87 341 87 C358 87 371 73 371 57 C371 7 271 -8 223 -8 C98 -8 55 73 70 176 L70 176 Z M286 636 L203 575 C199 572 189 569 183 569 C171 569 161 581 161 592 C161 605 171 615 184 625 L272 692 C278 696 286 700 295 700 C304 700 311 696 316 692 L385 625 C393 617 399 607 399 598 C399 584 385 569 370 569 C365 569 355 572 352 575 L286 636 L286 636 Z " />
<glyph glyph-name="Cdotaccent" unicode="&#x10a;" horiz-adv-x="482" d="M80 246 L110 460 C132 614 217 715 371 715 C458 715 536 678 536 633 C536 612 517 594 495 594 C481 594 475 600 461 611 C434 631 404 642 365 642 C252 642 206 572 190 460 L160 246 C144 134 171 64 284 64 C323 64 356 75 389 95 C407 106 413 112 427 112 C446 112 458 98 458 81 C458 32 363 -9 269 -9 C115 -9 58 92 80 246 L80 246 Z M406 844 C406 815 380 790 351 790 C327 790 311 810 311 833 C311 861 336 886 364 886 C389 886 406 868 406 844 L406 844 Z " />
<glyph glyph-name="cdotaccent" unicode="&#x10b;" horiz-adv-x="393" d="M70 176 L91 327 C105 430 171 511 296 511 C341 511 426 498 426 454 C426 434 408 416 387 416 C382 416 377 416 372 419 C349 430 329 442 294 442 C216 442 179 400 169 327 L147 176 C137 103 162 61 240 61 C275 61 299 73 325 84 C331 87 336 87 341 87 C358 87 371 73 371 57 C371 7 271 -8 223 -8 C98 -8 55 73 70 176 L70 176 Z M333 644 C333 615 307 590 278 590 C254 590 238 610 238 633 C238 661 263 686 291 686 C316 686 333 668 333 644 L333 644 Z " />
<glyph glyph-name="Ccaron" unicode="&#x10c;" horiz-adv-x="482" d="M80 246 L110 460 C132 614 217 715 371 715 C458 715 536 678 536 633 C536 612 517 594 495 594 C481 594 475 600 461 611 C434 631 404 642 365 642 C252 642 206 572 190 460 L160 246 C144 134 171 64 284 64 C323 64 356 75 389 95 C407 106 413 112 427 112 C446 112 458 98 458 81 C458 32 363 -9 269 -9 C115 -9 58 92 80 246 L80 246 Z M383 762 C373 762 366 766 360 771 L283 844 C273 853 267 862 267 874 C267 893 285 907 302 907 C308 907 314 904 319 900 L393 833 L486 900 C492 904 498 907 504 907 C519 907 532 896 532 881 C532 866 524 856 507 844 L408 771 C401 766 393 762 383 762 L383 762 Z " />
<glyph glyph-name="ccaron" unicode="&#x10d;" horiz-adv-x="393" d="M70 176 L91 327 C105 430 171 511 296 511 C341 511 426 498 426 454 C426 434 408 416 387 416 C382 416 377 416 372 419 C349 430 329 442 294 442 C216 442 179 400 169 327 L147 176 C137 103 162 61 240 61 C275 61 299 73 325 84 C331 87 336 87 341 87 C358 87 371 73 371 57 C371 7 271 -8 223 -8 C98 -8 55 73 70 176 L70 176 Z M302 562 C292 562 285 566 279 571 L202 644 C192 653 186 662 186 674 C186 693 204 707 221 707 C227 707 233 704 238 700 L312 633 L405 700 C411 704 417 707 423 707 C438 707 451 696 451 681 C451 666 443 656 426 644 L327 571 C320 566 312 562 302 562 L302 562 Z " />
<glyph glyph-name="Dcaron" unicode="&#x10e;" horiz-adv-x="554" d="M545 264 C526 127 439 0 234 0 L121 0 C95 0 76 22 80 48 L165 658 C169 684 194 706 220 706 L333 706 C537 706 590 585 571 451 L545 264 L545 264 Z M465 264 L491 451 C505 550 469 628 339 628 L241 628 L164 78 L262 78 C394 78 451 161 465 264 L465 264 Z M384 762 C374 762 367 766 361 771 L284 844 C274 853 268 862 268 874 C268 893 286 907 303 907 C309 907 315 904 320 900 L394 833 L487 900 C493 904 499 907 505 907 C520 907 533 896 533 881 C533 866 525 856 508 844 L409 771 C402 766 394 762 384 762 L384 762 Z " />
<glyph glyph-name="dcaron" unicode="&#x10f;" horiz-adv-x="605" d="M284 510 C317 510 358 503 392 491 L420 687 C423 708 439 725 464 725 C489 725 501 708 498 687 L417 114 C413 86 417 69 435 54 C437 49 439 44 439 38 C439 15 418 -1 399 -1 C376 -1 360 12 351 31 C304 9 253 -8 203 -8 C98 -8 55 69 71 181 L89 308 C106 427 157 510 284 510 L284 510 Z M339 114 L382 421 C351 435 308 442 284 442 C211 442 180 401 167 308 L149 181 C138 103 163 62 229 62 C261 62 302 73 338 91 C337 99 338 107 339 114 L339 114 Z M676 678 C676 618 606 508 577 508 C568 508 560 511 560 522 C560 555 591 571 610 617 C585 620 568 640 568 665 C568 698 597 725 630 725 C657 725 676 704 676 678 L676 678 Z " />
<glyph glyph-name="Dcroat" unicode="&#x110;" horiz-adv-x="574" d="M565 264 C546 127 459 0 254 0 L141 0 C115 0 95 22 99 48 L137 317 L98 317 C79 317 66 331 66 349 C66 371 86 390 109 390 L147 390 L185 658 C189 684 214 706 240 706 L353 706 C557 706 610 585 591 451 L565 264 L565 264 Z M389 357 C389 335 369 317 347 317 L217 317 L184 78 L282 78 C414 78 471 161 485 264 L511 451 C525 550 489 628 359 628 L261 628 L228 390 L358 390 C376 390 389 375 389 357 L389 357 Z " />
<glyph glyph-name="dcroat" unicode="&#x111;" horiz-adv-x="488" d="M570 610 C570 588 550 570 528 570 L481 570 L417 114 C413 86 417 69 435 54 C437 49 439 44 439 38 C439 15 418 -1 399 -1 C376 -1 360 12 351 31 C304 9 253 -8 203 -8 C98 -8 55 69 71 181 L89 308 C106 427 157 510 284 510 C317 510 358 503 392 491 L403 570 L279 570 C260 570 247 584 247 602 C247 624 267 643 290 643 L414 643 L420 687 C423 708 439 725 464 725 C489 725 501 708 498 687 L492 643 L539 643 C557 643 570 628 570 610 L570 610 Z M339 114 L382 421 C351 435 308 442 284 442 C211 442 180 401 167 308 L149 181 C138 103 163 62 229 62 C261 62 302 73 338 91 C337 99 338 107 339 114 L339 114 Z " />
<glyph glyph-name="Emacron" unicode="&#x112;" horiz-adv-x="474" d="M448 45 C448 21 425 0 401 0 L136 0 C103 0 75 11 80 47 L166 658 C169 681 193 705 220 705 L491 705 C511 705 525 689 525 670 C525 645 503 627 480 627 L242 627 L209 393 L428 393 C446 393 462 378 462 358 C462 334 441 315 417 315 L198 315 L164 78 L412 78 C432 78 448 63 448 45 L448 45 Z M516 841 C516 819 496 801 474 801 L225 801 C206 801 193 815 193 833 C193 855 213 874 236 874 L485 874 C503 874 516 859 516 841 L516 841 Z " />
<glyph glyph-name="emacron" unicode="&#x113;" horiz-adv-x="435" d="M241 61 C283 61 312 73 349 89 C351 90 356 92 363 92 C381 92 393 77 393 61 C393 9 278 -8 222 -8 C109 -8 54 64 67 158 L94 345 C108 441 181 514 300 514 C398 514 446 461 446 378 C446 273 390 203 254 203 C224 203 187 206 153 212 L145 153 C137 97 169 61 241 61 L241 61 Z M368 369 C368 421 339 443 288 443 C223 443 180 408 172 352 L161 276 C198 271 246 269 266 269 C342 269 368 310 368 369 L368 369 Z M468 641 C468 619 448 601 426 601 L177 601 C158 601 145 615 145 633 C145 655 165 674 188 674 L437 674 C455 674 468 659 468 641 L468 641 Z " />
<glyph glyph-name="Ebreve" unicode="&#x114;" horiz-adv-x="474" d="M448 45 C448 21 425 0 401 0 L136 0 C103 0 75 11 80 47 L166 658 C169 681 193 705 220 705 L491 705 C511 705 525 689 525 670 C525 645 503 627 480 627 L242 627 L209 393 L428 393 C446 393 462 378 462 358 C462 334 441 315 417 315 L198 315 L164 78 L412 78 C432 78 448 63 448 45 L448 45 Z M355 833 C377 833 400 844 425 874 C434 885 447 890 458 890 C475 890 489 879 479 853 C458 799 391 772 346 772 C301 772 242 799 236 853 C233 879 251 890 268 890 C279 890 289 885 295 874 C311 844 332 833 355 833 L355 833 Z " />
<glyph glyph-name="ebreve" unicode="&#x115;" horiz-adv-x="435" d="M241 61 C283 61 312 73 349 89 C351 90 356 92 363 92 C381 92 393 77 393 61 C393 9 278 -8 222 -8 C109 -8 54 64 67 158 L94 345 C108 441 181 514 300 514 C398 514 446 461 446 378 C446 273 390 203 254 203 C224 203 187 206 153 212 L145 153 C137 97 169 61 241 61 L241 61 Z M368 369 C368 421 339 443 288 443 C223 443 180 408 172 352 L161 276 C198 271 246 269 266 269 C342 269 368 310 368 369 L368 369 Z M306 633 C328 633 351 644 376 674 C385 685 398 690 409 690 C426 690 440 679 430 653 C409 599 342 572 297 572 C252 572 193 599 187 653 C184 679 202 690 219 690 C230 690 240 685 246 674 C262 644 283 633 306 633 L306 633 Z " />
<glyph glyph-name="Edotaccent" unicode="&#x116;" horiz-adv-x="474" d="M448 45 C448 21 425 0 401 0 L136 0 C103 0 75 11 80 47 L166 658 C169 681 193 705 220 705 L491 705 C511 705 525 689 525 670 C525 645 503 627 480 627 L242 627 L209 393 L428 393 C446 393 462 378 462 358 C462 334 441 315 417 315 L198 315 L164 78 L412 78 C432 78 448 63 448 45 L448 45 Z M402 844 C402 815 376 790 347 790 C323 790 307 810 307 833 C307 861 332 886 360 886 C385 886 402 868 402 844 L402 844 Z " />
<glyph glyph-name="edotaccent" unicode="&#x117;" horiz-adv-x="435" d="M241 61 C283 61 312 73 349 89 C351 90 356 92 363 92 C381 92 393 77 393 61 C393 9 278 -8 222 -8 C109 -8 54 64 67 158 L94 345 C108 441 181 514 300 514 C398 514 446 461 446 378 C446 273 390 203 254 203 C224 203 187 206 153 212 L145 153 C137 97 169 61 241 61 L241 61 Z M368 369 C368 421 339 443 288 443 C223 443 180 408 172 352 L161 276 C198 271 246 269 266 269 C342 269 368 310 368 369 L368 369 Z M354 644 C354 615 328 590 299 590 C275 590 259 610 259 633 C259 661 284 686 312 686 C337 686 354 668 354 644 L354 644 Z " />
<glyph glyph-name="Eogonek" unicode="&#x118;" horiz-adv-x="474" d="M462 -153 C462 -190 412 -195 379 -195 C323 -195 287 -171 287 -119 C287 -79 310 -37 341 0 L136 0 C103 0 75 11 80 47 L166 658 C169 681 193 705 220 705 L491 705 C511 705 525 689 525 670 C525 645 503 627 480 627 L242 627 L209 393 L428 393 C446 393 462 378 462 358 C462 334 441 315 417 315 L198 315 L164 78 L412 78 C432 78 448 63 448 45 C448 21 425 0 401 0 C383 -30 357 -66 357 -96 C357 -117 369 -134 396 -134 C420 -134 427 -129 438 -129 C452 -129 462 -140 462 -153 L462 -153 Z " />
<glyph glyph-name="eogonek" unicode="&#x119;" horiz-adv-x="435" d="M372 -153 C372 -190 322 -195 290 -195 C234 -195 198 -171 198 -119 C198 -82 216 -43 246 -7 C237 -7 229 -8 222 -8 C109 -8 54 64 67 158 L94 345 C108 441 181 514 300 514 C398 514 446 461 446 378 C446 273 390 203 254 203 C224 203 187 206 153 212 L145 153 C137 97 169 61 241 61 C283 61 312 73 349 89 C351 90 356 92 363 92 C381 92 393 77 393 61 C393 32 357 24 320 4 C273 -22 268 -87 268 -96 C268 -117 280 -134 306 -134 C330 -134 338 -129 349 -129 C363 -129 372 -140 372 -153 L372 -153 Z M368 369 C368 421 339 443 288 443 C223 443 180 408 172 352 L161 276 C198 271 246 269 266 269 C342 269 368 310 368 369 L368 369 Z " />
<glyph glyph-name="Ecaron" unicode="&#x11a;" horiz-adv-x="474" d="M448 45 C448 21 425 0 401 0 L136 0 C103 0 75 11 80 47 L166 658 C169 681 193 705 220 705 L491 705 C511 705 525 689 525 670 C525 645 503 627 480 627 L242 627 L209 393 L428 393 C446 393 462 378 462 358 C462 334 441 315 417 315 L198 315 L164 78 L412 78 C432 78 448 63 448 45 L448 45 Z M374 762 C364 762 357 766 351 771 L274 844 C264 853 258 862 258 874 C258 893 276 907 293 907 C299 907 305 904 310 900 L384 833 L477 900 C483 904 489 907 495 907 C510 907 523 896 523 881 C523 866 515 856 498 844 L399 771 C392 766 384 762 374 762 L374 762 Z " />
<glyph glyph-name="ecaron" unicode="&#x11b;" horiz-adv-x="435" d="M241 61 C283 61 312 73 349 89 C351 90 356 92 363 92 C381 92 393 77 393 61 C393 9 278 -8 222 -8 C109 -8 54 64 67 158 L94 345 C108 441 181 514 300 514 C398 514 446 461 446 378 C446 273 390 203 254 203 C224 203 187 206 153 212 L145 153 C137 97 169 61 241 61 L241 61 Z M368 369 C368 421 339 443 288 443 C223 443 180 408 172 352 L161 276 C198 271 246 269 266 269 C342 269 368 310 368 369 L368 369 Z M296 562 C286 562 279 566 273 571 L196 644 C186 653 180 662 180 674 C180 693 198 707 215 707 C221 707 227 704 232 700 L306 633 L399 700 C405 704 411 707 417 707 C432 707 445 696 445 681 C445 666 437 656 420 644 L321 571 C314 566 306 562 296 562 L296 562 Z " />
<glyph glyph-name="Gcircumflex" unicode="&#x11c;" horiz-adv-x="520" d="M190 460 L160 246 C144 134 171 64 284 64 C332 64 369 78 402 101 L432 316 L335 316 C317 316 302 331 302 350 C302 373 324 392 346 392 L465 392 C497 392 520 378 516 346 L482 107 C471 26 358 -9 269 -9 C115 -9 58 92 80 246 L110 460 C132 614 217 715 371 715 C458 715 536 678 536 633 C536 612 517 594 495 594 C481 594 475 600 461 611 C434 631 404 642 365 642 C252 642 206 572 190 460 L190 460 Z M378 836 L295 775 C291 772 281 769 275 769 C263 769 253 781 253 792 C253 805 263 815 276 825 L364 892 C370 896 378 900 387 900 C396 900 403 896 408 892 L477 825 C485 817 491 807 491 798 C491 784 477 769 462 769 C457 769 447 772 444 775 L378 836 L378 836 Z " />
<glyph glyph-name="gcircumflex" unicode="&#x11d;" horiz-adv-x="485" d="M348 107 L383 353 C391 409 355 442 290 442 C218 442 179 401 170 333 L148 175 C138 104 159 61 230 61 C271 61 314 75 348 107 L348 107 Z M461 353 L405 -40 C391 -143 326 -224 201 -224 C155 -224 70 -211 70 -167 C70 -147 88 -129 109 -129 C114 -129 119 -130 124 -132 C147 -144 167 -155 202 -155 C280 -155 317 -113 327 -40 L337 30 C298 7 255 -7 204 -7 C83 -7 55 71 70 175 L92 333 C106 435 178 514 300 514 C416 514 474 443 461 353 L461 353 Z M316 636 L233 575 C229 572 219 569 213 569 C201 569 191 581 191 592 C191 605 201 615 214 625 L302 692 C308 696 316 700 325 700 C334 700 341 696 346 692 L415 625 C423 617 429 607 429 598 C429 584 415 569 400 569 C395 569 385 572 382 575 L316 636 L316 636 Z " />
<glyph glyph-name="Gbreve" unicode="&#x11e;" horiz-adv-x="520" d="M190 460 L160 246 C144 134 171 64 284 64 C332 64 369 78 402 101 L432 316 L335 316 C317 316 302 331 302 350 C302 373 324 392 346 392 L465 392 C497 392 520 378 516 346 L482 107 C471 26 358 -9 269 -9 C115 -9 58 92 80 246 L110 460 C132 614 217 715 371 715 C458 715 536 678 536 633 C536 612 517 594 495 594 C481 594 475 600 461 611 C434 631 404 642 365 642 C252 642 206 572 190 460 L190 460 Z M378 833 C400 833 423 844 448 874 C457 885 470 890 481 890 C498 890 512 879 502 853 C481 799 414 772 369 772 C324 772 265 799 259 853 C256 879 274 890 291 890 C302 890 312 885 318 874 C334 844 355 833 378 833 L378 833 Z " />
<glyph glyph-name="gbreve" unicode="&#x11f;" horiz-adv-x="485" d="M348 107 L383 353 C391 409 355 442 290 442 C218 442 179 401 170 333 L148 175 C138 104 159 61 230 61 C271 61 314 75 348 107 L348 107 Z M461 353 L405 -40 C391 -143 326 -224 201 -224 C155 -224 70 -211 70 -167 C70 -147 88 -129 109 -129 C114 -129 119 -130 124 -132 C147 -144 167 -155 202 -155 C280 -155 317 -113 327 -40 L337 30 C298 7 255 -7 204 -7 C83 -7 55 71 70 175 L92 333 C106 435 178 514 300 514 C416 514 474 443 461 353 L461 353 Z M317 633 C339 633 362 644 387 674 C396 685 409 690 420 690 C437 690 451 679 441 653 C420 599 353 572 308 572 C263 572 204 599 198 653 C195 679 213 690 230 690 C241 690 251 685 257 674 C273 644 294 633 317 633 L317 633 Z " />
<glyph glyph-name="Gdotaccent" unicode="&#x120;" horiz-adv-x="520" d="M190 460 L160 246 C144 134 171 64 284 64 C332 64 369 78 402 101 L432 316 L335 316 C317 316 302 331 302 350 C302 373 324 392 346 392 L465 392 C497 392 520 378 516 346 L482 107 C471 26 358 -9 269 -9 C115 -9 58 92 80 246 L110 460 C132 614 217 715 371 715 C458 715 536 678 536 633 C536 612 517 594 495 594 C481 594 475 600 461 611 C434 631 404 642 365 642 C252 642 206 572 190 460 L190 460 Z M425 844 C425 815 399 790 370 790 C346 790 330 810 330 833 C330 861 355 886 383 886 C408 886 425 868 425 844 L425 844 Z " />
<glyph glyph-name="gdotaccent" unicode="&#x121;" horiz-adv-x="485" d="M348 107 L383 353 C391 409 355 442 290 442 C218 442 179 401 170 333 L148 175 C138 104 159 61 230 61 C271 61 314 75 348 107 L348 107 Z M461 353 L405 -40 C391 -143 326 -224 201 -224 C155 -224 70 -211 70 -167 C70 -147 88 -129 109 -129 C114 -129 119 -130 124 -132 C147 -144 167 -155 202 -155 C280 -155 317 -113 327 -40 L337 30 C298 7 255 -7 204 -7 C83 -7 55 71 70 175 L92 333 C106 435 178 514 300 514 C416 514 474 443 461 353 L461 353 Z M367 644 C367 615 341 590 312 590 C288 590 272 610 272 633 C272 661 297 686 325 686 C350 686 367 668 367 644 L367 644 Z " />
<glyph glyph-name="uni0122" unicode="&#x122;" horiz-adv-x="520" d="M190 460 L160 246 C144 134 171 64 284 64 C332 64 369 78 402 101 L432 316 L335 316 C317 316 302 331 302 350 C302 373 324 392 346 392 L465 392 C497 392 520 378 516 346 L482 107 C471 26 358 -9 269 -9 C115 -9 58 92 80 246 L110 460 C132 614 217 715 371 715 C458 715 536 678 536 633 C536 612 517 594 495 594 C481 594 475 600 461 611 C434 631 404 642 365 642 C252 642 206 572 190 460 L190 460 Z M320 -98 C320 -150 254 -238 225 -238 C216 -238 208 -234 208 -223 C208 -200 237 -189 254 -159 C229 -157 212 -136 212 -111 C212 -77 241 -51 274 -51 C301 -51 320 -72 320 -98 L320 -98 Z " />
<glyph glyph-name="uni0123" unicode="&#x123;" horiz-adv-x="485" d="M264 631 C264 683 330 771 359 771 C368 771 376 767 376 756 C376 733 347 722 330 692 C355 690 372 669 372 644 C372 610 343 584 310 584 C283 584 264 605 264 631 L264 631 Z M348 107 L383 353 C391 409 355 442 290 442 C218 442 179 401 170 333 L148 175 C138 104 159 61 230 61 C271 61 314 75 348 107 L348 107 Z M461 353 L405 -40 C391 -143 326 -224 201 -224 C155 -224 70 -211 70 -167 C70 -147 88 -129 109 -129 C114 -129 119 -130 124 -132 C147 -144 167 -155 202 -155 C280 -155 317 -113 327 -40 L337 30 C298 7 255 -7 204 -7 C83 -7 55 71 70 175 L92 333 C106 435 178 514 300 514 C416 514 474 443 461 353 L461 353 Z " />
<glyph glyph-name="Hcircumflex" unicode="&#x124;" horiz-adv-x="580" d="M510 31 C507 9 486 -10 464 -10 C443 -10 427 9 430 31 L470 314 L197 314 L157 31 C154 9 133 -10 111 -10 C89 -10 74 9 77 31 L168 675 C171 696 191 715 213 715 C235 715 251 696 248 675 L208 392 L481 392 L521 675 C524 696 545 715 566 715 C587 715 604 696 601 675 L510 31 L510 31 Z M408 836 L325 775 C321 772 311 769 305 769 C293 769 283 781 283 792 C283 805 293 815 306 825 L394 892 C400 896 408 900 417 900 C426 900 433 896 438 892 L507 825 C515 817 521 807 521 798 C521 784 507 769 492 769 C487 769 477 772 474 775 L408 836 L408 836 Z " />
<glyph glyph-name="hcircumflex" unicode="&#x125;" horiz-adv-x="507" d="M367 94 L403 347 C411 408 391 441 329 441 C288 441 239 423 205 384 L155 31 C152 9 134 -8 112 -8 C90 -8 75 9 78 31 L171 692 C174 712 192 731 214 731 C236 731 251 714 248 692 L217 472 C255 498 300 514 348 514 C455 514 495 445 481 348 L445 94 C442 72 442 59 452 47 C454 44 457 38 457 31 C457 10 438 -8 416 -8 C391 -8 354 4 367 94 L367 94 Z M408 836 L325 775 C321 772 311 769 305 769 C293 769 283 781 283 792 C283 805 293 815 306 825 L394 892 C400 896 408 900 417 900 C426 900 433 896 438 892 L507 825 C515 817 521 807 521 798 C521 784 507 769 492 769 C487 769 477 772 474 775 L408 836 L408 836 Z " />
<glyph glyph-name="Itilde" unicode="&#x128;" horiz-adv-x="227" d="M77 30 L168 675 C171 696 191 715 213 715 C235 715 251 696 248 675 L157 30 C154 9 133 -10 111 -10 C89 -10 74 9 77 30 L77 30 Z M372 854 C372 817 319 791 281 789 C238 789 215 818 185 821 C148 821 139 794 117 794 C102 794 91 805 91 821 C96 858 139 886 182 886 C224 886 246 857 278 854 C316 854 321 879 346 882 C360 882 372 870 372 854 L372 854 Z " />
<glyph glyph-name="itilde" unicode="&#x129;" horiz-adv-x="245" d="M97 94 L150 472 C153 493 172 511 194 511 C216 511 231 493 228 472 L175 94 C172 72 172 59 182 47 C184 44 187 38 187 31 C187 10 167 -8 145 -8 C120 -8 84 4 97 94 L97 94 Z M353 654 C353 617 300 591 262 589 C219 589 196 618 166 621 C129 621 120 594 98 594 C83 594 72 605 72 621 C77 658 120 686 163 686 C205 686 227 657 259 654 C297 654 302 679 327 682 C341 682 353 670 353 654 L353 654 Z " />
<glyph glyph-name="Imacron" unicode="&#x12a;" horiz-adv-x="227" d="M77 30 L168 675 C171 696 191 715 213 715 C235 715 251 696 248 675 L157 30 C154 9 133 -10 111 -10 C89 -10 74 9 77 30 L77 30 Z M393 841 C393 819 373 801 351 801 L102 801 C83 801 70 815 70 833 C70 855 90 874 113 874 L362 874 C380 874 393 859 393 841 L393 841 Z " />
<glyph glyph-name="imacron" unicode="&#x12b;" horiz-adv-x="245" d="M97 94 L150 472 C153 493 172 511 194 511 C216 511 231 493 228 472 L175 94 C172 72 172 59 182 47 C184 44 187 38 187 31 C187 10 167 -8 145 -8 C120 -8 84 4 97 94 L97 94 Z M374 641 C374 619 354 601 332 601 L83 601 C64 601 51 615 51 633 C51 655 71 674 94 674 L343 674 C361 674 374 659 374 641 L374 641 Z " />
<glyph glyph-name="Ibreve" unicode="&#x12c;" horiz-adv-x="227" d="M77 30 L168 675 C171 696 191 715 213 715 C235 715 251 696 248 675 L157 30 C154 9 133 -10 111 -10 C89 -10 74 9 77 30 L77 30 Z M232 833 C254 833 277 844 302 874 C311 885 324 890 335 890 C352 890 366 879 356 853 C335 799 268 772 223 772 C178 772 119 799 113 853 C110 879 128 890 145 890 C156 890 166 885 172 874 C188 844 209 833 232 833 L232 833 Z " />
<glyph glyph-name="ibreve" unicode="&#x12d;" horiz-adv-x="245" d="M97 94 L150 472 C153 493 172 511 194 511 C216 511 231 493 228 472 L175 94 C172 72 172 59 182 47 C184 44 187 38 187 31 C187 10 167 -8 145 -8 C120 -8 84 4 97 94 L97 94 Z M212 633 C234 633 257 644 282 674 C291 685 304 690 315 690 C332 690 346 679 336 653 C315 599 248 572 203 572 C158 572 99 599 93 653 C90 679 108 690 125 690 C136 690 146 685 152 674 C168 644 189 633 212 633 L212 633 Z " />
<glyph glyph-name="Iogonek" unicode="&#x12e;" horiz-adv-x="227" d="M199 -153 C199 -190 149 -195 117 -195 C61 -195 25 -171 25 -119 C25 -78 48 -35 83 3 C78 10 76 20 77 30 L168 675 C171 696 192 715 214 715 C236 715 251 696 248 675 L157 30 C155 18 146 8 139 0 C115 -27 95 -69 95 -96 C95 -117 107 -134 133 -134 C157 -134 165 -129 176 -129 C190 -129 199 -140 199 -153 L199 -153 Z " />
<glyph glyph-name="iogonek" unicode="&#x12f;" horiz-adv-x="245" d="M206 -153 C206 -190 156 -195 124 -195 C68 -195 32 -171 32 -119 C32 -77 57 -33 93 5 C88 12 86 21 87 31 L149 472 C152 493 172 511 194 511 C216 511 230 493 227 472 L165 31 C163 18 154 9 146 0 C121 -26 102 -69 102 -96 C102 -117 114 -134 140 -134 C164 -134 172 -129 183 -129 C197 -129 206 -140 206 -153 L206 -153 Z M264 674 C264 645 238 620 209 620 C185 620 167 639 167 663 C167 692 193 716 223 716 C247 716 264 698 264 674 L264 674 Z " />
<glyph glyph-name="Idotaccent" unicode="&#x130;" horiz-adv-x="227" d="M77 30 L168 675 C171 696 191 715 213 715 C235 715 251 696 248 675 L157 30 C154 9 133 -10 111 -10 C89 -10 74 9 77 30 L77 30 Z M279 844 C279 815 253 790 224 790 C200 790 184 810 184 833 C184 861 209 886 237 886 C262 886 279 868 279 844 L279 844 Z " />
<glyph glyph-name="dotlessi" unicode="&#x131;" horiz-adv-x="245" d="M97 94 L150 472 C153 493 172 511 194 511 C216 511 231 493 228 472 L175 94 C172 72 172 59 182 47 C184 44 187 38 187 31 C187 10 167 -8 145 -8 C120 -8 84 4 97 94 L97 94 Z " />
<glyph glyph-name="Jcircumflex" unicode="&#x134;" horiz-adv-x="385" d="M406 675 L343 225 C323 79 263 -10 108 -10 C81 -10 29 -7 29 30 C29 58 54 74 70 74 C81 74 99 67 130 67 C222 67 249 128 263 225 L326 675 C329 697 349 715 372 715 C393 715 409 696 406 675 L406 675 Z M388 836 L305 775 C301 772 291 769 285 769 C273 769 263 781 263 792 C263 805 273 815 286 825 L374 892 C380 896 388 900 397 900 C406 900 413 896 418 892 L487 825 C495 817 501 807 501 798 C501 784 487 769 472 769 C467 769 457 772 454 775 L388 836 L388 836 Z " />
<glyph glyph-name="jcircumflex" unicode="&#x135;" horiz-adv-x="245" d="M227 472 L159 -15 C144 -120 84 -189 -8 -202 C-16 -203 -21 -203 -27 -203 C-43 -203 -55 -193 -57 -177 C-60 -150 -36 -137 -21 -134 C35 -122 70 -92 80 -19 L149 472 C152 493 172 511 194 511 C216 511 230 493 227 472 L227 472 Z M212 636 L129 575 C125 572 115 569 109 569 C97 569 87 581 87 592 C87 605 97 615 110 625 L198 692 C204 696 212 700 221 700 C230 700 237 696 242 692 L311 625 C319 617 325 607 325 598 C325 584 311 569 296 569 C291 569 281 572 278 575 L212 636 L212 636 Z " />
<glyph glyph-name="uni0136" unicode="&#x136;" horiz-adv-x="498" d="M421 9 L248 324 L190 263 L157 31 C154 9 133 -10 111 -10 C89 -10 74 9 77 31 L168 675 C171 696 191 715 213 715 C235 715 251 696 248 675 L207 384 L504 696 C512 706 528 715 542 715 C557 715 578 703 572 675 C570 664 565 657 559 650 L307 386 L493 52 C495 47 496 43 496 38 C496 21 486 -10 452 -10 C437 -10 428 -4 421 9 L421 9 Z M327 -98 C327 -150 261 -238 232 -238 C223 -238 215 -234 215 -223 C215 -200 244 -189 261 -159 C236 -157 219 -136 219 -111 C219 -77 248 -51 281 -51 C308 -51 327 -72 327 -98 L327 -98 Z " />
<glyph glyph-name="uni0137" unicode="&#x137;" horiz-adv-x="439" d="M248 686 L196 313 L403 501 C409 507 419 510 428 510 C448 510 461 496 461 478 C461 468 457 457 447 448 L278 298 L412 48 C415 42 416 32 415 25 C411 5 394 -8 374 -8 C361 -8 351 -2 344 11 L223 247 L181 210 L156 31 C153 9 134 -8 112 -8 C90 -8 75 9 78 31 L170 686 C173 708 193 725 215 725 C237 725 251 708 248 686 L248 686 Z M286 -98 C286 -150 220 -238 191 -238 C182 -238 174 -234 174 -223 C174 -200 203 -189 220 -159 C195 -157 178 -136 178 -111 C178 -77 207 -51 240 -51 C267 -51 286 -72 286 -98 L286 -98 Z " />
<glyph glyph-name="Lacute" unicode="&#x139;" horiz-adv-x="448" d="M444 43 C444 19 423 0 400 0 L118 0 C94 0 76 20 79 45 L168 675 C171 696 192 715 214 715 C236 715 251 696 248 675 L164 77 L411 77 C429 77 444 62 444 43 L444 43 Z M210 824 L299 905 C314 918 321 928 339 928 C352 928 366 916 366 899 C366 894 365 884 358 878 L265 792 C252 780 243 774 230 774 C214 774 202 786 202 804 C202 814 205 819 210 824 L210 824 Z " />
<glyph glyph-name="lacute" unicode="&#x13a;" horiz-adv-x="228" d="M88 94 L171 686 C174 707 193 725 215 725 C237 725 252 708 249 686 L166 94 C163 72 163 59 173 47 C175 44 178 38 178 31 C178 10 158 -8 136 -8 C111 -8 75 4 88 94 L88 94 Z M200 810 L289 891 C304 904 311 914 329 914 C342 914 356 902 356 885 C356 880 355 870 348 864 L255 778 C242 766 233 760 220 760 C204 760 192 772 192 790 C192 800 195 805 200 810 L200 810 Z " />
<glyph glyph-name="uni013B" unicode="&#x13b;" horiz-adv-x="448" d="M444 43 C444 19 423 0 400 0 L118 0 C94 0 76 20 79 45 L168 675 C171 696 192 715 214 715 C236 715 251 696 248 675 L164 77 L411 77 C429 77 444 62 444 43 L444 43 Z M309 -98 C309 -150 243 -238 214 -238 C205 -238 197 -234 197 -223 C197 -200 226 -189 243 -159 C218 -157 201 -136 201 -111 C201 -77 230 -51 263 -51 C290 -51 309 -72 309 -98 L309 -98 Z " />
<glyph glyph-name="uni013C" unicode="&#x13c;" horiz-adv-x="228" d="M88 94 L171 686 C174 707 193 725 215 725 C237 725 252 708 249 686 L166 94 C163 72 163 59 173 47 C175 44 178 38 178 31 C178 10 158 -8 136 -8 C111 -8 75 4 88 94 L88 94 Z M154 -98 C154 -150 88 -238 59 -238 C50 -238 42 -234 42 -223 C42 -200 71 -189 88 -159 C63 -157 46 -136 46 -111 C46 -77 75 -51 108 -51 C135 -51 154 -72 154 -98 L154 -98 Z " />
<glyph glyph-name="Lcaron" unicode="&#x13d;" horiz-adv-x="448" d="M444 43 C444 19 423 0 400 0 L118 0 C94 0 76 20 79 45 L168 675 C171 696 192 715 214 715 C236 715 251 696 248 675 L164 77 L411 77 C429 77 444 62 444 43 L444 43 Z M492 678 C492 618 422 508 393 508 C384 508 376 511 376 522 C376 555 407 571 426 617 C401 620 384 640 384 665 C384 698 413 725 446 725 C473 725 492 704 492 678 L492 678 Z " />
<glyph glyph-name="lcaron" unicode="&#x13e;" horiz-adv-x="359" d="M88 94 L171 686 C174 707 193 725 215 725 C237 725 252 708 249 686 L166 94 C163 72 163 59 173 47 C175 44 178 38 178 31 C178 10 158 -8 136 -8 C111 -8 75 4 88 94 L88 94 Z M429 678 C429 618 359 508 330 508 C321 508 313 511 313 522 C313 555 344 571 363 617 C338 620 321 640 321 665 C321 698 350 725 383 725 C410 725 429 704 429 678 L429 678 Z " />
<glyph glyph-name="Lslash" unicode="&#x141;" horiz-adv-x="494" d="M490 43 C490 19 469 0 446 0 L164 0 C140 0 122 20 126 45 L160 292 L117 266 C109 261 100 255 92 255 C73 255 56 265 56 288 C56 302 65 315 78 323 L173 380 L214 675 C217 696 238 715 260 715 C282 715 297 696 294 675 L260 432 L319 468 C329 474 336 478 349 478 C363 478 376 468 379 453 C379 450 380 447 380 444 C380 432 372 420 359 412 L248 345 L210 77 L457 77 C475 77 490 62 490 43 L490 43 Z " />
<glyph glyph-name="lslash" unicode="&#x142;" horiz-adv-x="337" d="M133 94 L161 293 L117 266 C109 261 100 255 92 255 C73 255 56 265 56 288 C56 302 65 315 78 323 L174 380 L217 686 C220 707 239 725 261 725 C283 725 298 708 295 686 L259 432 L319 468 C329 474 336 478 349 478 C363 478 376 468 379 453 C379 450 380 447 380 444 C380 432 372 420 359 412 L246 344 L211 94 C208 72 209 59 219 47 C221 44 223 38 223 31 C223 10 204 -8 182 -8 C157 -8 120 4 133 94 L133 94 Z " />
<glyph glyph-name="Nacute" unicode="&#x143;" horiz-adv-x="600" d="M480 -10 C464 -10 449 -1 443 13 L229 546 L157 31 C154 9 132 -10 110 -10 C88 -10 74 9 77 31 L167 671 C170 696 191 715 216 715 C233 715 249 706 255 691 L468 159 L540 674 C543 696 565 715 587 715 C609 715 623 696 620 674 L531 34 C527 10 506 -10 480 -10 L480 -10 Z M386 824 L475 905 C490 918 497 928 515 928 C528 928 542 916 542 899 C542 894 541 884 534 878 L441 792 C428 780 419 774 406 774 C390 774 378 786 378 804 C378 814 381 819 386 824 L386 824 Z " />
<glyph glyph-name="nacute" unicode="&#x144;" horiz-adv-x="509" d="M368 94 L400 323 C411 399 385 442 325 442 C286 442 245 426 208 400 C208 389 208 379 207 371 L159 31 C156 10 141 -7 115 -7 C89 -7 78 10 81 31 L129 371 C137 426 128 426 121 441 C120 444 116 450 116 458 C116 479 135 496 158 496 C176 496 188 484 196 467 C245 498 298 512 346 512 C452 512 494 436 478 323 L446 94 C443 72 443 59 453 47 C455 44 458 38 458 31 C458 10 438 -8 416 -8 C391 -8 355 4 368 94 L368 94 Z M272 624 L361 705 C376 718 383 728 401 728 C414 728 428 716 428 699 C428 694 427 684 420 678 L327 592 C314 580 305 574 292 574 C276 574 264 586 264 604 C264 614 267 619 272 624 L272 624 Z " />
<glyph glyph-name="uni0145" unicode="&#x145;" horiz-adv-x="600" d="M480 -10 C464 -10 449 -1 443 13 L229 546 L157 31 C154 9 132 -10 110 -10 C88 -10 74 9 77 31 L167 671 C170 696 191 715 216 715 C233 715 249 706 255 691 L468 159 L540 674 C543 696 565 715 587 715 C609 715 623 696 620 674 L531 34 C527 10 506 -10 480 -10 L480 -10 Z M340 -98 C340 -150 274 -238 245 -238 C236 -238 228 -234 228 -223 C228 -200 257 -189 274 -159 C249 -157 232 -136 232 -111 C232 -77 261 -51 294 -51 C321 -51 340 -72 340 -98 L340 -98 Z " />
<glyph glyph-name="uni0146" unicode="&#x146;" horiz-adv-x="509" d="M368 94 L400 323 C411 399 385 442 325 442 C286 442 245 426 208 400 C208 389 208 379 207 371 L159 31 C156 10 141 -7 115 -7 C89 -7 78 10 81 31 L129 371 C137 426 128 426 121 441 C120 444 116 450 116 458 C116 479 135 496 158 496 C176 496 188 484 196 467 C245 498 298 512 346 512 C452 512 494 436 478 323 L446 94 C443 72 443 59 453 47 C455 44 458 38 458 31 C458 10 438 -8 416 -8 C391 -8 355 4 368 94 L368 94 Z M294 -98 C294 -150 228 -238 199 -238 C190 -238 182 -234 182 -223 C182 -200 211 -189 228 -159 C203 -157 186 -136 186 -111 C186 -77 215 -51 248 -51 C275 -51 294 -72 294 -98 L294 -98 Z " />
<glyph glyph-name="Ncaron" unicode="&#x147;" horiz-adv-x="600" d="M480 -10 C464 -10 449 -1 443 13 L229 546 L157 31 C154 9 132 -10 110 -10 C88 -10 74 9 77 31 L167 671 C170 696 191 715 216 715 C233 715 249 706 255 691 L468 159 L540 674 C543 696 565 715 587 715 C609 715 623 696 620 674 L531 34 C527 10 506 -10 480 -10 L480 -10 Z M407 762 C397 762 390 766 384 771 L307 844 C297 853 291 862 291 874 C291 893 309 907 326 907 C332 907 338 904 343 900 L417 833 L510 900 C516 904 522 907 528 907 C543 907 556 896 556 881 C556 866 548 856 531 844 L432 771 C425 766 417 762 407 762 L407 762 Z " />
<glyph glyph-name="ncaron" unicode="&#x148;" horiz-adv-x="509" d="M368 94 L400 323 C411 399 385 442 325 442 C286 442 245 426 208 400 C208 389 208 379 207 371 L159 31 C156 10 141 -7 115 -7 C89 -7 78 10 81 31 L129 371 C137 426 128 426 121 441 C120 444 116 450 116 458 C116 479 135 496 158 496 C176 496 188 484 196 467 C245 498 298 512 346 512 C452 512 494 436 478 323 L446 94 C443 72 443 59 453 47 C455 44 458 38 458 31 C458 10 438 -8 416 -8 C391 -8 355 4 368 94 L368 94 Z M333 562 C323 562 316 566 310 571 L233 644 C223 653 217 662 217 674 C217 693 235 707 252 707 C258 707 264 704 269 700 L343 633 L436 700 C442 704 448 707 454 707 C469 707 482 696 482 681 C482 666 474 656 457 644 L358 571 C351 566 343 562 333 562 L333 562 Z " />
<glyph glyph-name="Omacron" unicode="&#x14c;" horiz-adv-x="551" d="M274 -10 C121 -10 60 104 80 246 L110 460 C130 599 211 715 376 715 C541 715 590 599 570 460 L540 246 C520 104 427 -10 274 -10 L274 -10 Z M365 637 C255 637 205 566 190 460 L160 246 C145 141 182 68 285 68 C388 68 445 141 460 246 L490 460 C505 566 475 637 365 637 L365 637 Z M554 841 C554 819 534 801 512 801 L263 801 C244 801 231 815 231 833 C231 855 251 874 274 874 L523 874 C541 874 554 859 554 841 L554 841 Z " />
<glyph glyph-name="omacron" unicode="&#x14d;" horiz-adv-x="464" d="M231 -8 C109 -8 55 70 69 170 L93 337 C107 437 183 515 305 515 C427 515 481 437 467 337 L443 170 C429 70 353 -8 231 -8 L231 -8 Z M241 64 C313 64 356 104 365 170 L389 338 C398 403 366 443 294 443 C222 443 180 403 171 338 L147 170 C138 104 169 64 241 64 L241 64 Z M483 641 C483 619 463 601 441 601 L192 601 C173 601 160 615 160 633 C160 655 180 674 203 674 L452 674 C470 674 483 659 483 641 L483 641 Z " />
<glyph glyph-name="Obreve" unicode="&#x14e;" horiz-adv-x="551" d="M274 -10 C121 -10 60 104 80 246 L110 460 C130 599 211 715 376 715 C541 715 590 599 570 460 L540 246 C520 104 427 -10 274 -10 L274 -10 Z M365 637 C255 637 205 566 190 460 L160 246 C145 141 182 68 285 68 C388 68 445 141 460 246 L490 460 C505 566 475 637 365 637 L365 637 Z M393 833 C415 833 438 844 463 874 C472 885 485 890 496 890 C513 890 527 879 517 853 C496 799 429 772 384 772 C339 772 280 799 274 853 C271 879 289 890 306 890 C317 890 327 885 333 874 C349 844 370 833 393 833 L393 833 Z " />
<glyph glyph-name="obreve" unicode="&#x14f;" horiz-adv-x="464" d="M231 -8 C109 -8 55 70 69 170 L93 337 C107 437 183 515 305 515 C427 515 481 437 467 337 L443 170 C429 70 353 -8 231 -8 L231 -8 Z M241 64 C313 64 356 104 365 170 L389 338 C398 403 366 443 294 443 C222 443 180 403 171 338 L147 170 C138 104 169 64 241 64 L241 64 Z M321 633 C343 633 366 644 391 674 C400 685 413 690 424 690 C441 690 455 679 445 653 C424 599 357 572 312 572 C267 572 208 599 202 653 C199 679 217 690 234 690 C245 690 255 685 261 674 C277 644 298 633 321 633 L321 633 Z " />
<glyph glyph-name="Ohungarumlaut" unicode="&#x150;" horiz-adv-x="551" d="M274 -10 C121 -10 60 104 80 246 L110 460 C130 599 211 715 376 715 C541 715 590 599 570 460 L540 246 C520 104 427 -10 274 -10 L274 -10 Z M365 637 C255 637 205 566 190 460 L160 246 C145 141 182 68 285 68 C388 68 445 141 460 246 L490 460 C505 566 475 637 365 637 L365 637 Z M285 812 L361 906 C374 920 381 935 401 935 C417 935 430 920 430 904 C430 898 428 894 426 890 L347 791 C334 777 326 767 311 767 C293 767 281 779 281 796 C281 804 282 808 285 812 L285 812 Z M420 812 L497 906 C508 920 517 935 535 935 C549 935 566 920 566 905 C566 898 564 894 561 890 L482 791 C469 777 462 767 446 767 C428 767 416 779 416 796 C416 804 417 808 420 812 L420 812 Z " />
<glyph glyph-name="ohungarumlaut" unicode="&#x151;" horiz-adv-x="464" d="M231 -8 C109 -8 55 70 69 170 L93 337 C107 437 183 515 305 515 C427 515 481 437 467 337 L443 170 C429 70 353 -8 231 -8 L231 -8 Z M241 64 C313 64 356 104 365 170 L389 338 C398 403 366 443 294 443 C222 443 180 403 171 338 L147 170 C138 104 169 64 241 64 L241 64 Z M221 612 L297 706 C310 720 317 735 337 735 C353 735 366 720 366 704 C366 698 364 694 362 690 L283 591 C270 577 262 567 247 567 C229 567 217 579 217 596 C217 604 218 608 221 612 L221 612 Z M356 612 L433 706 C444 720 453 735 471 735 C485 735 502 720 502 705 C502 698 500 694 497 690 L418 591 C405 577 398 567 382 567 C364 567 352 579 352 596 C352 604 353 608 356 612 L356 612 Z " />
<glyph glyph-name="OE" unicode="&#x152;" horiz-adv-x="756" d="M729 45 C729 21 706 0 683 0 L448 0 C415 0 387 10 391 45 C354 11 308 -10 253 -10 C114 -10 58 96 76 226 L112 480 C130 609 204 715 355 715 C412 715 452 696 478 665 C485 685 506 705 531 705 L772 705 C792 705 806 689 806 670 C806 645 785 627 761 627 L553 627 L520 393 L709 393 C727 393 743 378 743 358 C743 334 722 315 698 315 L509 315 L475 78 L693 78 C713 78 729 63 729 45 L729 45 Z M344 637 C248 637 205 574 192 480 L156 226 C143 133 175 68 264 68 C353 68 403 133 416 226 L452 480 C465 574 440 637 344 637 L344 637 Z " />
<glyph glyph-name="oe" unicode="&#x153;" horiz-adv-x="731" d="M227 -8 C111 -8 55 71 69 170 L92 337 C106 436 184 515 300 515 C375 515 421 482 439 430 C471 481 525 514 600 514 C693 514 742 460 742 377 C742 273 686 203 550 203 C521 203 483 206 449 212 L441 153 C433 97 465 61 537 61 C579 61 608 73 645 89 C647 90 652 92 659 92 C677 92 689 77 689 61 C689 9 573 -8 521 -8 C449 -8 406 25 389 75 C356 24 301 -8 227 -8 L227 -8 Z M241 64 C313 64 356 104 365 170 L389 338 C398 403 366 443 294 443 C222 443 179 403 170 338 L147 170 C138 104 169 64 241 64 L241 64 Z M664 369 C664 421 635 443 584 443 C519 443 476 408 468 352 L457 276 C494 272 542 269 562 269 C638 269 664 310 664 369 L664 369 Z " />
<glyph glyph-name="Racute" unicode="&#x154;" horiz-adv-x="575" d="M584 535 C584 413 511 337 400 315 L523 52 C525 48 525 41 525 35 C525 9 493 -9 476 -9 C462 -9 451 -2 446 10 L311 310 L196 310 L157 32 C154 10 132 -10 110 -10 C89 -10 74 9 77 32 L165 657 C169 683 193 705 218 705 L392 705 C537 705 584 622 584 535 L584 535 Z M503 525 C503 576 477 627 377 627 L241 627 L207 387 L349 387 C448 387 503 436 503 525 L503 525 Z M333 824 L422 905 C437 918 444 928 462 928 C475 928 489 916 489 899 C489 894 488 884 481 878 L388 792 C375 780 366 774 353 774 C337 774 325 786 325 804 C325 814 328 819 333 824 L333 824 Z " />
<glyph glyph-name="racute" unicode="&#x155;" horiz-adv-x="337" d="M207 369 L159 31 C156 9 137 -8 115 -8 C93 -8 78 9 81 31 L129 369 C133 402 131 421 122 439 C119 444 118 449 118 455 C118 478 138 494 159 494 C175 494 188 483 195 467 C242 494 300 510 338 510 C374 510 386 496 386 478 C386 450 363 431 340 432 C299 433 264 433 208 396 C208 386 208 377 207 369 L207 369 Z M250 624 L339 705 C354 718 361 728 379 728 C392 728 406 716 406 699 C406 694 405 684 398 678 L305 592 C292 580 283 574 270 574 C254 574 242 586 242 604 C242 614 245 619 250 624 L250 624 Z " />
<glyph glyph-name="uni0156" unicode="&#x156;" horiz-adv-x="575" d="M584 535 C584 413 511 337 400 315 L523 52 C525 48 525 41 525 35 C525 9 493 -9 476 -9 C462 -9 451 -2 446 10 L311 310 L196 310 L157 32 C154 10 132 -10 110 -10 C89 -10 74 9 77 32 L165 657 C169 683 193 705 218 705 L392 705 C537 705 584 622 584 535 L584 535 Z M503 525 C503 576 477 627 377 627 L241 627 L207 387 L349 387 C448 387 503 436 503 525 L503 525 Z M327 -98 C327 -150 261 -238 232 -238 C223 -238 215 -234 215 -223 C215 -200 244 -189 261 -159 C236 -157 219 -136 219 -111 C219 -77 248 -51 281 -51 C308 -51 327 -72 327 -98 L327 -98 Z " />
<glyph glyph-name="uni0157" unicode="&#x157;" horiz-adv-x="337" d="M207 369 L159 31 C156 9 137 -8 115 -8 C93 -8 78 9 81 31 L129 369 C133 402 131 421 122 439 C119 444 118 449 118 455 C118 478 138 494 159 494 C175 494 188 483 195 467 C242 494 300 510 338 510 C374 510 386 496 386 478 C386 450 363 431 340 432 C299 433 264 433 208 396 C208 386 208 377 207 369 L207 369 Z M154 -98 C154 -150 88 -238 59 -238 C50 -238 42 -234 42 -223 C42 -200 71 -189 88 -159 C63 -157 46 -136 46 -111 C46 -77 75 -51 108 -51 C135 -51 154 -72 154 -98 L154 -98 Z " />
<glyph glyph-name="Rcaron" unicode="&#x158;" horiz-adv-x="575" d="M584 535 C584 413 511 337 400 315 L523 52 C525 48 525 41 525 35 C525 9 493 -9 476 -9 C462 -9 451 -2 446 10 L311 310 L196 310 L157 32 C154 10 132 -10 110 -10 C89 -10 74 9 77 32 L165 657 C169 683 193 705 218 705 L392 705 C537 705 584 622 584 535 L584 535 Z M503 525 C503 576 477 627 377 627 L241 627 L207 387 L349 387 C448 387 503 436 503 525 L503 525 Z M394 762 C384 762 377 766 371 771 L294 844 C284 853 278 862 278 874 C278 893 296 907 313 907 C319 907 325 904 330 900 L404 833 L497 900 C503 904 509 907 515 907 C530 907 543 896 543 881 C543 866 535 856 518 844 L419 771 C412 766 404 762 394 762 L394 762 Z " />
<glyph glyph-name="rcaron" unicode="&#x159;" horiz-adv-x="337" d="M207 369 L159 31 C156 9 137 -8 115 -8 C93 -8 78 9 81 31 L129 369 C133 402 131 421 122 439 C119 444 118 449 118 455 C118 478 138 494 159 494 C175 494 188 483 195 467 C242 494 300 510 338 510 C374 510 386 496 386 478 C386 450 363 431 340 432 C299 433 264 433 208 396 C208 386 208 377 207 369 L207 369 Z M248 562 C238 562 231 566 225 571 L148 644 C138 653 132 662 132 674 C132 693 150 707 167 707 C173 707 179 704 184 700 L258 633 L351 700 C357 704 363 707 369 707 C384 707 397 696 397 681 C397 666 389 656 372 644 L273 571 C266 566 258 562 248 562 L248 562 Z " />
<glyph glyph-name="Sacute" unicode="&#x15a;" horiz-adv-x="486" d="M389 210 C389 260 364 281 344 292 C262 338 113 343 113 492 C113 627 206 715 345 715 C393 715 507 704 507 651 C507 630 488 609 461 609 C430 609 408 637 340 637 C269 637 197 608 197 507 C197 455 224 436 243 425 C326 378 475 373 475 225 C475 79 363 -10 224 -10 C162 -10 50 9 50 60 C50 81 70 103 92 103 C120 103 158 68 236 68 C337 68 389 123 389 210 L389 210 Z M334 824 L423 905 C438 918 445 928 463 928 C476 928 490 916 490 899 C490 894 489 884 482 878 L389 792 C376 780 367 774 354 774 C338 774 326 786 326 804 C326 814 329 819 334 824 L334 824 Z " />
<glyph glyph-name="sacute" unicode="&#x15b;" horiz-adv-x="406" d="M103 350 C103 445 169 514 287 514 C337 514 413 501 413 462 C413 441 394 422 371 422 C364 422 360 424 354 427 C334 437 317 445 281 445 C212 445 181 416 181 365 C181 341 193 325 220 311 C280 279 383 269 383 159 C383 59 317 -8 193 -8 C144 -8 54 3 54 46 C54 64 70 86 96 86 C102 86 103 85 106 84 C133 73 163 61 203 61 C264 61 306 87 306 146 C306 174 293 188 277 197 C223 229 103 237 103 350 L103 350 Z M264 624 L353 705 C368 718 375 728 393 728 C406 728 420 716 420 699 C420 694 419 684 412 678 L319 592 C306 580 297 574 284 574 C268 574 256 586 256 604 C256 614 259 619 264 624 L264 624 Z " />
<glyph glyph-name="Scircumflex" unicode="&#x15c;" horiz-adv-x="486" d="M389 210 C389 260 364 281 344 292 C262 338 113 343 113 492 C113 627 206 715 345 715 C393 715 507 704 507 651 C507 630 488 609 461 609 C430 609 408 637 340 637 C269 637 197 608 197 507 C197 455 224 436 243 425 C326 378 475 373 475 225 C475 79 363 -10 224 -10 C162 -10 50 9 50 60 C50 81 70 103 92 103 C120 103 158 68 236 68 C337 68 389 123 389 210 L389 210 Z M361 836 L278 775 C274 772 264 769 258 769 C246 769 236 781 236 792 C236 805 246 815 259 825 L347 892 C353 896 361 900 370 900 C379 900 386 896 391 892 L460 825 C468 817 474 807 474 798 C474 784 460 769 445 769 C440 769 430 772 427 775 L361 836 L361 836 Z " />
<glyph glyph-name="scircumflex" unicode="&#x15d;" horiz-adv-x="406" d="M103 350 C103 445 169 514 287 514 C337 514 413 501 413 462 C413 441 394 422 371 422 C364 422 360 424 354 427 C334 437 317 445 281 445 C212 445 181 416 181 365 C181 341 193 325 220 311 C280 279 383 269 383 159 C383 59 317 -8 193 -8 C144 -8 54 3 54 46 C54 64 70 86 96 86 C102 86 103 85 106 84 C133 73 163 61 203 61 C264 61 306 87 306 146 C306 174 293 188 277 197 C223 229 103 237 103 350 L103 350 Z M292 636 L209 575 C205 572 195 569 189 569 C177 569 167 581 167 592 C167 605 177 615 190 625 L278 692 C284 696 292 700 301 700 C310 700 317 696 322 692 L391 625 C399 617 405 607 405 598 C405 584 391 569 376 569 C371 569 361 572 358 575 L292 636 L292 636 Z " />
<glyph glyph-name="Scedilla" unicode="&#x15e;" horiz-adv-x="486" d="M343 -114 C343 -171 290 -225 191 -211 C161 -207 134 -187 149 -164 C160 -147 175 -156 203 -162 C252 -172 278 -140 278 -117 C278 -96 258 -87 222 -85 C191 -83 183 -77 190 -53 L203 -9 C140 -6 50 14 50 60 C50 81 70 103 92 103 C120 103 158 68 236 68 C337 68 389 123 389 210 C389 260 364 281 344 292 C262 338 113 343 113 492 C113 627 206 715 345 715 C393 715 507 704 507 651 C507 630 488 609 461 609 C430 609 408 637 340 637 C269 637 197 608 197 507 C197 455 224 436 243 425 C326 378 475 373 475 225 C475 89 378 3 253 -8 L244 -40 C316 -41 343 -70 343 -114 L343 -114 Z " />
<glyph glyph-name="scedilla" unicode="&#x15f;" horiz-adv-x="406" d="M304 -114 C304 -171 251 -225 152 -211 C122 -207 95 -187 110 -164 C121 -147 136 -156 164 -162 C213 -172 239 -140 239 -117 C239 -96 219 -87 183 -85 C152 -83 144 -77 151 -53 L165 -7 C116 -3 54 10 54 46 C54 64 70 86 96 86 C102 86 103 85 106 84 C133 73 163 61 203 61 C264 61 306 87 306 146 C306 174 293 188 277 197 C223 229 104 237 104 350 C104 445 169 514 288 514 C338 514 413 501 413 462 C413 441 394 422 372 422 C365 422 360 424 354 427 C334 437 317 445 281 445 C212 445 181 416 181 365 C181 341 193 325 220 311 C280 279 384 269 384 159 C384 65 325 1 214 -7 L205 -40 C277 -41 304 -70 304 -114 L304 -114 Z " />
<glyph glyph-name="Scaron" unicode="&#x160;" horiz-adv-x="486" d="M389 210 C389 260 364 281 344 292 C262 338 113 343 113 492 C113 627 206 715 345 715 C393 715 507 704 507 651 C507 630 488 609 461 609 C430 609 408 637 340 637 C269 637 197 608 197 507 C197 455 224 436 243 425 C326 378 475 373 475 225 C475 79 363 -10 224 -10 C162 -10 50 9 50 60 C50 81 70 103 92 103 C120 103 158 68 236 68 C337 68 389 123 389 210 L389 210 Z M350 762 C340 762 333 766 327 771 L250 844 C240 853 234 862 234 874 C234 893 252 907 269 907 C275 907 281 904 286 900 L360 833 L453 900 C459 904 465 907 471 907 C486 907 499 896 499 881 C499 866 491 856 474 844 L375 771 C368 766 360 762 350 762 L350 762 Z " />
<glyph glyph-name="scaron" unicode="&#x161;" horiz-adv-x="406" d="M103 350 C103 445 169 514 287 514 C337 514 413 501 413 462 C413 441 394 422 371 422 C364 422 360 424 354 427 C334 437 317 445 281 445 C212 445 181 416 181 365 C181 341 193 325 220 311 C280 279 383 269 383 159 C383 59 317 -8 193 -8 C144 -8 54 3 54 46 C54 64 70 86 96 86 C102 86 103 85 106 84 C133 73 163 61 203 61 C264 61 306 87 306 146 C306 174 293 188 277 197 C223 229 103 237 103 350 L103 350 Z M282 562 C272 562 265 566 259 571 L182 644 C172 653 166 662 166 674 C166 693 184 707 201 707 C207 707 213 704 218 700 L292 633 L385 700 C391 704 397 707 403 707 C418 707 431 696 431 681 C431 666 423 656 406 644 L307 571 C300 566 292 562 282 562 L282 562 Z " />
<glyph glyph-name="uni0162" unicode="&#x162;" horiz-adv-x="483" d="M205 30 L289 627 L153 627 C132 627 118 643 118 662 C118 681 140 705 164 705 L516 705 C535 705 552 690 552 670 C552 647 529 627 505 627 L369 627 L285 30 C283 17 274 5 263 -2 L252 -40 C325 -41 351 -70 351 -114 C351 -171 298 -225 199 -211 C169 -207 143 -187 158 -164 C169 -147 183 -156 211 -162 C260 -172 286 -140 286 -117 C286 -96 267 -87 231 -85 C200 -83 191 -77 198 -53 L214 0 C207 7 203 18 205 30 L205 30 Z " />
<glyph glyph-name="uni0163" unicode="&#x163;" horiz-adv-x="321" d="M286 -114 C286 -171 233 -225 134 -211 C104 -207 77 -187 92 -164 C103 -147 118 -156 146 -162 C195 -172 221 -140 221 -117 C221 -96 201 -87 165 -85 C134 -83 128 -77 133 -53 C138 -31 144 -8 153 13 C97 42 89 105 103 203 L162 621 C165 642 181 659 206 659 C231 659 243 642 240 621 L221 483 L324 483 C342 483 355 469 355 451 C355 427 336 409 314 409 L210 409 L182 210 C168 107 172 69 244 69 C250 69 257 70 263 70 C284 70 311 66 311 39 C311 1 278 -4 248 -4 C228 -4 211 -2 195 0 C189 -16 186 -29 187 -40 C259 -41 286 -70 286 -114 L286 -114 Z " />
<glyph glyph-name="Tcaron" unicode="&#x164;" horiz-adv-x="483" d="M205 30 L289 627 L153 627 C132 627 118 643 118 662 C118 681 140 705 164 705 L516 705 C535 705 552 690 552 670 C552 647 529 627 505 627 L369 627 L285 30 C282 9 261 -10 239 -10 C217 -10 202 9 205 30 L205 30 Z M348 762 C338 762 331 766 325 771 L248 844 C238 853 232 862 232 874 C232 893 250 907 267 907 C273 907 279 904 284 900 L358 833 L451 900 C457 904 463 907 469 907 C484 907 497 896 497 881 C497 866 489 856 472 844 L373 771 C366 766 358 762 348 762 L348 762 Z " />
<glyph glyph-name="tcaron" unicode="&#x165;" horiz-adv-x="431" d="M102 203 L161 621 C164 642 180 659 205 659 C230 659 242 642 239 621 L220 483 L324 483 C342 483 355 469 355 451 C355 427 335 409 313 409 L209 409 L181 210 C167 107 172 69 244 69 C250 69 257 70 263 70 C284 70 310 66 310 39 C310 1 278 -4 247 -4 C107 -4 83 65 102 203 L102 203 Z M509 678 C509 618 439 508 410 508 C401 508 393 511 393 522 C393 555 424 571 443 617 C418 620 401 640 401 665 C401 698 430 725 463 725 C490 725 509 704 509 678 L509 678 Z " />
<glyph glyph-name="Utilde" unicode="&#x168;" horiz-adv-x="572" d="M539 230 C520 91 424 -10 285 -10 C143 -10 78 92 97 230 L160 673 C163 697 184 715 207 715 C228 715 243 696 240 673 L177 230 C164 134 200 68 296 68 C392 68 445 136 458 230 L521 673 C524 695 544 715 566 715 C590 715 605 695 602 673 L539 230 L539 230 Z M544 854 C544 817 491 791 453 789 C410 789 387 818 357 821 C320 821 311 794 289 794 C274 794 263 805 263 821 C268 858 311 886 354 886 C396 886 418 857 450 854 C488 854 493 879 518 882 C532 882 544 870 544 854 L544 854 Z " />
<glyph glyph-name="utilde" unicode="&#x169;" horiz-adv-x="509" d="M370 123 L419 473 C422 494 437 511 463 511 C489 511 500 494 497 473 L448 123 C440 68 450 68 456 53 C457 50 460 43 460 36 C460 16 441 -2 418 -2 C399 -2 388 10 379 28 C332 3 279 -8 232 -8 C126 -8 84 68 100 181 L141 473 C144 494 160 511 185 511 C210 511 222 494 219 473 L178 181 C167 105 193 62 253 62 C292 62 332 74 368 95 C368 105 369 115 370 123 L370 123 Z M484 654 C484 617 431 591 393 589 C350 589 327 618 297 621 C260 621 251 594 229 594 C214 594 203 605 203 621 C208 658 251 686 294 686 C336 686 358 657 390 654 C428 654 433 679 458 682 C472 682 484 670 484 654 L484 654 Z " />
<glyph glyph-name="Umacron" unicode="&#x16a;" horiz-adv-x="572" d="M539 230 C520 91 424 -10 285 -10 C143 -10 78 92 97 230 L160 673 C163 697 184 715 207 715 C228 715 243 696 240 673 L177 230 C164 134 200 68 296 68 C392 68 445 136 458 230 L521 673 C524 695 544 715 566 715 C590 715 605 695 602 673 L539 230 L539 230 Z M565 841 C565 819 545 801 523 801 L274 801 C255 801 242 815 242 833 C242 855 262 874 285 874 L534 874 C552 874 565 859 565 841 L565 841 Z " />
<glyph glyph-name="umacron" unicode="&#x16b;" horiz-adv-x="509" d="M370 123 L419 473 C422 494 437 511 463 511 C489 511 500 494 497 473 L448 123 C440 68 450 68 456 53 C457 50 460 43 460 36 C460 16 441 -2 418 -2 C399 -2 388 10 379 28 C332 3 279 -8 232 -8 C126 -8 84 68 100 181 L141 473 C144 494 160 511 185 511 C210 511 222 494 219 473 L178 181 C167 105 193 62 253 62 C292 62 332 74 368 95 C368 105 369 115 370 123 L370 123 Z M505 641 C505 619 485 601 463 601 L214 601 C195 601 182 615 182 633 C182 655 202 674 225 674 L474 674 C492 674 505 659 505 641 L505 641 Z " />
<glyph glyph-name="Ubreve" unicode="&#x16c;" horiz-adv-x="572" d="M539 230 C520 91 424 -10 285 -10 C143 -10 78 92 97 230 L160 673 C163 697 184 715 207 715 C228 715 243 696 240 673 L177 230 C164 134 200 68 296 68 C392 68 445 136 458 230 L521 673 C524 695 544 715 566 715 C590 715 605 695 602 673 L539 230 L539 230 Z M404 833 C426 833 449 844 474 874 C483 885 496 890 507 890 C524 890 538 879 528 853 C507 799 440 772 395 772 C350 772 291 799 285 853 C282 879 300 890 317 890 C328 890 338 885 344 874 C360 844 381 833 404 833 L404 833 Z " />
<glyph glyph-name="ubreve" unicode="&#x16d;" horiz-adv-x="509" d="M370 123 L419 473 C422 494 437 511 463 511 C489 511 500 494 497 473 L448 123 C440 68 450 68 456 53 C457 50 460 43 460 36 C460 16 441 -2 418 -2 C399 -2 388 10 379 28 C332 3 279 -8 232 -8 C126 -8 84 68 100 181 L141 473 C144 494 160 511 185 511 C210 511 222 494 219 473 L178 181 C167 105 193 62 253 62 C292 62 332 74 368 95 C368 105 369 115 370 123 L370 123 Z M343 633 C365 633 388 644 413 674 C422 685 435 690 446 690 C463 690 477 679 467 653 C446 599 379 572 334 572 C289 572 230 599 224 653 C221 679 239 690 256 690 C267 690 277 685 283 674 C299 644 320 633 343 633 L343 633 Z " />
<glyph glyph-name="Uring" unicode="&#x16e;" horiz-adv-x="572" d="M539 230 C520 91 424 -10 285 -10 C143 -10 78 92 97 230 L160 673 C163 697 184 715 207 715 C228 715 243 696 240 673 L177 230 C164 134 200 68 296 68 C392 68 445 136 458 230 L521 673 C524 695 544 715 566 715 C590 715 605 695 602 673 L539 230 L539 230 Z M505 856 C505 795 451 745 391 745 C340 745 304 783 304 832 C304 893 358 943 419 943 C469 943 505 905 505 856 L505 856 Z M460 850 C460 877 440 899 413 899 C380 899 350 871 350 838 C350 811 370 790 397 790 C430 790 460 817 460 850 L460 850 Z " />
<glyph glyph-name="uring" unicode="&#x16f;" horiz-adv-x="509" d="M370 123 L419 473 C422 494 437 511 463 511 C489 511 500 494 497 473 L448 123 C440 68 450 68 456 53 C457 50 460 43 460 36 C460 16 441 -2 418 -2 C399 -2 388 10 379 28 C332 3 279 -8 232 -8 C126 -8 84 68 100 181 L141 473 C144 494 160 511 185 511 C210 511 222 494 219 473 L178 181 C167 105 193 62 253 62 C292 62 332 74 368 95 C368 105 369 115 370 123 L370 123 Z M446 656 C446 595 392 545 332 545 C281 545 245 583 245 632 C245 693 299 743 360 743 C410 743 446 705 446 656 L446 656 Z M401 650 C401 677 381 699 354 699 C321 699 291 671 291 638 C291 611 311 590 338 590 C371 590 401 617 401 650 L401 650 Z " />
<glyph glyph-name="Uhungarumlaut" unicode="&#x170;" horiz-adv-x="572" d="M539 230 C520 91 424 -10 285 -10 C143 -10 78 92 97 230 L160 673 C163 697 184 715 207 715 C228 715 243 696 240 673 L177 230 C164 134 200 68 296 68 C392 68 445 136 458 230 L521 673 C524 695 544 715 566 715 C590 715 605 695 602 673 L539 230 L539 230 Z M304 812 L380 906 C393 920 400 935 420 935 C436 935 449 920 449 904 C449 898 447 894 445 890 L366 791 C353 777 345 767 330 767 C312 767 300 779 300 796 C300 804 301 808 304 812 L304 812 Z M439 812 L516 906 C527 920 536 935 554 935 C568 935 585 920 585 905 C585 898 583 894 580 890 L501 791 C488 777 481 767 465 767 C447 767 435 779 435 796 C435 804 436 808 439 812 L439 812 Z " />
<glyph glyph-name="uhungarumlaut" unicode="&#x171;" horiz-adv-x="509" d="M370 123 L419 473 C422 494 437 511 463 511 C489 511 500 494 497 473 L448 123 C440 68 450 68 456 53 C457 50 460 43 460 36 C460 16 441 -2 418 -2 C399 -2 388 10 379 28 C332 3 279 -8 232 -8 C126 -8 84 68 100 181 L141 473 C144 494 160 511 185 511 C210 511 222 494 219 473 L178 181 C167 105 193 62 253 62 C292 62 332 74 368 95 C368 105 369 115 370 123 L370 123 Z M242 612 L318 706 C331 720 338 735 358 735 C374 735 387 720 387 704 C387 698 385 694 383 690 L304 591 C291 577 283 567 268 567 C250 567 238 579 238 596 C238 604 239 608 242 612 L242 612 Z M377 612 L454 706 C465 720 474 735 492 735 C506 735 523 720 523 705 C523 698 521 694 518 690 L439 591 C426 577 419 567 403 567 C385 567 373 579 373 596 C373 604 374 608 377 612 L377 612 Z " />
<glyph glyph-name="Uogonek" unicode="&#x172;" horiz-adv-x="572" d="M539 230 C525 127 469 46 385 10 C363 -23 334 -63 334 -96 C334 -117 346 -134 372 -134 C396 -134 404 -129 415 -129 C429 -129 438 -140 438 -153 C438 -190 388 -195 356 -195 C300 -195 264 -171 264 -119 C264 -82 282 -44 311 -9 C302 -10 294 -10 285 -10 C143 -10 78 92 97 230 L160 673 C163 697 184 715 207 715 C228 715 243 696 240 673 L177 230 C164 134 200 68 296 68 C392 68 445 136 458 230 L521 673 C524 695 544 715 566 715 C590 715 605 695 602 673 L539 230 L539 230 Z " />
<glyph glyph-name="uogonek" unicode="&#x173;" horiz-adv-x="509" d="M502 -153 C502 -190 452 -195 419 -195 C363 -195 327 -171 327 -119 C327 -75 354 -31 392 9 C386 14 382 20 379 27 C332 3 279 -8 232 -8 C126 -8 84 68 100 181 L141 473 C144 494 160 511 185 511 C210 511 222 494 219 473 L178 181 C167 105 193 62 253 62 C292 62 332 74 368 94 C367 104 369 114 370 123 L419 473 C422 494 437 511 463 511 C489 511 500 494 497 473 L448 123 C440 68 450 68 456 53 C457 50 460 43 460 36 C460 25 454 17 446 8 C420 -21 397 -66 397 -96 C397 -117 409 -134 436 -134 C460 -134 467 -129 478 -129 C492 -129 502 -140 502 -153 L502 -153 Z " />
<glyph glyph-name="Wcircumflex" unicode="&#x174;" horiz-adv-x="776" d="M510 47 L465 550 L278 46 C268 20 250 -10 217 -10 C188 -10 174 16 171 46 L109 665 L109 668 C109 697 138 711 160 711 C176 711 190 702 192 682 L241 149 L428 657 C442 694 454 715 488 715 C520 715 528 692 531 657 L576 149 L776 682 C783 700 797 711 813 711 C832 711 856 701 856 679 C856 674 854 670 852 664 L616 46 C605 17 585 -10 555 -10 C525 -10 512 18 510 47 L510 47 Z M506 836 L423 775 C419 772 409 769 403 769 C391 769 381 781 381 792 C381 805 391 815 404 825 L492 892 C498 896 506 900 515 900 C524 900 531 896 536 892 L605 825 C613 817 619 807 619 798 C619 784 605 769 590 769 C585 769 575 772 572 775 L506 836 L506 836 Z " />
<glyph glyph-name="wcircumflex" unicode="&#x175;" horiz-adv-x="655" d="M694 465 L519 37 C506 7 492 -8 463 -8 C442 -8 424 4 421 26 L381 377 L242 26 C232 2 216 -8 191 -8 C164 -8 151 9 147 37 L91 468 L91 471 C91 491 111 511 135 511 C151 511 165 501 167 483 L210 115 C258 236 304 354 351 476 C359 496 376 511 400 511 C423 511 436 496 438 476 C450 354 465 236 479 115 L624 483 C630 499 646 511 663 511 C682 511 696 496 696 477 C696 471 695 467 694 465 L694 465 Z M416 636 L333 575 C329 572 319 569 313 569 C301 569 291 581 291 592 C291 605 301 615 314 625 L402 692 C408 696 416 700 425 700 C434 700 441 696 446 692 L515 625 C523 617 529 607 529 598 C529 584 515 569 500 569 C495 569 485 572 482 575 L416 636 L416 636 Z " />
<glyph glyph-name="Ycircumflex" unicode="&#x176;" horiz-adv-x="476" d="M236 -10 C213 -10 198 9 201 32 L236 277 L111 655 C110 659 109 665 109 670 C109 694 134 715 156 715 C168 715 180 710 185 699 L290 370 L487 699 C494 710 508 715 520 715 C539 715 556 698 556 678 C556 670 552 661 549 655 L317 275 L283 32 C280 10 259 -10 236 -10 L236 -10 Z M356 836 L273 775 C269 772 259 769 253 769 C241 769 231 781 231 792 C231 805 241 815 254 825 L342 892 C348 896 356 900 365 900 C374 900 381 896 386 892 L455 825 C463 817 469 807 469 798 C469 784 455 769 440 769 C435 769 425 772 422 775 L356 836 L356 836 Z " />
<glyph glyph-name="ycircumflex" unicode="&#x177;" horiz-adv-x="509" d="M377 107 L428 473 C431 494 447 511 473 511 C499 511 509 494 506 473 L434 -40 C420 -143 355 -224 230 -224 C184 -224 99 -211 99 -167 C99 -147 117 -129 138 -129 C143 -129 148 -130 153 -132 C176 -144 196 -155 231 -155 C309 -155 346 -113 356 -40 L366 30 C327 7 284 -7 233 -7 C112 -7 84 71 99 175 L140 473 C143 494 160 511 185 511 C210 511 221 494 218 473 L177 175 C167 104 188 61 259 61 C300 61 343 75 377 107 L377 107 Z M343 636 L260 575 C256 572 246 569 240 569 C228 569 218 581 218 592 C218 605 228 615 241 625 L329 692 C335 696 343 700 352 700 C361 700 368 696 373 692 L442 625 C450 617 456 607 456 598 C456 584 442 569 427 569 C422 569 412 572 409 575 L343 636 L343 636 Z " />
<glyph glyph-name="Ydieresis" unicode="&#x178;" horiz-adv-x="476" d="M236 -10 C213 -10 198 9 201 32 L236 277 L111 655 C110 659 109 665 109 670 C109 694 134 715 156 715 C168 715 180 710 185 699 L290 370 L487 699 C494 710 508 715 520 715 C539 715 556 698 556 678 C556 670 552 661 549 655 L317 275 L283 32 C280 10 259 -10 236 -10 L236 -10 Z M487 844 C487 815 461 790 433 790 C409 790 391 810 391 834 C391 861 418 886 446 886 C470 886 487 868 487 844 L487 844 Z M318 844 C318 815 292 790 263 790 C239 790 223 810 223 833 C223 861 248 886 276 886 C301 886 318 868 318 844 L318 844 Z " />
<glyph glyph-name="Zacute" unicode="&#x179;" horiz-adv-x="484" d="M460 45 C460 21 438 0 414 0 L71 0 C50 0 35 17 35 39 C35 51 45 68 50 76 L435 625 L158 625 C138 625 124 640 124 660 C124 683 145 705 169 705 L508 705 C531 705 546 689 546 667 C546 653 538 641 531 631 L144 80 L426 80 C445 80 460 65 460 45 L460 45 Z M327 824 L416 905 C431 918 438 928 456 928 C469 928 483 916 483 899 C483 894 482 884 475 878 L382 792 C369 780 360 774 347 774 C331 774 319 786 319 804 C319 814 322 819 327 824 L327 824 Z " />
<glyph glyph-name="zacute" unicode="&#x17a;" horiz-adv-x="384" d="M432 470 C432 459 428 448 419 437 L121 72 L342 72 C361 72 374 58 374 40 C374 18 354 0 332 0 L55 0 C35 0 20 16 20 37 C20 46 23 57 31 67 L330 433 L121 433 C103 433 90 447 90 465 C90 488 110 505 132 505 L397 505 C417 505 432 492 432 470 L432 470 Z M260 624 L349 705 C364 718 371 728 389 728 C402 728 416 716 416 699 C416 694 415 684 408 678 L315 592 C302 580 293 574 280 574 C264 574 252 586 252 604 C252 614 255 619 260 624 L260 624 Z " />
<glyph glyph-name="Zdotaccent" unicode="&#x17b;" horiz-adv-x="484" d="M460 45 C460 21 438 0 414 0 L71 0 C50 0 35 17 35 39 C35 51 45 68 50 76 L435 625 L158 625 C138 625 124 640 124 660 C124 683 145 705 169 705 L508 705 C531 705 546 689 546 667 C546 653 538 641 531 631 L144 80 L426 80 C445 80 460 65 460 45 L460 45 Z M407 844 C407 815 381 790 352 790 C328 790 312 810 312 833 C312 861 337 886 365 886 C390 886 407 868 407 844 L407 844 Z " />
<glyph glyph-name="zdotaccent" unicode="&#x17c;" horiz-adv-x="384" d="M432 470 C432 459 428 448 419 437 L121 72 L342 72 C361 72 374 58 374 40 C374 18 354 0 332 0 L55 0 C35 0 20 16 20 37 C20 46 23 57 31 67 L330 433 L121 433 C103 433 90 447 90 465 C90 488 110 505 132 505 L397 505 C417 505 432 492 432 470 L432 470 Z M329 644 C329 615 303 590 274 590 C250 590 234 610 234 633 C234 661 259 686 287 686 C312 686 329 668 329 644 L329 644 Z " />
<glyph glyph-name="Zcaron" unicode="&#x17d;" horiz-adv-x="484" d="M460 45 C460 21 438 0 414 0 L71 0 C50 0 35 17 35 39 C35 51 45 68 50 76 L435 625 L158 625 C138 625 124 640 124 660 C124 683 145 705 169 705 L508 705 C531 705 546 689 546 667 C546 653 538 641 531 631 L144 80 L426 80 C445 80 460 65 460 45 L460 45 Z M349 762 C339 762 332 766 326 771 L249 844 C239 853 233 862 233 874 C233 893 251 907 268 907 C274 907 280 904 285 900 L359 833 L452 900 C458 904 464 907 470 907 C485 907 498 896 498 881 C498 866 490 856 473 844 L374 771 C367 766 359 762 349 762 L349 762 Z " />
<glyph glyph-name="zcaron" unicode="&#x17e;" horiz-adv-x="384" d="M432 470 C432 459 428 448 419 437 L121 72 L342 72 C361 72 374 58 374 40 C374 18 354 0 332 0 L55 0 C35 0 20 16 20 37 C20 46 23 57 31 67 L330 433 L121 433 C103 433 90 447 90 465 C90 488 110 505 132 505 L397 505 C417 505 432 492 432 470 L432 470 Z M274 562 C264 562 257 566 251 571 L174 644 C164 653 158 662 158 674 C158 693 176 707 193 707 C199 707 205 704 210 700 L284 633 L377 700 C383 704 389 707 395 707 C410 707 423 696 423 681 C423 666 415 656 398 644 L299 571 C292 566 284 562 274 562 L274 562 Z " />
<glyph glyph-name="florin" unicode="&#x192;" horiz-adv-x="492" d="M573 679 C573 636 543 640 526 642 C518 643 506 644 499 644 C464 644 432 620 420 580 L379 449 L463 449 C479 449 493 440 493 420 C493 391 473 380 453 380 L357 380 L223 -42 C191 -142 147 -210 54 -210 C11 -210 -22 -209 -22 -179 C-22 -153 -3 -137 23 -137 C29 -137 42 -138 52 -138 C103 -138 124 -109 143 -48 L278 380 L194 380 C178 380 165 389 165 409 C165 438 184 449 204 449 L300 449 L345 592 C369 667 431 715 519 715 C545 715 573 711 573 679 L573 679 Z " />
<glyph glyph-name="uni0218" unicode="&#x218;" horiz-adv-x="486" d="M389 210 C389 260 364 281 344 292 C262 338 113 343 113 492 C113 627 206 715 345 715 C393 715 507 704 507 651 C507 630 488 609 461 609 C430 609 408 637 340 637 C269 637 197 608 197 507 C197 455 224 436 243 425 C326 378 475 373 475 225 C475 79 363 -10 224 -10 C162 -10 50 9 50 60 C50 81 70 103 92 103 C120 103 158 68 236 68 C337 68 389 123 389 210 L389 210 Z M283 -98 C283 -150 217 -238 188 -238 C179 -238 171 -234 171 -223 C171 -200 200 -189 217 -159 C192 -157 175 -136 175 -111 C175 -77 204 -51 237 -51 C264 -51 283 -72 283 -98 L283 -98 Z " />
<glyph glyph-name="uni0219" unicode="&#x219;" horiz-adv-x="406" d="M103 350 C103 445 169 514 287 514 C337 514 413 501 413 462 C413 441 394 422 371 422 C364 422 360 424 354 427 C334 437 317 445 281 445 C212 445 181 416 181 365 C181 341 193 325 220 311 C280 279 383 269 383 159 C383 59 317 -8 193 -8 C144 -8 54 3 54 46 C54 64 70 86 96 86 C102 86 103 85 106 84 C133 73 163 61 203 61 C264 61 306 87 306 146 C306 174 293 188 277 197 C223 229 103 237 103 350 L103 350 Z M243 -98 C243 -150 177 -238 148 -238 C139 -238 131 -234 131 -223 C131 -200 160 -189 177 -159 C152 -157 135 -136 135 -111 C135 -77 164 -51 197 -51 C224 -51 243 -72 243 -98 L243 -98 Z " />
<glyph glyph-name="uni021A" unicode="&#x21a;" horiz-adv-x="483" d="M205 30 L289 627 L153 627 C132 627 118 643 118 662 C118 681 140 705 164 705 L516 705 C535 705 552 690 552 670 C552 647 529 627 505 627 L369 627 L285 30 C282 9 261 -10 239 -10 C217 -10 202 9 205 30 L205 30 Z M281 -98 C281 -150 215 -238 186 -238 C177 -238 169 -234 169 -223 C169 -200 198 -189 215 -159 C190 -157 173 -136 173 -111 C173 -77 202 -51 235 -51 C262 -51 281 -72 281 -98 L281 -98 Z " />
<glyph glyph-name="uni021B" unicode="&#x21b;" horiz-adv-x="321" d="M102 203 L161 621 C164 642 180 659 205 659 C230 659 242 642 239 621 L220 483 L324 483 C342 483 355 469 355 451 C355 427 335 409 313 409 L209 409 L181 210 C167 107 172 69 244 69 C250 69 257 70 263 70 C284 70 310 66 310 39 C310 1 278 -4 247 -4 C107 -4 83 65 102 203 L102 203 Z M260 -98 C260 -150 194 -238 165 -238 C156 -238 148 -234 148 -223 C148 -200 177 -189 194 -159 C169 -157 152 -136 152 -111 C152 -77 181 -51 214 -51 C241 -51 260 -72 260 -98 L260 -98 Z " />
<glyph glyph-name="dotlessj" unicode="&#x237;" horiz-adv-x="245" d="M227 472 L159 -15 C144 -120 84 -189 -8 -202 C-16 -203 -21 -203 -27 -203 C-43 -203 -55 -193 -57 -177 C-60 -150 -36 -137 -21 -134 C35 -122 70 -92 80 -19 L149 472 C152 493 172 511 194 511 C216 511 230 493 227 472 L227 472 Z " />
<glyph glyph-name="circumflex" unicode="&#x2c6;" horiz-adv-x="396" d="M286 636 L203 575 C199 572 189 569 183 569 C171 569 161 581 161 592 C161 605 171 615 184 625 L272 692 C278 696 286 700 295 700 C304 700 311 696 316 692 L385 625 C393 617 399 607 399 598 C399 584 385 569 370 569 C365 569 355 572 352 575 L286 636 L286 636 Z " />
<glyph glyph-name="caron" unicode="&#x2c7;" horiz-adv-x="391" d="M274 562 C264 562 257 566 251 571 L174 644 C164 653 158 662 158 674 C158 693 176 707 193 707 C199 707 205 704 210 700 L284 633 L377 700 C383 704 389 707 395 707 C410 707 423 696 423 681 C423 666 415 656 398 644 L299 571 C292 566 284 562 274 562 L274 562 Z " />
<glyph glyph-name="breve" unicode="&#x2d8;" horiz-adv-x="368" d="M272 633 C294 633 317 644 342 674 C351 685 364 690 375 690 C392 690 406 679 396 653 C375 599 308 572 263 572 C218 572 159 599 153 653 C150 679 168 690 185 690 C196 690 206 685 212 674 C228 644 249 633 272 633 L272 633 Z " />
<glyph glyph-name="dotaccent" unicode="&#x2d9;" horiz-adv-x="238" d="M256 644 C256 615 230 590 201 590 C177 590 161 610 161 633 C161 661 186 686 214 686 C239 686 256 668 256 644 L256 644 Z " />
<glyph glyph-name="ring" unicode="&#x2da;" horiz-adv-x="571" d="M473 656 C473 595 419 545 359 545 C308 545 272 583 272 632 C272 693 326 743 387 743 C437 743 473 705 473 656 L473 656 Z M428 650 C428 677 408 699 381 699 C348 699 318 671 318 638 C318 611 338 590 365 590 C398 590 428 617 428 650 L428 650 Z " />
<glyph glyph-name="ogonek" unicode="&#x2db;" horiz-adv-x="322" d="M227 -153 C227 -190 178 -195 145 -195 C89 -195 53 -171 53 -119 C53 -79 75 -37 107 0 L167 0 C149 -30 123 -66 123 -96 C123 -117 135 -134 161 -134 C185 -134 193 -129 204 -129 C218 -129 227 -140 227 -153 L227 -153 Z " />
<glyph glyph-name="tilde" unicode="&#x2dc;" horiz-adv-x="375" d="M425 654 C425 617 372 591 334 589 C291 589 268 618 238 621 C201 621 192 594 170 594 C155 594 144 605 144 621 C149 658 192 686 235 686 C277 686 299 657 331 654 C369 654 374 679 399 682 C413 682 425 670 425 654 L425 654 Z " />
<glyph glyph-name="hungarumlaut" unicode="&#x2dd;" horiz-adv-x="410" d="M159 612 L235 706 C248 720 255 735 275 735 C291 735 304 720 304 704 C304 698 302 694 300 690 L221 591 C208 577 200 567 185 567 C167 567 155 579 155 596 C155 604 156 608 159 612 L159 612 Z M294 612 L371 706 C382 720 391 735 409 735 C423 735 440 720 440 705 C440 698 438 694 435 690 L356 591 C343 577 336 567 320 567 C302 567 290 579 290 596 C290 604 291 608 294 612 L294 612 Z " />
<glyph glyph-name="uni0400" unicode="&#x400;" horiz-adv-x="474" d="M448 45 C448 21 425 0 401 0 L136 0 C103 0 75 11 80 47 L166 658 C169 681 193 705 220 705 L491 705 C511 705 525 689 525 670 C525 645 503 627 480 627 L242 627 L209 393 L428 393 C446 393 462 378 462 358 C462 334 441 315 417 315 L198 315 L164 78 L412 78 C432 78 448 63 448 45 L448 45 Z M357 906 L423 825 C426 822 427 817 427 813 C427 791 407 775 388 775 C375 775 368 782 359 793 L290 879 C288 882 287 888 287 892 C287 913 308 929 323 929 C341 929 345 919 357 906 L357 906 Z " />
<glyph glyph-name="uni0401" unicode="&#x401;" horiz-adv-x="474" d="M448 45 C448 21 425 0 401 0 L136 0 C103 0 75 11 80 47 L166 658 C169 681 193 705 220 705 L491 705 C511 705 525 689 525 670 C525 645 503 627 480 627 L242 627 L209 393 L428 393 C446 393 462 378 462 358 C462 334 441 315 417 315 L198 315 L164 78 L412 78 C432 78 448 63 448 45 L448 45 Z M518 845 C518 816 492 791 464 791 C440 791 422 811 422 835 C422 862 449 887 477 887 C501 887 518 869 518 845 L518 845 Z M349 845 C349 816 323 791 294 791 C270 791 254 811 254 834 C254 862 279 887 307 887 C332 887 349 869 349 845 L349 845 Z " />
<glyph glyph-name="uni0402" unicode="&#x402;" horiz-adv-x="644" d="M165 30 L249 628 L153 628 C132 628 118 645 118 662 C118 683 140 706 164 706 L516 706 C535 706 552 691 552 671 C552 648 529 628 505 628 L329 628 L300 419 C342 437 391 445 433 445 C550 445 615 382 615 261 C615 102 529 -10 404 -10 C348 -10 310 15 310 46 C310 68 330 85 351 85 C372 85 368 68 407 68 C487 68 535 132 535 253 C535 335 496 367 416 367 C372 367 325 358 288 339 L245 30 C242 9 221 -10 199 -10 C177 -10 162 9 165 30 L165 30 Z " />
<glyph glyph-name="uni0403" unicode="&#x403;" horiz-adv-x="430" d="M241 628 L157 31 C154 10 133 -9 111 -9 C89 -9 74 10 77 31 L165 661 C168 683 191 706 217 706 L489 706 C509 706 523 690 523 671 C523 647 502 628 478 628 L241 628 L241 628 Z M339 825 L428 906 C443 919 450 929 468 929 C481 929 495 917 495 900 C495 895 494 885 487 879 L394 793 C381 781 372 775 359 775 C343 775 331 787 331 805 C331 815 334 820 339 825 L339 825 Z " />
<glyph glyph-name="uni0404" unicode="&#x404;" horiz-adv-x="482" d="M80 246 L110 460 C132 614 217 715 371 715 C458 715 536 678 536 633 C536 612 517 594 495 594 C481 594 475 600 461 611 C434 631 404 642 365 642 C252 642 205 572 190 460 L181 393 L366 393 C385 393 399 378 399 359 C399 335 379 314 355 314 L170 314 L160 246 C144 134 171 64 284 64 C323 64 355 74 388 95 C407 105 413 112 427 112 C446 112 458 98 458 81 C458 32 363 -9 269 -9 C115 -9 58 92 80 246 L80 246 Z " />
<glyph glyph-name="uni0405" unicode="&#x405;" horiz-adv-x="486" d="M389 210 C389 260 364 281 344 292 C262 338 113 343 113 492 C113 627 206 715 345 715 C393 715 507 704 507 651 C507 630 488 609 461 609 C430 609 408 637 340 637 C269 637 197 608 197 507 C197 455 224 436 243 425 C326 378 475 373 475 225 C475 79 363 -10 224 -10 C162 -10 50 9 50 60 C50 81 70 103 92 103 C120 103 158 68 236 68 C337 68 389 123 389 210 L389 210 Z " />
<glyph glyph-name="uni0406" unicode="&#x406;" horiz-adv-x="227" d="M77 30 L168 675 C171 696 191 715 213 715 C235 715 251 696 248 675 L157 30 C154 9 133 -10 111 -10 C89 -10 74 9 77 30 L77 30 Z " />
<glyph glyph-name="uni0407" unicode="&#x407;" horiz-adv-x="227" d="M77 30 L168 675 C171 696 191 715 213 715 C235 715 251 696 248 675 L157 30 C154 9 133 -10 111 -10 C89 -10 74 9 77 30 L77 30 Z M364 845 C364 816 338 791 310 791 C286 791 268 811 268 835 C268 862 295 887 323 887 C347 887 364 869 364 845 L364 845 Z M195 845 C195 816 169 791 140 791 C116 791 100 811 100 834 C100 862 125 887 153 887 C178 887 195 869 195 845 L195 845 Z " />
<glyph glyph-name="uni0408" unicode="&#x408;" horiz-adv-x="385" d="M406 675 L343 225 C323 79 263 -10 108 -10 C81 -10 29 -7 29 30 C29 58 54 74 70 74 C81 74 99 67 130 67 C222 67 249 128 263 225 L326 675 C329 697 349 715 372 715 C393 715 409 696 406 675 L406 675 Z " />
<glyph glyph-name="uni0409" unicode="&#x409;" horiz-adv-x="877" d="M516 573 L517 573 L524 628 L330 628 L235 169 C213 62 167 -8 85 -8 C49 -8 14 -7 14 26 C14 59 36 73 57 73 C70 73 70 70 85 70 C121 70 141 100 155 163 L262 667 C269 696 290 706 305 706 L575 706 C596 706 613 688 610 667 L579 446 L673 446 C795 446 870 379 870 260 C870 134 801 0 610 0 L483 0 C457 0 438 22 442 48 L516 573 L516 573 Z M534 131 L533 131 L526 78 L621 78 C768 78 789 183 789 251 C789 330 745 368 662 368 L568 368 L534 131 L534 131 Z " />
<glyph glyph-name="uni040A" unicode="&#x40a;" horiz-adv-x="848" d="M157 31 C154 9 133 -10 111 -10 C89 -10 74 9 77 31 L168 675 C171 696 191 715 213 715 C235 715 251 696 248 675 L208 392 L461 392 L500 673 C503 696 525 715 546 715 C568 715 583 695 580 673 L548 446 L643 446 C766 446 840 379 840 260 C840 134 771 0 581 0 L454 0 C428 0 408 22 412 48 L449 314 L197 314 L157 31 L157 31 Z M497 78 L592 78 C738 78 760 183 760 251 C760 330 716 368 632 368 L537 368 L497 78 L497 78 Z " />
<glyph glyph-name="uni040B" unicode="&#x40b;" horiz-adv-x="644" d="M552 671 C552 648 529 628 505 628 L329 628 L300 419 C342 437 391 445 433 445 C566 445 632 366 612 224 L585 32 C582 10 561 -10 539 -10 C518 -10 502 9 505 32 L532 223 C547 327 507 367 415 367 C372 367 325 358 288 339 L245 30 C242 9 221 -10 199 -10 C177 -10 162 9 165 30 L249 628 L153 628 C132 628 118 644 118 663 C118 682 140 706 164 706 L516 706 C535 706 552 691 552 671 L552 671 Z " />
<glyph glyph-name="uni040C" unicode="&#x40c;" horiz-adv-x="516" d="M248 675 L208 392 L266 392 L518 696 C529 709 540 715 553 715 C575 715 586 694 586 676 C586 666 582 660 578 653 L325 352 L493 52 C495 47 496 42 496 38 C496 18 477 -10 451 -10 C438 -10 428 -4 421 9 L254 314 L197 314 L157 31 C154 9 133 -10 111 -10 C89 -10 74 9 77 31 L168 675 C171 696 191 715 213 715 C235 715 251 696 248 675 L248 675 Z M357 825 L446 906 C461 919 468 929 486 929 C499 929 513 917 513 900 C513 895 512 885 505 879 L412 793 C399 781 390 775 377 775 C361 775 349 787 349 805 C349 815 352 820 357 825 L357 825 Z " />
<glyph glyph-name="uni040D" unicode="&#x40d;" horiz-adv-x="589" d="M115 -10 C89 -10 74 10 77 34 L167 674 C170 696 190 715 212 715 C234 715 250 696 247 674 L175 164 L528 691 C538 706 556 715 573 715 C598 715 613 696 610 671 L520 31 C517 9 497 -10 475 -10 C453 -10 437 9 440 31 L512 541 L159 13 C149 -1 131 -10 115 -10 L115 -10 Z M366 906 L432 825 C435 822 436 817 436 813 C436 791 416 775 397 775 C384 775 377 782 368 793 L299 879 C297 882 296 888 296 892 C296 913 317 929 332 929 C350 929 354 919 366 906 L366 906 Z " />
<glyph glyph-name="uni040E" unicode="&#x40e;" horiz-adv-x="503" d="M570 664 L348 228 C278 91 227 -7 97 -7 C76 -7 62 6 62 25 C62 45 80 66 105 67 C168 70 200 95 240 167 L121 665 C120 666 120 670 120 672 C120 698 141 715 165 715 C180 715 192 706 196 689 L292 271 L500 689 C508 706 525 715 540 715 C558 715 574 701 574 681 C574 674 571 667 570 664 L570 664 Z M369 834 C391 834 414 845 439 875 C448 886 461 891 472 891 C489 891 503 880 493 854 C472 800 405 773 360 773 C315 773 256 800 250 854 C247 880 265 891 282 891 C293 891 303 886 309 875 C325 845 346 834 369 834 L369 834 Z " />
<glyph glyph-name="uni040F" unicode="&#x40f;" horiz-adv-x="579" d="M232 -120 L249 0 L113 0 C91 0 76 19 79 40 L168 675 C171 697 192 716 214 716 C236 716 251 697 248 675 L164 78 L437 78 L521 675 C524 697 546 716 567 716 C589 716 604 697 601 675 L512 40 C509 19 487 0 466 0 L329 0 L312 -120 C309 -141 289 -160 267 -160 C245 -160 229 -141 232 -120 L232 -120 Z " />
<glyph glyph-name="uni0410" unicode="&#x410;" horiz-adv-x="549" d="M108 20 C100 2 80 -10 66 -10 C45 -10 29 4 29 25 C29 32 32 42 34 45 L315 662 C329 692 346 715 375 715 C405 715 414 693 420 662 L528 45 C528 44 529 40 529 37 C529 8 507 -10 481 -10 C466 -10 449 2 446 20 L423 159 L170 159 L108 20 L108 20 Z M205 237 L411 237 L355 576 L205 237 L205 237 Z " />
<glyph glyph-name="uni0411" unicode="&#x411;" horiz-adv-x="531" d="M241 628 L213 426 L328 426 C451 426 526 362 526 247 C526 127 458 0 268 0 L121 0 C95 0 76 22 80 48 L166 661 C169 683 191 706 217 706 L509 706 C529 706 543 690 543 671 C543 647 522 628 498 628 L241 628 L241 628 Z M279 78 C423 78 445 173 445 238 C445 312 401 348 317 348 L202 348 L164 78 L279 78 L279 78 Z " />
<glyph glyph-name="uni0412" unicode="&#x412;" horiz-adv-x="542" d="M210 405 L325 405 C395 405 480 448 480 539 C480 585 453 627 373 627 L241 627 L210 405 L210 405 Z M317 327 L199 327 L164 78 L286 78 C397 78 453 136 453 216 C453 288 397 327 317 327 L317 327 Z M286 0 L121 0 C94 0 76 22 80 48 L165 657 C169 684 194 705 220 705 L389 705 C506 705 560 629 560 545 C560 445 495 398 407 363 C465 344 534 316 534 223 C534 101 434 0 286 0 L286 0 Z " />
<glyph glyph-name="uni0413" unicode="&#x413;" horiz-adv-x="430" d="M241 628 L157 31 C154 10 133 -9 111 -9 C89 -9 74 10 77 31 L165 661 C168 683 191 706 217 706 L489 706 C509 706 523 690 523 671 C523 647 502 628 478 628 L241 628 L241 628 Z " />
<glyph glyph-name="uni0414" unicode="&#x414;" horiz-adv-x="628" d="M595 706 C617 706 632 688 629 667 L546 78 L571 78 C594 78 609 56 605 27 L587 -101 C584 -123 564 -140 541 -140 C519 -140 504 -123 507 -101 L521 0 L105 0 L91 -101 C88 -123 69 -140 47 -140 C25 -140 10 -123 13 -101 L31 27 C35 56 55 78 77 78 L106 78 C146 123 176 217 200 343 L261 667 C267 696 290 706 305 706 L595 706 L595 706 Z M280 343 C260 230 228 138 184 78 L466 78 L544 628 L331 628 L280 343 L280 343 Z " />
<glyph glyph-name="uni0415" unicode="&#x415;" horiz-adv-x="474" d="M448 45 C448 21 425 0 401 0 L136 0 C103 0 75 11 80 47 L166 658 C169 681 193 705 220 705 L491 705 C511 705 525 689 525 670 C525 645 503 627 480 627 L242 627 L209 393 L428 393 C446 393 462 378 462 358 C462 334 441 315 417 315 L198 315 L164 78 L412 78 C432 78 448 63 448 45 L448 45 Z " />
<glyph glyph-name="uni0416" unicode="&#x416;" horiz-adv-x="746" d="M508 675 L468 392 L513 392 L748 696 C758 709 770 715 783 715 C805 715 816 694 816 676 C816 666 812 660 807 653 L580 352 L723 52 C725 47 726 42 726 38 C726 18 707 -10 681 -10 C668 -10 658 -4 651 9 L503 314 L457 314 L417 31 C414 9 393 -10 371 -10 C349 -10 334 9 337 31 L377 314 L331 314 L97 9 C86 -4 74 -10 61 -10 C40 -10 29 11 29 29 C29 39 32 45 37 52 L263 352 L122 653 C120 658 119 663 119 667 C119 687 137 715 163 715 C176 715 186 709 194 696 L341 392 L388 392 L428 675 C431 696 451 715 473 715 C495 715 511 696 508 675 L508 675 Z " />
<glyph glyph-name="uni0417" unicode="&#x417;" horiz-adv-x="485" d="M473 216 C473 99 372 -10 226 -10 C155 -10 40 17 40 70 C40 92 60 110 80 110 C87 110 91 108 99 103 C132 82 166 62 225 62 C336 62 394 130 394 210 C394 289 324 317 237 321 C217 322 193 324 193 353 C193 396 226 395 245 397 C329 405 425 439 425 543 C425 593 397 643 316 643 C284 643 250 636 222 623 C198 612 178 595 159 595 C143 595 129 607 129 625 C129 678 251 715 331 715 C448 715 502 632 502 548 C502 456 444 398 358 363 C426 339 473 292 473 216 L473 216 Z " />
<glyph glyph-name="uni0418" unicode="&#x418;" horiz-adv-x="589" d="M115 -10 C89 -10 74 10 77 34 L167 674 C170 696 190 715 212 715 C234 715 250 696 247 674 L175 164 L528 691 C538 706 556 715 573 715 C598 715 613 696 610 671 L520 31 C517 9 497 -10 475 -10 C453 -10 437 9 440 31 L512 541 L159 13 C149 -1 131 -10 115 -10 L115 -10 Z " />
<glyph glyph-name="uni0419" unicode="&#x419;" horiz-adv-x="589" d="M115 -10 C89 -10 74 10 77 34 L167 674 C170 696 190 715 212 715 C234 715 250 696 247 674 L175 164 L528 691 C538 706 556 715 573 715 C598 715 613 696 610 671 L520 31 C517 9 497 -10 475 -10 C453 -10 437 9 440 31 L512 541 L159 13 C149 -1 131 -10 115 -10 L115 -10 Z M412 834 C434 834 457 845 482 875 C491 886 504 891 515 891 C532 891 546 880 536 854 C515 800 448 773 403 773 C358 773 299 800 293 854 C290 880 308 891 325 891 C336 891 346 886 352 875 C368 845 389 834 412 834 L412 834 Z " />
<glyph glyph-name="uni041A" unicode="&#x41a;" horiz-adv-x="516" d="M248 675 L208 392 L266 392 L518 696 C529 709 540 715 553 715 C575 715 586 694 586 676 C586 666 582 660 578 653 L325 352 L493 52 C495 47 496 42 496 38 C496 18 477 -10 451 -10 C438 -10 428 -4 421 9 L254 314 L197 314 L157 31 C154 9 133 -10 111 -10 C89 -10 74 9 77 31 L168 675 C171 696 191 715 213 715 C235 715 251 696 248 675 L248 675 Z " />
<glyph glyph-name="uni041B" unicode="&#x41b;" horiz-adv-x="610" d="M540 31 C536 9 516 -8 495 -8 C472 -8 457 9 460 31 L544 628 L330 628 L235 169 C213 62 167 -8 85 -8 C49 -8 14 -7 14 26 C14 59 36 73 57 73 C70 73 70 70 85 70 C121 70 141 100 155 163 L262 667 C269 696 290 706 305 706 L595 706 C617 706 633 688 630 667 L540 31 L540 31 Z " />
<glyph glyph-name="uni041C" unicode="&#x41c;" horiz-adv-x="690" d="M718 673 L628 29 C625 8 604 -10 583 -10 C561 -10 545 8 548 29 L616 516 L407 172 C397 156 382 148 365 148 C349 148 335 156 330 172 L217 516 L149 29 C146 8 124 -10 101 -10 C80 -10 66 8 69 29 L159 673 C163 697 183 715 207 715 C227 715 240 706 247 689 L383 271 L637 690 C649 708 665 715 682 715 C706 715 721 696 718 673 L718 673 Z " />
<glyph glyph-name="uni041D" unicode="&#x41d;" horiz-adv-x="580" d="M510 31 C507 9 486 -10 464 -10 C443 -10 427 9 430 31 L470 314 L197 314 L157 31 C154 9 133 -10 111 -10 C89 -10 74 9 77 31 L168 675 C171 696 191 715 213 715 C235 715 251 696 248 675 L208 392 L481 392 L521 675 C524 696 545 715 566 715 C587 715 604 696 601 675 L510 31 L510 31 Z " />
<glyph glyph-name="uni041E" unicode="&#x41e;" horiz-adv-x="551" d="M274 -10 C121 -10 60 104 80 246 L110 460 C130 599 211 715 376 715 C541 715 590 599 570 460 L540 246 C520 104 427 -10 274 -10 L274 -10 Z M365 637 C255 637 205 566 190 460 L160 246 C145 141 182 68 285 68 C388 68 445 141 460 246 L490 460 C505 566 475 637 365 637 L365 637 Z " />
<glyph glyph-name="uni041F" unicode="&#x41f;" horiz-adv-x="579" d="M510 31 C507 9 486 -10 464 -10 C443 -10 427 9 430 31 L514 628 L241 628 L157 31 C154 9 133 -10 111 -10 C89 -10 74 9 77 31 L166 666 C169 687 190 706 212 706 L565 706 C586 706 602 687 599 666 L510 31 L510 31 Z " />
<glyph glyph-name="uni0420" unicode="&#x420;" horiz-adv-x="530" d="M304 260 L189 260 L157 32 C154 10 133 -10 111 -10 C90 -10 74 9 77 32 L165 657 C169 683 194 705 220 705 L367 705 C512 705 564 617 564 517 C564 355 458 260 304 260 L304 260 Z M241 627 L200 338 L315 338 C425 338 483 396 483 509 C483 570 456 627 356 627 L241 627 L241 627 Z " />
<glyph glyph-name="uni0421" unicode="&#x421;" horiz-adv-x="481" d="M80 246 L110 460 C132 614 217 715 371 715 C458 715 536 678 536 633 C536 612 517 594 495 594 C481 594 475 600 461 611 C434 631 404 642 365 642 C252 642 206 572 190 460 L160 246 C144 134 171 64 284 64 C323 64 356 75 389 95 C407 106 413 112 427 112 C446 112 458 98 458 81 C458 32 363 -9 269 -9 C115 -9 58 92 80 246 L80 246 Z " />
<glyph glyph-name="uni0422" unicode="&#x422;" horiz-adv-x="483" d="M205 30 L289 627 L153 627 C132 627 118 643 118 662 C118 681 140 705 164 705 L516 705 C535 705 552 690 552 670 C552 647 529 627 505 627 L369 627 L285 30 C282 9 261 -10 239 -10 C217 -10 202 9 205 30 L205 30 Z " />
<glyph glyph-name="uni0423" unicode="&#x423;" horiz-adv-x="503" d="M570 664 L348 228 C278 91 227 -7 97 -7 C76 -7 62 6 62 25 C62 45 80 66 105 67 C168 70 200 95 240 167 L121 665 C120 666 120 670 120 672 C120 698 141 715 165 715 C180 715 192 706 196 689 L292 271 L500 689 C508 706 525 715 540 715 C558 715 574 701 574 681 C574 674 571 667 570 664 L570 664 Z " />
<glyph glyph-name="uni0424" unicode="&#x424;" horiz-adv-x="750" d="M339 30 L357 160 L292 160 C169 160 95 227 95 346 C95 472 164 606 355 606 L419 606 L429 675 C432 696 455 715 475 715 C499 715 512 696 509 675 L499 606 L565 606 C709 606 761 518 761 417 C761 255 656 160 502 160 L437 160 L419 30 C416 9 395 -10 373 -10 C351 -10 336 9 339 30 L339 30 Z M554 528 L489 528 L448 238 L513 238 C623 238 681 296 681 409 C681 470 653 528 554 528 L554 528 Z M303 238 L368 238 L409 528 L344 528 C197 528 176 423 176 355 C176 276 220 238 303 238 L303 238 Z " />
<glyph glyph-name="uni0425" unicode="&#x425;" horiz-adv-x="483" d="M284 303 L85 19 C76 6 62 -10 43 -10 C24 -10 10 8 10 27 C10 37 15 47 19 53 L245 367 L119 654 C117 658 117 665 117 671 C117 694 138 715 159 715 C177 715 190 698 198 680 L302 431 L476 680 C487 695 504 715 524 715 C542 715 555 699 555 680 C555 671 552 661 547 654 L339 367 L477 53 C479 49 481 42 481 35 C481 13 458 -10 438 -10 C419 -10 409 5 403 19 L284 303 L284 303 Z " />
<glyph glyph-name="uni0426" unicode="&#x426;" horiz-adv-x="604" d="M113 0 C91 0 76 19 79 40 L168 674 C171 696 192 715 214 715 C236 715 251 696 248 674 L164 78 L437 78 L521 674 C524 696 546 715 567 715 C589 715 604 696 601 674 L517 78 L557 78 C578 78 595 59 592 38 L570 -119 C567 -141 545 -160 524 -160 C503 -160 487 -141 490 -119 L507 0 L113 0 L113 0 Z " />
<glyph glyph-name="uni0427" unicode="&#x427;" horiz-adv-x="547" d="M488 673 C491 695 512 715 534 715 C555 715 571 696 568 673 L478 32 C475 9 453 -10 432 -10 C410 -10 395 10 398 32 L434 286 C390 268 341 260 300 260 C167 260 101 339 121 481 L148 673 C151 695 172 715 194 715 C215 715 231 696 228 673 L201 482 C186 378 226 338 318 338 C360 338 408 347 445 365 L488 673 L488 673 Z " />
<glyph glyph-name="uni0428" unicode="&#x428;" horiz-adv-x="760" d="M781 674 L692 40 C689 19 667 0 646 0 L113 0 C91 0 76 19 79 40 L168 674 C171 696 192 715 214 715 C236 715 251 696 248 674 L164 78 L350 78 L434 675 C437 696 458 715 480 715 C502 715 517 696 514 675 L430 78 L617 78 L701 674 C704 696 726 715 747 715 C769 715 784 696 781 674 L781 674 Z " />
<glyph glyph-name="uni0429" unicode="&#x429;" horiz-adv-x="784" d="M781 674 L697 78 L737 78 C758 78 775 59 772 38 L750 -119 C747 -141 726 -160 704 -160 C683 -160 667 -141 670 -119 L687 0 L113 0 C91 0 76 19 79 40 L168 674 C171 696 192 715 214 715 C236 715 251 696 248 674 L164 78 L350 78 L434 675 C437 696 458 715 480 715 C502 715 517 696 514 675 L430 78 L617 78 L701 674 C704 696 726 715 747 715 C769 715 784 696 781 674 L781 674 Z " />
<glyph glyph-name="uni042A" unicode="&#x42a;" horiz-adv-x="654" d="M280 628 L143 628 C123 628 109 643 109 662 C109 686 130 706 154 706 L326 706 C352 706 368 683 365 661 L335 446 L449 446 C572 446 646 379 646 260 C646 134 577 0 387 0 L240 0 C214 0 195 22 198 48 L280 628 L280 628 Z M398 78 C544 78 566 183 566 251 C566 330 522 368 438 368 L323 368 L283 78 L398 78 L398 78 Z " />
<glyph glyph-name="uni042B" unicode="&#x42b;" horiz-adv-x="725" d="M331 446 C453 446 528 379 528 260 C528 134 459 0 268 0 L121 0 C95 0 76 22 80 48 L168 673 C171 696 192 715 213 715 C235 715 250 695 247 673 L215 446 L331 446 L331 446 Z M164 78 L279 78 C426 78 447 183 447 251 C447 330 403 368 320 368 L205 368 L164 78 L164 78 Z M575 30 L666 675 C669 696 689 715 711 715 C733 715 749 696 746 675 L655 30 C652 9 632 -10 610 -10 C588 -10 572 9 575 30 L575 30 Z " />
<glyph glyph-name="uni042C" unicode="&#x42c;" horiz-adv-x="535" d="M331 446 C453 446 528 379 528 260 C528 134 459 0 268 0 L121 0 C95 0 76 22 80 48 L168 673 C171 696 192 715 213 715 C235 715 250 695 247 673 L215 446 L331 446 L331 446 Z M164 78 L279 78 C426 78 447 183 447 251 C447 330 403 368 320 368 L205 368 L164 78 L164 78 Z " />
<glyph glyph-name="uni042D" unicode="&#x42d;" horiz-adv-x="498" d="M486 246 C464 92 379 -9 225 -9 C138 -9 60 28 60 73 C60 94 78 112 101 112 C115 112 119 105 135 95 C162 74 192 64 231 64 C344 64 390 134 406 246 L416 314 L230 314 C210 314 197 330 197 349 C197 374 219 393 241 393 L427 393 L436 460 C451 572 425 642 312 642 C273 642 240 631 207 611 C190 600 183 594 169 594 C150 594 138 608 138 625 C138 674 233 715 327 715 C481 715 538 614 516 460 L486 246 L486 246 Z " />
<glyph glyph-name="uni042E" unicode="&#x42e;" horiz-adv-x="758" d="M491 -10 C345 -10 287 100 306 236 L317 315 L197 315 L157 31 C154 9 133 -10 111 -10 C89 -10 74 9 77 31 L168 675 C171 696 191 715 213 715 C235 715 251 696 248 675 L208 392 L328 392 L339 470 C358 604 435 715 593 715 C751 715 798 604 779 470 L746 236 C727 100 637 -10 491 -10 L491 -10 Z M582 637 C479 637 433 570 419 470 L386 236 C372 137 406 68 502 68 C598 68 652 137 666 236 L699 470 C713 570 685 637 582 637 L582 637 Z " />
<glyph glyph-name="uni042F" unicode="&#x42f;" horiz-adv-x="561" d="M139 476 C139 581 199 706 387 706 L541 706 C566 706 585 684 581 658 L493 32 C490 9 470 -10 448 -10 C426 -10 410 10 413 32 L452 310 L356 310 L138 10 C129 -2 116 -9 102 -9 C87 -9 64 7 64 26 C64 34 68 45 73 52 L269 315 C187 332 139 388 139 476 L139 476 Z M219 486 C219 422 262 387 341 387 L463 387 L496 628 L380 628 C242 628 219 543 219 486 L219 486 Z " />
<glyph glyph-name="uni0430" unicode="&#x430;" horiz-adv-x="482" d="M302 514 C423 514 462 442 444 312 L413 92 C410 72 415 62 427 62 C430 62 431 63 435 63 C452 63 460 49 460 34 C460 5 433 -5 410 -5 C379 -5 354 12 343 41 C293 11 249 -8 199 -8 C100 -8 55 69 71 181 L89 308 C106 427 169 514 302 514 L302 514 Z M337 105 L370 338 C380 410 356 442 287 442 C211 442 180 403 167 308 L149 181 C138 103 165 62 225 62 C266 62 305 81 337 105 L337 105 Z " />
<glyph glyph-name="uni0431" unicode="&#x431;" horiz-adv-x="465" d="M112 477 C130 604 199 679 340 693 C377 697 376 690 448 721 C450 722 456 724 463 724 C481 724 493 710 493 692 C493 638 385 628 332 624 C288 620 209 611 191 482 L184 431 C215 465 259 486 315 486 C423 486 476 408 462 308 L443 170 C429 70 353 -8 231 -8 C109 -8 55 70 69 170 L112 477 L112 477 Z M241 64 C313 64 356 104 365 170 L384 309 C393 374 367 414 295 414 C225 414 178 376 167 314 L147 170 C138 104 169 64 241 64 L241 64 Z " />
<glyph glyph-name="uni0432" unicode="&#x432;" horiz-adv-x="468" d="M465 385 C465 325 441 281 378 258 C423 241 444 206 444 161 C444 61 364 -8 237 -8 C105 -8 55 70 69 170 L93 337 C107 437 185 515 312 515 C414 515 465 461 465 385 L465 385 Z M250 64 C323 64 367 91 367 158 C367 191 349 223 275 223 L154 223 L147 170 C138 100 169 64 250 64 L250 64 Z M171 338 L164 289 L287 289 C362 289 387 325 387 373 C387 422 353 443 298 443 C220 443 180 403 171 338 L171 338 Z " />
<glyph glyph-name="uni0433" unicode="&#x433;" horiz-adv-x="406" d="M409 391 C409 239 260 234 187 197 C162 184 141 167 141 124 C141 80 173 61 223 61 C263 61 296 73 326 84 C329 85 331 86 337 86 C358 86 369 70 369 54 C369 5 266 -8 213 -8 C113 -8 64 40 64 116 C64 267 196 274 276 311 C321 332 333 349 333 386 C333 425 308 445 253 445 C217 445 197 437 175 427 C169 424 163 422 156 422 C137 422 125 437 125 454 C125 499 212 514 266 514 C361 514 409 464 409 391 L409 391 Z " />
<glyph glyph-name="uni0434" unicode="&#x434;" horiz-adv-x="500" d="M297 653 C286 654 267 656 274 687 C279 709 291 719 332 719 C450 719 531 627 515 437 C487 99 423 -10 257 -10 C125 -10 69 74 69 187 C69 343 157 477 302 477 C340 477 398 467 437 430 C463 602 376 645 297 653 L297 653 Z M418 281 L428 349 C402 383 344 405 299 405 C209 405 148 322 148 198 C148 122 180 64 264 64 C358 64 396 131 418 281 L418 281 Z " />
<glyph glyph-name="uni0435" unicode="&#x435;" horiz-adv-x="433" d="M241 61 C283 61 312 73 349 89 C351 90 356 92 363 92 C381 92 393 77 393 61 C393 9 278 -8 222 -8 C109 -8 54 64 67 158 L94 345 C108 441 181 514 300 514 C398 514 446 461 446 378 C446 273 390 203 254 203 C224 203 187 206 153 212 L145 153 C137 97 169 61 241 61 L241 61 Z M368 369 C368 421 339 443 288 443 C223 443 180 408 172 352 L161 276 C198 271 246 269 266 269 C342 269 368 310 368 369 L368 369 Z " />
<glyph glyph-name="uni0436" unicode="&#x436;" horiz-adv-x="608" d="M347 31 C344 9 325 -8 303 -8 C281 -8 266 9 269 31 L297 228 L260 228 L95 11 C84 -2 74 -8 61 -8 C41 -8 28 4 28 22 C28 29 31 41 37 48 L191 251 L94 454 C90 460 91 470 92 477 C96 497 113 510 133 510 C146 510 157 504 163 491 L256 294 L306 294 L331 472 C334 493 353 511 375 511 C397 511 412 493 409 472 L384 294 L433 294 L583 491 C591 504 604 510 617 510 C637 510 650 498 650 480 C650 473 647 461 641 454 L487 251 L583 48 C586 42 587 32 586 25 C582 5 565 -8 545 -8 C532 -8 521 -2 515 11 L412 228 L375 228 L347 31 L347 31 Z " />
<glyph glyph-name="uni0437" unicode="&#x437;" horiz-adv-x="408" d="M408 391 C408 324 378 273 295 258 C358 246 385 209 385 156 C385 60 321 -8 192 -8 C142 -8 46 3 46 47 C46 63 58 86 91 86 C98 86 97 85 99 84 C123 74 160 61 205 61 C272 61 309 88 309 152 C309 179 294 217 202 222 C182 223 158 225 158 251 C158 287 188 287 209 289 C309 297 332 348 332 387 C332 424 306 445 249 445 C211 445 185 436 163 427 C156 424 151 422 144 422 C125 422 113 437 113 453 C113 499 205 514 261 514 C360 514 408 464 408 391 L408 391 Z " />
<glyph glyph-name="uni0438" unicode="&#x438;" horiz-adv-x="509" d="M370 123 L419 473 C422 494 437 511 463 511 C489 511 500 494 497 473 L448 123 C440 68 449 68 456 53 C457 50 460 43 460 36 C460 16 441 -2 418 -2 C399 -2 388 10 379 28 C332 3 279 -8 232 -8 C126 -8 84 68 100 181 L141 473 C144 494 160 511 185 511 C210 511 222 494 219 473 L178 181 C167 105 193 62 253 62 C292 62 332 74 368 95 C368 105 369 115 370 123 L370 123 Z " />
<glyph glyph-name="uni0439" unicode="&#x439;" horiz-adv-x="509" d="M370 123 L419 473 C422 494 437 511 463 511 C489 511 500 494 497 473 L448 123 C440 68 449 68 456 53 C457 50 460 43 460 36 C460 16 441 -2 418 -2 C399 -2 388 10 379 28 C332 3 279 -8 232 -8 C126 -8 84 68 100 181 L141 473 C144 494 160 511 185 511 C210 511 222 494 219 473 L178 181 C167 105 193 62 253 62 C292 62 332 74 368 95 C368 105 369 115 370 123 L370 123 Z M344 633 C366 633 389 644 414 674 C423 685 436 690 447 690 C464 690 478 679 468 653 C447 599 380 572 335 572 C290 572 231 599 225 653 C222 679 240 690 257 690 C268 690 278 685 284 674 C300 644 321 633 344 633 L344 633 Z " />
<glyph glyph-name="uni043A" unicode="&#x43a;" horiz-adv-x="436" d="M155 31 C152 9 133 -8 111 -8 C89 -8 74 9 77 31 L139 472 C142 493 162 511 184 511 C206 511 220 493 217 472 L192 294 L254 294 L411 491 C421 504 432 510 445 510 C464 510 478 498 478 480 C478 473 475 461 469 454 L303 251 L411 48 C414 42 415 32 414 25 C410 5 393 -8 373 -8 C360 -8 350 -2 343 11 L231 228 L183 228 L155 31 L155 31 Z " />
<glyph glyph-name="uni043B" unicode="&#x43b;" horiz-adv-x="524" d="M456 31 C453 9 433 -8 411 -8 C389 -8 375 9 378 31 L435 439 L276 439 L215 163 C193 62 151 -5 72 -5 C43 -5 15 -4 15 24 C15 55 38 68 58 68 C64 68 64 67 71 67 C107 67 126 96 140 157 L210 466 C217 495 238 505 253 505 L483 505 C505 505 520 487 517 466 L456 31 L456 31 Z " />
<glyph glyph-name="uni043C" unicode="&#x43c;" horiz-adv-x="640" d="M331 83 L329 83 C313 83 301 92 295 107 L198 342 L154 31 C151 10 130 -8 109 -8 C88 -8 74 10 77 31 L139 469 C142 493 162 511 186 511 C205 511 216 501 223 485 L345 186 L551 485 C562 501 575 511 594 511 C618 511 634 493 631 469 L569 31 C566 10 545 -8 525 -8 C503 -8 489 10 492 31 L536 342 L373 107 C363 92 347 83 331 83 L331 83 Z " />
<glyph glyph-name="uni043D" unicode="&#x43d;" horiz-adv-x="514" d="M155 31 C152 9 133 -8 111 -8 C89 -8 74 9 77 31 L139 472 C142 493 162 511 184 511 C206 511 220 493 217 472 L192 294 L404 294 L429 472 C432 493 452 511 474 511 C496 511 510 493 507 472 L445 31 C442 9 423 -8 401 -8 C379 -8 364 9 367 31 L395 228 L183 228 L155 31 L155 31 Z " />
<glyph glyph-name="uni043E" unicode="&#x43e;" horiz-adv-x="465" d="M231 -8 C109 -8 55 70 69 170 L93 337 C107 437 183 515 305 515 C427 515 481 437 467 337 L443 170 C429 70 353 -8 231 -8 L231 -8 Z M241 64 C313 64 356 104 365 170 L389 338 C398 403 366 443 294 443 C222 443 180 403 171 338 L147 170 C138 104 169 64 241 64 L241 64 Z " />
<glyph glyph-name="uni043F" unicode="&#x43f;" horiz-adv-x="504" d="M155 31 C152 9 133 -8 111 -8 C89 -8 74 9 77 31 L138 466 C141 487 161 505 183 505 L463 505 C485 505 499 487 496 466 L435 31 C432 9 413 -8 391 -8 C369 -8 354 9 357 31 L414 439 L212 439 L155 31 L155 31 Z " />
<glyph glyph-name="uni0440" unicode="&#x440;" horiz-adv-x="478" d="M265 -7 C231 -7 191 0 157 12 L130 -177 C127 -198 111 -215 86 -215 C61 -215 49 -198 52 -177 L129 369 C134 402 132 421 123 439 C120 444 118 449 118 455 C118 478 140 494 158 494 C174 494 186 484 194 470 C242 494 294 514 346 514 C451 514 495 437 479 325 L460 195 C443 76 392 -7 265 -7 L265 -7 Z M207 369 L167 82 C196 67 239 61 264 61 C337 61 369 102 382 195 L401 325 C412 403 386 444 320 444 C286 444 244 431 207 410 C208 395 209 381 207 369 L207 369 Z " />
<glyph glyph-name="uni0441" unicode="&#x441;" horiz-adv-x="390" d="M70 176 L91 327 C105 430 171 511 296 511 C341 511 426 498 426 454 C426 434 408 416 387 416 C382 416 377 416 372 419 C349 430 329 442 294 442 C216 442 179 400 169 327 L147 176 C137 103 162 61 240 61 C275 61 299 73 325 84 C331 87 336 87 341 87 C358 87 371 73 371 57 C371 7 271 -8 223 -8 C98 -8 55 73 70 176 L70 176 Z " />
<glyph glyph-name="uni0442" unicode="&#x442;" horiz-adv-x="778" d="M638 94 L673 342 C681 398 657 442 596 442 C553 442 506 419 478 389 C479 375 479 360 477 344 L433 31 C430 10 415 -7 389 -7 C363 -7 352 10 355 31 L396 321 C406 392 401 442 330 442 C286 442 239 423 208 402 C208 390 208 380 207 371 L159 31 C156 10 141 -7 115 -7 C89 -7 78 10 81 31 L129 371 C137 426 128 426 121 441 C120 444 116 450 116 458 C116 479 135 496 158 496 C175 496 187 485 195 469 C242 497 295 514 347 514 C402 514 435 496 456 463 C502 495 552 514 608 514 C716 514 765 445 751 344 L716 94 C713 72 713 59 723 47 C725 44 728 38 728 31 C728 10 708 -8 686 -8 C661 -8 625 4 638 94 L638 94 Z " />
<glyph glyph-name="uni0443" unicode="&#x443;" horiz-adv-x="509" d="M377 107 L428 473 C431 494 447 511 473 511 C499 511 509 494 506 473 L434 -40 C420 -143 355 -224 230 -224 C184 -224 99 -211 99 -167 C99 -147 117 -129 138 -129 C143 -129 148 -130 153 -132 C176 -144 196 -155 231 -155 C309 -155 346 -113 356 -40 L366 30 C327 7 284 -7 233 -7 C112 -7 84 71 99 175 L140 473 C143 494 160 511 185 511 C210 511 221 494 218 473 L177 175 C167 104 188 61 259 61 C300 61 343 75 377 107 L377 107 Z " />
<glyph glyph-name="uni0444" unicode="&#x444;" horiz-adv-x="585" d="M228 -176 L252 -8 C115 -8 57 90 76 220 L87 296 C105 420 189 514 325 514 L349 686 C352 707 371 725 393 725 C415 725 430 708 427 686 L403 514 L405 514 C541 514 599 420 581 296 L570 220 C551 90 467 -8 331 -8 L330 -8 L306 -176 C303 -198 283 -215 261 -215 C239 -215 225 -197 228 -176 L228 -176 Z M394 442 L392 442 L339 64 L341 64 C427 64 478 124 492 220 L503 297 C516 386 480 442 394 442 L394 442 Z M261 64 L314 442 C228 442 178 386 165 297 L154 220 C140 124 175 64 261 64 L261 64 Z " />
<glyph glyph-name="uni0445" unicode="&#x445;" horiz-adv-x="431" d="M297 258 L408 50 C410 46 411 41 411 37 C411 14 391 -8 365 -8 C347 -8 340 0 331 19 L242 193 L99 12 C88 -2 77 -8 64 -8 C44 -8 29 6 29 26 C29 37 32 42 37 48 L206 256 L103 454 C101 458 99 464 99 468 C99 489 120 511 144 511 C166 511 175 492 183 477 L262 322 L390 485 C402 501 413 511 431 511 C448 511 464 497 464 478 C464 468 461 461 456 455 L297 258 L297 258 Z " />
<glyph glyph-name="uni0446" unicode="&#x446;" horiz-adv-x="531" d="M253 62 C293 62 335 75 373 97 C371 116 372 138 375 161 L419 473 C422 494 437 511 463 511 C489 511 500 494 497 473 L453 161 C444 96 457 62 491 62 C513 62 528 45 525 23 L507 -105 C504 -127 484 -144 462 -144 C440 -144 426 -127 429 -105 L444 5 C422.503 9.88577 408.644 21.4557 394.96 35.977 C342.97 5.99305 283.987 -8 232 -8 C126 -8 84 68 100 181 L141 473 C144 494 160 511 185 511 C210 511 222 494 219 473 L178 181 C167 105 193 62 253 62 L253 62 Z " />
<glyph glyph-name="uni0447" unicode="&#x447;" horiz-adv-x="468" d="M190 472 L170 331 C164 290 170 249 246 249 C266 249 313 255 354 263 L383 472 C386 493 405 511 427 511 C449 511 464 493 461 472 L399 31 C396 9 376 -8 354 -8 C332 -8 318 9 321 31 L344 197 C307 188 269 183 240 183 C121 183 79 239 92 331 L112 472 C115 493 134 511 156 511 C178 511 193 493 190 472 L190 472 Z " />
<glyph glyph-name="uni0448" unicode="&#x448;" horiz-adv-x="772" d="M217 473 L173 161 C165 105 189 61 250 61 C292 61 339 84 367 113 C366 127 367 142 369 159 L413 473 C416 494 433 511 458 511 C483 511 494 494 491 473 L450 182 C440 111 445 61 516 61 C558 61 604 79 634 99 L687 473 C690 494 707 511 732 511 C757 511 768 494 765 473 L715 114 C711 86 717 72 732 54 C735 50 737 45 737 39 C737 15 715 -1 697 -1 C674 -1 658 12 648 31 C602 5 550 -11 499 -11 C443 -11 411 6 390 39 C343 8 293 -11 238 -11 C130 -11 81 58 95 159 L139 473 C142 494 159 511 184 511 C209 511 220 494 217 473 L217 473 Z " />
<glyph glyph-name="uni0449" unicode="&#x449;" horiz-adv-x="805" d="M217 473 L173 161 C165 105 189 61 250 61 C293 61 340 80 368 106 C366 122 366 140 369 159 L413 473 C416 494 433 511 458 511 C483 511 494 494 491 473 L450 182 C440 111 445 61 516 61 C561 61 609 80 641 102 C640 120 640 140 643 161 L687 473 C690 494 706 511 732 511 C758 511 768 494 765 473 L721 161 C712 96 726 62 760 62 C782 62 796 45 793 23 L775 -105 C772 -127 753 -144 731 -144 C709 -144 694 -127 697 -105 L712 5 C690 10 674 22 661 39 C612 8 555 -11 499 -11 C443 -11 411 6 390 39 C343 8 293 -11 238 -11 C130 -11 81 58 95 159 L139 473 C142 494 159 511 184 511 C209 511 220 494 217 473 L217 473 Z " />
<glyph glyph-name="uni044A" unicode="&#x44a;" horiz-adv-x="528" d="M311 -8 C191 -8 142 70 156 170 L193 435 L107 435 C89 435 76 448 76 466 C76 488 97 505 117 505 L242 505 C264 505 279 487 276 466 L252 295 C282 314 320 324 358 324 C473 324 528 250 514 155 C500 62 424 -8 311 -8 L311 -8 Z M342 252 C282 252 244 228 237 186 L234 170 C223 104 252 64 321 64 C394 64 438 107 438 173 C438 222 408 252 342 252 L342 252 Z " />
<glyph glyph-name="uni044B" unicode="&#x44b;" horiz-adv-x="654" d="M217 472 L192 295 C223 314 261 324 299 324 C414 324 469 250 455 155 C441 62 365 -8 252 -8 C132 -8 83 70 97 170 L139 472 C142 493 162 511 184 511 C206 511 220 493 217 472 L217 472 Z M283 252 C224 252 184 229 178 189 L175 170 C165 104 193 64 262 64 C335 64 379 107 379 173 C379 222 349 252 283 252 L283 252 Z M584 31 C581 9 562 -8 540 -8 C518 -8 503 9 506 31 L568 472 C571 493 591 511 613 511 C635 511 649 493 646 472 L584 31 L584 31 Z " />
<glyph glyph-name="uni044C" unicode="&#x44c;" horiz-adv-x="472" d="M217 472 L192 295 C223 314 261 324 299 324 C414 324 469 250 455 155 C441 62 365 -8 252 -8 C132 -8 83 70 97 170 L139 472 C142 493 162 511 184 511 C206 511 220 493 217 472 L217 472 Z M283 252 C223 252 182 228 177 186 L175 170 C167 104 193 64 262 64 C335 64 379 107 379 173 C379 222 349 252 283 252 L283 252 Z " />
<glyph glyph-name="uni044D" unicode="&#x44d;" horiz-adv-x="393" d="M147 219 C128 219 115 232 115 250 C115 272 134 289 156 289 L309 289 L313 317 C324 396 303 442 232 442 C193 442 167 431 138 419 C132 417 126 416 121 416 C104 416 92 430 92 446 C92 496 198 511 250 511 C368 511 406 426 391 317 L373 186 C358 77 295 -8 177 -8 C128 -8 36 5 36 49 C36 69 54 87 75 87 C80 87 85 86 91 84 C117 72 139 61 178 61 C249 61 283 107 295 186 L300 219 L147 219 L147 219 Z " />
<glyph glyph-name="uni044E" unicode="&#x44e;" horiz-adv-x="681" d="M155 31 C152 9 133 -8 111 -8 C89 -8 74 9 77 31 L139 472 C142 493 162 511 184 511 C206 511 220 493 217 472 L192 294 L302 294 L308 336 C322 436 398 514 520 514 C642 514 696 436 682 336 L659 170 C645 70 569 -8 447 -8 C325 -8 271 70 285 170 L293 228 L183 228 L155 31 L155 31 Z M457 64 C529 64 572 104 581 170 L604 337 C613 402 582 442 510 442 C438 442 395 402 386 337 L363 170 C354 104 385 64 457 64 L457 64 Z " />
<glyph glyph-name="uni044F" unicode="&#x44f;" horiz-adv-x="487" d="M373 -8 C351 -8 336 10 339 31 L364 206 L276 206 L120 11 C109 -2 99 -8 86 -8 C66 -8 53 4 53 22 C53 29 56 41 62 48 L195 212 C130 227 102 269 102 332 C102 434 166 505 291 505 L445 505 C467 505 481 487 478 466 L417 31 C414 10 395 -8 373 -8 L373 -8 Z M179 341 C179 306 197 272 271 272 L373 272 L396 438 L283 438 C216 438 179 406 179 341 L179 341 Z " />
<glyph glyph-name="uni0450" unicode="&#x450;" horiz-adv-x="433" d="M241 61 C283 61 312 73 349 89 C351 90 356 92 363 92 C381 92 393 77 393 61 C393 9 278 -8 222 -8 C109 -8 54 64 67 158 L94 345 C108 441 181 514 300 514 C398 514 446 461 446 378 C446 273 390 203 254 203 C224 203 187 206 153 212 L145 153 C137 97 169 61 241 61 L241 61 Z M368 369 C368 421 339 443 288 443 C223 443 180 408 172 352 L161 276 C198 271 246 269 266 269 C342 269 368 310 368 369 L368 369 Z M286 705 L352 624 C355 621 356 616 356 612 C356 590 336 574 317 574 C304 574 297 581 288 592 L219 678 C217 681 216 687 216 691 C216 712 237 728 252 728 C270 728 274 718 286 705 L286 705 Z " />
<glyph glyph-name="uni0451" unicode="&#x451;" horiz-adv-x="433" d="M241 61 C283 61 312 73 349 89 C351 90 356 92 363 92 C381 92 393 77 393 61 C393 9 278 -8 222 -8 C109 -8 54 64 67 158 L94 345 C108 441 181 514 300 514 C398 514 446 461 446 378 C446 273 390 203 254 203 C224 203 187 206 153 212 L145 153 C137 97 169 61 241 61 L241 61 Z M368 369 C368 421 339 443 288 443 C223 443 180 408 172 352 L161 276 C198 271 246 269 266 269 C342 269 368 310 368 369 L368 369 Z M459 644 C459 615 433 590 405 590 C381 590 363 610 363 634 C363 661 390 686 418 686 C442 686 459 668 459 644 L459 644 Z M290 644 C290 615 264 590 235 590 C211 590 195 610 195 633 C195 661 220 686 248 686 C273 686 290 668 290 644 L290 644 Z " />
<glyph glyph-name="uni0452" unicode="&#x452;" horiz-adv-x="582" d="M432 21 L471 297 C482 373 462 411 400 411 C359 411 310 393 276 354 L231 31 C228 9 209 -8 187 -8 C165 -8 151 9 154 31 L230 570 L142 570 C123 570 110 584 110 602 C110 624 130 643 153 643 L239 643 L246 692 C249 712 268 731 290 731 C312 731 326 714 323 692 L316 643 L402 643 C420 643 433 628 433 610 C433 588 413 570 391 570 L306 570 L288 442 C326 468 371 484 419 484 C526 484 564 407 549 298 L511 25 C493 -104 430 -185 338 -202 C330 -203 325 -203 319 -203 C303 -203 291 -193 289 -177 C286 -150 310 -137 325 -134 C382 -118 418 -76 432 21 L432 21 Z " />
<glyph glyph-name="uni0453" unicode="&#x453;" horiz-adv-x="406" d="M409 391 C409 239 260 234 187 197 C162 184 141 167 141 124 C141 80 173 61 223 61 C263 61 296 73 326 84 C329 85 331 86 337 86 C358 86 369 70 369 54 C369 5 266 -8 213 -8 C113 -8 64 40 64 116 C64 267 196 274 276 311 C321 332 333 349 333 386 C333 425 308 445 253 445 C217 445 197 437 175 427 C169 424 163 422 156 422 C137 422 125 437 125 454 C125 499 212 514 266 514 C361 514 409 464 409 391 L409 391 Z M242 624 L331 705 C346 718 353 728 371 728 C384 728 398 716 398 699 C398 694 397 684 390 678 L297 592 C284 580 275 574 262 574 C246 574 234 586 234 604 C234 614 237 619 242 624 L242 624 Z " />
<glyph glyph-name="uni0454" unicode="&#x454;" horiz-adv-x="390" d="M307 219 L154 219 L149 186 C137 107 160 61 231 61 C270 61 296 72 325 84 C331 86 336 87 341 87 C359 87 371 73 371 57 C371 7 265 -8 213 -8 C95 -8 55 77 71 186 L90 317 C106 426 168 511 286 511 C334 511 427 498 427 454 C427 434 408 416 388 416 C383 416 378 417 372 419 C346 431 323 442 284 442 C213 442 179 396 168 317 L164 289 L317 289 C335 289 348 276 348 258 C348 236 329 219 307 219 L307 219 Z " />
<glyph glyph-name="uni0455" unicode="&#x455;" horiz-adv-x="416" d="M103 350 C103 445 169 514 287 514 C337 514 413 501 413 462 C413 441 394 422 371 422 C364 422 360 424 354 427 C334 437 317 445 281 445 C212 445 181 416 181 365 C181 341 193 325 220 311 C280 279 383 269 383 159 C383 59 317 -8 193 -8 C144 -8 54 3 54 46 C54 64 70 86 96 86 C102 86 103 85 106 84 C133 73 163 61 203 61 C264 61 306 87 306 146 C306 174 293 188 277 197 C223 229 103 237 103 350 L103 350 Z " />
<glyph glyph-name="uni0456" unicode="&#x456;" horiz-adv-x="245" d="M265 674 C265 645 239 620 210 620 C185 620 168 639 168 663 C168 692 194 716 223 716 C248 716 265 698 265 674 L265 674 Z M97 94 L150 472 C153 493 172 511 194 511 C216 511 231 493 228 472 L175 94 C172 72 172 59 182 47 C184 44 187 38 187 31 C187 10 167 -8 145 -8 C120 -8 84 4 97 94 L97 94 Z " />
<glyph glyph-name="uni0457" unicode="&#x457;" horiz-adv-x="245" d="M356 625 C356 592 327 565 295 565 C268 565 249 587 249 613 C249 644 279 671 310 671 C337 671 356 651 356 625 L356 625 Z M168 625 C168 592 140 565 107 565 C81 565 62 587 62 613 C62 644 90 671 122 671 C149 671 168 651 168 625 L168 625 Z M96 94 L149 472 C152 493 171 511 193 511 C215 511 230 493 227 472 L174 94 C171 72 171 59 181 47 C183 44 186 38 186 31 C186 10 166 -8 144 -8 C119 -8 83 4 96 94 L96 94 Z " />
<glyph glyph-name="uni0458" unicode="&#x458;" horiz-adv-x="245" d="M240 472 L172 -15 C157 -120 97 -189 5 -202 C-3 -203 -8 -203 -14 -203 C-30 -203 -42 -193 -44 -177 C-47 -150 -23 -137 -8 -134 C48 -122 83 -92 93 -19 L162 472 C165 493 185 511 207 511 C229 511 243 493 240 472 L240 472 Z M277 674 C277 645 252 620 222 620 C198 620 180 639 180 663 C180 692 206 716 236 716 C260 716 277 698 277 674 L277 674 Z " />
<glyph glyph-name="uni0459" unicode="&#x459;" horiz-adv-x="737" d="M468 505 C490 505 505 487 502 466 L479 299 L560 299 C673 299 720 253 720 173 C720 71 655 0 531 0 L397 0 C375 0 361 18 364 39 L420 439 L281 439 L220 163 C198 62 156 -5 77 -5 C48 -5 20 -4 20 24 C20 55 43 68 63 68 C69 68 69 67 76 67 C112 67 131 96 145 157 L215 466 C222 495 243 505 258 505 L468 505 L468 505 Z M551 233 L469 233 L446 67 L539 67 C606 67 643 99 643 164 C643 199 625 233 551 233 L551 233 Z " />
<glyph glyph-name="uni045A" unicode="&#x45a;" horiz-adv-x="722" d="M155 31 C152 9 133 -8 111 -8 C89 -8 74 9 77 31 L139 472 C142 493 162 511 184 511 C206 511 220 493 217 472 L192 294 L384 294 L409 472 C412 493 432 511 454 511 C476 511 490 493 487 472 L462 294 L554 294 C660 294 705 250 705 173 C705 72 643 0 526 0 L382 0 C360 0 345 18 348 39 L375 228 L183 228 L155 31 L155 31 Z M545 228 L453 228 L430 67 L533 67 C595 67 627 100 627 164 C627 196 611 228 545 228 L545 228 Z " />
<glyph glyph-name="uni045B" unicode="&#x45b;" horiz-adv-x="582" d="M442 94 L474 317 C483 379 462 411 400 411 C359 411 310 393 276 354 L231 31 C228 9 209 -8 187 -8 C165 -8 151 9 154 31 L230 570 L142 570 C123 570 110 584 110 602 C110 624 130 643 153 643 L239 643 L246 692 C249 712 268 731 290 731 C312 731 326 714 323 692 L316 643 L402 643 C420 643 433 628 433 610 C433 588 413 570 391 570 L306 570 L288 442 C326 468 371 484 419 484 C526 484 566 415 552 318 L520 94 C517 72 518 59 528 47 C530 44 532 38 532 31 C532 10 513 -8 491 -8 C466 -8 429 4 442 94 L442 94 Z " />
<glyph glyph-name="uni045C" unicode="&#x45c;" horiz-adv-x="436" d="M155 31 C152 9 133 -8 111 -8 C89 -8 74 9 77 31 L139 472 C142 493 162 511 184 511 C206 511 220 493 217 472 L192 294 L254 294 L411 491 C421 504 432 510 445 510 C464 510 478 498 478 480 C478 473 475 461 469 454 L303 251 L411 48 C414 42 415 32 414 25 C410 5 393 -8 373 -8 C360 -8 350 -2 343 11 L231 228 L183 228 L155 31 L155 31 Z M302 624 L391 705 C406 718 413 728 431 728 C444 728 458 716 458 699 C458 694 457 684 450 678 L357 592 C344 580 335 574 322 574 C306 574 294 586 294 604 C294 614 297 619 302 624 L302 624 Z " />
<glyph glyph-name="uni045D" unicode="&#x45d;" horiz-adv-x="530" d="M370 123 L419 473 C422 494 437 511 463 511 C489 511 500 494 497 473 L448 123 C440 68 449 68 456 53 C457 50 460 43 460 36 C460 16 441 -2 418 -2 C399 -2 388 10 379 28 C332 3 279 -8 232 -8 C126 -8 84 68 100 181 L141 473 C144 494 160 511 185 511 C210 511 222 494 219 473 L178 181 C167 105 193 62 253 62 C292 62 332 74 368 95 C368 105 369 115 370 123 L370 123 Z M332 705 L398 624 C401 621 402 616 402 612 C402 590 382 574 363 574 C350 574 343 581 334 592 L265 678 C263 681 262 687 262 691 C262 712 283 728 298 728 C316 728 320 718 332 705 L332 705 Z " />
<glyph glyph-name="uni045E" unicode="&#x45e;" horiz-adv-x="509" d="M377 107 L428 473 C431 494 447 511 473 511 C499 511 509 494 506 473 L434 -40 C420 -143 355 -224 230 -224 C184 -224 99 -211 99 -167 C99 -147 117 -129 138 -129 C143 -129 148 -130 153 -132 C176 -144 196 -155 231 -155 C309 -155 346 -113 356 -40 L366 30 C327 7 284 -7 233 -7 C112 -7 84 71 99 175 L140 473 C143 494 160 511 185 511 C210 511 221 494 218 473 L177 175 C167 104 188 61 259 61 C300 61 343 75 377 107 L377 107 Z M344 633 C366 633 389 644 414 674 C423 685 436 690 447 690 C464 690 478 679 468 653 C447 599 380 572 335 572 C290 572 231 599 225 653 C222 679 240 690 257 690 C268 690 278 685 284 674 C300 644 321 633 344 633 L344 633 Z " />
<glyph glyph-name="uni045F" unicode="&#x45f;" horiz-adv-x="504" d="M277 -101 C274 -123 255 -140 233 -140 C211 -140 196 -123 199 -101 L213 0 L112 0 C90 0 76 18 79 39 L140 474 C143 496 163 513 185 513 C207 513 221 496 218 474 L161 66 L363 66 L420 474 C423 496 443 513 465 513 C487 513 501 496 498 474 L437 39 C434 18 414 0 392 0 L291 0 L277 -101 L277 -101 Z " />
<glyph glyph-name="uni0462" unicode="&#x462;" horiz-adv-x="644" d="M545 621 C545 598 522 578 498 578 L322 578 L301 426 L416 426 C539 426 614 362 614 247 C614 127 545 0 356 0 L209 0 C183 0 163 22 167 48 L241 578 L146 578 C125 578 111 595 111 612 C111 633 133 656 157 656 L253 656 L263 725 C266 746 286 765 308 765 C330 765 346 746 343 725 L333 656 L509 656 C528 656 545 641 545 621 L545 621 Z M252 78 L367 78 C511 78 533 173 533 238 C533 312 489 348 405 348 L290 348 L252 78 L252 78 Z " />
<glyph glyph-name="uni0463" unicode="&#x463;" horiz-adv-x="582" d="M426 560 C426 538 406 520 384 520 L300 520 L276 349 L378 349 C488 349 536 297 536 210 C536 89 470 0 342 0 L188 0 C166 0 152 18 155 39 L223 520 L135 520 C116 520 103 535 103 553 C103 575 123 593 145 593 L232 593 L245 682 C248 704 267 721 289 721 C311 721 326 704 323 682 L310 593 L394 593 C413 593 426 578 426 560 L426 560 Z M369 283 L267 283 L237 67 L350 67 C420 67 458 115 458 200 C458 242 441 283 369 283 L369 283 Z " />
<glyph glyph-name="uni0490" unicode="&#x490;" horiz-adv-x="430" d="M166 661 C169 683 191 706 217 706 L448 706 L461 797 C464 818 485 837 507 837 C529 837 544 818 541 797 L523 667 C520 645 500 628 478 628 L241 628 L157 31 C154 10 134 -9 112 -9 C90 -9 74 10 77 31 L166 661 L166 661 Z " />
<glyph glyph-name="uni0491" unicode="&#x491;" horiz-adv-x="375" d="M379 602 C382 624 402 641 424 641 C446 641 460 624 457 602 L439 474 C436 452 417 435 395 435 L212 435 L155 31 C152 9 133 -8 111 -8 C89 -8 74 9 77 31 L139 470 C142 490 160 505 180 505 L365 505 L379 602 L379 602 Z " />
<glyph glyph-name="Wgrave" unicode="&#x1e80;" horiz-adv-x="776" d="M510 47 L465 550 L278 46 C268 20 250 -10 217 -10 C188 -10 174 16 171 46 L109 665 L109 668 C109 697 138 711 160 711 C176 711 190 702 192 682 L241 149 L428 657 C442 694 454 715 488 715 C520 715 528 692 531 657 L576 149 L776 682 C783 700 797 711 813 711 C832 711 856 701 856 679 C856 674 854 670 852 664 L616 46 C605 17 585 -10 555 -10 C525 -10 512 18 510 47 L510 47 Z M507 905 L573 824 C576 821 577 816 577 812 C577 790 557 774 538 774 C525 774 518 781 509 792 L440 878 C438 881 437 887 437 891 C437 912 458 928 473 928 C491 928 495 918 507 905 L507 905 Z " />
<glyph glyph-name="wgrave" unicode="&#x1e81;" horiz-adv-x="655" d="M694 465 L519 37 C506 7 492 -8 463 -8 C442 -8 424 4 421 26 L381 377 L242 26 C232 2 216 -8 191 -8 C164 -8 151 9 147 37 L91 468 L91 471 C91 491 111 511 135 511 C151 511 165 501 167 483 L210 115 C258 236 304 354 351 476 C359 496 376 511 400 511 C423 511 436 496 438 476 C450 354 465 236 479 115 L624 483 C630 499 646 511 663 511 C682 511 696 496 696 477 C696 471 695 467 694 465 L694 465 Z M419 705 L485 624 C488 621 489 616 489 612 C489 590 469 574 450 574 C437 574 430 581 421 592 L352 678 C350 681 349 687 349 691 C349 712 370 728 385 728 C403 728 407 718 419 705 L419 705 Z " />
<glyph glyph-name="Wacute" unicode="&#x1e82;" horiz-adv-x="776" d="M510 47 L465 550 L278 46 C268 20 250 -10 217 -10 C188 -10 174 16 171 46 L109 665 L109 668 C109 697 138 711 160 711 C176 711 190 702 192 682 L241 149 L428 657 C442 694 454 715 488 715 C520 715 528 692 531 657 L576 149 L776 682 C783 700 797 711 813 711 C832 711 856 701 856 679 C856 674 854 670 852 664 L616 46 C605 17 585 -10 555 -10 C525 -10 512 18 510 47 L510 47 Z M433 824 L522 905 C537 918 544 928 562 928 C575 928 589 916 589 899 C589 894 588 884 581 878 L488 792 C475 780 466 774 453 774 C437 774 425 786 425 804 C425 814 428 819 433 824 L433 824 Z " />
<glyph glyph-name="wacute" unicode="&#x1e83;" horiz-adv-x="655" d="M694 465 L519 37 C506 7 492 -8 463 -8 C442 -8 424 4 421 26 L381 377 L242 26 C232 2 216 -8 191 -8 C164 -8 151 9 147 37 L91 468 L91 471 C91 491 111 511 135 511 C151 511 165 501 167 483 L210 115 C258 236 304 354 351 476 C359 496 376 511 400 511 C423 511 436 496 438 476 C450 354 465 236 479 115 L624 483 C630 499 646 511 663 511 C682 511 696 496 696 477 C696 471 695 467 694 465 L694 465 Z M345 624 L434 705 C449 718 456 728 474 728 C487 728 501 716 501 699 C501 694 500 684 493 678 L400 592 C387 580 378 574 365 574 C349 574 337 586 337 604 C337 614 340 619 345 624 L345 624 Z " />
</font>
</svg>
