<?xml version="1.0" encoding="UTF-8"?>
<svg xmlns="http://www.w3.org/2000/svg" xmlns:xlink="http://www.w3.org/1999/xlink" version="1.2" >
<font id="Blogger Sans Medium Italic">
<font-face  font-family="Blogger Sans" units-per-em="1000" ascent="725" descent="-240" font-style="normal" font-weight="500" font-stretch="" cap-height="705" x-height="505" underline-position="-133" underline-thickness="20" />
<missing-glyph  horiz-adv-x="760" d="" />
<glyph glyph-name="NULL" d="" />
<glyph glyph-name="CR" unicode="&#xd;" horiz-adv-x="250" d="" />
<glyph glyph-name="space" unicode="&#x20;" horiz-adv-x="300" d="" />
<glyph glyph-name="exclam" unicode="&#x21;" horiz-adv-x="247" d="M108 215 L161 662 C165 689 192 714 223 714 C253 714 275 689 271 662 L198 215 C194 191 170 171 147 171 C121 171 105 191 108 215 L108 215 Z M202 64 C202 25 164 -10 124 -10 C85 -10 59 21 64 57 C69 92 103 122 142 122 C176 122 202 95 202 64 L202 64 Z " />
<glyph glyph-name="quotedbl" unicode="&#x22;" horiz-adv-x="362" d="M126 494 L182 720 C190 744 219 761 246 758 C274 753 290 729 280 705 C266 668 212 516 197 479 C190 461 168 448 149 451 C130 454 121 475 126 494 L126 494 Z M264 494 L321 720 C328 744 358 761 385 758 C412 753 429 729 418 705 C404 668 350 516 336 479 C328 461 306 448 288 451 C268 454 259 475 264 494 L264 494 Z " />
<glyph glyph-name="numbersign" unicode="&#x23;" horiz-adv-x="561" d="M190 491 L238 491 L301 661 C311 688 335 711 364 711 C390 708 404 681 403 661 L403 658 C386 603 362 546 341 491 L418 491 L481 661 C491 688 515 711 544 711 C571 708 584 681 583 661 L583 657 C566 602 542 545 521 491 C553 491 586 481 586 447 C586 414 557 389 524 389 L484 389 L457 319 L484 319 C505 319 531 298 531 272 C531 233 498 216 459 216 L420 216 L356 44 C345 14 321 -6 292 -6 C284 -5 277 2 278 12 C260 15 252 31 254 50 L316 216 L240 216 L175 44 C165 16 128 0 108 0 C85 0 69 19 72 43 L136 216 C101 216 74 228 74 260 C74 293 106 319 136 319 L174 319 L200 389 L176 389 C152 389 129 408 129 435 C129 466 160 491 190 491 L190 491 Z M304 389 L277 319 L354 319 L380 389 L304 389 L304 389 Z " />
<glyph glyph-name="dollar" unicode="&#x24;" horiz-adv-x="513" d="M227 -28 L234 20 C160 22 54 45 54 100 C54 129 78 154 116 154 C153 154 184 126 248 123 L274 311 C194 338 109 370 109 476 C109 598 195 674 327 683 L334 733 C336 747 349 759 363 759 C377 759 388 747 386 733 L379 683 C439 679 529 663 529 610 C529 581 503 555 467 555 C435 555 420 576 364 581 L339 403 C422 374 505 345 505 241 C505 114 409 36 286 22 L279 -28 C277 -42 263 -54 249 -54 C234 -54 225 -42 227 -28 L227 -28 Z M389 219 C389 258 367 275 349 283 L324 294 L300 126 C357 136 389 169 389 219 L389 219 Z M265 433 L290 421 L312 580 C264 573 224 551 224 495 C224 457 247 441 265 433 L265 433 Z " />
<glyph glyph-name="percent" unicode="&#x25;" horiz-adv-x="723" d="M531 -10 C432 -10 390 63 404 158 C417 252 480 325 578 325 C675 325 719 252 706 158 C692 63 629 -10 531 -10 L531 -10 Z M543 77 C582 77 605 107 613 160 C620 209 605 238 566 238 C526 238 504 209 497 160 C489 107 503 77 543 77 L543 77 Z M666 645 L242 23 C226 1 200 -7 176 -1 C152 8 143 35 154 60 L159 70 L583 691 C599 712 625 720 648 713 C671 706 683 682 673 658 C671 654 668 648 666 645 L666 645 Z M257 467 C296 467 319 497 327 550 C334 599 319 628 280 628 C240 628 218 599 211 550 C203 497 217 467 257 467 L257 467 Z M245 380 C147 380 104 453 117 548 C131 642 193 715 292 715 C390 715 433 642 419 548 C406 453 343 380 245 380 L245 380 Z " />
<glyph glyph-name="ampersand" unicode="&#x26;" horiz-adv-x="662" d="M626 47 C626 19 601 -8 568 -8 C531 -8 507 32 478 77 C420 30 352 -9 263 -9 C142 -9 66 65 66 163 C66 278 155 347 239 394 C206 439 186 486 186 532 C186 642 290 712 394 712 C487 712 554 649 554 586 C554 546 511 527 490 527 C432 527 463 611 390 611 C358 611 294 580 294 541 C294 506 323 467 349 433 L498 238 C537 290 568 364 608 364 C631 364 658 346 658 318 C658 280 603 207 559 156 L617 74 C622 68 626 59 626 47 L626 47 Z M419 154 L294 319 C235 287 175 249 175 181 C175 131 209 87 271 87 C329 87 377 116 419 154 L419 154 Z " />
<glyph glyph-name="quotesingle" unicode="&#x27;" horiz-adv-x="242" d="M133 494 L190 720 C197 744 227 761 254 758 C281 753 298 729 287 705 C273 668 219 516 205 479 C197 461 175 448 157 451 C137 454 128 475 133 494 L133 494 Z " />
<glyph glyph-name="parenleft" unicode="&#x28;" horiz-adv-x="296" d="M201 226 C183 97 192 -32 243 -144 C247 -154 252 -164 250 -177 C246 -204 225 -231 189 -231 C170 -231 156 -223 147 -206 C83 -77 71 79 92 226 C112 372 168 529 268 658 C282 675 299 683 318 683 C354 683 367 656 363 628 C361 616 354 606 347 596 C265 484 219 355 201 226 L201 226 Z " />
<glyph glyph-name="parenright" unicode="&#x29;" horiz-adv-x="295" d="M157 226 C176 355 165 484 115 596 C111 606 106 616 108 628 C112 656 132 683 169 683 C187 683 203 675 211 658 C274 529 287 372 266 226 C246 79 189 -77 90 -206 C76 -223 58 -231 40 -231 C3 -231 -9 -204 -5 -177 C-3 -164 4 -154 11 -144 C92 -32 139 97 157 226 L157 226 Z " />
<glyph glyph-name="asterisk" unicode="&#x2a;" horiz-adv-x="515" d="M365 508 L438 419 C443 412 441 405 441 399 C441 376 420 351 391 351 C349 351 324 420 298 458 C271 420 246 351 204 351 C175 351 154 376 154 399 C154 405 152 412 157 419 L229 508 L141 526 C116 531 90 547 90 574 C90 606 115 622 135 622 C139 622 143 622 146 621 C183 608 220 592 257 579 L248 669 C247 672 247 675 247 677 C247 696 259 731 297 731 C335 731 347 696 347 677 C347 675 347 672 346 669 L337 579 C374 592 411 608 448 621 C451 622 455 622 459 622 C479 622 504 606 504 574 C504 547 478 531 453 526 L365 508 L365 508 Z " />
<glyph glyph-name="plus" unicode="&#x2b;" horiz-adv-x="520" d="M246 153 L246 302 L106 302 C75 302 52 325 52 354 C52 383 78 405 106 405 L246 405 L246 554 C246 581 269 606 300 606 C330 606 354 583 354 554 L354 405 L494 405 C521 405 548 383 548 354 C548 325 524 302 494 302 L354 302 L354 153 C354 124 330 102 300 102 C269 102 246 127 246 153 L246 153 Z " />
<glyph glyph-name="comma" unicode="&#x2c;" horiz-adv-x="250" d="M64 -99 C69 -66 95 -51 111 -8 C79 -3 59 24 64 57 C68 92 103 122 142 122 C178 122 206 94 200 55 C191 -9 127 -130 89 -130 C76 -130 57 -125 64 -99 L64 -99 Z " />
<glyph glyph-name="hyphen" unicode="&#x2d;" horiz-adv-x="419" d="M425 297 C425 270 402 249 374 249 L125 249 C95 249 73 270 73 297 C73 324 95 346 125 346 L374 346 C402 346 425 324 425 297 L425 297 Z " />
<glyph glyph-name="period" unicode="&#x2e;" horiz-adv-x="250" d="M202 64 C202 25 164 -10 124 -10 C85 -10 59 21 64 57 C69 92 103 122 142 122 C176 122 202 95 202 64 L202 64 Z " />
<glyph glyph-name="slash" unicode="&#x2f;" horiz-adv-x="320" d="M432 689 L78 -10 C67 -31 45 -44 24 -44 C-2 -44 -22 -24 -22 -1 C-22 7 -21 10 -19 14 L341 724 C352 746 372 758 393 758 C421 758 439 735 439 711 C439 703 437 694 432 689 L432 689 Z " />
<glyph glyph-name="zero" unicode="0" horiz-adv-x="520" d="M348 626 C271 626 234 573 223 498 L182 204 C172 135 203 89 273 89 C342 89 386 135 396 204 L437 498 C448 573 424 626 348 626 L348 626 Z M362 724 C512 724 563 619 545 490 L505 204 C488 85 398 -10 259 -10 C119 -10 56 85 73 204 L113 490 C131 619 211 724 362 724 L362 724 Z " />
<glyph glyph-name="one" unicode="1" horiz-adv-x="520" d="M272 43 L347 577 L237 513 C218 503 201 493 182 493 C159 493 135 508 139 539 C142 559 154 575 170 584 L384 705 C397 712 406 714 417 714 C450 714 473 690 468 659 L382 43 C378 16 349 -9 319 -9 C288 -9 268 16 272 43 L272 43 Z " />
<glyph glyph-name="two" unicode="2" horiz-adv-x="520" d="M487 55 C487 25 457 0 425 0 L96 0 C66 0 47 20 47 47 C47 67 53 84 61 97 C110 181 185 245 261 308 C336 371 441 437 441 532 C441 585 409 626 346 626 C310 626 281 620 254 609 C230 599 208 581 185 581 C160 581 138 599 138 625 C138 690 283 724 361 724 C484 724 551 648 551 551 C551 460 507 397 447 340 C361 259 255 190 190 100 L439 100 C467 100 487 81 487 55 L487 55 Z " />
<glyph glyph-name="three" unicode="3" horiz-adv-x="520" d="M524 612 C465 549 404 486 345 423 C442 413 507 351 507 252 C507 141 422 -8 246 -8 C203 -8 57 2 57 70 C57 100 84 126 116 126 C152 126 178 88 245 88 C360 88 396 174 396 238 C396 303 350 330 285 330 C257 330 251 319 228 319 C204 319 187 339 187 362 C187 371 192 388 196 394 L389 601 L198 601 C170 601 151 621 151 646 C151 673 180 706 213 706 L492 706 C520 706 543 686 543 656 C543 639 536 625 524 612 L524 612 Z " />
<glyph glyph-name="four" unicode="4" horiz-adv-x="520" d="M449 143 L435 42 C431 13 404 -9 374 -9 C343 -9 323 13 327 42 L341 143 L106 143 C73 143 54 169 58 198 C59 202 64 218 71 229 L328 691 C339 710 361 722 381 722 C407 722 431 698 427 670 C427 665 426 659 422 652 C383 585 232 310 193 243 L355 243 L380 417 C384 446 410 468 441 468 C470 468 492 446 488 417 L464 243 L491 243 C520 243 540 220 536 193 C532 165 506 143 477 143 L449 143 L449 143 Z " />
<glyph glyph-name="five" unicode="5" horiz-adv-x="520" d="M508 263 C508 141 427 -8 255 -8 C212 -8 57 3 57 71 C57 100 83 126 116 126 C149 126 177 88 245 88 C362 88 398 176 398 249 C398 320 357 353 302 353 C276 353 256 347 236 337 C224 331 195 307 169 307 C137 307 117 330 122 363 L172 650 C178 685 211 706 241 706 L482 706 C506 706 536 694 536 661 C536 621 499 606 468 606 L266 606 C256 549 246 491 235 433 C261 445 289 449 318 449 C433 449 508 379 508 263 L508 263 Z " />
<glyph glyph-name="six" unicode="6" horiz-adv-x="520" d="M206 409 C249 438 292 447 333 447 C438 447 519 384 519 259 C519 119 429 -9 259 -9 C121 -9 74 93 74 237 C74 510 167 714 372 714 C409 714 531 707 531 649 C531 624 507 598 475 598 C447 598 418 616 371 618 C262 618 226 526 206 409 L206 409 Z M188 302 L186 284 C174 184 179 93 278 93 C375 93 409 175 409 247 C409 315 372 347 312 347 C265 347 217 328 188 302 L188 302 Z " />
<glyph glyph-name="seven" unicode="7" horiz-adv-x="520" d="M567 658 C567 651 564 637 558 626 L224 24 C215 7 197 -9 170 -9 C141 -9 118 9 121 38 C122 44 124 54 128 61 L431 602 L182 602 C154 602 133 625 137 654 C141 683 167 706 197 706 L517 706 C545 706 567 685 567 658 L567 658 Z " />
<glyph glyph-name="eight" unicode="8" horiz-adv-x="520" d="M527 225 C527 93 410 -10 259 -10 C122 -10 34 77 51 197 C63 280 118 335 186 372 C140 407 112 457 122 526 C138 642 244 713 359 713 C477 713 560 638 545 529 C536 466 498 416 437 379 C489 346 527 296 527 225 L527 225 Z M438 536 C438 584 399 618 347 618 C288 618 238 580 230 526 C222 469 266 432 321 421 C384 435 438 477 438 536 L438 536 Z M417 213 C417 275 363 312 303 324 C231 310 170 266 160 201 C151 136 200 88 273 88 C353 88 417 145 417 213 L417 213 Z " />
<glyph glyph-name="nine" unicode="9" horiz-adv-x="520" d="M413 296 C371 267 327 257 286 257 C182 257 100 319 100 445 C100 584 186 714 357 714 C496 714 545 612 545 464 C545 188 453 -9 247 -9 C209 -9 88 -2 88 55 C88 80 111 106 144 106 C170 106 201 87 248 87 C356 87 393 178 413 296 L413 296 Z M430 403 L433 421 C450 525 433 612 339 612 C245 612 210 529 210 457 C210 390 247 358 307 358 C354 358 402 376 430 403 L430 403 Z " />
<glyph glyph-name="colon" unicode="&#x3a;" horiz-adv-x="250" d="M244 364 C244 325 206 290 166 290 C127 290 101 321 106 357 C111 392 145 422 184 422 C218 422 244 395 244 364 L244 364 Z M202 64 C202 25 164 -10 124 -10 C85 -10 59 21 64 57 C69 92 103 122 142 122 C176 122 202 95 202 64 L202 64 Z " />
<glyph glyph-name="semicolon" unicode="&#x3b;" horiz-adv-x="250" d="M64 -99 C69 -66 95 -51 111 -8 C79 -3 59 24 64 57 C68 92 103 122 142 122 C178 122 206 94 200 55 C191 -9 127 -130 89 -130 C76 -130 57 -125 64 -99 L64 -99 Z M244 364 C244 325 206 290 166 290 C127 290 101 321 106 357 C111 392 145 422 184 422 C218 422 244 395 244 364 L244 364 Z " />
<glyph glyph-name="less" unicode="&#x3c;" horiz-adv-x="645" d="M264 352 L573 191 C591 182 603 164 603 148 C603 119 576 92 545 92 C534 92 509 103 489 113 L151 294 C130 307 112 316 112 344 C112 384 135 394 166 410 L556 591 C573 599 604 613 615 612 C643 612 661 592 661 566 C661 543 641 523 618 512 L264 352 L264 352 Z " />
<glyph glyph-name="equal" unicode="&#x3d;" horiz-adv-x="520" d="M146 406 L454 406 C481 406 508 384 508 355 C508 354.483 507.992 353.969 507.977 353.457 C507.992 352.973 508 352.487 508 352 C508 323 484 301 454 301 L146 301 C115 301 92 323 92 352 C92 352.487 92.0075 352.972 92.022 353.455 C92.0075 353.968 92 354.483 92 355 C92 384 118 406 146 406 L146 406 Z " />
<glyph glyph-name="greater" unicode="&#x3e;" horiz-adv-x="645" d="M126 191 L480 352 L171 512 C153 521 142 538 142 556 C142 585 169 613 200 613 C210 613 234 603 250 594 L594 410 C616 398 633 387 633 360 C633 320 608 310 578 294 L183 111 C162 100 134 92 125 92 C100 92 83 113 83 138 C83 160 102 180 126 191 L126 191 Z " />
<glyph glyph-name="question" unicode="&#x3f;" horiz-adv-x="482" d="M335 256 C328 248 324 232 323 221 C314 194 291 169 261 169 C227 169 209 196 215 234 C227 289 277 335 317 373 L342 397 C375 429 411 468 417 519 C425 578 395 627 320 627 C290 627 259 622 231 610 C206 599 189 582 166 582 C142 582 120 600 120 626 C120 694 262 725 340 725 C459 725 528 652 528 551 C528 389 391 330 335 256 L335 256 Z M313 63 C313 24 275 -10 235 -10 C200 -10 175 16 175 49 C175 88 213 121 254 121 C288 121 313 95 313 63 L313 63 Z " />
<glyph glyph-name="at" unicode="&#x40;" horiz-adv-x="764" d="M529 14 C492 -1 426 -13 370 -13 C175 -13 76 120 103 314 C130 504 261 637 469 637 C683 637 775 496 751 323 C737 227 690 157 592 157 C546 157 518 172 501 198 C462 160 431 147 393 147 C302 147 255 218 269 317 C282 413 345 482 450 482 C561 482 577 405 575 320 C574 286 572 243 604 243 C634 243 648 274 654 317 C672 450 609 553 459 553 C311 553 218 454 198 313 C178 173 243 77 399 77 C457 77 487 92 523 104 C550 110 578 108 585 80 C592 45 559 25 529 14 L529 14 Z M409 232 C431 232 452 242 477 260 C474 293 475 293 477 320 C479 352 483 395 436 395 C395 395 373 363 366 312 C359 261 372 232 409 232 L409 232 Z " />
<glyph glyph-name="A" unicode="A" horiz-adv-x="569" d="M187 149 L133 29 C122 5 93 -9 75 -9 C47 -9 25 9 25 36 C25 44 28 56 30 61 L308 654 C324 688 345 714 384 714 C423 714 435 689 442 654 L554 61 C555 59 555 54 555 50 C555 14 525 -9 490 -9 C454 -9 446 16 438 52 L420 149 L187 149 L187 149 Z M361 549 C321 443 275 346 231 245 L404 245 C387 346 367 445 361 549 L361 549 Z " />
<glyph glyph-name="B" unicode="B" horiz-adv-x="562" d="M237 417 L352 417 C402 417 463 448 473 515 C479 561 461 603 390 603 L263 603 L237 417 L237 417 Z M340 314 L222 314 L193 102 L310 102 C393 102 439 143 448 205 C458 275 410 314 340 314 L340 314 Z M296 0 L131 0 C95 0 72 27 77 60 L159 645 C164 679 196 705 230 705 L399 705 C539 705 596 612 583 516 C572 438 516 395 445 365 C505 342 572 304 558 205 C542 90 440 0 296 0 L296 0 Z " />
<glyph glyph-name="C" unicode="C" horiz-adv-x="502" d="M75 250 L104 456 C126 612 215 714 380 714 C474 714 559 673 559 623 C559 595 532 570 501 570 C482 570 476 576 463 586 L459 589 C434 608 407 617 372 617 C270 617 228 555 214 456 L185 250 C171 151 195 89 297 89 C332 89 361 100 392 116 L398 119 C415 127 421 135 440 135 C466 135 485 116 485 93 C485 38 381 -8 279 -8 C114 -8 53 94 75 250 L75 250 Z " />
<glyph glyph-name="D" unicode="D" horiz-adv-x="574" d="M571 267 C551 128 460 0 244 0 L131 0 C97 0 72 27 77 60 L159 646 C163 678 196 706 230 706 L343 706 C558 706 615 583 596 447 L571 267 L571 267 Z M461 267 L486 447 C498 534 465 603 346 603 L263 603 L193 102 L276 102 C397 102 448 176 461 267 L461 267 Z " />
<glyph glyph-name="E" unicode="E" horiz-adv-x="494" d="M474 58 C474 26 444 0 411 0 L146 0 C105 0 70 14 76 59 L159 646 C163 675 193 705 229 705 L500 705 C530 705 552 681 548 652 C544 623 516 602 486 602 L263 602 L235 405 L439 405 C466 405 490 383 486 354 C482 325 454 302 424 302 L220 302 L192 102 L425 102 C452 102 474 82 474 58 L474 58 Z " />
<glyph glyph-name="F" unicode="F" horiz-adv-x="494" d="M220 302 L184 42 C180 15 151 -10 121 -10 C90 -10 70 15 74 42 L159 646 C163 675 193 705 229 705 L500 705 C530 705 552 681 548 653 C544 624 516 603 486 603 L263 603 L235 405 L439 405 C466 405 490 383 486 354 C482 325 454 302 424 302 L220 302 L220 302 Z " />
<glyph glyph-name="G" unicode="G" horiz-adv-x="540" d="M214 456 L185 250 C171 151 195 89 297 89 C338 89 370 100 399 118 L425 303 L350 303 C327 303 307 323 307 348 C307 379 336 404 365 404 L479 404 C516 404 546 385 540 346 L508 116 C496 29 375 -8 279 -8 C114 -8 53 94 75 250 L104 456 C126 612 215 714 380 714 C474 714 559 673 559 623 C559 595 532 570 501 570 C482 570 476 576 463 586 L459 589 C435 607 407 617 372 617 C270 617 228 555 214 456 L214 456 Z " />
<glyph glyph-name="H" unicode="H" horiz-adv-x="600" d="M537 43 C533 15 504 -10 474 -10 C445 -10 423 15 427 43 L463 301 L220 301 L184 43 C180 15 151 -10 121 -10 C90 -10 70 15 74 43 L161 662 C165 690 192 714 223 714 C253 714 275 690 271 662 L235 404 L478 404 L514 662 C518 690 547 714 576 714 C605 714 628 690 624 662 L537 43 L537 43 Z " />
<glyph glyph-name="I" unicode="I" horiz-adv-x="247" d="M74 42 L161 662 C165 690 192 714 223 714 C253 714 275 690 271 662 L184 42 C180 15 151 -10 121 -10 C90 -10 70 15 74 42 L74 42 Z " />
<glyph glyph-name="J" unicode="J" horiz-adv-x="405" d="M430 662 L369 230 C348 81 284 -10 118 -10 C85 -10 19 -6 26 47 C31 80 62 98 84 98 C101 98 116 92 144 92 C223 92 247 145 259 230 L320 662 C324 691 350 714 382 714 C411 714 434 690 430 662 L430 662 Z " />
<glyph glyph-name="K" unicode="K" horiz-adv-x="527" d="M419 14 L255 302 L215 261 L184 43 C180 15 152 -9 122 -9 C91 -9 70 15 74 43 L161 662 C165 690 192 714 223 714 C253 714 275 690 271 662 L237 422 L500 690 C512 702 531 714 550 714 C570 714 596 696 596 668 C596 658 594 645 577 628 L336 384 C396 280 457 176 518 72 C522 65 523 58 523 52 C523 25 501 -9 462 -9 C443 -9 428 -2 419 14 L419 14 Z " />
<glyph glyph-name="L" unicode="L" horiz-adv-x="475" d="M471 56 C471 25 442 0 410 0 L128 0 C96 0 71 25 76 57 L161 662 C165 690 193 714 224 714 C254 714 276 690 272 662 L193 101 L425 101 C450 101 471 82 471 56 L471 56 Z " />
<glyph glyph-name="M" unicode="M" horiz-adv-x="729" d="M756 660 L669 41 C665 14 637 -10 608 -10 C578 -10 555 14 559 41 L618 457 L439 173 C426 152 405 142 383 142 C361 142 343 152 336 173 L238 457 L180 41 C176 14 147 -10 116 -10 C86 -10 66 14 70 41 L157 660 C161 691 188 714 221 714 C247 714 265 703 273 682 L406 296 L646 683 C661 706 683 714 706 714 C738 714 760 690 756 660 L756 660 Z " />
<glyph glyph-name="N" unicode="N" horiz-adv-x="620" d="M490 -10 C469 -10 448 2 441 19 L246 488 L184 43 C180 15 150 -10 120 -10 C89 -10 70 15 74 43 L160 658 C165 690 192 714 226 714 C248 714 269 702 277 684 C310 607 436 295 471 215 L534 661 C538 690 567 714 597 714 C627 714 648 690 644 661 L557 46 C553 16 525 -10 490 -10 L490 -10 Z " />
<glyph glyph-name="O" unicode="O" horiz-adv-x="580" d="M289 -10 C126 -10 60 106 80 250 L109 456 C129 596 214 714 390 714 C566 714 619 596 599 456 L570 250 C550 106 452 -10 289 -10 L289 -10 Z M376 612 C277 612 232 549 219 456 L190 250 C177 157 210 93 303 93 C395 93 447 157 460 250 L489 456 C502 549 475 612 376 612 L376 612 Z " />
<glyph glyph-name="P" unicode="P" horiz-adv-x="550" d="M313 250 L213 250 L184 44 C180 16 151 -10 121 -10 C92 -10 70 15 74 44 L159 645 C163 677 196 705 230 705 L377 705 C554 705 602 595 585 476 C564 331 459 250 313 250 L313 250 Z M262 602 L227 352 L327 352 C412 352 463 392 475 477 C484 539 468 602 362 602 L262 602 L262 602 Z " />
<glyph glyph-name="Q" unicode="Q" horiz-adv-x="580" d="M373 -175 C283 -175 238 -108 240 -6 C112 15 62 121 80 250 L109 456 C129 596 214 714 390 714 C566 714 619 596 599 456 L570 250 C552 124 476 20 349 -3 C346 -58 364 -78 400 -78 L429 -78 C461 -78 481 -96 476 -127 C470 -174 427 -175 373 -175 L373 -175 Z M376 612 C277 612 232 549 219 456 L190 250 C177 157 210 93 303 93 C395 93 447 157 460 250 L489 456 C502 549 475 612 376 612 L376 612 Z " />
<glyph glyph-name="R" unicode="R" horiz-adv-x="595" d="M609 528 C609 410 538 334 432 308 C470 229 509 152 547 73 C550 69 552 57 552 51 C552 18 516 -8 487 -8 C467 -8 451 0 444 16 L310 298 L220 298 L184 44 C180 16 151 -9 121 -9 C92 -9 70 15 74 44 L159 645 C163 677 195 705 228 705 L402 705 C557 705 609 618 609 528 L609 528 Z M497 515 C497 559 473 602 383 602 L262 602 L234 399 L361 399 C448 399 497 441 497 515 L497 515 Z " />
<glyph glyph-name="S" unicode="S" horiz-adv-x="506" d="M384 212 C384 255 362 273 345 282 C259 327 106 333 106 485 C106 624 206 714 354 714 C406 714 530 702 530 640 C530 612 504 585 467 585 C432 585 412 612 346 612 C283 612 221 587 221 503 C221 460 245 443 261 434 C348 386 500 382 500 232 C500 80 381 -9 234 -9 C167 -9 46 12 46 70 C46 98 74 126 105 126 C135 126 169 93 249 93 C338 93 384 139 384 212 L384 212 Z " />
<glyph glyph-name="T" unicode="T" horiz-adv-x="503" d="M202 42 L281 602 L160 602 C128 602 108 626 112 653 C115 676 143 705 174 705 L526 705 C554 705 579 682 575 653 C571 626 542 602 512 602 L391 602 L312 42 C308 15 280 -10 250 -10 C219 -10 198 15 202 42 L202 42 Z " />
<glyph glyph-name="U" unicode="U" horiz-adv-x="592" d="M565 235 C545 93 442 -10 294 -10 C142 -10 73 94 93 235 L153 660 C157 691 184 714 216 714 C245 714 267 690 263 660 L203 235 C191 151 223 93 309 93 C394 93 442 152 454 235 L514 660 C518 689 544 714 575 714 C607 714 629 689 625 660 L565 235 L565 235 Z " />
<glyph glyph-name="V" unicode="V" horiz-adv-x="556" d="M217 676 C247 503 282 331 299 156 C314 194 329 237 346 274 L527 676 C537 699 566 714 586 714 C616 714 636 696 636 668 C636 660 633 648 631 644 L353 51 C336 15 315 -9 276 -9 C238 -9 225 16 218 51 L107 644 C106 646 106 652 106 655 C106 690 137 714 171 714 C190 714 213 699 217 676 L217 676 Z " />
<glyph glyph-name="W" unicode="W" horiz-adv-x="803" d="M509 51 L485 299 C478 367 476 436 472 505 C419 352 363 201 307 49 C295 22 274 -9 231 -9 C196 -9 174 20 171 50 C148 254 126 459 106 663 C110 693 145 711 173 711 C195 711 215 699 218 672 C227 578 237 484 247 391 C254 326 255 259 260 194 C285 262 306 335 333 404 L426 648 C442 690 457 714 501 714 C543 714 554 688 558 648 L581 404 C588 334 589 263 595 193 C618 259 640 325 665 391 L771 671 C782 696 803 711 826 711 C852 711 882 697 882 667 C882 660 881 656 878 650 L645 50 C631 19 608 -9 569 -9 C530 -9 512 20 509 51 L509 51 Z " />
<glyph glyph-name="X" unicode="X" horiz-adv-x="527" d="M302 277 C243 193 182 109 121 25 C110 10 92 -9 65 -9 C39 -9 19 13 19 38 C19 50 26 64 31 71 C105 170 177 268 251 366 L126 635 C123 641 122 650 122 657 C122 686 152 714 182 714 C207 714 223 695 232 674 L327 456 L484 674 C496 691 521 713 547 714 C571 714 591 694 591 668 C591 656 586 645 580 635 L380 366 L515 71 C518 66 520 57 520 48 C520 19 489 -9 460 -9 C433 -9 420 8 413 25 L302 277 L302 277 Z " />
<glyph glyph-name="Y" unicode="Y" horiz-adv-x="503" d="M250 -10 C219 -10 197 15 201 44 L234 276 L108 637 C107 643 105 653 106 661 C110 690 142 714 170 714 C187 714 204 707 210 691 L308 403 L486 691 C498 707 517 714 534 714 C563 714 586 690 582 661 C581 654 577 643 573 637 L346 275 L313 44 C309 16 282 -10 250 -10 L250 -10 Z " />
<glyph glyph-name="Z" unicode="Z" horiz-adv-x="504" d="M487 58 C487 26 457 0 424 0 L81 0 C48 0 28 25 32 56 C34 67 43 85 50 94 C110 175 355 518 416 600 L165 600 C134 600 114 623 118 652 C122 680 149 705 180 705 L519 705 C552 705 573 680 569 650 C567 635 559 623 552 613 L182 104 L439 104 C466 104 487 85 487 58 L487 58 Z " />
<glyph glyph-name="bracketleft" unicode="&#x5b;" horiz-adv-x="314" d="M284 -59 C284 -103 245 -117 211 -117 L109 -117 C81 -117 59 -93 63 -66 L177 747 C182 784 215 797 251 797 L353 797 C378 797 402 774 398 748 C393 709 357 697 326 697 L279 697 L179 -17 L226 -17 C257 -17 284 -28 284 -59 L284 -59 Z " />
<glyph glyph-name="backslash" unicode="&#x5c;" horiz-adv-x="320" d="M234 -10 C181 223 128 456 76 689 C75 692 74 697 74 700 C74 730 101 758 133 758 C155 758 174 746 178 724 L185 691 L338 14 C339 13 338 11 338 9 C338 -18 309 -44 279 -44 C257 -44 239 -31 234 -10 L234 -10 Z " />
<glyph glyph-name="bracketright" unicode="&#x5d;" horiz-adv-x="314" d="M232 -66 C228 -94 200 -117 171 -117 L69 -117 C37 -117 4 -105 9 -66 C15 -27 49 -17 82 -17 L129 -17 L230 697 L183 697 C152 697 118 708 124 748 C129 785 166 797 198 797 L300 797 C326 797 350 772 346 747 L232 -66 L232 -66 Z " />
<glyph glyph-name="asciicircum" unicode="&#x5e;" horiz-adv-x="346" d="M259 616 L150 505 C142 495 125 487 111 487 C84 487 68 503 72 528 C74 542 85 558 100 572 L229 702 C240 714 255 722 274 722 C292 722 305 714 313 702 C328 682 390 592 405 572 C416 558 422 542 422 528 C418 503 398 487 371 487 C356 487 341 495 335 505 C321 525 273 597 259 616 L259 616 Z " />
<glyph glyph-name="underscore" unicode="&#x5f;" horiz-adv-x="620" d="M15 -127 L605 -127 C632 -127 659 -150 659 -179 C659 -208 635 -230 605 -230 L15 -230 C-16 -230 -39 -208 -39 -179 C-39 -150 -13 -127 15 -127 L15 -127 Z " />
<glyph glyph-name="grave" unicode="&#x60;" horiz-adv-x="217" d="M221 707 C245 679 293 633 293 609 C293 584 269 565 245 565 C228 565 219 572 209 585 L145 663 C139 671 136 679 136 687 C136 713 161 732 182 732 C199 732 205 727 213 717 L221 707 L221 707 Z " />
<glyph glyph-name="a" unicode="a" horiz-adv-x="502" d="M216 -8 C103 -8 55 70 71 185 L88 305 C105 424 169 513 312 513 C442 513 487 439 469 309 L440 106 C436 77 449 75 461 74 C480 72 486 61 486 46 C486 12 463 -4 422 -4 C389 -4 363 7 347 41 C305 9 269 -8 216 -8 L216 -8 Z M250 85 C279 85 299 93 334 118 L364 333 C372 390 357 418 298 418 C234 418 207 384 196 305 L179 185 C170 118 191 85 250 85 L250 85 Z " />
<glyph glyph-name="b" unicode="b" horiz-adv-x="510" d="M232 388 L199 155 C192 110 223 82 279 82 C340 82 373 115 381 169 L407 355 C413 400 392 427 334 427 C293 427 259 413 232 388 L232 388 Z M91 155 L164 674 C167 700 190 723 225 723 C259 723 276 700 272 674 L245 479 C281 501 319 513 370 513 C490 513 527 443 514 352 L489 174 C475 72 398 -8 266 -8 C140 -8 78 64 91 155 L91 155 Z " />
<glyph glyph-name="c" unicode="c" horiz-adv-x="418" d="M71 180 L91 323 C106 428 176 510 310 510 C363 510 463 496 455 436 C452 415 435 394 401 394 C393 394 386 395 376 398 C356 408 338 418 305 418 C238 418 207 383 199 323 L179 180 C170 120 191 84 258 84 C291 84 312 94 335 104 C343 107 350 109 360 109 C395 109 406 87 403 66 C394 7 290 -8 236 -8 C103 -8 56 75 71 180 L71 180 Z " />
<glyph glyph-name="d" unicode="d" horiz-adv-x="513" d="M295 509 C327 509 358 504 392 490 L418 674 C422 701 444 723 479 723 C513 723 530 701 526 674 L448 121 C445 100 451 89 464 74 C469 68 471 61 471 53 C471 18 440 -1 414 -1 C390 -1 373 13 362 34 C312 9 265 -8 215 -8 C104 -8 55 70 71 185 L88 305 C105 424 160 509 295 509 L295 509 Z M342 131 L380 401 C349 413 315 418 295 418 C234 418 207 382 196 305 L179 185 C170 120 191 85 246 85 C272 85 305 94 341 110 C340 118 341 125 342 131 L342 131 Z " />
<glyph glyph-name="e" unicode="e" horiz-adv-x="460" d="M269 197 C241 197 213 199 181 204 L175 158 C169 113 196 84 259 84 C296 84 324 94 359 109 C362 111 370 114 382 114 C416 114 427 89 424 69 C416 9 296 -8 237 -8 C114 -8 54 66 68 163 L92 340 C106 438 186 513 315 513 C436 513 487 447 472 347 C459 253 396 197 269 197 L269 197 Z M366 350 C373 403 349 424 300 424 C244 424 208 394 201 346 L193 287 C226 283 265 281 280 281 C337 281 360 308 366 350 L366 350 Z " />
<glyph glyph-name="f" unicode="f" horiz-adv-x="349" d="M46 -165 L144 532 C162 661 254 720 360 723 C381 724 467 723 459 667 C455 637 427 619 399 619 C381 619 363 625 340 625 C289 625 260 586 253 539 L245 484 L334 484 C362 484 382 463 378 435 C374 408 348 387 320 387 L231 387 L154 -165 C150 -192 127 -214 93 -214 C58 -214 42 -192 46 -165 L46 -165 Z " />
<glyph glyph-name="g" unicode="g" horiz-adv-x="529" d="M364 120 L396 347 C402 392 370 418 315 418 C253 418 221 384 213 328 L192 179 C184 120 202 84 262 84 C297 84 333 95 364 120 L364 120 Z M504 347 L449 -37 C435 -142 364 -224 229 -224 C177 -224 78 -208 85 -153 C89 -128 113 -108 141 -108 C147 -108 153 -109 163 -112 C183 -123 202 -132 234 -132 C301 -132 333 -97 342 -37 L350 20 C314 3 277 -7 233 -7 C100 -7 69 73 84 179 L105 328 C120 433 197 513 329 513 C454 513 517 440 504 347 L504 347 Z " />
<glyph glyph-name="h" unicode="h" horiz-adv-x="527" d="M505 343 L472 108 C469 87 469 78 480 64 C485 58 490 52 490 42 C490 12 464 -8 427 -8 C395 -8 350 5 363 102 L398 347 C405 395 384 422 336 422 C301 422 259 408 229 377 L182 43 C178 14 152 -7 122 -7 C91 -7 71 14 75 43 L164 678 C168 704 193 729 224 729 C254 729 275 707 271 678 L243 479 C277 500 317 513 358 513 C475 513 519 443 505 343 L505 343 Z " />
<glyph glyph-name="i" unicode="i" horiz-adv-x="265" d="M287 656 C282 623 251 597 216 597 C183 597 161 621 161 650 C161 685 194 715 233 715 C268 715 292 688 287 656 L287 656 Z M93 102 L143 460 C147 487 173 510 204 510 C234 510 255 487 251 460 L201 108 C199 87 198 78 209 64 C214 58 219 52 219 42 C219 12 193 -8 156 -8 C124 -8 79 5 93 102 L93 102 Z " />
<glyph glyph-name="j" unicode="j" horiz-adv-x="265" d="M251 460 L185 -11 C169 -122 92 -202 -17 -202 C-44 -202 -60 -184 -60 -160 C-60 -129 -30 -114 -10 -110 C36 -101 67 -75 76 -14 L143 460 C147 487 173 510 204 510 C234 510 255 487 251 460 L251 460 Z M288 662 C288 626 254 597 216 597 C183 597 161 621 161 650 C161 685 194 715 233 715 C265 715 288 691 288 662 L288 662 Z " />
<glyph glyph-name="k" unicode="k" horiz-adv-x="463" d="M272 673 L223 328 L389 481 C404 495 422 509 444 509 C470 509 489 491 489 467 C489 452 482 439 470 428 L315 288 C358 214 400 140 442 66 C447 58 449 45 447 36 C442 9 417 -7 389 -7 C358 -7 354 4 337 35 L232 225 C223 218 214 209 205 202 L186 65 C181 28 164 -7 122 -7 C91 -7 71 14 75 43 L160 648 C165 687 180 723 225 723 C255 723 276 701 272 673 L272 673 Z " />
<glyph glyph-name="l" unicode="l" horiz-adv-x="248" d="M147 -8 C115 -8 70 5 84 102 L164 673 C168 700 194 723 225 723 C255 723 276 701 272 673 L192 108 C190 87 189 78 200 64 C205 58 210 52 210 42 C210 12 184 -8 147 -8 L147 -8 Z " />
<glyph glyph-name="m" unicode="m" horiz-adv-x="798" d="M634 102 L667 337 C674 382 653 418 604 418 C570 418 532 400 502 374 C503 363 504 351 502 339 L460 43 C456 15 435 -7 399 -7 C363 -7 348 15 352 43 L390 317 C399 376 395 418 337 418 C303 418 264 403 232 385 C232 378 232 370 231 364 L186 43 C182 15 161 -7 125 -7 C89 -7 74 15 78 43 L123 364 C129 408 123 410 118 420 C112 432 109 439 110 449 C114 477 140 496 168 496 C188 496 201 485 210 469 C259 497 309 513 357 513 C405 513 440 497 466 466 C519 496 566 513 621 513 C734 513 791 443 776 339 L743 108 C740 87 740 78 751 64 C756 58 761 52 761 42 C761 12 735 -8 698 -8 C666 -8 620 5 634 102 L634 102 Z " />
<glyph glyph-name="n" unicode="n" horiz-adv-x="529" d="M503 319 L473 108 C470 87 470 78 481 64 C486 58 491 52 491 42 C491 12 465 -8 428 -8 C396 -8 351 5 364 102 L395 319 C404 382 380 419 330 419 C300 419 267 408 231 388 C232 379 232 371 231 364 L186 43 C182 15 161 -7 125 -7 C89 -7 74 15 78 43 L123 364 C129 408 123 410 118 420 C113 430 110 436 110 445 C110 473 136 496 169 496 C188 496 202 485 212 467 C261 498 312 511 356 511 C472 511 519 434 503 319 L503 319 Z " />
<glyph glyph-name="o" unicode="o" horiz-adv-x="494" d="M246 -8 C114 -8 55 72 69 174 L91 332 C106 435 187 514 319 514 C451 514 511 435 496 332 L473 174 C459 72 378 -8 246 -8 L246 -8 Z M259 87 C321 87 357 120 365 174 L388 333 C395 386 368 419 306 419 C244 419 207 386 200 333 L177 174 C170 120 197 87 259 87 L259 87 Z " />
<glyph glyph-name="p" unicode="p" horiz-adv-x="503" d="M278 -7 C247 -7 216 -2 182 13 L157 -164 C153 -192 130 -214 96 -214 C61 -214 45 -191 49 -164 L123 363 C127 391 125 406 117 421 C112 429 109 436 111 447 C115 476 143 495 167 495 C186 495 200 485 210 469 C259 495 307 513 359 513 C469 513 519 435 503 321 L486 198 C469 79 413 -7 278 -7 L278 -7 Z M231 363 L194 101 C223 89 257 84 279 84 C340 84 367 120 378 198 L395 321 C404 386 382 420 328 420 C300 420 266 410 231 393 C232 382 232 372 231 363 L231 363 Z " />
<glyph glyph-name="q" unicode="q" horiz-adv-x="510" d="M350 120 L382 347 C388 392 356 418 301 418 C239 418 207 384 199 328 L178 179 C170 120 188 84 249 84 C283 84 319 95 350 120 L350 120 Z M490 347 L419 -154 C415 -182 394 -204 358 -204 C322 -204 307 -182 311 -154 L336 25 C300 4 264 -7 217 -7 C87 -7 55 73 70 179 L91 328 C106 433 183 513 315 513 C440 513 503 440 490 347 L490 347 Z " />
<glyph glyph-name="r" unicode="r" horiz-adv-x="357" d="M347 409 C305 410 278 411 232 386 C232 377 232 370 231 363 L186 43 C182 14 155 -8 125 -8 C94 -8 74 14 78 43 L123 363 C127 391 125 406 117 421 C112 429 109 436 111 448 C115 476 142 495 170 495 C188 495 202 483 212 466 C260 493 314 509 349 509 C400 509 413 488 409 460 C404 428 376 407 347 409 L347 409 Z " />
<glyph glyph-name="s" unicode="s" horiz-adv-x="426" d="M97 343 C97 442 167 513 297 513 C353 513 431 499 431 446 C431 416 410 399 381 399 C349 399 337 421 284 421 C257 421 206 415 206 367 C206 282 409 315 409 165 C409 61 336 -7 204 -7 C149 -7 50 5 50 55 C50 71 67 119 113 107 C130 103 171 84 213 84 C261 84 301 109 301 148 C301 230 97 194 97 343 L97 343 Z " />
<glyph glyph-name="t" unicode="t" horiz-adv-x="341" d="M98 205 L155 608 C159 636 181 658 216 658 C250 658 267 635 263 608 L246 484 L334 484 C362 484 383 463 379 435 C375 408 349 387 321 387 L232 387 L207 212 C195 124 198 92 258 92 C265 92 273 93 277 93 C320 93 342 82 337 48 C331 2 292 -4 253 -4 C106 -4 79 68 98 205 L98 205 Z " />
<glyph glyph-name="u" unicode="u" horiz-adv-x="529" d="M386 32 C337 3 286 -8 240 -8 C127 -8 79 70 95 185 L134 461 C138 489 160 510 195 510 C229 510 246 489 242 461 L203 185 C194 121 215 85 267 85 C297 85 331 95 365 112 C365 121 365 129 366 136 L412 461 C416 489 437 510 473 510 C509 510 524 489 520 461 L473 126 C468 91 475 87 483 73 C488 66 492 58 491 46 C487 17 459 -2 433 -2 C411 -2 396 12 386 32 L386 32 Z " />
<glyph glyph-name="v" unicode="v" horiz-adv-x="450" d="M493 456 L477 417 C416 294 358 170 298 46 C280 8 259 -7 226 -7 C190 -7 174 8 167 45 C142 169 116 294 91 419 L85 458 L85 463 C85 489 117 511 146 511 C166 511 187 498 191 476 C201 417 212 357 222 298 C232 239 236 180 244 121 C267 180 288 239 314 298 C340 357 367 416 394 476 C403 496 428 510 449 510 C477 510 495 490 494 462 C494 460 493 458 493 456 L493 456 Z " />
<glyph glyph-name="w" unicode="w" horiz-adv-x="675" d="M717 452 L544 44 C529 10 511 -7 473 -7 C446 -7 420 7 417 34 L387 351 C348 244 310 139 267 34 C255 4 234 -7 201 -7 C165 -7 148 12 143 45 L84 452 L84 457 C84 484 112 510 145 510 C167 510 187 497 190 474 L213 286 C219 235 218 183 221 131 C243 191 260 251 283 310 L344 467 C354 492 378 510 410 510 C441 510 458 492 461 467 L478 310 C484 251 486 191 491 131 C508 183 523 235 543 286 L617 474 C625 494 651 510 673 510 C699 510 720 491 720 466 C720 459 718 454 717 452 L717 452 Z " />
<glyph glyph-name="x" unicode="x" horiz-adv-x="451" d="M326 257 L433 68 C437 62 438 55 438 49 C438 19 411 -8 375 -8 C350 -8 341 2 329 24 L250 171 L122 17 C108 0 92 -8 74 -8 C46 -8 26 10 26 37 C26 47 29 57 37 66 L198 256 L99 435 C95 442 93 450 93 457 C93 483 121 510 154 510 C184 510 195 489 205 472 L276 343 L387 480 C402 498 416 510 441 510 C464 510 488 491 488 466 C488 458 485 446 476 436 L326 257 L326 257 Z " />
<glyph glyph-name="y" unicode="y" horiz-adv-x="529" d="M530 461 L459 -37 C444 -142 374 -224 239 -224 C189 -224 95 -209 95 -158 C95 -131 121 -108 151 -108 C157 -108 164 -108 173 -112 C195 -121 212 -132 244 -132 C311 -132 344 -97 352 -37 L360 20 C324 3 287 -7 243 -7 C110 -7 79 73 94 179 L133 461 C137 489 159 510 194 510 C228 510 245 489 241 461 L202 179 C194 120 212 84 272 84 C307 84 343 95 374 120 L422 461 C425 489 446 510 482 510 C518 510 534 489 530 461 L530 461 Z " />
<glyph glyph-name="z" unicode="z" horiz-adv-x="409" d="M458 460 C458 448 454 433 442 419 L164 95 L357 95 C387 95 406 74 402 47 C399 21 374 0 344 0 L67 0 C38 0 15 23 19 53 C21 63 25 73 34 84 L312 410 L130 410 C102 410 82 431 86 457 C90 485 116 505 144 505 L409 505 C436 505 458 488 458 460 L458 460 Z " />
<glyph glyph-name="braceleft" unicode="&#x7b;" horiz-adv-x="427" d="M103 193 C79 193 55 203 60 242 C66 281 94 289 116 290 C155 292 179 307 191 364 C201 415 207 453 227 545 C244 627 320 676 418 676 C452 676 491 670 484 620 C477 572 441 575 419 578 C411 579 399 580 393 580 C366 580 337 563 331 532 C329 525 304 386 299 368 C287 312 256 269 197 242 C246 216 269 173 264 115 L250 -49 C246 -79 272 -97 297 -97 C302 -97 319 -95 324 -95 C346 -93 384 -89 377 -137 C370 -186 330 -193 296 -193 C200 -193 136 -142 142 -62 L156 120 C160 178 136 193 103 193 L103 193 Z " />
<glyph glyph-name="bar" unicode="&#x7c;" horiz-adv-x="247" d="M47 -182 L172 708 C175 734 201 757 230 757 C258 757 278 734 274 708 L149 -182 C145 -208 119 -231 91 -231 C62 -231 43 -208 47 -182 L47 -182 Z " />
<glyph glyph-name="braceright" unicode="&#x7d;" horiz-adv-x="427" d="M381 193 C344 192 318 176 307 120 L270 -62 C254 -141 176 -193 79 -193 C45 -193 7 -186 14 -136 C20 -92 50 -93 79 -94 C83 -95 97 -96 105 -96 C136 -96 161 -77 166 -49 L198 115 C209 173 243 216 299 242 C251 267 229 313 234 368 C238 435 248 526 248 532 C250 563 227 580 200 580 C194 580 182 579 173 578 C150 575 114 572 120 620 C127 670 167 676 201 676 C299 676 362 627 356 545 C349 438 344 406 341 364 C337 307 357 292 395 290 C417 289 443 281 437 242 C432 202 403 194 381 193 L381 193 Z " />
<glyph glyph-name="asciitilde" unicode="&#x7e;" horiz-adv-x="475" d="M464 354 C464 305 396 269 348 268 C291 268 264 307 228 311 C189 314 179 273 145 273 C124 273 104 289 106 314 C113 364 167 401 220 401 C279 401 303 360 341 358 C382 358 388 395 422 397 C445 397 464 379 464 354 L464 354 Z " />
<glyph glyph-name="exclamdown" unicode="&#xa1;" horiz-adv-x="247" d="M45 -163 L118 284 C121 308 143 328 169 328 C192 328 210 308 207 284 L155 -163 C151 -190 122 -215 92 -215 C61 -215 41 -190 45 -163 L45 -163 Z M255 442 C250 407 215 377 178 377 C139 377 113 407 118 442 C123 478 157 509 196 509 C233 509 260 478 255 442 L255 442 Z " />
<glyph glyph-name="cent" unicode="&#xa2;" horiz-adv-x="471" d="M226 -28 L233 23 C115 31 73 110 87 210 L100 303 C114 402 178 481 298 489 L304 533 C306 547 319 559 334 559 C349 559 358 547 356 533 L350 489 C400 483 458 466 458 419 C458 396 439 374 405 374 C398 374 391 375 382 378 L372 383 C361 388 351 392 337 395 L298 116 C324 120 347 139 371 139 C400 139 414 121 414 103 C414 49 340 28 285 24 L278 -28 C276 -42 263 -54 248 -54 C234 -54 224 -42 226 -28 L226 -28 Z M195 210 C188 159 202 126 246 117 L285 395 C239 386 215 353 208 303 L195 210 L195 210 Z " />
<glyph glyph-name="yen" unicode="&#xa5;" horiz-adv-x="508" d="M141 369 L204 369 C174 453 145 538 115 623 C113 629 110 636 109 644 L108 656 C113 687 139 713 171 713 C200 713 208 699 218 676 L311 403 L479 676 C494 696 511 713 536 713 C565 713 584 691 584 666 C584 658 582 651 579 644 L407 369 L469 369 C487 369 503 355 503 336 C503 313 482 295 458 295 L360 295 L349 275 L344 239 L451 239 C469 239 485 225 485 206 C485 183 464 165 440 165 L333 165 L316 44 C314 28 299 14 282 12 C278 0 266 -10 252 -10 C238 -10 227 0 227 12 C211 15 202 29 204 44 L221 165 L112 165 C92 165 78 179 78 198 C78 221 101 239 123 239 L232 239 L237 276 L229 295 L130 295 C110 295 96 309 96 328 C96 351 119 369 141 369 L141 369 Z " />
<glyph glyph-name="dieresis" unicode="&#xa8;" horiz-adv-x="423" d="M452 640 C452 606 421 578 387 578 C356 578 334 604 338 634 C342 663 372 688 403 688 C431 688 452 667 452 640 L452 640 Z M278 640 C278 606 247 578 212 578 C181 578 161 604 165 634 C169 663 197 688 228 688 C257 688 278 667 278 640 L278 640 Z " />
<glyph glyph-name="copyright" unicode="&#xa9;" horiz-adv-x="740" d="M720 313 C693 124 566 -9 368 -9 C170 -9 81 124 108 313 C134 502 261 635 459 635 C657 635 746 502 720 313 L720 313 Z M660 313 C681 467 609 575 450 575 C291 575 189 467 168 313 C146 159 218 51 377 51 C536 51 638 159 660 313 L660 313 Z M270 283 L279 344 C290 426 344 491 448 491 C487 491 562 479 556 437 C554 420 537 405 519 405 C515 405 512 406 507 407 C489 418 473 426 445 426 C389 426 363 396 356 344 L347 283 C340 230 358 201 414 201 C442 201 460 210 480 219 C486 221 490 222 494 222 C512 222 524 206 521 189 C515 148 437 136 398 136 C294 136 259 200 270 283 L270 283 Z " />
<glyph glyph-name="guillemotleft" unicode="&#xab;" horiz-adv-x="431" d="M168 258 L279 50 C282 44 282 38 282 33 C279 11 260 -8 236 -8 C218 -8 211 0 201 19 L77 256 L261 485 C273 501 284 511 302 511 C320 511 338 495 335 474 C334 468 332 461 327 455 L168 258 L168 258 Z M328 256 L401 114 C404 108 404 101 403 95 C400 74 378 58 360 58 C342 58 335 68 327 84 L237 256 L375 428 C387 444 398 454 416 454 C434 454 452 438 449 417 C448 411 446 404 441 398 L328 256 L328 256 Z " />
<glyph glyph-name="registered" unicode="&#xae;" horiz-adv-x="700" d="M699 472 C699 277 578 131 368 131 C203 131 119 232 119 377 C119 573 241 725 451 725 C616 725 699 621 699 472 L699 472 Z M639 463 C639 582 573 665 443 665 C276 665 180 543 180 386 C180 271 246 191 376 191 C542 191 639 307 639 463 L639 463 Z M535 499 C535 450 510 417 469 400 L518 306 C517 303 520 298 520 293 C520 281 504 271 487 271 C470 271 458 276 452 283 L398 389 L366 389 L354 301 C352 285 332 271 314 271 C297 271 281 283 284 301 L318 546 C321 564 342 585 362 585 L434 585 C509 585 535 543 535 499 L535 499 Z M464 492 C464 506 457 521 428 521 L385 521 L375 452 L421 452 C449 452 464 467 464 492 L464 492 Z " />
<glyph glyph-name="macron" unicode="&#xaf;" horiz-adv-x="423" d="M477 638 C477 611 451 590 424 590 L165 590 C138 590 121 609 124 633 C128 657 151 677 178 677 L437 677 C460 677 477 659 477 638 L477 638 Z " />
<glyph glyph-name="degree" unicode="&#xb0;" horiz-adv-x="392" d="M257 436 C166 436 125 498 136 576 C147 654 205 716 297 716 C389 716 429 654 418 576 C407 498 349 436 257 436 L257 436 Z M267 502 C314 502 339 528 346 578 C353 623 334 650 287 650 C239 650 214 623 207 578 C200 527 219 502 267 502 L267 502 Z " />
<glyph glyph-name="plusminus" unicode="&#xb1;" horiz-adv-x="520" d="M246 188 L246 337 L122 337 C87 337 52 351 52 389 C52 424 89 440 122 440 L246 440 L246 572 C246 604 258 641 300 641 C339 641 354 607 354 572 L354 440 L478 440 C505 440 548 420 548 389 C548 351 513 337 478 337 L354 337 L354 205 C354 167 338 137 300 137 C269 137 246 162 246 188 L246 188 Z M106 102 L494 102 C521 102 548 80 548 51 C548 22 524 0 494 0 L106 0 C75 0 52 22 52 51 C52 80 78 102 106 102 L106 102 Z " />
<glyph glyph-name="twosuperior" unicode="&#xb2;" horiz-adv-x="260" d="M298 420 C298 404 284 392 268 392 L104 392 C88 392 79 401 79 415 C79 425 81 434 85 440 C110 482 147 514 186 546 C223 577 275 610 275 658 C275 684 260 705 229 705 C211 705 196 702 182 696 C169 691 159 682 147 682 C135 682 125 691 125 704 C125 737 197 754 235 754 C297 754 331 716 331 667 C331 622 309 590 279 562 C236 521 183 487 151 442 L275 442 C288 442 298 432 298 420 L298 420 Z " />
<glyph glyph-name="threesuperior" unicode="&#xb3;" horiz-adv-x="260" d="M317 698 C287 666 257 635 228 603 C276 598 308 567 308 518 C308 462 266 388 177 388 C156 388 83 393 83 427 C83 441 97 455 113 455 C131 455 144 436 177 436 C234 436 253 479 253 510 C253 543 230 557 197 557 C183 557 180 551 168 551 C156 551 148 561 148 572 C148 577 151 585 153 589 L249 692 L154 692 C139 692 130 702 130 715 C130 728 144 745 162 745 L301 745 C315 745 326 734 326 719 C326 711 323 704 317 698 L317 698 Z " />
<glyph glyph-name="acute" unicode="&#xb4;" horiz-adv-x="296" d="M267 707 L279 717 C291 727 297 732 314 732 C331 732 349 717 349 696 C349 684 343 674 331 663 L245 585 C231 572 221 565 204 565 C183 565 167 580 167 602 C167 629 234 677 267 707 L267 707 Z " />
<glyph glyph-name="periodcentered" unicode="&#xb7;" horiz-adv-x="275" d="M243 284 C243 244 205 211 164 211 C127 211 100 240 105 277 C110 312 145 342 182 342 C217 342 243 315 243 284 L243 284 Z " />
<glyph glyph-name="cedilla" unicode="&#xb8;" horiz-adv-x="320" d="M244 -110 C244 -164 202 -214 117 -214 C78 -214 25 -203 25 -169 C25 -148 40 -142 58 -142 C76 -142 92 -149 111 -149 C134 -149 171 -139 171 -114 C171 -78 79 -101 79 -58 C79 -52 79 -54 81 -46 L106 32 L169 32 L149 -36 C221 -40 244 -73 244 -110 L244 -110 Z " />
<glyph glyph-name="onesuperior" unicode="&#xb9;" horiz-adv-x="260" d="M191 413 L229 680 L173 648 C165 643 156 638 146 638 C135 638 123 646 125 661 C127 671 131 679 140 684 L248 744 C253 748 258 749 263 749 C280 749 292 737 290 721 L246 413 C244 400 230 387 215 387 C200 387 189 400 191 413 L191 413 Z " />
<glyph glyph-name="ordmasculine" unicode="&#xba;" horiz-adv-x="404" d="M249 332 C145 332 101 398 113 484 L124 561 C136 648 198 714 302 714 C406 714 450 648 438 561 L427 484 C415 398 353 332 249 332 L249 332 Z M290 626 C246 626 226 601 220 557 L210 482 C204 443 219 419 261 419 C302 419 325 443 330 482 L340 557 C347 601 334 626 290 626 L290 626 Z " />
<glyph glyph-name="guillemotright" unicode="&#xbb;" horiz-adv-x="431" d="M166 50 L335 258 L232 455 C228 461 228 468 229 474 C232 495 254 511 272 511 C290 511 298 501 306 485 L425 256 L234 19 C220 0 210 -8 192 -8 C168 -8 155 11 158 33 C159 38 161 44 166 50 L166 50 Z M62 114 L175 256 L102 398 C98 404 98 411 99 417 C102 438 124 454 142 454 C160 454 168 444 176 428 L265 256 L127 84 C115 68 105 58 87 58 C69 58 51 74 54 95 C55 101 57 108 62 114 L62 114 Z " />
<glyph glyph-name="questiondown" unicode="&#xbf;" horiz-adv-x="482" d="M219 243 C226 252 229 267 231 278 C235 304 264 330 293 330 C319 330 339 307 339 278 C339 224 280 167 236 126 L211 103 C173 68 136 21 136 -36 C136 -87 165 -127 233 -127 C263 -127 294 -122 322 -110 C347 -99 365 -82 387 -82 C411 -82 434 -100 434 -126 C434 -194 292 -225 214 -225 C95 -225 26 -152 26 -51 C26 109 166 174 219 243 L219 243 Z M239 436 C239 475 277 510 318 510 C353 510 378 483 378 450 C378 412 341 378 300 378 C265 378 239 405 239 436 L239 436 Z " />
<glyph glyph-name="Agrave" unicode="&#xc0;" horiz-adv-x="569" d="M187 149 L133 29 C122 5 93 -9 75 -9 C47 -9 25 9 25 36 C25 44 28 56 30 61 L308 654 C324 688 345 714 384 714 C423 714 435 689 442 654 L554 61 C555 59 555 54 555 50 C555 14 525 -9 490 -9 C454 -9 446 16 438 52 L420 149 L187 149 L187 149 Z M361 549 C321 443 275 346 231 245 L404 245 C387 346 367 445 361 549 L361 549 Z M373 907 C397 879 445 833 445 809 C445 784 421 765 397 765 C380 765 371 772 361 785 L297 863 C291 871 288 879 288 887 C288 913 313 932 334 932 C351 932 357 927 365 917 L373 907 L373 907 Z " />
<glyph glyph-name="Aacute" unicode="&#xc1;" horiz-adv-x="569" d="M187 149 L133 29 C122 5 93 -9 75 -9 C47 -9 25 9 25 36 C25 44 28 56 30 61 L308 654 C324 688 345 714 384 714 C423 714 435 689 442 654 L554 61 C555 59 555 54 555 50 C555 14 525 -9 490 -9 C454 -9 446 16 438 52 L420 149 L187 149 L187 149 Z M361 549 C321 443 275 346 231 245 L404 245 C387 346 367 445 361 549 L361 549 Z M455 907 L467 917 C479 927 485 932 502 932 C519 932 537 917 537 896 C537 884 531 874 519 863 L433 785 C419 772 409 765 392 765 C371 765 355 780 355 802 C355 829 422 877 455 907 L455 907 Z " />
<glyph glyph-name="Acircumflex" unicode="&#xc2;" horiz-adv-x="569" d="M187 149 L133 29 C122 5 93 -9 75 -9 C47 -9 25 9 25 36 C25 44 28 56 30 61 L308 654 C324 688 345 714 384 714 C423 714 435 689 442 654 L554 61 C555 59 555 54 555 50 C555 14 525 -9 490 -9 C454 -9 446 16 438 52 L420 149 L187 149 L187 149 Z M361 549 C321 443 275 346 231 245 L404 245 C387 346 367 445 361 549 L361 549 Z M400 825 C371 804 329 760 303 760 C285 760 265 773 265 792 C265 810 287 830 304 842 L381 897 C390 903 399 908 412 908 C425 908 434 903 441 897 L502 842 C514 832 528 814 528 799 C528 775 501 760 479 760 C453 760 423 804 400 825 L400 825 Z " />
<glyph glyph-name="Atilde" unicode="&#xc3;" horiz-adv-x="569" d="M187 149 L133 29 C122 5 93 -9 75 -9 C47 -9 25 9 25 36 C25 44 28 56 30 61 L308 654 C324 688 345 714 384 714 C423 714 435 689 442 654 L554 61 C555 59 555 54 555 50 C555 14 525 -9 490 -9 C454 -9 446 16 438 52 L420 149 L187 149 L187 149 Z M361 549 C321 443 275 346 231 245 L404 245 C387 346 367 445 361 549 L361 549 Z M551 851 C551 810 494 780 455 779 C407 779 383 812 354 815 C321 817 313 784 286 784 C269 784 252 796 252 814 C252 856 300 890 347 890 C396 890 417 856 448 854 C482 854 488 885 516 886 C535 886 551 871 551 851 L551 851 Z " />
<glyph glyph-name="Adieresis" unicode="&#xc4;" horiz-adv-x="569" d="M187 149 L133 29 C122 5 93 -9 75 -9 C47 -9 25 9 25 36 C25 44 28 56 30 61 L308 654 C324 688 345 714 384 714 C423 714 435 689 442 654 L554 61 C555 59 555 54 555 50 C555 14 525 -9 490 -9 C454 -9 446 16 438 52 L420 149 L187 149 L187 149 Z M361 549 C321 443 275 346 231 245 L404 245 C387 346 367 445 361 549 L361 549 Z M545 840 C545 806 514 778 480 778 C449 778 427 804 431 834 C435 863 465 888 496 888 C524 888 545 867 545 840 L545 840 Z M371 840 C371 806 340 778 305 778 C274 778 254 804 258 834 C262 863 290 888 321 888 C350 888 371 867 371 840 L371 840 Z " />
<glyph glyph-name="Aring" unicode="&#xc5;" horiz-adv-x="569" d="M496 737 C496 697 476 663 445 641 C481 447 518 254 554 61 C555 59 555 54 555 50 C555 14 525 -9 490 -9 C454 -9 446 16 438 52 L420 149 L187 149 L133 29 C122 5 93 -9 75 -9 C47 -9 25 9 25 36 C25 56 34 68 42 85 L303 641 C285 658 274 683 274 711 C274 777 335 834 402 834 C457 834 496 790 496 737 L496 737 Z M361 549 C321 443 275 346 231 245 L404 245 C387 346 367 445 361 549 L361 549 Z M439 730 C439 756 420 777 394 777 C362 777 334 750 334 718 C334 692 353 672 379 672 C409 672 439 698 439 730 L439 730 Z " />
<glyph glyph-name="AE" unicode="&#xc6;" horiz-adv-x="747" d="M434 0 C393 0 359 14 365 59 L378 149 L188 149 L134 29 C123 6 95 -10 76 -10 C43 -10 22 11 26 42 C27 47 29 57 31 61 L306 644 C321 676 347 705 382 705 L754 705 C784 705 805 681 801 652 C797 624 769 602 739 602 L551 602 L523 405 L692 405 C719 405 743 383 739 354 C735 325 708 302 678 302 L509 302 L481 102 L679 102 C708 102 731 80 727 53 C723 23 694 0 664 0 L434 0 L434 0 Z M441 602 L412 602 C400 602 393 598 390 588 L233 245 L391 245 L441 602 L441 602 Z " />
<glyph glyph-name="Ccedilla" unicode="&#xc7;" horiz-adv-x="502" d="M376 -110 C376 -165 332 -210 261 -214 C214 -214 158 -197 158 -169 C158 -150 170 -144 188 -144 C202 -144 229 -150 254 -150 C286 -150 304 -132 304 -115 C304 -77 211 -101 211 -59 C211 -53 213 -49 214 -46 L227 -4 C102 15 56 111 75 250 L104 456 C126 612 216 714 381 714 C475 714 560 673 560 623 C560 595 533 570 502 570 C483 570 477 577 464 586 C443 605 407 617 372 617 C270 617 229 555 215 456 L186 250 C172 151 196 89 298 89 C362 89 405 135 440 135 C465 135 485 116 485 93 C485 35 388 1 290 -7 C288 -17 286 -27 282 -36 C350 -40 376 -69 376 -110 L376 -110 Z " />
<glyph glyph-name="Egrave" unicode="&#xc8;" horiz-adv-x="494" d="M474 58 C474 26 444 0 411 0 L146 0 C105 0 70 14 76 59 L159 646 C163 675 193 705 229 705 L500 705 C530 705 552 681 548 652 C544 623 516 602 486 602 L263 602 L235 405 L439 405 C466 405 490 383 486 354 C482 325 454 302 424 302 L220 302 L192 102 L425 102 C452 102 474 82 474 58 L474 58 Z M372 907 C396 879 444 833 444 809 C444 784 420 765 396 765 C379 765 370 772 360 785 L296 863 C290 871 287 879 287 887 C287 913 312 932 333 932 C350 932 356 927 364 917 L372 907 L372 907 Z " />
<glyph glyph-name="Eacute" unicode="&#xc9;" horiz-adv-x="494" d="M474 58 C474 26 444 0 411 0 L146 0 C105 0 70 14 76 59 L159 646 C163 675 193 705 229 705 L500 705 C530 705 552 681 548 652 C544 623 516 602 486 602 L263 602 L235 405 L439 405 C466 405 490 383 486 354 C482 325 454 302 424 302 L220 302 L192 102 L425 102 C452 102 474 82 474 58 L474 58 Z M428 907 L440 917 C452 927 458 932 475 932 C492 932 510 917 510 896 C510 884 504 874 492 863 L406 785 C392 772 382 765 365 765 C344 765 328 780 328 802 C328 829 395 877 428 907 L428 907 Z " />
<glyph glyph-name="Ecircumflex" unicode="&#xca;" horiz-adv-x="494" d="M474 58 C474 26 444 0 411 0 L146 0 C105 0 70 14 76 59 L159 646 C163 675 193 705 229 705 L500 705 C530 705 552 681 548 652 C544 623 516 602 486 602 L263 602 L235 405 L439 405 C466 405 490 383 486 354 C482 325 454 302 424 302 L220 302 L192 102 L425 102 C452 102 474 82 474 58 L474 58 Z M389 825 C360 804 318 760 292 760 C274 760 254 773 254 792 C254 810 276 830 293 842 L370 897 C379 903 388 908 401 908 C414 908 423 903 430 897 L491 842 C503 832 517 814 517 799 C517 775 490 760 468 760 C442 760 412 804 389 825 L389 825 Z " />
<glyph glyph-name="Edieresis" unicode="&#xcb;" horiz-adv-x="494" d="M474 58 C474 26 444 0 411 0 L146 0 C105 0 70 14 76 59 L159 646 C163 675 193 705 229 705 L500 705 C530 705 552 681 548 652 C544 623 516 602 486 602 L263 602 L235 405 L439 405 C466 405 490 383 486 354 C482 325 454 302 424 302 L220 302 L192 102 L425 102 C452 102 474 82 474 58 L474 58 Z M532 840 C532 806 501 778 467 778 C436 778 414 804 418 834 C422 863 452 888 483 888 C511 888 532 867 532 840 L532 840 Z M358 840 C358 806 327 778 292 778 C261 778 241 804 245 834 C249 863 277 888 308 888 C337 888 358 867 358 840 L358 840 Z " />
<glyph glyph-name="Igrave" unicode="&#xcc;" horiz-adv-x="247" d="M74 42 L161 662 C165 690 192 714 223 714 C253 714 275 690 271 662 L184 42 C180 15 151 -10 121 -10 C90 -10 70 15 74 42 L74 42 Z M221 907 C245 879 293 833 293 809 C293 784 269 765 245 765 C228 765 219 772 209 785 L145 863 C139 871 136 879 136 887 C136 913 161 932 182 932 C199 932 205 927 213 917 L221 907 L221 907 Z " />
<glyph glyph-name="Iacute" unicode="&#xcd;" horiz-adv-x="247" d="M74 42 L161 662 C165 690 192 714 223 714 C253 714 275 690 271 662 L184 42 C180 15 151 -10 121 -10 C90 -10 70 15 74 42 L74 42 Z M282 907 L294 917 C306 927 312 932 329 932 C346 932 364 917 364 896 C364 884 358 874 346 863 L260 785 C246 772 236 765 219 765 C198 765 182 780 182 802 C182 829 249 877 282 907 L282 907 Z " />
<glyph glyph-name="Icircumflex" unicode="&#xce;" horiz-adv-x="247" d="M74 42 L161 662 C165 690 192 714 223 714 C253 714 275 690 271 662 L184 42 C180 15 151 -10 121 -10 C90 -10 70 15 74 42 L74 42 Z M240 825 C211 804 169 760 143 760 C125 760 105 773 105 792 C105 810 127 830 144 842 L221 897 C230 903 239 908 252 908 C265 908 274 903 281 897 L342 842 C354 832 368 814 368 799 C368 775 341 760 319 760 C293 760 263 804 240 825 L240 825 Z " />
<glyph glyph-name="Idieresis" unicode="&#xcf;" horiz-adv-x="247" d="M74 42 L161 662 C165 690 192 714 223 714 C253 714 275 690 271 662 L184 42 C180 15 151 -10 121 -10 C90 -10 70 15 74 42 L74 42 Z M385 840 C385 806 354 778 320 778 C289 778 267 804 271 834 C275 863 305 888 336 888 C364 888 385 867 385 840 L385 840 Z M211 840 C211 806 180 778 145 778 C114 778 94 804 98 834 C102 863 130 888 161 888 C190 888 211 867 211 840 L211 840 Z " />
<glyph glyph-name="Eth" unicode="&#xd0;" horiz-adv-x="595" d="M592 267 C572 128 481 0 265 0 L152 0 C118 0 93 27 98 60 L132 304 L108 304 C79 304 59 326 63 353 C66 379 93 402 122 402 L146 402 L180 645 C184 678 217 705 251 705 L364 705 C579 705 636 583 617 447 L592 267 L592 267 Z M415 358 C415 329 388 304 357 304 L242 304 L214 102 L297 102 C418 102 469 176 482 267 L507 447 C519 534 486 603 367 603 L284 603 L256 402 L371 402 C397 402 415 382 415 358 L415 358 Z " />
<glyph glyph-name="Ntilde" unicode="&#xd1;" horiz-adv-x="620" d="M490 -10 C469 -10 448 2 441 19 L246 488 L184 43 C180 15 150 -10 120 -10 C89 -10 70 15 74 43 L160 658 C165 690 192 714 226 714 C248 714 269 702 277 684 C310 607 436 295 471 215 L534 661 C538 690 567 714 597 714 C627 714 648 690 644 661 L557 46 C553 16 525 -10 490 -10 L490 -10 Z M577 851 C577 810 520 780 481 779 C433 779 409 812 380 815 C347 817 339 784 312 784 C295 784 278 796 278 814 C278 856 326 890 373 890 C422 890 443 856 474 854 C508 854 514 885 542 886 C561 886 577 871 577 851 L577 851 Z " />
<glyph glyph-name="Ograve" unicode="&#xd2;" horiz-adv-x="580" d="M289 -10 C126 -10 60 106 80 250 L109 456 C129 596 214 714 390 714 C566 714 619 596 599 456 L570 250 C550 106 452 -10 289 -10 L289 -10 Z M376 612 C277 612 232 549 219 456 L190 250 C177 157 210 93 303 93 C395 93 447 157 460 250 L489 456 C502 549 475 612 376 612 L376 612 Z M385 907 C409 879 457 833 457 809 C457 784 433 765 409 765 C392 765 383 772 373 785 L309 863 C303 871 300 879 300 887 C300 913 325 932 346 932 C363 932 369 927 377 917 L385 907 L385 907 Z " />
<glyph glyph-name="Oacute" unicode="&#xd3;" horiz-adv-x="580" d="M289 -10 C126 -10 60 106 80 250 L109 456 C129 596 214 714 390 714 C566 714 619 596 599 456 L570 250 C550 106 452 -10 289 -10 L289 -10 Z M376 612 C277 612 232 549 219 456 L190 250 C177 157 210 93 303 93 C395 93 447 157 460 250 L489 456 C502 549 475 612 376 612 L376 612 Z M446 907 L458 917 C470 927 476 932 493 932 C510 932 528 917 528 896 C528 884 522 874 510 863 L424 785 C410 772 400 765 383 765 C362 765 346 780 346 802 C346 829 413 877 446 907 L446 907 Z " />
<glyph glyph-name="Ocircumflex" unicode="&#xd4;" horiz-adv-x="580" d="M289 -10 C126 -10 60 106 80 250 L109 456 C129 596 214 714 390 714 C566 714 619 596 599 456 L570 250 C550 106 452 -10 289 -10 L289 -10 Z M376 612 C277 612 232 549 219 456 L190 250 C177 157 210 93 303 93 C395 93 447 157 460 250 L489 456 C502 549 475 612 376 612 L376 612 Z M406 825 C377 804 335 760 309 760 C291 760 271 773 271 792 C271 810 293 830 310 842 L387 897 C396 903 405 908 418 908 C431 908 440 903 447 897 L508 842 C520 832 534 814 534 799 C534 775 507 760 485 760 C459 760 429 804 406 825 L406 825 Z " />
<glyph glyph-name="Otilde" unicode="&#xd5;" horiz-adv-x="580" d="M289 -10 C126 -10 60 106 80 250 L109 456 C129 596 214 714 390 714 C566 714 619 596 599 456 L570 250 C550 106 452 -10 289 -10 L289 -10 Z M376 612 C277 612 232 549 219 456 L190 250 C177 157 210 93 303 93 C395 93 447 157 460 250 L489 456 C502 549 475 612 376 612 L376 612 Z M557 851 C557 810 500 780 461 779 C413 779 389 812 360 815 C327 817 319 784 292 784 C275 784 258 796 258 814 C258 856 306 890 353 890 C402 890 423 856 454 854 C488 854 494 885 522 886 C541 886 557 871 557 851 L557 851 Z " />
<glyph glyph-name="Odieresis" unicode="&#xd6;" horiz-adv-x="580" d="M289 -10 C126 -10 60 106 80 250 L109 456 C129 596 214 714 390 714 C566 714 619 596 599 456 L570 250 C550 106 452 -10 289 -10 L289 -10 Z M376 612 C277 612 232 549 219 456 L190 250 C177 157 210 93 303 93 C395 93 447 157 460 250 L489 456 C502 549 475 612 376 612 L376 612 Z M551 840 C551 806 520 778 486 778 C455 778 433 804 437 834 C441 863 471 888 502 888 C530 888 551 867 551 840 L551 840 Z M377 840 C377 806 346 778 311 778 C280 778 260 804 264 834 C268 863 296 888 327 888 C356 888 377 867 377 840 L377 840 Z " />
<glyph glyph-name="multiply" unicode="&#xd7;" horiz-adv-x="500" d="M492 474 L354 354 L458 234 C471 218 468 194 450 179 C433 163 407 164 395 179 L292 299 L155 179 C139 164 113 163 100 179 C86 194 90 218 108 234 L245 354 L141 474 C128 488 131 514 149 529 C166 545 190 545 204 529 L307 409 L444 529 C462 545 486 545 499 529 C513 514 509 488 492 474 L492 474 Z " />
<glyph glyph-name="Oslash" unicode="&#xd8;" horiz-adv-x="571" d="M41 39 L91 100 C72 142 67 193 75 250 L104 456 C124 596 210 714 386 714 C466 714 520 690 553 649 L592 695 C602 707 619 710 630 702 C640 694 641 678 631 666 L579 605 C597 563 602 511 594 456 L565 250 C545 106 447 -10 284 -10 C208 -10 153 15 118 56 L80 10 C70 -2 53 -5 42 3 C32 11 31 27 41 39 L41 39 Z M371 612 C272 612 227 549 214 456 L185 250 C183 235 181 220 182 208 L475 557 C460 591 427 612 371 612 L371 612 Z M484 456 C486 469 486 482 487 495 L195 148 C212 113 245 93 298 93 C390 93 442 157 455 250 L484 456 L484 456 Z " />
<glyph glyph-name="Ugrave" unicode="&#xd9;" horiz-adv-x="592" d="M565 235 C545 93 442 -10 294 -10 C142 -10 73 94 93 235 L153 660 C157 691 184 714 216 714 C245 714 267 690 263 660 L203 235 C191 151 223 93 309 93 C394 93 442 152 454 235 L514 660 C518 689 544 714 575 714 C607 714 629 689 625 660 L565 235 L565 235 Z M389 907 C413 879 461 833 461 809 C461 784 437 765 413 765 C396 765 387 772 377 785 L313 863 C307 871 304 879 304 887 C304 913 329 932 350 932 C367 932 373 927 381 917 L389 907 L389 907 Z " />
<glyph glyph-name="Uacute" unicode="&#xda;" horiz-adv-x="592" d="M565 235 C545 93 442 -10 294 -10 C142 -10 73 94 93 235 L153 660 C157 691 184 714 216 714 C245 714 267 690 263 660 L203 235 C191 151 223 93 309 93 C394 93 442 152 454 235 L514 660 C518 689 544 714 575 714 C607 714 629 689 625 660 L565 235 L565 235 Z M461 907 L473 917 C485 927 491 932 508 932 C525 932 543 917 543 896 C543 884 537 874 525 863 L439 785 C425 772 415 765 398 765 C377 765 361 780 361 802 C361 829 428 877 461 907 L461 907 Z " />
<glyph glyph-name="Ucircumflex" unicode="&#xdb;" horiz-adv-x="592" d="M565 235 C545 93 442 -10 294 -10 C142 -10 73 94 93 235 L153 660 C157 691 184 714 216 714 C245 714 267 690 263 660 L203 235 C191 151 223 93 309 93 C394 93 442 152 454 235 L514 660 C518 689 544 714 575 714 C607 714 629 689 625 660 L565 235 L565 235 Z M412 825 C383 804 341 760 315 760 C297 760 277 773 277 792 C277 810 299 830 316 842 L393 897 C402 903 411 908 424 908 C437 908 446 903 453 897 L514 842 C526 832 540 814 540 799 C540 775 513 760 491 760 C465 760 435 804 412 825 L412 825 Z " />
<glyph glyph-name="Udieresis" unicode="&#xdc;" horiz-adv-x="592" d="M565 235 C545 93 442 -10 294 -10 C142 -10 73 94 93 235 L153 660 C157 691 184 714 216 714 C245 714 267 690 263 660 L203 235 C191 151 223 93 309 93 C394 93 442 152 454 235 L514 660 C518 689 544 714 575 714 C607 714 629 689 625 660 L565 235 L565 235 Z M556 840 C556 806 525 778 491 778 C460 778 438 804 442 834 C446 863 476 888 507 888 C535 888 556 867 556 840 L556 840 Z M382 840 C382 806 351 778 316 778 C285 778 265 804 269 834 C273 863 301 888 332 888 C361 888 382 867 382 840 L382 840 Z " />
<glyph glyph-name="Yacute" unicode="&#xdd;" horiz-adv-x="503" d="M250 -10 C219 -10 197 15 201 44 L234 276 L108 637 C107 643 105 653 106 661 C110 690 142 714 170 714 C187 714 204 707 210 691 L308 403 L486 691 C498 707 517 714 534 714 C563 714 586 690 582 661 C581 654 577 643 573 637 L346 275 L313 44 C309 16 282 -10 250 -10 L250 -10 Z M401 907 L413 917 C425 927 431 932 448 932 C465 932 483 917 483 896 C483 884 477 874 465 863 L379 785 C365 772 355 765 338 765 C317 765 301 780 301 802 C301 829 368 877 401 907 L401 907 Z " />
<glyph glyph-name="Thorn" unicode="&#xde;" horiz-adv-x="550" d="M74 43 L161 662 C165 691 193 715 223 715 C253 715 275 690 271 662 L260 586 L360 586 C537 586 585 478 569 361 C549 219 444 140 298 140 L198 140 L184 43 C180 15 151 -10 121 -10 C91 -10 70 15 74 43 L74 43 Z M246 483 L212 242 L312 242 C397 242 447 280 459 362 C467 421 452 483 346 483 L246 483 L246 483 Z " />
<glyph glyph-name="germandbls" unicode="&#xdf;" horiz-adv-x="577" d="M564 189 C564 63 466 -4 332 -4 C262 -4 225 17 225 48 C225 72 243 100 282 100 C305 100 329 90 357 90 C401 90 451 114 451 180 C451 299 283 261 283 353 C283 477 448 402 448 549 C448 598 413 622 362 622 C294 622 258 581 246 494 L175 -11 C171 -38 145 -61 114 -61 C84 -61 63 -38 67 -11 L137 491 C157 632 244 717 380 717 C483 717 556 666 556 568 C556 482 508 430 452 402 C429 390 393 380 393 370 C393 363 405 360 426 352 C501 318 564 274 564 189 L564 189 Z " />
<glyph glyph-name="agrave" unicode="&#xe0;" horiz-adv-x="502" d="M216 -8 C103 -8 55 70 71 185 L88 305 C105 424 169 513 312 513 C442 513 487 439 469 309 L440 106 C436 77 449 75 461 74 C480 72 486 61 486 46 C486 12 463 -4 422 -4 C389 -4 363 7 347 41 C305 9 269 -8 216 -8 L216 -8 Z M250 85 C279 85 299 93 334 118 L364 333 C372 390 357 418 298 418 C234 418 207 384 196 305 L179 185 C170 118 191 85 250 85 L250 85 Z M338 707 C362 679 410 633 410 609 C410 584 386 565 362 565 C345 565 336 572 326 585 L262 663 C256 671 253 679 253 687 C253 713 278 732 299 732 C316 732 322 727 330 717 L338 707 L338 707 Z " />
<glyph glyph-name="aacute" unicode="&#xe1;" horiz-adv-x="502" d="M216 -8 C103 -8 55 70 71 185 L88 305 C105 424 169 513 312 513 C442 513 487 439 469 309 L440 106 C436 77 449 75 461 74 C480 72 486 61 486 46 C486 12 463 -4 422 -4 C389 -4 363 7 347 41 C305 9 269 -8 216 -8 L216 -8 Z M250 85 C279 85 299 93 334 118 L364 333 C372 390 357 418 298 418 C234 418 207 384 196 305 L179 185 C170 118 191 85 250 85 L250 85 Z M365 707 L377 717 C389 727 395 732 412 732 C429 732 447 717 447 696 C447 684 441 674 429 663 L343 585 C329 572 319 565 302 565 C281 565 265 580 265 602 C265 629 332 677 365 707 L365 707 Z " />
<glyph glyph-name="acircumflex" unicode="&#xe2;" horiz-adv-x="502" d="M216 -8 C103 -8 55 70 71 185 L88 305 C105 424 169 513 312 513 C442 513 487 439 469 309 L440 106 C436 77 449 75 461 74 C480 72 486 61 486 46 C486 12 463 -4 422 -4 C389 -4 363 7 347 41 C305 9 269 -8 216 -8 L216 -8 Z M250 85 C279 85 299 93 334 118 L364 333 C372 390 357 418 298 418 C234 418 207 384 196 305 L179 185 C170 118 191 85 250 85 L250 85 Z M338 625 C309 604 267 560 241 560 C223 560 203 573 203 592 C203 610 225 630 242 642 L319 697 C328 703 337 708 350 708 C363 708 372 703 379 697 L440 642 C452 632 466 614 466 599 C466 575 439 560 417 560 C391 560 361 604 338 625 L338 625 Z " />
<glyph glyph-name="atilde" unicode="&#xe3;" horiz-adv-x="502" d="M216 -8 C103 -8 55 70 71 185 L88 305 C105 424 169 513 312 513 C442 513 487 439 469 309 L440 106 C436 77 449 75 461 74 C480 72 486 61 486 46 C486 12 463 -4 422 -4 C389 -4 363 7 347 41 C305 9 269 -8 216 -8 L216 -8 Z M250 85 C279 85 299 93 334 118 L364 333 C372 390 357 418 298 418 C234 418 207 384 196 305 L179 185 C170 118 191 85 250 85 L250 85 Z M490 651 C490 610 433 580 394 579 C346 579 322 612 293 615 C260 617 252 584 225 584 C208 584 191 596 191 614 C191 656 239 690 286 690 C335 690 356 656 387 654 C421 654 427 685 455 686 C474 686 490 671 490 651 L490 651 Z " />
<glyph glyph-name="adieresis" unicode="&#xe4;" horiz-adv-x="502" d="M216 -8 C103 -8 55 70 71 185 L88 305 C105 424 169 513 312 513 C442 513 487 439 469 309 L440 106 C436 77 449 75 461 74 C480 72 486 61 486 46 C486 12 463 -4 422 -4 C389 -4 363 7 347 41 C305 9 269 -8 216 -8 L216 -8 Z M250 85 C279 85 299 93 334 118 L364 333 C372 390 357 418 298 418 C234 418 207 384 196 305 L179 185 C170 118 191 85 250 85 L250 85 Z M483 640 C483 606 452 578 418 578 C387 578 365 604 369 634 C373 663 403 688 434 688 C462 688 483 667 483 640 L483 640 Z M309 640 C309 606 278 578 243 578 C212 578 192 604 196 634 C200 663 228 688 259 688 C288 688 309 667 309 640 L309 640 Z " />
<glyph glyph-name="aring" unicode="&#xe5;" horiz-adv-x="502" d="M216 -8 C103 -8 55 70 71 185 L88 305 C105 424 169 513 312 513 C442 513 487 439 469 309 L440 106 C436 77 449 75 461 74 C480 72 486 61 486 46 C486 12 463 -4 422 -4 C389 -4 363 7 347 41 C305 9 269 -8 216 -8 L216 -8 Z M250 85 C279 85 299 93 334 118 L364 333 C372 390 357 418 298 418 C234 418 207 384 196 305 L179 185 C170 118 191 85 250 85 L250 85 Z M447 656 C447 592 391 540 328 540 C269 540 229 586 237 644 C245 701 298 748 357 748 C410 748 447 707 447 656 L447 656 Z M392 650 C392 674 374 694 349 694 C322 694 297 671 293 644 C289 617 308 595 335 595 C365 595 392 620 392 650 L392 650 Z " />
<glyph glyph-name="ae" unicode="&#xe6;" horiz-adv-x="712" d="M529 192 C503 192 472 194 443 198 L437 158 C431 113 459 84 521 84 C559 84 586 95 622 109 C628 111 634 114 643 114 C671 114 690 91 687 67 C679 10 556 -8 502 -8 C437 -8 394 15 371 53 C318 12 261 -8 197 -8 C84 -8 27 58 51 149 L52 152 C66 254 136 306 264 306 C294 306 323 303 349 296 L354 333 C363 393 336 421 274 421 C243 421 224 413 202 403 C196 401 184 394 169 394 C140 394 130 417 132 437 C134 491 220 513 297 513 C364 513 404 491 425 447 C459 487 511 513 581 513 C697 513 749 447 735 346 C721 250 658 192 529 192 L529 192 Z M629 360 C629 401 605 419 562 419 C506 419 470 391 464 346 L456 287 C487 284 528 281 545 281 C607 281 629 313 629 360 L629 360 Z M324 120 L336 205 C308 213 276 217 251 217 C181 217 160 187 158 151 L158 148 C153 111 166 85 222 85 C259 85 290 96 324 120 L324 120 Z " />
<glyph glyph-name="ccedilla" unicode="&#xe7;" horiz-adv-x="418" d="M337 -110 C337 -169 288 -214 210 -214 C171 -214 118 -201 118 -169 C118 -150 132 -144 148 -144 C161 -144 188 -150 214 -150 C248 -150 264 -132 264 -115 C264 -79 172 -95 172 -59 C172 -47 180 -24 188 -3 C91 14 58 89 71 180 L91 323 C106 428 176 510 310 510 C361 510 455 497 455 442 C455 413 431 394 397 394 C393 394 389 395 385 396 L365 404 C348 411 332 418 305 418 C238 418 207 383 199 323 L179 180 C171 120 192 84 258 84 C302 84 327 109 360 109 C390 109 402 91 402 73 C402 13 311 -4 252 -7 C248 -17 246 -26 243 -36 C311 -40 337 -69 337 -110 L337 -110 Z " />
<glyph glyph-name="egrave" unicode="&#xe8;" horiz-adv-x="460" d="M269 197 C241 197 213 199 181 204 L175 158 C169 113 196 84 259 84 C296 84 324 94 359 109 C362 111 370 114 382 114 C416 114 427 89 424 69 C416 9 296 -8 237 -8 C114 -8 54 66 68 163 L92 340 C106 438 186 513 315 513 C436 513 487 447 472 347 C459 253 396 197 269 197 L269 197 Z M366 350 C373 403 349 424 300 424 C244 424 208 394 201 346 L193 287 C226 283 265 281 280 281 C337 281 360 308 366 350 L366 350 Z M307 707 C331 679 379 633 379 609 C379 584 355 565 331 565 C314 565 305 572 295 585 L231 663 C225 671 222 679 222 687 C222 713 247 732 268 732 C285 732 291 727 299 717 L307 707 L307 707 Z " />
<glyph glyph-name="eacute" unicode="&#xe9;" horiz-adv-x="460" d="M269 197 C241 197 213 199 181 204 L175 158 C169 113 196 84 259 84 C296 84 324 94 359 109 C362 111 370 114 382 114 C416 114 427 89 424 69 C416 9 296 -8 237 -8 C114 -8 54 66 68 163 L92 340 C106 438 186 513 315 513 C436 513 487 447 472 347 C459 253 396 197 269 197 L269 197 Z M366 350 C373 403 349 424 300 424 C244 424 208 394 201 346 L193 287 C226 283 265 281 280 281 C337 281 360 308 366 350 L366 350 Z M371 707 L383 717 C395 727 401 732 418 732 C435 732 453 717 453 696 C453 684 447 674 435 663 L349 585 C335 572 325 565 308 565 C287 565 271 580 271 602 C271 629 338 677 371 707 L371 707 Z " />
<glyph glyph-name="ecircumflex" unicode="&#xea;" horiz-adv-x="460" d="M269 197 C241 197 213 199 181 204 L175 158 C169 113 196 84 259 84 C296 84 324 94 359 109 C362 111 370 114 382 114 C416 114 427 89 424 69 C416 9 296 -8 237 -8 C114 -8 54 66 68 163 L92 340 C106 438 186 513 315 513 C436 513 487 447 472 347 C459 253 396 197 269 197 L269 197 Z M366 350 C373 403 349 424 300 424 C244 424 208 394 201 346 L193 287 C226 283 265 281 280 281 C337 281 360 308 366 350 L366 350 Z M322 625 C293 604 251 560 225 560 C207 560 187 573 187 592 C187 610 209 630 226 642 L303 697 C312 703 321 708 334 708 C347 708 356 703 363 697 L424 642 C436 632 450 614 450 599 C450 575 423 560 401 560 C375 560 345 604 322 625 L322 625 Z " />
<glyph glyph-name="edieresis" unicode="&#xeb;" horiz-adv-x="460" d="M269 197 C241 197 213 199 181 204 L175 158 C169 113 196 84 259 84 C296 84 324 94 359 109 C362 111 370 114 382 114 C416 114 427 89 424 69 C416 9 296 -8 237 -8 C114 -8 54 66 68 163 L92 340 C106 438 186 513 315 513 C436 513 487 447 472 347 C459 253 396 197 269 197 L269 197 Z M366 350 C373 403 349 424 300 424 C244 424 208 394 201 346 L193 287 C226 283 265 281 280 281 C337 281 360 308 366 350 L366 350 Z M463 640 C463 606 432 578 398 578 C367 578 345 604 349 634 C353 663 383 688 414 688 C442 688 463 667 463 640 L463 640 Z M289 640 C289 606 258 578 223 578 C192 578 172 604 176 634 C180 663 208 688 239 688 C268 688 289 667 289 640 L289 640 Z " />
<glyph glyph-name="igrave" unicode="&#xec;" horiz-adv-x="265" d="M194 707 C218 679 266 633 266 609 C266 584 242 565 218 565 C201 565 192 572 182 585 L118 663 C112 671 109 679 109 687 C109 713 134 732 155 732 C172 732 178 727 186 717 L194 707 L194 707 Z M93 102 L143 460 C147 487 173 510 204 510 C234 510 255 487 251 460 L201 108 C199 87 198 78 209 64 C214 58 219 52 219 42 C219 12 193 -8 156 -8 C124 -8 79 5 93 102 L93 102 Z " />
<glyph glyph-name="iacute" unicode="&#xed;" horiz-adv-x="265" d="M271 707 L283 717 C295 727 301 732 318 732 C335 732 353 717 353 696 C353 684 347 674 335 663 L249 585 C235 572 225 565 208 565 C187 565 171 580 171 602 C171 629 238 677 271 707 L271 707 Z M93 102 L143 460 C147 487 173 510 204 510 C234 510 255 487 251 460 L201 108 C199 87 198 78 209 64 C214 58 219 52 219 42 C219 12 193 -8 156 -8 C124 -8 79 5 93 102 L93 102 Z " />
<glyph glyph-name="icircumflex" unicode="&#xee;" horiz-adv-x="265" d="M93 102 L143 460 C147 487 173 510 204 510 C234 510 255 487 251 460 L201 108 C199 87 198 78 209 64 C214 58 219 52 219 42 C219 12 193 -8 156 -8 C124 -8 79 5 93 102 L93 102 Z M220 625 C191 604 149 560 123 560 C105 560 85 573 85 592 C85 610 107 630 124 642 L201 697 C210 703 219 708 232 708 C245 708 254 703 261 697 L322 642 C334 632 348 614 348 599 C348 575 321 560 299 560 C273 560 243 604 220 625 L220 625 Z " />
<glyph glyph-name="idieresis" unicode="&#xef;" horiz-adv-x="265" d="M366 640 C366 606 335 578 301 578 C270 578 248 604 252 634 C256 663 286 688 317 688 C345 688 366 667 366 640 L366 640 Z M192 640 C192 606 161 578 126 578 C95 578 75 604 79 634 C83 663 111 688 142 688 C171 688 192 667 192 640 L192 640 Z M93 102 L143 460 C147 487 173 510 204 510 C234 510 255 487 251 460 L201 108 C199 87 198 78 209 64 C214 58 219 52 219 42 C219 12 193 -8 156 -8 C124 -8 79 5 93 102 L93 102 Z " />
<glyph glyph-name="eth" unicode="&#xf0;" horiz-adv-x="537" d="M607 665 C607 665 611 664 610 656 C609 645 603 635 592 629 L528 590 C548 527 552 437 536 321 C499 55 407 -10 274 -10 C112 -10 55 86 73 213 C91 339 174 440 306 440 C340 440 394 432 434 402 C440 458 439 499 433 529 L378 498 C366 490 357 488 352 488 C337 486 321 502 325 521 C327 532 332 543 343 549 L408 587 C386 611 355 616 328 619 C309 620 284 623 293 665 C299 694 314 708 369 708 C426 708 469 687 500 645 L556 680 C564 685 572 688 582 689 C608 690 607 665 607 665 L607 665 Z M420 279 L423 299 C396 327 339 345 299 345 C236 345 193 297 182 218 C171 144 196 87 282 87 C366 87 400 145 420 279 L420 279 Z " />
<glyph glyph-name="ntilde" unicode="&#xf1;" horiz-adv-x="529" d="M503 319 L473 108 C470 87 470 78 481 64 C486 58 491 52 491 42 C491 12 465 -8 428 -8 C396 -8 351 5 364 102 L395 319 C404 382 380 419 330 419 C300 419 267 408 231 388 C232 379 232 371 231 364 L186 43 C182 15 161 -7 125 -7 C89 -7 74 15 78 43 L123 364 C129 408 123 410 118 420 C113 430 110 436 110 445 C110 473 136 496 169 496 C188 496 202 485 212 467 C261 498 312 511 356 511 C472 511 519 434 503 319 L503 319 Z M491 651 C491 610 434 580 395 579 C347 579 323 612 294 615 C261 617 253 584 226 584 C209 584 192 596 192 614 C192 656 240 690 287 690 C336 690 357 656 388 654 C422 654 428 685 456 686 C475 686 491 671 491 651 L491 651 Z " />
<glyph glyph-name="ograve" unicode="&#xf2;" horiz-adv-x="494" d="M246 -8 C114 -8 55 72 69 174 L91 332 C106 435 187 514 319 514 C451 514 511 435 496 332 L473 174 C459 72 378 -8 246 -8 L246 -8 Z M259 87 C321 87 357 120 365 174 L388 333 C395 386 368 419 306 419 C244 419 207 386 200 333 L177 174 C170 120 197 87 259 87 L259 87 Z M314 707 C338 679 386 633 386 609 C386 584 362 565 338 565 C321 565 312 572 302 585 L238 663 C232 671 229 679 229 687 C229 713 254 732 275 732 C292 732 298 727 306 717 L314 707 L314 707 Z " />
<glyph glyph-name="oacute" unicode="&#xf3;" horiz-adv-x="494" d="M246 -8 C114 -8 55 72 69 174 L91 332 C106 435 187 514 319 514 C451 514 511 435 496 332 L473 174 C459 72 378 -8 246 -8 L246 -8 Z M259 87 C321 87 357 120 365 174 L388 333 C395 386 368 419 306 419 C244 419 207 386 200 333 L177 174 C170 120 197 87 259 87 L259 87 Z M366 707 L378 717 C390 727 396 732 413 732 C430 732 448 717 448 696 C448 684 442 674 430 663 L344 585 C330 572 320 565 303 565 C282 565 266 580 266 602 C266 629 333 677 366 707 L366 707 Z " />
<glyph glyph-name="ocircumflex" unicode="&#xf4;" horiz-adv-x="494" d="M246 -8 C114 -8 55 72 69 174 L91 332 C106 435 187 514 319 514 C451 514 511 435 496 332 L473 174 C459 72 378 -8 246 -8 L246 -8 Z M259 87 C321 87 357 120 365 174 L388 333 C395 386 368 419 306 419 C244 419 207 386 200 333 L177 174 C170 120 197 87 259 87 L259 87 Z M334 625 C305 604 263 560 237 560 C219 560 199 573 199 592 C199 610 221 630 238 642 L315 697 C324 703 333 708 346 708 C359 708 368 703 375 697 L436 642 C448 632 462 614 462 599 C462 575 435 560 413 560 C387 560 357 604 334 625 L334 625 Z " />
<glyph glyph-name="otilde" unicode="&#xf5;" horiz-adv-x="494" d="M246 -8 C114 -8 55 72 69 174 L91 332 C106 435 187 514 319 514 C451 514 511 435 496 332 L473 174 C459 72 378 -8 246 -8 L246 -8 Z M259 87 C321 87 357 120 365 174 L388 333 C395 386 368 419 306 419 C244 419 207 386 200 333 L177 174 C170 120 197 87 259 87 L259 87 Z M486 651 C486 610 429 580 390 579 C342 579 318 612 289 615 C256 617 248 584 221 584 C204 584 187 596 187 614 C187 656 235 690 282 690 C331 690 352 656 383 654 C417 654 423 685 451 686 C470 686 486 671 486 651 L486 651 Z " />
<glyph glyph-name="odieresis" unicode="&#xf6;" horiz-adv-x="494" d="M246 -8 C114 -8 55 72 69 174 L91 332 C106 435 187 514 319 514 C451 514 511 435 496 332 L473 174 C459 72 378 -8 246 -8 L246 -8 Z M259 87 C321 87 357 120 365 174 L388 333 C395 386 368 419 306 419 C244 419 207 386 200 333 L177 174 C170 120 197 87 259 87 L259 87 Z M479 640 C479 606 448 578 414 578 C383 578 361 604 365 634 C369 663 399 688 430 688 C458 688 479 667 479 640 L479 640 Z M305 640 C305 606 274 578 239 578 C208 578 188 604 192 634 C196 663 224 688 255 688 C284 688 305 667 305 640 L305 640 Z " />
<glyph glyph-name="oslash" unicode="&#xf8;" horiz-adv-x="494" d="M58 21 L92 61 C70 91 64 131 70 174 L92 332 C106 435 188 514 320 514 C373 514 414 501 443 479 L473 514 C479 521 487 525 495 525 C509 525 519 513 519 501 C519 495 516 490 511 484 L476 442 C494 412 502 374 496 332 L474 174 C460 72 378 -7 246 -7 C194 -7 155 4 125 25 L97 -9 C91 -16 83 -20 74 -20 C60 -20 51 -9 51 3 C51 10 54 15 58 21 L58 21 Z M178 176 C181 175 184 174 187 174 C249 248 311 322 373 395 C359 410 337 419 306 419 C244 419 207 386 200 333 L178 176 L178 176 Z M260 87 C322 87 359 120 366 174 L385 313 C386 321 388 329 388 337 L195 108 C209 94 230 87 260 87 L260 87 Z " />
<glyph glyph-name="ugrave" unicode="&#xf9;" horiz-adv-x="529" d="M386 32 C337 3 286 -8 240 -8 C127 -8 79 70 95 185 L134 461 C138 489 160 510 195 510 C229 510 246 489 242 461 L203 185 C194 121 215 85 267 85 C297 85 331 95 365 112 C365 121 365 129 366 136 L412 461 C416 489 437 510 473 510 C509 510 524 489 520 461 L473 126 C468 91 475 87 483 73 C488 66 492 58 491 46 C487 17 459 -2 433 -2 C411 -2 396 12 386 32 L386 32 Z M323 707 C347 679 395 633 395 609 C395 584 371 565 347 565 C330 565 321 572 311 585 L247 663 C241 671 238 679 238 687 C238 713 263 732 284 732 C301 732 307 727 315 717 L323 707 L323 707 Z " />
<glyph glyph-name="uacute" unicode="&#xfa;" horiz-adv-x="529" d="M386 32 C337 3 286 -8 240 -8 C127 -8 79 70 95 185 L134 461 C138 489 160 510 195 510 C229 510 246 489 242 461 L203 185 C194 121 215 85 267 85 C297 85 331 95 365 112 C365 121 365 129 366 136 L412 461 C416 489 437 510 473 510 C509 510 524 489 520 461 L473 126 C468 91 475 87 483 73 C488 66 492 58 491 46 C487 17 459 -2 433 -2 C411 -2 396 12 386 32 L386 32 Z M402 707 L414 717 C426 727 432 732 449 732 C466 732 484 717 484 696 C484 684 478 674 466 663 L380 585 C366 572 356 565 339 565 C318 565 302 580 302 602 C302 629 369 677 402 707 L402 707 Z " />
<glyph glyph-name="ucircumflex" unicode="&#xfb;" horiz-adv-x="529" d="M386 32 C337 3 286 -8 240 -8 C127 -8 79 70 95 185 L134 461 C138 489 160 510 195 510 C229 510 246 489 242 461 L203 185 C194 121 215 85 267 85 C297 85 331 95 365 112 C365 121 365 129 366 136 L412 461 C416 489 437 510 473 510 C509 510 524 489 520 461 L473 126 C468 91 475 87 483 73 C488 66 492 58 491 46 C487 17 459 -2 433 -2 C411 -2 396 12 386 32 L386 32 Z M351 625 C322 604 280 560 254 560 C236 560 216 573 216 592 C216 610 238 630 255 642 L332 697 C341 703 350 708 363 708 C376 708 385 703 392 697 L453 642 C465 632 479 614 479 599 C479 575 452 560 430 560 C404 560 374 604 351 625 L351 625 Z " />
<glyph glyph-name="udieresis" unicode="&#xfc;" horiz-adv-x="529" d="M386 32 C337 3 286 -8 240 -8 C127 -8 79 70 95 185 L134 461 C138 489 160 510 195 510 C229 510 246 489 242 461 L203 185 C194 121 215 85 267 85 C297 85 331 95 365 112 C365 121 365 129 366 136 L412 461 C416 489 437 510 473 510 C509 510 524 489 520 461 L473 126 C468 91 475 87 483 73 C488 66 492 58 491 46 C487 17 459 -2 433 -2 C411 -2 396 12 386 32 L386 32 Z M497 640 C497 606 466 578 432 578 C401 578 379 604 383 634 C387 663 417 688 448 688 C476 688 497 667 497 640 L497 640 Z M323 640 C323 606 292 578 257 578 C226 578 206 604 210 634 C214 663 242 688 273 688 C302 688 323 667 323 640 L323 640 Z " />
<glyph glyph-name="yacute" unicode="&#xfd;" horiz-adv-x="529" d="M530 461 L459 -37 C444 -142 374 -224 239 -224 C189 -224 95 -209 95 -158 C95 -131 121 -108 151 -108 C157 -108 164 -108 173 -112 C195 -121 212 -132 244 -132 C311 -132 344 -97 352 -37 L360 20 C324 3 287 -7 243 -7 C110 -7 79 73 94 179 L133 461 C137 489 159 510 194 510 C228 510 245 489 241 461 L202 179 C194 120 212 84 272 84 C307 84 343 95 374 120 L422 461 C425 489 446 510 482 510 C518 510 534 489 530 461 L530 461 Z M413 707 L425 717 C437 727 443 732 460 732 C477 732 495 717 495 696 C495 684 489 674 477 663 L391 585 C377 572 367 565 350 565 C329 565 313 580 313 602 C313 629 380 677 413 707 L413 707 Z " />
<glyph glyph-name="thorn" unicode="&#xfe;" horiz-adv-x="510" d="M232 388 L197 138 C217 113 247 99 288 99 C346 99 375 126 381 172 L407 355 C413 400 392 427 334 427 C293 427 259 413 232 388 L232 388 Z M46 -167 L164 674 C168 700 190 723 225 723 C259 723 276 700 272 674 L245 479 C282 501 319 513 370 513 C490 513 528 443 515 352 L490 174 C477 83 420 13 300 13 C249 13 215 26 184 48 L154 -167 C150 -193 127 -217 93 -217 C58 -217 42 -193 46 -167 L46 -167 Z " />
<glyph glyph-name="ydieresis" unicode="&#xff;" horiz-adv-x="529" d="M530 461 L459 -37 C444 -142 374 -224 239 -224 C189 -224 95 -209 95 -158 C95 -131 121 -108 151 -108 C157 -108 164 -108 173 -112 C195 -121 212 -132 244 -132 C311 -132 344 -97 352 -37 L360 20 C324 3 287 -7 243 -7 C110 -7 79 73 94 179 L133 461 C137 489 159 510 194 510 C228 510 245 489 241 461 L202 179 C194 120 212 84 272 84 C307 84 343 95 374 120 L422 461 C425 489 446 510 482 510 C518 510 534 489 530 461 L530 461 Z M497 640 C497 606 466 578 432 578 C401 578 379 604 383 634 C387 663 417 688 448 688 C476 688 497 667 497 640 L497 640 Z M323 640 C323 606 292 578 257 578 C226 578 206 604 210 634 C214 663 242 688 273 688 C302 688 323 667 323 640 L323 640 Z " />
<glyph glyph-name="Amacron" unicode="&#x100;" horiz-adv-x="569" d="M187 149 L133 29 C122 5 93 -9 75 -9 C47 -9 25 9 25 36 C25 44 28 56 30 61 L308 654 C324 688 345 714 384 714 C423 714 435 689 442 654 L554 61 C555 59 555 54 555 50 C555 14 525 -9 490 -9 C454 -9 446 16 438 52 L420 149 L187 149 L187 149 Z M361 549 C321 443 275 346 231 245 L404 245 C387 346 367 445 361 549 L361 549 Z M578 838 C578 811 552 790 525 790 L266 790 C239 790 222 809 225 833 C229 857 252 877 279 877 L538 877 C561 877 578 859 578 838 L578 838 Z " />
<glyph glyph-name="amacron" unicode="&#x101;" horiz-adv-x="502" d="M216 -8 C103 -8 55 70 71 185 L88 305 C105 424 169 513 312 513 C442 513 487 439 469 309 L440 106 C436 77 449 75 461 74 C480 72 486 61 486 46 C486 12 463 -4 422 -4 C389 -4 363 7 347 41 C305 9 269 -8 216 -8 L216 -8 Z M250 85 C279 85 299 93 334 118 L364 333 C372 390 357 418 298 418 C234 418 207 384 196 305 L179 185 C170 118 191 85 250 85 L250 85 Z M505 638 C505 611 479 590 452 590 L193 590 C166 590 149 609 152 633 C156 657 179 677 206 677 L465 677 C488 677 505 659 505 638 L505 638 Z " />
<glyph glyph-name="Abreve" unicode="&#x102;" horiz-adv-x="569" d="M187 149 L133 29 C122 5 93 -9 75 -9 C47 -9 25 9 25 36 C25 44 28 56 30 61 L308 654 C324 688 345 714 384 714 C423 714 435 689 442 654 L554 61 C555 59 555 54 555 50 C555 14 525 -9 490 -9 C454 -9 446 16 438 52 L420 149 L187 149 L187 149 Z M361 549 C321 443 275 346 231 245 L404 245 C387 346 367 445 361 549 L361 549 Z M402 839 C432 839 451 857 469 875 C481 887 492 894 509 894 C530 894 551 883 538 848 C517 793 439 762 390 762 C338 762 272 796 267 848 C264 883 289 894 310 894 C329 894 337 884 344 875 C357 857 371 839 402 839 L402 839 Z " />
<glyph glyph-name="abreve" unicode="&#x103;" horiz-adv-x="502" d="M216 -8 C103 -8 55 70 71 185 L88 305 C105 424 169 513 312 513 C442 513 487 439 469 309 L440 106 C436 77 449 75 461 74 C480 72 486 61 486 46 C486 12 463 -4 422 -4 C389 -4 363 7 347 41 C305 9 269 -8 216 -8 L216 -8 Z M250 85 C279 85 299 93 334 118 L364 333 C372 390 357 418 298 418 C234 418 207 384 196 305 L179 185 C170 118 191 85 250 85 L250 85 Z M341 639 C371 639 390 657 408 675 C420 687 431 694 448 694 C469 694 490 683 477 648 C456 593 378 562 329 562 C277 562 211 596 206 648 C203 683 228 694 249 694 C268 694 276 684 283 675 C296 657 310 639 341 639 L341 639 Z " />
<glyph glyph-name="Aogonek" unicode="&#x104;" horiz-adv-x="569" d="M585 -157 C585 -200 529 -207 492 -207 C431 -207 393 -181 393 -126 C393 -82 421 -34 454 6 C431 29 427 105 420 149 L187 149 C152 72 124 -7 72 -7 C46 -7 25 11 25 36 C25 44 28 56 30 61 L309 654 C324 686 347 714 384 714 C414 714 430 697 437 671 L447 633 L554 61 C555 59 555 54 555 50 C555 29 544 16 533 5 C504 -26 481 -70 481 -101 C481 -118 490 -130 511 -130 C529 -130 542 -126 554 -126 C572 -126 585 -140 585 -157 L585 -157 Z M361 549 C321 443 275 346 231 245 L404 245 C387 346 367 445 361 549 L361 549 Z " />
<glyph glyph-name="aogonek" unicode="&#x105;" horiz-adv-x="502" d="M469 309 L440 106 C437 81 446 76 461 74 C490 70 484 35 475 19 C462 -4 441 -30 430 -51 C412 -87 410 -129 455 -129 C467 -129 475 -126 481 -126 C499 -126 513 -141 513 -157 C513 -200 456 -207 420 -207 C359 -207 320 -181 320 -126 C320 -83 346 -39 383 2 C367 9 355 22 347 41 C305 9 269 -8 216 -8 C103 -8 55 70 71 185 L88 305 C105 424 169 513 312 513 C442 513 487 439 469 309 L469 309 Z M250 85 C279 85 299 93 334 118 L364 333 C372 390 357 418 298 418 C234 418 207 384 196 305 L179 185 C170 118 191 85 250 85 L250 85 Z " />
<glyph glyph-name="Cacute" unicode="&#x106;" horiz-adv-x="502" d="M75 250 L104 456 C126 612 215 714 380 714 C474 714 559 673 559 623 C559 595 532 570 501 570 C482 570 476 576 463 586 L459 589 C434 608 407 617 372 617 C270 617 228 555 214 456 L185 250 C171 151 195 89 297 89 C332 89 361 100 392 116 L398 119 C415 127 421 135 440 135 C466 135 485 116 485 93 C485 38 381 -8 279 -8 C114 -8 53 94 75 250 L75 250 Z M439 907 L451 917 C463 927 469 932 486 932 C503 932 521 917 521 896 C521 884 515 874 503 863 L417 785 C403 772 393 765 376 765 C355 765 339 780 339 802 C339 829 406 877 439 907 L439 907 Z " />
<glyph glyph-name="cacute" unicode="&#x107;" horiz-adv-x="418" d="M71 180 L91 323 C106 428 176 510 310 510 C363 510 463 496 455 436 C452 415 435 394 401 394 C393 394 386 395 376 398 C356 408 338 418 305 418 C238 418 207 383 199 323 L179 180 C170 120 191 84 258 84 C291 84 312 94 335 104 C343 107 350 109 360 109 C395 109 406 87 403 66 C394 7 290 -8 236 -8 C103 -8 56 75 71 180 L71 180 Z M356 707 L368 717 C380 727 386 732 403 732 C420 732 438 717 438 696 C438 684 432 674 420 663 L334 585 C320 572 310 565 293 565 C272 565 256 580 256 602 C256 629 323 677 356 707 L356 707 Z " />
<glyph glyph-name="Ccircumflex" unicode="&#x108;" horiz-adv-x="502" d="M75 250 L104 456 C126 612 215 714 380 714 C474 714 559 673 559 623 C559 595 532 570 501 570 C482 570 476 576 463 586 L459 589 C434 608 407 617 372 617 C270 617 228 555 214 456 L185 250 C171 151 195 89 297 89 C332 89 361 100 392 116 L398 119 C415 127 421 135 440 135 C466 135 485 116 485 93 C485 38 381 -8 279 -8 C114 -8 53 94 75 250 L75 250 Z M380 825 C351 804 309 760 283 760 C265 760 245 773 245 792 C245 810 267 830 284 842 L361 897 C370 903 379 908 392 908 C405 908 414 903 421 897 L482 842 C494 832 508 814 508 799 C508 775 481 760 459 760 C433 760 403 804 380 825 L380 825 Z " />
<glyph glyph-name="ccircumflex" unicode="&#x109;" horiz-adv-x="418" d="M71 180 L91 323 C106 428 176 510 310 510 C363 510 463 496 455 436 C452 415 435 394 401 394 C393 394 386 395 376 398 C356 408 338 418 305 418 C238 418 207 383 199 323 L179 180 C170 120 191 84 258 84 C291 84 312 94 335 104 C343 107 350 109 360 109 C395 109 406 87 403 66 C394 7 290 -8 236 -8 C103 -8 56 75 71 180 L71 180 Z M313 625 C284 604 242 560 216 560 C198 560 178 573 178 592 C178 610 200 630 217 642 L294 697 C303 703 312 708 325 708 C338 708 347 703 354 697 L415 642 C427 632 441 614 441 599 C441 575 414 560 392 560 C366 560 336 604 313 625 L313 625 Z " />
<glyph glyph-name="Cdotaccent" unicode="&#x10a;" horiz-adv-x="502" d="M75 250 L104 456 C126 612 215 714 380 714 C474 714 559 673 559 623 C559 595 532 570 501 570 C482 570 476 576 463 586 L459 589 C434 608 407 617 372 617 C270 617 228 555 214 456 L185 250 C171 151 195 89 297 89 C332 89 361 100 392 116 L398 119 C415 127 421 135 440 135 C466 135 485 116 485 93 C485 38 381 -8 279 -8 C114 -8 53 94 75 250 L75 250 Z M424 833 C424 799 393 771 358 771 C327 771 307 797 311 827 C315 856 343 881 374 881 C403 881 424 860 424 833 L424 833 Z " />
<glyph glyph-name="cdotaccent" unicode="&#x10b;" horiz-adv-x="418" d="M71 180 L91 323 C106 428 176 510 310 510 C363 510 463 496 455 436 C452 415 435 394 401 394 C393 394 386 395 376 398 C356 408 338 418 305 418 C238 418 207 383 199 323 L179 180 C170 120 191 84 258 84 C291 84 312 94 335 104 C343 107 350 109 360 109 C395 109 406 87 403 66 C394 7 290 -8 236 -8 C103 -8 56 75 71 180 L71 180 Z M353 633 C353 599 322 571 287 571 C256 571 236 597 240 627 C244 656 272 681 303 681 C332 681 353 660 353 633 L353 633 Z " />
<glyph glyph-name="Ccaron" unicode="&#x10c;" horiz-adv-x="502" d="M75 250 L104 456 C126 612 215 714 380 714 C474 714 559 673 559 623 C559 595 532 570 501 570 C482 570 476 576 463 586 L459 589 C434 608 407 617 372 617 C270 617 228 555 214 456 L185 250 C171 151 195 89 297 89 C332 89 361 100 392 116 L398 119 C415 127 421 135 440 135 C466 135 485 116 485 93 C485 38 381 -8 279 -8 C114 -8 53 94 75 250 L75 250 Z M400 842 C432 865 469 910 503 910 C525 910 542 899 542 878 C542 862 534 853 521 841 C495 818 419 756 388 756 C357 756 299 818 279 841 C272 850 267 858 267 869 C267 895 290 910 317 910 C351 910 374 865 400 842 L400 842 Z " />
<glyph glyph-name="ccaron" unicode="&#x10d;" horiz-adv-x="418" d="M71 180 L91 323 C106 428 176 510 310 510 C363 510 463 496 455 436 C452 415 435 394 401 394 C393 394 386 395 376 398 C356 408 338 418 305 418 C238 418 207 383 199 323 L179 180 C170 120 191 84 258 84 C291 84 312 94 335 104 C343 107 350 109 360 109 C395 109 406 87 403 66 C394 7 290 -8 236 -8 C103 -8 56 75 71 180 L71 180 Z M327 642 C359 665 396 710 430 710 C452 710 469 699 469 678 C469 662 461 653 448 641 C422 618 346 556 315 556 C284 556 226 618 206 641 C199 650 194 658 194 669 C194 695 217 710 244 710 C278 710 301 665 327 642 L327 642 Z " />
<glyph glyph-name="Dcaron" unicode="&#x10e;" horiz-adv-x="574" d="M571 267 C551 128 460 0 244 0 L131 0 C97 0 72 27 77 60 L159 646 C163 678 196 706 230 706 L343 706 C558 706 615 583 596 447 L571 267 L571 267 Z M461 267 L486 447 C498 534 465 603 346 603 L263 603 L193 102 L276 102 C397 102 448 176 461 267 L461 267 Z M405 842 C437 865 474 910 508 910 C530 910 547 899 547 878 C547 862 539 853 526 841 C500 818 424 756 393 756 C362 756 304 818 284 841 C277 850 272 858 272 869 C272 895 295 910 322 910 C356 910 379 865 405 842 L405 842 Z " />
<glyph glyph-name="dcaron" unicode="&#x10f;" horiz-adv-x="657" d="M295 509 C327 509 358 504 392 490 L418 674 C422 701 444 723 479 723 C513 723 530 701 526 674 L448 121 C445 100 451 89 464 74 C469 68 471 61 471 53 C471 18 440 -1 414 -1 C390 -1 373 13 362 34 C312 9 265 -8 215 -8 C104 -8 55 70 71 185 L88 305 C105 424 160 509 295 509 L295 509 Z M342 131 L380 401 C349 413 315 418 295 418 C234 418 207 382 196 305 L179 185 C170 120 191 85 246 85 C272 85 305 94 341 110 C340 118 341 125 342 131 L342 131 Z M587 504 C592 537 619 552 635 595 C602 600 582 627 587 660 C592 695 626 725 665 725 C701 725 729 697 723 658 C714 594 650 473 612 473 C599 473 580 478 587 504 L587 504 Z " />
<glyph glyph-name="Dcroat" unicode="&#x110;" horiz-adv-x="595" d="M592 267 C572 128 481 0 265 0 L152 0 C118 0 93 27 98 60 L132 304 L108 304 C79 304 59 326 63 353 C66 379 93 402 122 402 L146 402 L180 645 C184 678 217 705 251 705 L364 705 C579 705 636 583 617 447 L592 267 L592 267 Z M415 358 C415 329 388 304 357 304 L242 304 L214 102 L297 102 C418 102 469 176 482 267 L507 447 C519 534 486 603 367 603 L284 603 L256 402 L371 402 C397 402 415 382 415 358 L415 358 Z " />
<glyph glyph-name="dcroat" unicode="&#x111;" horiz-adv-x="540" d="M295 509 C327 509 358 504 392 490 L402 559 L302 559 C278 559 262 578 266 602 C269 625 290 645 314 645 L414 645 L418 674 C422 701 444 723 479 723 C513 723 530 701 526 674 L522 645 L578 645 C600 645 616 625 613 602 C610 579 588 559 566 559 L510 559 L448 121 C445 100 450 88 464 74 C469 66 472 58 471 47 C466 16 438 -1 414 -1 C390 -1 373 13 362 34 C312 9 265 -8 215 -8 C104 -8 55 70 71 185 L88 305 C105 424 160 509 295 509 L295 509 Z M342 131 L380 401 C349 413 315 418 295 418 C234 418 207 382 196 305 L179 185 C170 120 191 85 246 85 C272 85 305 94 341 110 C340 118 341 125 342 131 L342 131 Z " />
<glyph glyph-name="Emacron" unicode="&#x112;" horiz-adv-x="494" d="M474 58 C474 26 444 0 411 0 L146 0 C105 0 70 14 76 59 L159 646 C163 675 193 705 229 705 L500 705 C530 705 552 681 548 652 C544 623 516 602 486 602 L263 602 L235 405 L439 405 C466 405 490 383 486 354 C482 325 454 302 424 302 L220 302 L192 102 L425 102 C452 102 474 82 474 58 L474 58 Z M541 838 C541 811 515 790 488 790 L229 790 C202 790 185 809 188 833 C192 857 215 877 242 877 L501 877 C524 877 541 859 541 838 L541 838 Z " />
<glyph glyph-name="emacron" unicode="&#x113;" horiz-adv-x="460" d="M269 197 C241 197 213 199 181 204 L175 158 C169 113 196 84 259 84 C296 84 324 94 359 109 C362 111 370 114 382 114 C416 114 427 89 424 69 C416 9 296 -8 237 -8 C114 -8 54 66 68 163 L92 340 C106 438 186 513 315 513 C436 513 487 447 472 347 C459 253 396 197 269 197 L269 197 Z M366 350 C373 403 349 424 300 424 C244 424 208 394 201 346 L193 287 C226 283 265 281 280 281 C337 281 360 308 366 350 L366 350 Z M495 638 C495 611 469 590 442 590 L183 590 C156 590 139 609 142 633 C146 657 169 677 196 677 L455 677 C478 677 495 659 495 638 L495 638 Z " />
<glyph glyph-name="Ebreve" unicode="&#x114;" horiz-adv-x="494" d="M474 58 C474 26 444 0 411 0 L146 0 C105 0 70 14 76 59 L159 646 C163 675 193 705 229 705 L500 705 C530 705 552 681 548 652 C544 623 516 602 486 602 L263 602 L235 405 L439 405 C466 405 490 383 486 354 C482 325 454 302 424 302 L220 302 L192 102 L425 102 C452 102 474 82 474 58 L474 58 Z M365 839 C395 839 414 857 432 875 C444 887 455 894 472 894 C493 894 514 883 501 848 C480 793 402 762 353 762 C301 762 235 796 230 848 C227 883 252 894 273 894 C292 894 300 884 307 875 C320 857 334 839 365 839 L365 839 Z " />
<glyph glyph-name="ebreve" unicode="&#x115;" horiz-adv-x="460" d="M269 197 C241 197 213 199 181 204 L175 158 C169 113 196 84 259 84 C296 84 324 94 359 109 C362 111 370 114 382 114 C416 114 427 89 424 69 C416 9 296 -8 237 -8 C114 -8 54 66 68 163 L92 340 C106 438 186 513 315 513 C436 513 487 447 472 347 C459 253 396 197 269 197 L269 197 Z M366 350 C373 403 349 424 300 424 C244 424 208 394 201 346 L193 287 C226 283 265 281 280 281 C337 281 360 308 366 350 L366 350 Z M319 639 C349 639 368 657 386 675 C398 687 409 694 426 694 C447 694 468 683 455 648 C434 593 356 562 307 562 C255 562 189 596 184 648 C181 683 206 694 227 694 C246 694 254 684 261 675 C274 657 288 639 319 639 L319 639 Z " />
<glyph glyph-name="Edotaccent" unicode="&#x116;" horiz-adv-x="494" d="M474 58 C474 26 444 0 411 0 L146 0 C105 0 70 14 76 59 L159 646 C163 675 193 705 229 705 L500 705 C530 705 552 681 548 652 C544 623 516 602 486 602 L263 602 L235 405 L439 405 C466 405 490 383 486 354 C482 325 454 302 424 302 L220 302 L192 102 L425 102 C452 102 474 82 474 58 L474 58 Z M420 833 C420 799 389 771 354 771 C323 771 303 797 307 827 C311 856 339 881 370 881 C399 881 420 860 420 833 L420 833 Z " />
<glyph glyph-name="edotaccent" unicode="&#x117;" horiz-adv-x="460" d="M269 197 C241 197 213 199 181 204 L175 158 C169 113 196 84 259 84 C296 84 324 94 359 109 C362 111 370 114 382 114 C416 114 427 89 424 69 C416 9 296 -8 237 -8 C114 -8 54 66 68 163 L92 340 C106 438 186 513 315 513 C436 513 487 447 472 347 C459 253 396 197 269 197 L269 197 Z M366 350 C373 403 349 424 300 424 C244 424 208 394 201 346 L193 287 C226 283 265 281 280 281 C337 281 360 308 366 350 L366 350 Z M374 633 C374 599 343 571 308 571 C277 571 257 597 261 627 C265 656 293 681 324 681 C353 681 374 660 374 633 L374 633 Z " />
<glyph glyph-name="Eogonek" unicode="&#x118;" horiz-adv-x="494" d="M464 -157 C464 -200 407 -207 371 -207 C310 -207 271 -181 271 -126 C271 -83 296 -40 330 0 L166 0 C118 0 69 6 76 59 L159 646 C163 675 193 705 229 705 L500 705 C518 705 548 680 548 655 C548 626 518 602 486 602 L263 602 L235 405 L439 405 C455 405 486 383 486 357 C486 328 457 302 425 302 L221 302 L192 102 L425 102 C449 102 474 81 474 57 C474 26 444 0 411 0 L386 -37 C373 -56 363 -79 360 -95 C357 -115 366 -130 390 -130 C407 -130 420 -126 432 -126 C450 -126 464 -140 464 -157 L464 -157 Z " />
<glyph glyph-name="eogonek" unicode="&#x119;" horiz-adv-x="460" d="M402 -157 C402 -200 345 -207 309 -207 C248 -207 210 -181 210 -126 C210 -86 230 -45 264 -6 C254 -6 244 -7 237 -7 C102 -7 56 75 71 181 L93 340 C107 438 187 513 316 513 C423 513 476 457 476 373 C476 265 414 197 270 197 C242 197 213 199 182 204 L176 158 C170 114 196 84 259 84 C296 84 325 94 360 109 C363 111 370 114 382 114 C408 114 426 94 426 73 C426 47 401 35 376 20 C311 -20 298 -66 298 -101 C298 -118 307 -130 328 -130 C345 -130 359 -126 371 -126 C389 -126 402 -140 402 -157 L402 -157 Z M368 364 C368 407 344 424 301 424 C245 424 209 394 202 346 L194 287 C227 283 266 281 281 281 C349 281 368 317 368 364 L368 364 Z " />
<glyph glyph-name="Ecaron" unicode="&#x11a;" horiz-adv-x="494" d="M474 58 C474 26 444 0 411 0 L146 0 C105 0 70 14 76 59 L159 646 C163 675 193 705 229 705 L500 705 C530 705 552 681 548 652 C544 623 516 602 486 602 L263 602 L235 405 L439 405 C466 405 490 383 486 354 C482 325 454 302 424 302 L220 302 L192 102 L425 102 C452 102 474 82 474 58 L474 58 Z M392 842 C424 865 461 910 495 910 C517 910 534 899 534 878 C534 862 526 853 513 841 C487 818 411 756 380 756 C349 756 291 818 271 841 C264 850 259 858 259 869 C259 895 282 910 309 910 C343 910 366 865 392 842 L392 842 Z " />
<glyph glyph-name="ecaron" unicode="&#x11b;" horiz-adv-x="460" d="M269 197 C241 197 213 199 181 204 L175 158 C169 113 196 84 259 84 C296 84 324 94 359 109 C362 111 370 114 382 114 C416 114 427 89 424 69 C416 9 296 -8 237 -8 C114 -8 54 66 68 163 L92 340 C106 438 186 513 315 513 C436 513 487 447 472 347 C459 253 396 197 269 197 L269 197 Z M366 350 C373 403 349 424 300 424 C244 424 208 394 201 346 L193 287 C226 283 265 281 280 281 C337 281 360 308 366 350 L366 350 Z M319 642 C351 665 388 710 422 710 C444 710 461 699 461 678 C461 662 453 653 440 641 C414 618 338 556 307 556 C276 556 218 618 198 641 C191 650 186 658 186 669 C186 695 209 710 236 710 C270 710 293 665 319 642 L319 642 Z " />
<glyph glyph-name="Gcircumflex" unicode="&#x11c;" horiz-adv-x="540" d="M214 456 L185 250 C171 151 195 89 297 89 C338 89 370 100 399 118 L425 303 L350 303 C327 303 307 323 307 348 C307 379 336 404 365 404 L479 404 C516 404 546 385 540 346 L508 116 C496 29 375 -8 279 -8 C114 -8 53 94 75 250 L104 456 C126 612 215 714 380 714 C474 714 559 673 559 623 C559 595 532 570 501 570 C482 570 476 576 463 586 L459 589 C435 607 407 617 372 617 C270 617 228 555 214 456 L214 456 Z M386 825 C357 804 315 760 289 760 C271 760 251 773 251 792 C251 810 273 830 290 842 L367 897 C376 903 385 908 398 908 C411 908 420 903 427 897 L488 842 C500 832 514 814 514 799 C514 775 487 760 465 760 C439 760 409 804 386 825 L386 825 Z " />
<glyph glyph-name="gcircumflex" unicode="&#x11d;" horiz-adv-x="529" d="M364 120 L396 347 C402 392 370 418 315 418 C253 418 221 384 213 328 L192 179 C184 120 202 84 262 84 C297 84 333 95 364 120 L364 120 Z M504 347 L449 -37 C435 -142 364 -224 229 -224 C177 -224 78 -208 85 -153 C89 -128 113 -108 141 -108 C147 -108 153 -109 163 -112 C183 -123 202 -132 234 -132 C301 -132 333 -97 342 -37 L350 20 C314 3 277 -7 233 -7 C100 -7 69 73 84 179 L105 328 C120 433 197 513 329 513 C454 513 517 440 504 347 L504 347 Z M343 625 C314 604 272 560 246 560 C228 560 208 573 208 592 C208 610 230 630 247 642 L324 697 C333 703 342 708 355 708 C368 708 377 703 384 697 L445 642 C457 632 471 614 471 599 C471 575 444 560 422 560 C396 560 366 604 343 625 L343 625 Z " />
<glyph glyph-name="Gbreve" unicode="&#x11e;" horiz-adv-x="540" d="M214 456 L185 250 C171 151 195 89 297 89 C338 89 370 100 399 118 L425 303 L350 303 C327 303 307 323 307 348 C307 379 336 404 365 404 L479 404 C516 404 546 385 540 346 L508 116 C496 29 375 -8 279 -8 C114 -8 53 94 75 250 L104 456 C126 612 215 714 380 714 C474 714 559 673 559 623 C559 595 532 570 501 570 C482 570 476 576 463 586 L459 589 C435 607 407 617 372 617 C270 617 228 555 214 456 L214 456 Z M388 839 C418 839 437 857 455 875 C467 887 478 894 495 894 C516 894 537 883 524 848 C503 793 425 762 376 762 C324 762 258 796 253 848 C250 883 275 894 296 894 C315 894 323 884 330 875 C343 857 357 839 388 839 L388 839 Z " />
<glyph glyph-name="gbreve" unicode="&#x11f;" horiz-adv-x="529" d="M364 120 L396 347 C402 392 370 418 315 418 C253 418 221 384 213 328 L192 179 C184 120 202 84 262 84 C297 84 333 95 364 120 L364 120 Z M504 347 L449 -37 C435 -142 364 -224 229 -224 C177 -224 78 -208 85 -153 C89 -128 113 -108 141 -108 C147 -108 153 -109 163 -112 C183 -123 202 -132 234 -132 C301 -132 333 -97 342 -37 L350 20 C314 3 277 -7 233 -7 C100 -7 69 73 84 179 L105 328 C120 433 197 513 329 513 C454 513 517 440 504 347 L504 347 Z M355 639 C385 639 404 657 422 675 C434 687 445 694 462 694 C483 694 504 683 491 648 C470 593 392 562 343 562 C291 562 225 596 220 648 C217 683 242 694 263 694 C282 694 290 684 297 675 C310 657 324 639 355 639 L355 639 Z " />
<glyph glyph-name="Gdotaccent" unicode="&#x120;" horiz-adv-x="540" d="M214 456 L185 250 C171 151 195 89 297 89 C338 89 370 100 399 118 L425 303 L350 303 C327 303 307 323 307 348 C307 379 336 404 365 404 L479 404 C516 404 546 385 540 346 L508 116 C496 29 375 -8 279 -8 C114 -8 53 94 75 250 L104 456 C126 612 215 714 380 714 C474 714 559 673 559 623 C559 595 532 570 501 570 C482 570 476 576 463 586 L459 589 C435 607 407 617 372 617 C270 617 228 555 214 456 L214 456 Z M443 833 C443 799 412 771 377 771 C346 771 326 797 330 827 C334 856 362 881 393 881 C422 881 443 860 443 833 L443 833 Z " />
<glyph glyph-name="gdotaccent" unicode="&#x121;" horiz-adv-x="529" d="M364 120 L396 347 C402 392 370 418 315 418 C253 418 221 384 213 328 L192 179 C184 120 202 84 262 84 C297 84 333 95 364 120 L364 120 Z M504 347 L449 -37 C435 -142 364 -224 229 -224 C177 -224 78 -208 85 -153 C89 -128 113 -108 141 -108 C147 -108 153 -109 163 -112 C183 -123 202 -132 234 -132 C301 -132 333 -97 342 -37 L350 20 C314 3 277 -7 233 -7 C100 -7 69 73 84 179 L105 328 C120 433 197 513 329 513 C454 513 517 440 504 347 L504 347 Z M401 633 C401 599 370 571 335 571 C304 571 284 597 288 627 C292 656 320 681 351 681 C380 681 401 660 401 633 L401 633 Z " />
<glyph glyph-name="uni0122" unicode="&#x122;" horiz-adv-x="540" d="M214 456 L185 250 C171 151 195 89 297 89 C338 89 370 100 399 118 L425 303 L350 303 C327 303 307 323 307 348 C307 379 336 404 365 404 L479 404 C516 404 546 385 540 346 L508 116 C496 29 375 -8 279 -8 C114 -8 53 94 75 250 L104 456 C126 612 215 714 380 714 C474 714 559 673 559 623 C559 595 532 570 501 570 C482 570 476 576 463 586 L459 589 C435 607 407 617 372 617 C270 617 228 555 214 456 L214 456 Z M330 -97 C330 -151 258 -238 224 -238 C215 -238 206 -233 208 -221 C211 -200 238 -187 254 -159 C220 -157 197 -142 202 -105 C207 -74 230 -51 273 -51 C313 -51 330 -72 330 -97 L330 -97 Z " />
<glyph glyph-name="uni0123" unicode="&#x123;" horiz-adv-x="529" d="M278 614 C278 668 351 755 385 755 C393 755 401 751 401 740 C401 717 372 706 355 676 C385 674 407 660 407 630 C407 595 384 568 336 568 C296 568 278 589 278 614 L278 614 Z M364 120 L396 347 C402 392 370 418 315 418 C253 418 221 384 213 328 L192 179 C184 120 202 84 262 84 C297 84 333 95 364 120 L364 120 Z M504 347 L449 -37 C435 -142 364 -224 229 -224 C177 -224 78 -208 85 -153 C89 -128 113 -108 141 -108 C147 -108 153 -109 163 -112 C183 -123 202 -132 234 -132 C301 -132 333 -97 342 -37 L350 20 C314 3 277 -7 233 -7 C100 -7 69 73 84 179 L105 328 C120 433 197 513 329 513 C454 513 517 440 504 347 L504 347 Z " />
<glyph glyph-name="Hcircumflex" unicode="&#x124;" horiz-adv-x="600" d="M537 43 C533 15 504 -10 474 -10 C445 -10 423 15 427 43 L463 301 L220 301 L184 43 C180 15 151 -10 121 -10 C90 -10 70 15 74 43 L161 662 C165 690 192 714 223 714 C253 714 275 690 271 662 L235 404 L478 404 L514 662 C518 690 547 714 576 714 C605 714 628 690 624 662 L537 43 L537 43 Z M416 825 C387 804 345 760 319 760 C301 760 281 773 281 792 C281 810 303 830 320 842 L397 897 C406 903 415 908 428 908 C441 908 450 903 457 897 L518 842 C530 832 544 814 544 799 C544 775 517 760 495 760 C469 760 439 804 416 825 L416 825 Z " />
<glyph glyph-name="hcircumflex" unicode="&#x125;" horiz-adv-x="527" d="M505 343 L472 108 C469 87 469 78 480 64 C485 58 490 52 490 42 C490 12 464 -8 427 -8 C395 -8 350 5 363 102 L398 347 C405 395 384 422 336 422 C301 422 259 408 229 377 L182 43 C178 14 152 -7 122 -7 C91 -7 71 14 75 43 L164 678 C168 704 193 729 224 729 C254 729 275 707 271 678 L243 479 C277 500 317 513 358 513 C475 513 519 443 505 343 L505 343 Z M416 825 C387 804 345 760 319 760 C301 760 281 773 281 792 C281 810 303 830 320 842 L397 897 C406 903 415 908 428 908 C441 908 450 903 457 897 L518 842 C530 832 544 814 544 799 C544 775 517 760 495 760 C469 760 439 804 416 825 L416 825 Z " />
<glyph glyph-name="Itilde" unicode="&#x128;" horiz-adv-x="247" d="M74 42 L161 662 C165 690 192 714 223 714 C253 714 275 690 271 662 L184 42 C180 15 151 -10 121 -10 C90 -10 70 15 74 42 L74 42 Z M391 851 C391 810 334 780 295 779 C247 779 223 812 194 815 C161 817 153 784 126 784 C109 784 92 796 92 814 C92 856 140 890 187 890 C236 890 257 856 288 854 C322 854 328 885 356 886 C375 886 391 871 391 851 L391 851 Z " />
<glyph glyph-name="itilde" unicode="&#x129;" horiz-adv-x="265" d="M372 651 C372 610 315 580 276 579 C228 579 204 612 175 615 C142 617 134 584 107 584 C90 584 73 596 73 614 C73 656 121 690 168 690 C217 690 238 656 269 654 C303 654 309 685 337 686 C356 686 372 671 372 651 L372 651 Z M93 102 L143 460 C147 487 173 510 204 510 C234 510 255 487 251 460 L201 108 C199 87 198 78 209 64 C214 58 219 52 219 42 C219 12 193 -8 156 -8 C124 -8 79 5 93 102 L93 102 Z " />
<glyph glyph-name="Imacron" unicode="&#x12a;" horiz-adv-x="247" d="M74 42 L161 662 C165 690 192 714 223 714 C253 714 275 690 271 662 L184 42 C180 15 151 -10 121 -10 C90 -10 70 15 74 42 L74 42 Z M418 838 C418 811 392 790 365 790 L106 790 C79 790 62 809 65 833 C69 857 92 877 119 877 L378 877 C401 877 418 859 418 838 L418 838 Z " />
<glyph glyph-name="imacron" unicode="&#x12b;" horiz-adv-x="265" d="M399 638 C399 611 373 590 346 590 L87 590 C60 590 43 609 46 633 C50 657 73 677 100 677 L359 677 C382 677 399 659 399 638 L399 638 Z M93 102 L143 460 C147 487 173 510 204 510 C234 510 255 487 251 460 L201 108 C199 87 198 78 209 64 C214 58 219 52 219 42 C219 12 193 -8 156 -8 C124 -8 79 5 93 102 L93 102 Z " />
<glyph glyph-name="Ibreve" unicode="&#x12c;" horiz-adv-x="247" d="M74 42 L161 662 C165 690 192 714 223 714 C253 714 275 690 271 662 L184 42 C180 15 151 -10 121 -10 C90 -10 70 15 74 42 L74 42 Z M242 839 C272 839 291 857 309 875 C321 887 332 894 349 894 C370 894 391 883 378 848 C357 793 279 762 230 762 C178 762 112 796 107 848 C104 883 129 894 150 894 C169 894 177 884 184 875 C197 857 211 839 242 839 L242 839 Z " />
<glyph glyph-name="ibreve" unicode="&#x12d;" horiz-adv-x="265" d="M223 639 C253 639 272 657 290 675 C302 687 313 694 330 694 C351 694 372 683 359 648 C338 593 260 562 211 562 C159 562 93 596 88 648 C85 683 110 694 131 694 C150 694 158 684 165 675 C178 657 192 639 223 639 L223 639 Z M93 102 L143 460 C147 487 173 510 204 510 C234 510 255 487 251 460 L201 108 C199 87 198 78 209 64 C214 58 219 52 219 42 C219 12 193 -8 156 -8 C124 -8 79 5 93 102 L93 102 Z " />
<glyph glyph-name="Iogonek" unicode="&#x12e;" horiz-adv-x="247" d="M211 -157 C211 -200 155 -207 118 -207 C57 -207 18 -181 18 -126 C18 -82 45 -36 85 5 C76 15 72 28 74 42 L161 662 C165 690 192 714 223 714 C253 714 275 690 271 662 L187 67 C183 36 166 15 147 -12 C124 -39 106 -76 106 -101 C106 -118 115 -130 137 -130 C155 -130 167 -126 179 -126 C198 -126 211 -140 211 -157 L211 -157 Z " />
<glyph glyph-name="iogonek" unicode="&#x12f;" horiz-adv-x="265" d="M217 -157 C217 -200 161 -207 124 -207 C63 -207 24 -181 24 -126 C24 -81 53 -34 94 7 C85 16 82 29 84 43 L140 442 C145 478 164 510 204 510 C234 510 255 487 251 460 L197 80 C191 42 180 19 154 -12 C130 -40 112 -74 112 -101 C112 -118 121 -130 143 -130 C161 -130 173 -126 185 -126 C204 -126 217 -140 217 -157 L217 -157 Z M288 662 C288 626 254 597 216 597 C183 597 161 621 161 650 C161 685 193 715 232 715 C265 715 288 691 288 662 L288 662 Z " />
<glyph glyph-name="Idotaccent" unicode="&#x130;" horiz-adv-x="247" d="M74 42 L161 662 C165 690 192 714 223 714 C253 714 275 690 271 662 L184 42 C180 15 151 -10 121 -10 C90 -10 70 15 74 42 L74 42 Z M297 833 C297 799 266 771 231 771 C200 771 180 797 184 827 C188 856 216 881 247 881 C276 881 297 860 297 833 L297 833 Z " />
<glyph glyph-name="dotlessi" unicode="&#x131;" horiz-adv-x="265" d="M93 102 L143 460 C147 487 173 510 204 510 C234 510 255 487 251 460 L201 108 C199 87 198 78 209 64 C214 58 219 52 219 42 C219 12 193 -8 156 -8 C124 -8 79 5 93 102 L93 102 Z " />
<glyph glyph-name="Jcircumflex" unicode="&#x134;" horiz-adv-x="405" d="M430 662 L369 230 C348 81 284 -10 118 -10 C85 -10 19 -6 26 47 C31 80 62 98 84 98 C101 98 116 92 144 92 C223 92 247 145 259 230 L320 662 C324 691 350 714 382 714 C411 714 434 690 430 662 L430 662 Z M397 825 C368 804 326 760 300 760 C282 760 262 773 262 792 C262 810 284 830 301 842 L378 897 C387 903 396 908 409 908 C422 908 431 903 438 897 L499 842 C511 832 525 814 525 799 C525 775 498 760 476 760 C450 760 420 804 397 825 L397 825 Z " />
<glyph glyph-name="jcircumflex" unicode="&#x135;" horiz-adv-x="265" d="M251 467 L186 0 C170 -113 94 -195 -17 -195 C-40 -195 -57 -181 -59 -159 L-59 -150 C-59 -120 -29 -105 -9 -101 C37 -91 68 -66 77 -4 L143 467 C147 495 174 518 205 518 C235 518 255 495 251 467 L251 467 Z M220 625 C191 604 149 560 123 560 C105 560 85 573 85 592 C85 610 107 630 124 642 L201 697 C210 703 219 708 232 708 C245 708 254 703 261 697 L322 642 C334 632 348 614 348 599 C348 575 321 560 299 560 C273 560 243 604 220 625 L220 625 Z " />
<glyph glyph-name="uni0136" unicode="&#x136;" horiz-adv-x="527" d="M419 14 L255 302 L215 261 L184 43 C180 15 152 -9 122 -9 C91 -9 70 15 74 43 L161 662 C165 690 192 714 223 714 C253 714 275 690 271 662 L237 422 L500 690 C512 702 531 714 550 714 C570 714 596 696 596 668 C596 658 594 645 577 628 L336 384 C396 280 457 176 518 72 C522 65 523 58 523 52 C523 25 501 -9 462 -9 C443 -9 428 -2 419 14 L419 14 Z M346 -97 C346 -151 274 -238 240 -238 C231 -238 222 -233 224 -221 C227 -200 254 -187 270 -159 C236 -157 213 -142 218 -105 C223 -74 246 -51 289 -51 C329 -51 346 -72 346 -97 L346 -97 Z " />
<glyph glyph-name="uni0137" unicode="&#x137;" horiz-adv-x="463" d="M272 673 L223 328 L389 481 C404 495 422 509 444 509 C470 509 489 491 489 467 C489 452 482 439 470 428 L315 288 C358 214 400 140 442 66 C447 58 449 45 447 36 C442 9 417 -7 389 -7 C358 -7 354 4 337 35 L232 225 C223 218 214 209 205 202 L186 65 C181 28 164 -7 122 -7 C91 -7 71 14 75 43 L160 648 C165 687 180 723 225 723 C255 723 276 701 272 673 L272 673 Z M309 -97 C309 -151 237 -238 203 -238 C194 -238 185 -233 187 -221 C190 -200 217 -187 233 -159 C199 -157 176 -142 181 -105 C186 -74 209 -51 252 -51 C292 -51 309 -72 309 -97 L309 -97 Z " />
<glyph glyph-name="Lacute" unicode="&#x139;" horiz-adv-x="475" d="M471 56 C471 25 442 0 410 0 L128 0 C96 0 71 25 76 57 L161 662 C165 690 193 714 224 714 C254 714 276 690 272 662 L193 101 L425 101 C450 101 471 82 471 56 L471 56 Z M310 907 L322 917 C334 927 340 932 357 932 C374 932 392 917 392 896 C392 884 386 874 374 863 L288 785 C274 772 264 765 247 765 C226 765 210 780 210 802 C210 829 277 877 310 907 L310 907 Z " />
<glyph glyph-name="lacute" unicode="&#x13a;" horiz-adv-x="248" d="M147 -8 C115 -8 70 5 84 102 L164 673 C168 700 194 723 225 723 C255 723 276 701 272 673 L192 108 C190 87 189 78 200 64 C205 58 210 52 210 42 C210 12 184 -8 147 -8 L147 -8 Z M290 903 L302 913 C314 923 320 928 337 928 C354 928 372 913 372 892 C372 880 366 870 354 859 L268 781 C254 768 244 761 227 761 C206 761 190 776 190 798 C190 825 257 873 290 903 L290 903 Z " />
<glyph glyph-name="uni013B" unicode="&#x13b;" horiz-adv-x="475" d="M471 56 C471 25 442 0 410 0 L128 0 C96 0 71 25 76 57 L161 662 C165 690 193 714 224 714 C254 714 276 690 272 662 L193 101 L425 101 C450 101 471 82 471 56 L471 56 Z M310 -97 C310 -151 238 -238 204 -238 C195 -238 186 -233 188 -221 C191 -200 218 -187 234 -159 C200 -157 177 -142 182 -105 C187 -74 210 -51 253 -51 C293 -51 310 -72 310 -97 L310 -97 Z " />
<glyph glyph-name="uni013C" unicode="&#x13c;" horiz-adv-x="248" d="M147 -8 C115 -8 70 5 84 102 L164 673 C168 700 194 723 225 723 C255 723 276 701 272 673 L192 108 C190 87 189 78 200 64 C205 58 210 52 210 42 C210 12 184 -8 147 -8 L147 -8 Z M174 -97 C174 -151 102 -238 68 -238 C59 -238 50 -233 52 -221 C55 -200 82 -187 98 -159 C64 -157 41 -142 46 -105 C51 -74 74 -51 117 -51 C157 -51 174 -72 174 -97 L174 -97 Z " />
<glyph glyph-name="Lcaron" unicode="&#x13d;" horiz-adv-x="475" d="M471 56 C471 25 442 0 410 0 L128 0 C96 0 71 25 76 57 L161 662 C165 690 193 714 224 714 C254 714 276 690 272 662 L193 101 L425 101 C450 101 471 82 471 56 L471 56 Z M383 504 C388 537 415 552 431 595 C398 600 378 627 383 660 C388 695 422 725 461 725 C497 725 525 697 519 658 C510 594 446 473 408 473 C395 473 376 478 383 504 L383 504 Z " />
<glyph glyph-name="lcaron" unicode="&#x13e;" horiz-adv-x="407" d="M147 -8 C115 -8 70 5 84 102 L164 673 C168 700 194 723 225 723 C255 723 276 701 272 673 L192 108 C190 87 189 78 200 64 C205 58 210 52 210 42 C210 12 184 -8 147 -8 L147 -8 Z M340 504 C345 537 372 552 388 595 C355 600 335 627 340 660 C345 695 379 725 418 725 C454 725 482 697 476 658 C467 594 403 473 365 473 C352 473 333 478 340 504 L340 504 Z " />
<glyph glyph-name="Lslash" unicode="&#x141;" horiz-adv-x="519" d="M507 56 C507 25 478 0 446 0 L164 0 C132 0 108 25 112 57 L143 274 L118 259 C109 253 99 247 90 247 C67 247 47 260 51 288 C53 300 61 314 74 321 L156 370 L197 662 C201 690 229 714 260 714 C290 714 311 690 307 662 L276 442 L340 481 C351 487 360 492 374 492 C389 492 403 481 406 464 C406 460 407 456 406 451 C404 439 396 427 384 419 L263 346 L229 101 L461 101 C486 101 507 82 507 56 L507 56 Z " />
<glyph glyph-name="lslash" unicode="&#x142;" horiz-adv-x="357" d="M406 464 C406 460 407 456 406 451 C404 439 396 427 384 419 L273 352 L239 108 C236 87 235 78 246 64 C252 57 258 51 256 37 C252 9 227 -8 193 -8 C161 -8 116 5 130 102 L155 281 L118 259 C109 253 99 247 90 247 C67 247 47 260 51 288 C53 300 61 314 74 321 L168 377 L210 673 C214 700 240 723 271 723 C301 723 322 701 318 673 L286 448 L340 481 C351 487 360 492 374 492 C389 492 403 481 406 464 L406 464 Z " />
<glyph glyph-name="Nacute" unicode="&#x143;" horiz-adv-x="620" d="M490 -10 C469 -10 448 2 441 19 L246 488 L184 43 C180 15 150 -10 120 -10 C89 -10 70 15 74 43 L160 658 C165 690 192 714 226 714 C248 714 269 702 277 684 C310 607 436 295 471 215 L534 661 C538 690 567 714 597 714 C627 714 648 690 644 661 L557 46 C553 16 525 -10 490 -10 L490 -10 Z M478 907 L490 917 C502 927 508 932 525 932 C542 932 560 917 560 896 C560 884 554 874 542 863 L456 785 C442 772 432 765 415 765 C394 765 378 780 378 802 C378 829 445 877 478 907 L478 907 Z " />
<glyph glyph-name="nacute" unicode="&#x144;" horiz-adv-x="529" d="M503 319 L473 108 C470 87 470 78 481 64 C486 58 491 52 491 42 C491 12 465 -8 428 -8 C396 -8 351 5 364 102 L395 319 C404 382 380 419 330 419 C300 419 267 408 231 388 C232 379 232 371 231 364 L186 43 C182 15 161 -7 125 -7 C89 -7 74 15 78 43 L123 364 C129 408 123 410 118 420 C113 430 110 436 110 445 C110 473 136 496 169 496 C188 496 202 485 212 467 C261 498 312 511 356 511 C472 511 519 434 503 319 L503 319 Z M364 707 L376 717 C388 727 394 732 411 732 C428 732 446 717 446 696 C446 684 440 674 428 663 L342 585 C328 572 318 565 301 565 C280 565 264 580 264 602 C264 629 331 677 364 707 L364 707 Z " />
<glyph glyph-name="uni0145" unicode="&#x145;" horiz-adv-x="620" d="M490 -10 C469 -10 448 2 441 19 L246 488 L184 43 C180 15 150 -10 120 -10 C89 -10 70 15 74 43 L160 658 C165 690 192 714 226 714 C248 714 269 702 277 684 C310 607 436 295 471 215 L534 661 C538 690 567 714 597 714 C627 714 648 690 644 661 L557 46 C553 16 525 -10 490 -10 L490 -10 Z M360 -97 C360 -151 288 -238 254 -238 C245 -238 236 -233 238 -221 C241 -200 268 -187 284 -159 C250 -157 227 -142 232 -105 C237 -74 260 -51 303 -51 C343 -51 360 -72 360 -97 L360 -97 Z " />
<glyph glyph-name="uni0146" unicode="&#x146;" horiz-adv-x="529" d="M503 319 L473 108 C470 87 470 78 481 64 C486 58 491 52 491 42 C491 12 465 -8 428 -8 C396 -8 351 5 364 102 L395 319 C404 382 380 419 330 419 C300 419 267 408 231 388 C232 379 232 371 231 364 L186 43 C182 15 161 -7 125 -7 C89 -7 74 15 78 43 L123 364 C129 408 123 410 118 420 C113 430 110 436 110 445 C110 473 136 496 169 496 C188 496 202 485 212 467 C261 498 312 511 356 511 C472 511 519 434 503 319 L503 319 Z M314 -97 C314 -151 242 -238 208 -238 C199 -238 190 -233 192 -221 C195 -200 222 -187 238 -159 C204 -157 181 -142 186 -105 C191 -74 214 -51 257 -51 C297 -51 314 -72 314 -97 L314 -97 Z " />
<glyph glyph-name="Ncaron" unicode="&#x147;" horiz-adv-x="620" d="M490 -10 C469 -10 448 2 441 19 L246 488 L184 43 C180 15 150 -10 120 -10 C89 -10 70 15 74 43 L160 658 C165 690 192 714 226 714 C248 714 269 702 277 684 C310 607 436 295 471 215 L534 661 C538 690 567 714 597 714 C627 714 648 690 644 661 L557 46 C553 16 525 -10 490 -10 L490 -10 Z M428 842 C460 865 497 910 531 910 C553 910 570 899 570 878 C570 862 562 853 549 841 C523 818 447 756 416 756 C385 756 327 818 307 841 C300 850 295 858 295 869 C295 895 318 910 345 910 C379 910 402 865 428 842 L428 842 Z " />
<glyph glyph-name="ncaron" unicode="&#x148;" horiz-adv-x="529" d="M503 319 L473 108 C470 87 470 78 481 64 C486 58 491 52 491 42 C491 12 465 -8 428 -8 C396 -8 351 5 364 102 L395 319 C404 382 380 419 330 419 C300 419 267 408 231 388 C232 379 232 371 231 364 L186 43 C182 15 161 -7 125 -7 C89 -7 74 15 78 43 L123 364 C129 408 123 410 118 420 C113 430 110 436 110 445 C110 473 136 496 169 496 C188 496 202 485 212 467 C261 498 312 511 356 511 C472 511 519 434 503 319 L503 319 Z M354 642 C386 665 423 710 457 710 C479 710 496 699 496 678 C496 662 488 653 475 641 C449 618 373 556 342 556 C311 556 253 618 233 641 C226 650 221 658 221 669 C221 695 244 710 271 710 C305 710 328 665 354 642 L354 642 Z " />
<glyph glyph-name="Omacron" unicode="&#x14c;" horiz-adv-x="580" d="M289 -10 C126 -10 60 106 80 250 L109 456 C129 596 214 714 390 714 C566 714 619 596 599 456 L570 250 C550 106 452 -10 289 -10 L289 -10 Z M376 612 C277 612 232 549 219 456 L190 250 C177 157 210 93 303 93 C395 93 447 157 460 250 L489 456 C502 549 475 612 376 612 L376 612 Z M584 838 C584 811 558 790 531 790 L272 790 C245 790 228 809 231 833 C235 857 258 877 285 877 L544 877 C567 877 584 859 584 838 L584 838 Z " />
<glyph glyph-name="omacron" unicode="&#x14d;" horiz-adv-x="494" d="M246 -8 C114 -8 55 72 69 174 L91 332 C106 435 187 514 319 514 C451 514 511 435 496 332 L473 174 C459 72 378 -8 246 -8 L246 -8 Z M259 87 C321 87 357 120 365 174 L388 333 C395 386 368 419 306 419 C244 419 207 386 200 333 L177 174 C170 120 197 87 259 87 L259 87 Z M513 638 C513 611 487 590 460 590 L201 590 C174 590 157 609 160 633 C164 657 187 677 214 677 L473 677 C496 677 513 659 513 638 L513 638 Z " />
<glyph glyph-name="Obreve" unicode="&#x14e;" horiz-adv-x="580" d="M289 -10 C126 -10 60 106 80 250 L109 456 C129 596 214 714 390 714 C566 714 619 596 599 456 L570 250 C550 106 452 -10 289 -10 L289 -10 Z M376 612 C277 612 232 549 219 456 L190 250 C177 157 210 93 303 93 C395 93 447 157 460 250 L489 456 C502 549 475 612 376 612 L376 612 Z M408 839 C438 839 457 857 475 875 C487 887 498 894 515 894 C536 894 557 883 544 848 C523 793 445 762 396 762 C344 762 278 796 273 848 C270 883 295 894 316 894 C335 894 343 884 350 875 C363 857 377 839 408 839 L408 839 Z " />
<glyph glyph-name="obreve" unicode="&#x14f;" horiz-adv-x="494" d="M246 -8 C114 -8 55 72 69 174 L91 332 C106 435 187 514 319 514 C451 514 511 435 496 332 L473 174 C459 72 378 -8 246 -8 L246 -8 Z M259 87 C321 87 357 120 365 174 L388 333 C395 386 368 419 306 419 C244 419 207 386 200 333 L177 174 C170 120 197 87 259 87 L259 87 Z M337 639 C367 639 386 657 404 675 C416 687 427 694 444 694 C465 694 486 683 473 648 C452 593 374 562 325 562 C273 562 207 596 202 648 C199 683 224 694 245 694 C264 694 272 684 279 675 C292 657 306 639 337 639 L337 639 Z " />
<glyph glyph-name="Ohungarumlaut" unicode="&#x150;" horiz-adv-x="580" d="M289 -10 C126 -10 60 106 80 250 L109 456 C129 596 214 714 390 714 C566 714 619 596 599 456 L570 250 C550 106 452 -10 289 -10 L289 -10 Z M376 612 C277 612 232 549 219 456 L190 250 C177 157 210 93 303 93 C395 93 447 157 460 250 L489 456 C502 549 475 612 376 612 L376 612 Z M286 815 L362 907 C376 922 387 939 411 939 C430 939 447 920 447 900 C447 890 443 884 435 875 L363 785 C349 768 337 758 317 758 C296 758 280 776 280 796 C280 806 282 810 286 815 L286 815 Z M439 815 L515 907 C527 922 540 939 563 939 C582 939 601 919 601 900 C601 893 598 888 593 882 L515 785 C502 769 491 758 470 758 C449 758 432 776 432 796 C432 805 435 810 439 815 L439 815 Z " />
<glyph glyph-name="ohungarumlaut" unicode="&#x151;" horiz-adv-x="494" d="M246 -8 C114 -8 55 72 69 174 L91 332 C106 435 187 514 319 514 C451 514 511 435 496 332 L473 174 C459 72 378 -8 246 -8 L246 -8 Z M259 87 C321 87 357 120 365 174 L388 333 C395 386 368 419 306 419 C244 419 207 386 200 333 L177 174 C170 120 197 87 259 87 L259 87 Z M217 615 L293 707 C307 722 318 739 342 739 C361 739 378 720 378 700 C378 690 374 684 366 675 L294 585 C280 568 268 558 248 558 C227 558 211 576 211 596 C211 606 213 610 217 615 L217 615 Z M370 615 L446 707 C458 722 471 739 494 739 C513 739 532 719 532 700 C532 693 529 688 524 682 L446 585 C433 569 422 558 401 558 C380 558 363 576 363 596 C363 605 366 610 370 615 L370 615 Z " />
<glyph glyph-name="OE" unicode="&#x152;" horiz-adv-x="756" d="M746 58 C746 26 716 0 683 0 L448 0 C416 0 389 8 384 34 C348 7 305 -10 254 -10 C105 -10 44 98 63 231 L97 475 C115 606 194 714 356 714 C409 714 448 699 476 674 C487 690 507 705 531 705 L772 705 C802 705 824 681 820 652 C816 624 788 602 758 602 L565 602 L537 405 L711 405 C738 405 762 383 758 354 C754 325 727 302 697 302 L523 302 L495 102 L698 102 C724 102 746 82 746 58 L746 58 Z M341 612 C256 612 219 557 207 475 L173 231 C161 150 189 93 268 93 C346 93 392 150 403 231 L437 475 C449 557 426 612 341 612 L341 612 Z " />
<glyph glyph-name="oe" unicode="&#x153;" horiz-adv-x="731" d="M227 -7 C101 -7 40 73 54 174 L76 332 C90 434 174 514 300 514 C371 514 417 487 441 445 C475 487 529 513 600 513 C702 513 756 457 756 371 C756 263 695 192 548 192 C524 192 493 194 462 199 L456 158 C450 113 478 84 540 84 C579 84 605 95 641 109 L640 109 C643 111 652 114 662 114 C688 114 706 94 706 72 C706 11 577 -7 521 -7 C452 -7 407 19 385 60 C350 18 297 -7 227 -7 L227 -7 Z M244 87 C306 87 342 120 350 174 L373 333 C380 386 353 419 291 419 C229 419 192 386 184 333 L162 174 C154 120 182 87 244 87 L244 87 Z M648 360 C648 401 623 419 581 419 C525 419 488 391 482 346 L474 287 C508 283 546 281 563 281 C626 281 648 313 648 360 L648 360 Z " />
<glyph glyph-name="Racute" unicode="&#x154;" horiz-adv-x="595" d="M609 528 C609 410 538 334 432 308 C470 229 509 152 547 73 C550 69 552 57 552 51 C552 18 516 -8 487 -8 C467 -8 451 0 444 16 L310 298 L220 298 L184 44 C180 16 151 -9 121 -9 C92 -9 70 15 74 44 L159 645 C163 677 195 705 228 705 L402 705 C557 705 609 618 609 528 L609 528 Z M497 515 C497 559 473 602 383 602 L262 602 L234 399 L361 399 C448 399 497 441 497 515 L497 515 Z M425 907 L437 917 C449 927 455 932 472 932 C489 932 507 917 507 896 C507 884 501 874 489 863 L403 785 C389 772 379 765 362 765 C341 765 325 780 325 802 C325 829 392 877 425 907 L425 907 Z " />
<glyph glyph-name="racute" unicode="&#x155;" horiz-adv-x="357" d="M347 409 C305 410 278 411 232 386 C232 377 232 370 231 363 L186 43 C182 14 155 -8 125 -8 C94 -8 74 14 78 43 L123 363 C127 391 125 406 117 421 C112 429 109 436 111 448 C115 476 142 495 170 495 C188 495 202 483 212 466 C260 493 314 509 349 509 C400 509 413 488 409 460 C404 428 376 407 347 409 L347 409 Z M338 707 L350 717 C362 727 368 732 385 732 C402 732 420 717 420 696 C420 684 414 674 402 663 L316 585 C302 572 292 565 275 565 C254 565 238 580 238 602 C238 629 305 677 338 707 L338 707 Z " />
<glyph glyph-name="uni0156" unicode="&#x156;" horiz-adv-x="595" d="M609 528 C609 410 538 334 432 308 C470 229 509 152 547 73 C550 69 552 57 552 51 C552 18 516 -8 487 -8 C467 -8 451 0 444 16 L310 298 L220 298 L184 44 C180 16 151 -9 121 -9 C92 -9 70 15 74 44 L159 645 C163 677 195 705 228 705 L402 705 C557 705 609 618 609 528 L609 528 Z M497 515 C497 559 473 602 383 602 L262 602 L234 399 L361 399 C448 399 497 441 497 515 L497 515 Z M347 -97 C347 -151 275 -238 241 -238 C232 -238 223 -233 225 -221 C228 -200 255 -187 271 -159 C237 -157 214 -142 219 -105 C224 -74 247 -51 290 -51 C330 -51 347 -72 347 -97 L347 -97 Z " />
<glyph glyph-name="uni0157" unicode="&#x157;" horiz-adv-x="357" d="M347 409 C305 410 278 411 232 386 C232 377 232 370 231 363 L186 43 C182 14 155 -8 125 -8 C94 -8 74 14 78 43 L123 363 C127 391 125 406 117 421 C112 429 109 436 111 448 C115 476 142 495 170 495 C188 495 202 483 212 466 C260 493 314 509 349 509 C400 509 413 488 409 460 C404 428 376 407 347 409 L347 409 Z M175 -97 C175 -151 103 -238 69 -238 C60 -238 51 -233 53 -221 C56 -200 83 -187 99 -159 C65 -157 42 -142 47 -105 C52 -74 75 -51 118 -51 C158 -51 175 -72 175 -97 L175 -97 Z " />
<glyph glyph-name="Rcaron" unicode="&#x158;" horiz-adv-x="595" d="M609 528 C609 410 538 334 432 308 C470 229 509 152 547 73 C550 69 552 57 552 51 C552 18 516 -8 487 -8 C467 -8 451 0 444 16 L310 298 L220 298 L184 44 C180 16 151 -9 121 -9 C92 -9 70 15 74 44 L159 645 C163 677 195 705 228 705 L402 705 C557 705 609 618 609 528 L609 528 Z M497 515 C497 559 473 602 383 602 L262 602 L234 399 L361 399 C448 399 497 441 497 515 L497 515 Z M406 842 C438 865 475 910 509 910 C531 910 548 899 548 878 C548 862 540 853 527 841 C501 818 425 756 394 756 C363 756 305 818 285 841 C278 850 273 858 273 869 C273 895 296 910 323 910 C357 910 380 865 406 842 L406 842 Z " />
<glyph glyph-name="rcaron" unicode="&#x159;" horiz-adv-x="357" d="M347 409 C305 410 278 411 232 386 C232 377 232 370 231 363 L186 43 C182 14 155 -8 125 -8 C94 -8 74 14 78 43 L123 363 C127 391 125 406 117 421 C112 429 109 436 111 448 C115 476 142 495 170 495 C188 495 202 483 212 466 C260 493 314 509 349 509 C400 509 413 488 409 460 C404 428 376 407 347 409 L347 409 Z M269 642 C301 665 338 710 372 710 C394 710 411 699 411 678 C411 662 403 653 390 641 C364 618 288 556 257 556 C226 556 168 618 148 641 C141 650 136 658 136 669 C136 695 159 710 186 710 C220 710 243 665 269 642 L269 642 Z " />
<glyph glyph-name="Sacute" unicode="&#x15a;" horiz-adv-x="506" d="M384 212 C384 255 362 273 345 282 C259 327 106 333 106 485 C106 624 206 714 354 714 C406 714 530 702 530 640 C530 612 504 585 467 585 C432 585 412 612 346 612 C283 612 221 587 221 503 C221 460 245 443 261 434 C348 386 500 382 500 232 C500 80 381 -9 234 -9 C167 -9 46 12 46 70 C46 98 74 126 105 126 C135 126 169 93 249 93 C338 93 384 139 384 212 L384 212 Z M421 907 L433 917 C445 927 451 932 468 932 C485 932 503 917 503 896 C503 884 497 874 485 863 L399 785 C385 772 375 765 358 765 C337 765 321 780 321 802 C321 829 388 877 421 907 L421 907 Z " />
<glyph glyph-name="sacute" unicode="&#x15b;" horiz-adv-x="426" d="M97 343 C97 442 167 513 297 513 C353 513 431 499 431 446 C431 416 410 399 381 399 C349 399 337 421 284 421 C257 421 206 415 206 367 C206 282 409 315 409 165 C409 61 336 -7 204 -7 C149 -7 50 5 50 55 C50 71 67 119 113 107 C130 103 171 84 213 84 C261 84 301 109 301 148 C301 230 97 194 97 343 L97 343 Z M349 707 L361 717 C373 727 379 732 396 732 C413 732 431 717 431 696 C431 684 425 674 413 663 L327 585 C313 572 303 565 286 565 C265 565 249 580 249 602 C249 629 316 677 349 707 L349 707 Z " />
<glyph glyph-name="Scircumflex" unicode="&#x15c;" horiz-adv-x="506" d="M384 212 C384 255 362 273 345 282 C259 327 106 333 106 485 C106 624 206 714 354 714 C406 714 530 702 530 640 C530 612 504 585 467 585 C432 585 412 612 346 612 C283 612 221 587 221 503 C221 460 245 443 261 434 C348 386 500 382 500 232 C500 80 381 -9 234 -9 C167 -9 46 12 46 70 C46 98 74 126 105 126 C135 126 169 93 249 93 C338 93 384 139 384 212 L384 212 Z M369 825 C340 804 298 760 272 760 C254 760 234 773 234 792 C234 810 256 830 273 842 L350 897 C359 903 368 908 381 908 C394 908 403 903 410 897 L471 842 C483 832 497 814 497 799 C497 775 470 760 448 760 C422 760 392 804 369 825 L369 825 Z " />
<glyph glyph-name="scircumflex" unicode="&#x15d;" horiz-adv-x="426" d="M97 343 C97 442 167 513 297 513 C353 513 431 499 431 446 C431 416 410 399 381 399 C349 399 337 421 284 421 C257 421 206 415 206 367 C206 282 409 315 409 165 C409 61 336 -7 204 -7 C149 -7 50 5 50 55 C50 71 67 119 113 107 C130 103 171 84 213 84 C261 84 301 109 301 148 C301 230 97 194 97 343 L97 343 Z M299 625 C270 604 228 560 202 560 C184 560 164 573 164 592 C164 610 186 630 203 642 L280 697 C289 703 298 708 311 708 C324 708 333 703 340 697 L401 642 C413 632 427 614 427 599 C427 575 400 560 378 560 C352 560 322 604 299 625 L299 625 Z " />
<glyph glyph-name="Scedilla" unicode="&#x15e;" horiz-adv-x="506" d="M352 -110 C352 -166 304 -214 228 -214 C188 -214 132 -199 132 -170 C132 -150 146 -144 163 -144 C176 -144 203 -150 229 -150 C262 -150 279 -132 279 -115 C279 -77 187 -100 187 -59 C187 -53 189 -49 190 -46 L201 -7 C133 -2 46 21 46 70 C46 98 74 126 105 126 C135 126 171 93 249 93 C338 93 384 139 384 213 C384 256 363 272 346 282 C255 324 106 335 106 485 C106 624 206 714 354 714 C406 714 530 702 530 640 C530 618 503 585 467 585 C432 585 412 612 346 612 C283 612 221 587 221 503 C221 460 245 443 261 434 C352 384 500 382 500 232 C500 92 398 4 266 -7 C262 -17 260 -26 258 -36 C326 -40 352 -69 352 -110 L352 -110 Z " />
<glyph glyph-name="scedilla" unicode="&#x15f;" horiz-adv-x="426" d="M97 343 C97 442 167 513 297 513 C353 513 431 499 431 446 C431 416 410 399 381 399 C349 399 337 421 284 421 C257 421 206 415 206 367 C206 282 409 315 409 165 C409 68 345 2 226 -6 C224 -16 221 -26 218 -36 C286 -40 312 -69 312 -110 C312 -166 265 -214 189 -214 C149 -214 93 -203 93 -170 C93 -150 106 -144 124 -144 C138 -144 165 -150 190 -150 C222 -150 240 -132 240 -115 C240 -78 148 -97 148 -56 C148 -44 158 -21 162 -4 C110 1 50 15 50 54 C50 71 67 119 113 107 C130 103 171 84 213 84 C261 84 301 109 301 148 C301 230 97 194 97 343 L97 343 Z " />
<glyph glyph-name="Scaron" unicode="&#x160;" horiz-adv-x="506" d="M384 212 C384 255 362 273 345 282 C259 327 106 333 106 485 C106 624 206 714 354 714 C406 714 530 702 530 640 C530 612 504 585 467 585 C432 585 412 612 346 612 C283 612 221 587 221 503 C221 460 245 443 261 434 C348 386 500 382 500 232 C500 80 381 -9 234 -9 C167 -9 46 12 46 70 C46 98 74 126 105 126 C135 126 169 93 249 93 C338 93 384 139 384 212 L384 212 Z M371 842 C403 865 440 910 474 910 C496 910 513 899 513 878 C513 862 505 853 492 841 C466 818 390 756 359 756 C328 756 270 818 250 841 C243 850 238 858 238 869 C238 895 261 910 288 910 C322 910 345 865 371 842 L371 842 Z " />
<glyph glyph-name="scaron" unicode="&#x161;" horiz-adv-x="426" d="M97 343 C97 442 167 513 297 513 C353 513 431 499 431 446 C431 416 410 399 381 399 C349 399 337 421 284 421 C257 421 206 415 206 367 C206 282 409 315 409 165 C409 61 336 -7 204 -7 C149 -7 50 5 50 55 C50 71 67 119 113 107 C130 103 171 84 213 84 C261 84 301 109 301 148 C301 230 97 194 97 343 L97 343 Z M310 642 C342 665 379 710 413 710 C435 710 452 699 452 678 C452 662 444 653 431 641 C405 618 329 556 298 556 C267 556 209 618 189 641 C182 650 177 658 177 669 C177 695 200 710 227 710 C261 710 284 665 310 642 L310 642 Z " />
<glyph glyph-name="uni0162" unicode="&#x162;" horiz-adv-x="503" d="M371 -110 C371 -166 323 -214 247 -214 C202 -214 152 -195 152 -169 C152 -150 166 -144 182 -144 C195 -144 222 -150 248 -150 C282 -150 298 -132 298 -115 C298 -77 206 -100 206 -59 C206 -53 208 -49 209 -46 L222 -2 C207 6 198 23 201 42 L280 602 L159 602 C137 602 111 626 111 649 C111 673 141 705 174 705 L526 705 C544 705 575 682 575 656 C575 633 542 602 511 602 L390 602 L311 42 C309 29 301 16 290 8 L277 -36 C346 -40 371 -69 371 -110 L371 -110 Z " />
<glyph glyph-name="uni0163" unicode="&#x163;" horiz-adv-x="341" d="M263 608 L246 484 L334 484 C359 484 379 465 379 440 C379 411 351 387 321 387 L232 387 L204 189 C196 118 204 92 258 92 C265 92 272 93 276 93 C315 93 338 83 338 55 C338 4 295 -4 255 -4 C243 -4 230 -3 218 -1 C213 -14 211 -26 209 -36 C277 -40 303 -69 303 -110 C303 -169 254 -214 175 -214 C136 -214 84 -201 84 -170 C84 -150 97 -144 115 -144 C129 -144 156 -150 181 -150 C213 -150 231 -132 231 -115 C231 -101 220 -93 193 -88 C157 -81 139 -83 139 -58 C139 -40 150 -11 159 11 C94 39 84 105 98 205 L155 608 C159 636 181 658 216 658 C250 658 267 635 263 608 L263 608 Z " />
<glyph glyph-name="Tcaron" unicode="&#x164;" horiz-adv-x="503" d="M202 42 L281 602 L160 602 C128 602 108 626 112 653 C115 676 143 705 174 705 L526 705 C554 705 579 682 575 653 C571 626 542 602 512 602 L391 602 L312 42 C308 15 280 -10 250 -10 C219 -10 198 15 202 42 L202 42 Z M369 842 C401 865 438 910 472 910 C494 910 511 899 511 878 C511 862 503 853 490 841 C464 818 388 756 357 756 C326 756 268 818 248 841 C241 850 236 858 236 869 C236 895 259 910 286 910 C320 910 343 865 369 842 L369 842 Z " />
<glyph glyph-name="tcaron" unicode="&#x165;" horiz-adv-x="499" d="M98 205 L155 608 C159 636 181 658 216 658 C250 658 267 635 263 608 L246 484 L334 484 C362 484 383 463 379 435 C375 408 349 387 321 387 L232 387 L207 212 C195 124 198 92 258 92 C265 92 273 93 277 93 C320 93 342 82 337 48 C331 2 292 -4 253 -4 C106 -4 79 68 98 205 L98 205 Z M432 504 C437 537 464 552 480 595 C447 600 427 627 432 660 C437 695 471 725 510 725 C546 725 574 697 568 658 C559 594 495 473 457 473 C444 473 425 478 432 504 L432 504 Z " />
<glyph glyph-name="Utilde" unicode="&#x168;" horiz-adv-x="592" d="M565 235 C545 93 442 -10 294 -10 C142 -10 73 94 93 235 L153 660 C157 691 184 714 216 714 C245 714 267 690 263 660 L203 235 C191 151 223 93 309 93 C394 93 442 152 454 235 L514 660 C518 689 544 714 575 714 C607 714 629 689 625 660 L565 235 L565 235 Z M563 851 C563 810 506 780 467 779 C419 779 395 812 366 815 C333 817 325 784 298 784 C281 784 264 796 264 814 C264 856 312 890 359 890 C408 890 429 856 460 854 C494 854 500 885 528 886 C547 886 563 871 563 851 L563 851 Z " />
<glyph glyph-name="utilde" unicode="&#x169;" horiz-adv-x="529" d="M386 32 C337 3 286 -8 240 -8 C127 -8 79 70 95 185 L134 461 C138 489 160 510 195 510 C229 510 246 489 242 461 L203 185 C194 121 215 85 267 85 C297 85 331 95 365 112 C365 121 365 129 366 136 L412 461 C416 489 437 510 473 510 C509 510 524 489 520 461 L473 126 C468 91 475 87 483 73 C488 66 492 58 491 46 C487 17 459 -2 433 -2 C411 -2 396 12 386 32 L386 32 Z M503 651 C503 610 446 580 407 579 C359 579 335 612 306 615 C273 617 265 584 238 584 C221 584 204 596 204 614 C204 656 252 690 299 690 C348 690 369 656 400 654 C434 654 440 685 468 686 C487 686 503 671 503 651 L503 651 Z " />
<glyph glyph-name="Umacron" unicode="&#x16a;" horiz-adv-x="592" d="M565 235 C545 93 442 -10 294 -10 C142 -10 73 94 93 235 L153 660 C157 691 184 714 216 714 C245 714 267 690 263 660 L203 235 C191 151 223 93 309 93 C394 93 442 152 454 235 L514 660 C518 689 544 714 575 714 C607 714 629 689 625 660 L565 235 L565 235 Z M590 838 C590 811 564 790 537 790 L278 790 C251 790 234 809 237 833 C241 857 264 877 291 877 L550 877 C573 877 590 859 590 838 L590 838 Z " />
<glyph glyph-name="umacron" unicode="&#x16b;" horiz-adv-x="529" d="M386 32 C337 3 286 -8 240 -8 C127 -8 79 70 95 185 L134 461 C138 489 160 510 195 510 C229 510 246 489 242 461 L203 185 C194 121 215 85 267 85 C297 85 331 95 365 112 C365 121 365 129 366 136 L412 461 C416 489 437 510 473 510 C509 510 524 489 520 461 L473 126 C468 91 475 87 483 73 C488 66 492 58 491 46 C487 17 459 -2 433 -2 C411 -2 396 12 386 32 L386 32 Z M530 638 C530 611 504 590 477 590 L218 590 C191 590 174 609 177 633 C181 657 204 677 231 677 L490 677 C513 677 530 659 530 638 L530 638 Z " />
<glyph glyph-name="Ubreve" unicode="&#x16c;" horiz-adv-x="592" d="M565 235 C545 93 442 -10 294 -10 C142 -10 73 94 93 235 L153 660 C157 691 184 714 216 714 C245 714 267 690 263 660 L203 235 C191 151 223 93 309 93 C394 93 442 152 454 235 L514 660 C518 689 544 714 575 714 C607 714 629 689 625 660 L565 235 L565 235 Z M414 839 C444 839 463 857 481 875 C493 887 504 894 521 894 C542 894 563 883 550 848 C529 793 451 762 402 762 C350 762 284 796 279 848 C276 883 301 894 322 894 C341 894 349 884 356 875 C369 857 383 839 414 839 L414 839 Z " />
<glyph glyph-name="ubreve" unicode="&#x16d;" horiz-adv-x="529" d="M386 32 C337 3 286 -8 240 -8 C127 -8 79 70 95 185 L134 461 C138 489 160 510 195 510 C229 510 246 489 242 461 L203 185 C194 121 215 85 267 85 C297 85 331 95 365 112 C365 121 365 129 366 136 L412 461 C416 489 437 510 473 510 C509 510 524 489 520 461 L473 126 C468 91 475 87 483 73 C488 66 492 58 491 46 C487 17 459 -2 433 -2 C411 -2 396 12 386 32 L386 32 Z M354 639 C384 639 403 657 421 675 C433 687 444 694 461 694 C482 694 503 683 490 648 C469 593 391 562 342 562 C290 562 224 596 219 648 C216 683 241 694 262 694 C281 694 289 684 296 675 C309 657 323 639 354 639 L354 639 Z " />
<glyph glyph-name="Uring" unicode="&#x16e;" horiz-adv-x="592" d="M565 235 C545 93 442 -10 294 -10 C142 -10 73 94 93 235 L153 660 C157 691 184 714 216 714 C245 714 267 690 263 660 L203 235 C191 151 223 93 309 93 C394 93 442 152 454 235 L514 660 C518 689 544 714 575 714 C607 714 629 689 625 660 L565 235 L565 235 Z M519 856 C519 792 463 740 400 740 C341 740 301 786 309 844 C317 901 370 948 429 948 C482 948 519 907 519 856 L519 856 Z M464 850 C464 874 446 894 421 894 C394 894 369 871 365 844 C361 817 380 795 407 795 C437 795 464 820 464 850 L464 850 Z " />
<glyph glyph-name="uring" unicode="&#x16f;" horiz-adv-x="529" d="M386 32 C337 3 286 -8 240 -8 C127 -8 79 70 95 185 L134 461 C138 489 160 510 195 510 C229 510 246 489 242 461 L203 185 C194 121 215 85 267 85 C297 85 331 95 365 112 C365 121 365 129 366 136 L412 461 C416 489 437 510 473 510 C509 510 524 489 520 461 L473 126 C468 91 475 87 483 73 C488 66 492 58 491 46 C487 17 459 -2 433 -2 C411 -2 396 12 386 32 L386 32 Z M460 656 C460 592 404 540 341 540 C282 540 242 586 250 644 C258 701 311 748 370 748 C423 748 460 707 460 656 L460 656 Z M405 650 C405 674 387 694 362 694 C335 694 310 671 306 644 C302 617 321 595 348 595 C378 595 405 620 405 650 L405 650 Z " />
<glyph glyph-name="Uhungarumlaut" unicode="&#x170;" horiz-adv-x="592" d="M565 235 C545 93 442 -10 294 -10 C142 -10 73 94 93 235 L153 660 C157 691 184 714 216 714 C245 714 267 690 263 660 L203 235 C191 151 223 93 309 93 C394 93 442 152 454 235 L514 660 C518 689 544 714 575 714 C607 714 629 689 625 660 L565 235 L565 235 Z M297 815 L373 907 C387 922 398 939 422 939 C441 939 458 920 458 900 C458 890 454 884 446 875 L374 785 C360 768 348 758 328 758 C307 758 291 776 291 796 C291 806 293 810 297 815 L297 815 Z M450 815 L526 907 C538 922 551 939 574 939 C593 939 612 919 612 900 C612 893 609 888 604 882 L526 785 C513 769 502 758 481 758 C460 758 443 776 443 796 C443 805 446 810 450 815 L450 815 Z " />
<glyph glyph-name="uhungarumlaut" unicode="&#x171;" horiz-adv-x="529" d="M386 32 C337 3 286 -8 240 -8 C127 -8 79 70 95 185 L134 461 C138 489 160 510 195 510 C229 510 246 489 242 461 L203 185 C194 121 215 85 267 85 C297 85 331 95 365 112 C365 121 365 129 366 136 L412 461 C416 489 437 510 473 510 C509 510 524 489 520 461 L473 126 C468 91 475 87 483 73 C488 66 492 58 491 46 C487 17 459 -2 433 -2 C411 -2 396 12 386 32 L386 32 Z M232 615 L308 707 C322 722 333 739 357 739 C376 739 393 720 393 700 C393 690 389 684 381 675 L309 585 C295 568 283 558 263 558 C242 558 226 576 226 596 C226 606 228 610 232 615 L232 615 Z M385 615 L461 707 C473 722 486 739 509 739 C528 739 547 719 547 700 C547 693 544 688 539 682 L461 585 C448 569 437 558 416 558 C395 558 378 576 378 596 C378 605 381 610 385 615 L385 615 Z " />
<glyph glyph-name="Uogonek" unicode="&#x172;" horiz-adv-x="592" d="M565 235 C551 134 494 53 411 15 C385 -20 349 -65 349 -101 C349 -118 358 -130 380 -130 C398 -130 410 -126 422 -126 C440 -126 453 -140 453 -157 C453 -200 398 -207 361 -207 C300 -207 261 -181 261 -126 C261 -87 282 -47 314 -9 L295 -9 C143 -9 73 94 93 235 L153 660 C157 691 184 714 216 714 C245 714 267 690 263 660 L203 235 C191 151 223 93 309 93 C394 93 442 152 454 235 L514 660 C518 689 544 714 575 714 C607 714 629 689 625 660 L565 235 L565 235 Z " />
<glyph glyph-name="uogonek" unicode="&#x173;" horiz-adv-x="529" d="M242 461 L203 185 C194 121 216 85 267 85 C297 85 331 95 365 112 C364 120 365 128 366 136 L412 461 C415 486 437 510 473 510 C509 510 524 489 520 461 L473 126 C466 77 491 78 491 51 C491 35 482 24 474 15 L462 1 C436 -29 413 -69 413 -101 C413 -118 423 -130 444 -130 C462 -130 474 -126 486 -126 C504 -126 518 -140 518 -157 C518 -200 462 -207 425 -207 C364 -207 325 -181 325 -126 C325 -79 356 -31 399 12 C394 18 390 24 386 32 C337 3 286 -7 240 -7 C117 -7 80 77 98 203 L134 461 C137 486 159 510 195 510 C231 510 246 489 242 461 L242 461 Z " />
<glyph glyph-name="Wcircumflex" unicode="&#x174;" horiz-adv-x="803" d="M509 51 L485 299 C478 367 476 436 472 505 C419 352 363 201 307 49 C295 22 274 -9 231 -9 C196 -9 174 20 171 50 C148 254 126 459 106 663 C110 693 145 711 173 711 C195 711 215 699 218 672 C227 578 237 484 247 391 C254 326 255 259 260 194 C285 262 306 335 333 404 L426 648 C442 690 457 714 501 714 C543 714 554 688 558 648 L581 404 C588 334 589 263 595 193 C618 259 640 325 665 391 L771 671 C782 696 803 711 826 711 C852 711 882 697 882 667 C882 660 881 656 878 650 L645 50 C631 19 608 -9 569 -9 C530 -9 512 20 509 51 L509 51 Z M517 825 C488 804 446 760 420 760 C402 760 382 773 382 792 C382 810 404 830 421 842 L498 897 C507 903 516 908 529 908 C542 908 551 903 558 897 L619 842 C631 832 645 814 645 799 C645 775 618 760 596 760 C570 760 540 804 517 825 L517 825 Z " />
<glyph glyph-name="wcircumflex" unicode="&#x175;" horiz-adv-x="675" d="M717 452 L544 44 C529 10 511 -7 473 -7 C446 -7 420 7 417 34 L387 351 C348 244 310 139 267 34 C255 4 234 -7 201 -7 C165 -7 148 12 143 45 L84 452 L84 457 C84 484 112 510 145 510 C167 510 187 497 190 474 L213 286 C219 235 218 183 221 131 C243 191 260 251 283 310 L344 467 C354 492 378 510 410 510 C441 510 458 492 461 467 L478 310 C484 251 486 191 491 131 C508 183 523 235 543 286 L617 474 C625 494 651 510 673 510 C699 510 720 491 720 466 C720 459 718 454 717 452 L717 452 Z M424 625 C395 604 353 560 327 560 C309 560 289 573 289 592 C289 610 311 630 328 642 L405 697 C414 703 423 708 436 708 C449 708 458 703 465 697 L526 642 C538 632 552 614 552 599 C552 575 525 560 503 560 C477 560 447 604 424 625 L424 625 Z " />
<glyph glyph-name="Ycircumflex" unicode="&#x176;" horiz-adv-x="503" d="M250 -10 C219 -10 197 15 201 44 L234 276 L108 637 C107 643 105 653 106 661 C110 690 142 714 170 714 C187 714 204 707 210 691 L308 403 L486 691 C498 707 517 714 534 714 C563 714 586 690 582 661 C581 654 577 643 573 637 L346 275 L313 44 C309 16 282 -10 250 -10 L250 -10 Z M367 825 C338 804 296 760 270 760 C252 760 232 773 232 792 C232 810 254 830 271 842 L348 897 C357 903 366 908 379 908 C392 908 401 903 408 897 L469 842 C481 832 495 814 495 799 C495 775 468 760 446 760 C420 760 390 804 367 825 L367 825 Z " />
<glyph glyph-name="ycircumflex" unicode="&#x177;" horiz-adv-x="529" d="M530 461 L459 -37 C444 -142 374 -224 239 -224 C189 -224 95 -209 95 -158 C95 -131 121 -108 151 -108 C157 -108 164 -108 173 -112 C195 -121 212 -132 244 -132 C311 -132 344 -97 352 -37 L360 20 C324 3 287 -7 243 -7 C110 -7 79 73 94 179 L133 461 C137 489 159 510 194 510 C228 510 245 489 241 461 L202 179 C194 120 212 84 272 84 C307 84 343 95 374 120 L422 461 C425 489 446 510 482 510 C518 510 534 489 530 461 L530 461 Z M361 625 C332 604 290 560 264 560 C246 560 226 573 226 592 C226 610 248 630 265 642 L342 697 C351 703 360 708 373 708 C386 708 395 703 402 697 L463 642 C475 632 489 614 489 599 C489 575 462 560 440 560 C414 560 384 604 361 625 L361 625 Z " />
<glyph glyph-name="Ydieresis" unicode="&#x178;" horiz-adv-x="503" d="M250 -10 C219 -10 197 15 201 44 L234 276 L108 637 C107 643 105 653 106 661 C110 690 142 714 170 714 C187 714 204 707 210 691 L308 403 L486 691 C498 707 517 714 534 714 C563 714 586 690 582 661 C581 654 577 643 573 637 L346 275 L313 44 C309 16 282 -10 250 -10 L250 -10 Z M512 840 C512 806 481 778 447 778 C416 778 394 804 398 834 C402 863 432 888 463 888 C491 888 512 867 512 840 L512 840 Z M338 840 C338 806 307 778 272 778 C241 778 221 804 225 834 C229 863 257 888 288 888 C317 888 338 867 338 840 L338 840 Z " />
<glyph glyph-name="Zacute" unicode="&#x179;" horiz-adv-x="504" d="M487 58 C487 26 457 0 424 0 L81 0 C48 0 28 25 32 56 C34 67 43 85 50 94 C110 175 355 518 416 600 L165 600 C134 600 114 623 118 652 C122 680 149 705 180 705 L519 705 C552 705 573 680 569 650 C567 635 559 623 552 613 L182 104 L439 104 C466 104 487 85 487 58 L487 58 Z M424 907 L436 917 C448 927 454 932 471 932 C488 932 506 917 506 896 C506 884 500 874 488 863 L402 785 C388 772 378 765 361 765 C340 765 324 780 324 802 C324 829 391 877 424 907 L424 907 Z " />
<glyph glyph-name="zacute" unicode="&#x17a;" horiz-adv-x="409" d="M458 460 C458 448 454 433 442 419 L164 95 L357 95 C387 95 406 74 402 47 C399 21 374 0 344 0 L67 0 C38 0 15 23 19 53 C21 63 25 73 34 84 L312 410 L130 410 C102 410 82 431 86 457 C90 485 116 505 144 505 L409 505 C436 505 458 488 458 460 L458 460 Z M346 707 L358 717 C370 727 376 732 393 732 C410 732 428 717 428 696 C428 684 422 674 410 663 L324 585 C310 572 300 565 283 565 C262 565 246 580 246 602 C246 629 313 677 346 707 L346 707 Z " />
<glyph glyph-name="Zdotaccent" unicode="&#x17b;" horiz-adv-x="504" d="M487 58 C487 26 457 0 424 0 L81 0 C48 0 28 25 32 56 C34 67 43 85 50 94 C110 175 355 518 416 600 L165 600 C134 600 114 623 118 652 C122 680 149 705 180 705 L519 705 C552 705 573 680 569 650 C567 635 559 623 552 613 L182 104 L439 104 C466 104 487 85 487 58 L487 58 Z M425 833 C425 799 394 771 359 771 C328 771 308 797 312 827 C316 856 344 881 375 881 C404 881 425 860 425 833 L425 833 Z " />
<glyph glyph-name="zdotaccent" unicode="&#x17c;" horiz-adv-x="409" d="M458 460 C458 448 454 433 442 419 L164 95 L357 95 C387 95 406 74 402 47 C399 21 374 0 344 0 L67 0 C38 0 15 23 19 53 C21 63 25 73 34 84 L312 410 L130 410 C102 410 82 431 86 457 C90 485 116 505 144 505 L409 505 C436 505 458 488 458 460 L458 460 Z M349 633 C349 599 318 571 283 571 C252 571 232 597 236 627 C240 656 268 681 299 681 C328 681 349 660 349 633 L349 633 Z " />
<glyph glyph-name="Zcaron" unicode="&#x17d;" horiz-adv-x="504" d="M487 58 C487 26 457 0 424 0 L81 0 C48 0 28 25 32 56 C34 67 43 85 50 94 C110 175 355 518 416 600 L165 600 C134 600 114 623 118 652 C122 680 149 705 180 705 L519 705 C552 705 573 680 569 650 C567 635 559 623 552 613 L182 104 L439 104 C466 104 487 85 487 58 L487 58 Z M370 842 C402 865 439 910 473 910 C495 910 512 899 512 878 C512 862 504 853 491 841 C465 818 389 756 358 756 C327 756 269 818 249 841 C242 850 237 858 237 869 C237 895 260 910 287 910 C321 910 344 865 370 842 L370 842 Z " />
<glyph glyph-name="zcaron" unicode="&#x17e;" horiz-adv-x="404" d="M458 460 C458 448 454 433 442 419 L164 95 L357 95 C387 95 406 74 402 47 C399 21 374 0 344 0 L67 0 C38 0 15 23 19 53 C21 63 25 73 34 84 L312 410 L130 410 C102 410 82 431 86 457 C90 485 116 505 144 505 L409 505 C436 505 458 488 458 460 L458 460 Z M293 642 C325 665 362 710 396 710 C418 710 435 699 435 678 C435 662 427 653 414 641 C388 618 312 556 281 556 C250 556 192 618 172 641 C165 650 160 658 160 669 C160 695 183 710 210 710 C244 710 267 665 293 642 L293 642 Z " />
<glyph glyph-name="florin" unicode="&#x192;" horiz-adv-x="512" d="M595 657 C595 608 564 607 540 607 C529 607 517 609 510 609 C480 609 453 593 442 560 L407 452 L460 452 C487 452 517 447 517 412 C517 362 478 360 445 360 L377 360 L256 -9 C222 -127 168 -199 55 -199 C15 -199 -22 -195 -22 -166 C-22 -151 -14 -140 -2 -133 C1 -114 17 -103 38 -103 L58 -103 C59 -103 61 -104 62 -104 C105 -104 125 -81 141 -30 L267 360 L216 360 C186 360 159 365 159 399 C159 438 186 452 215 452 L298 452 C341 593 370 704 528 704 C559 704 595 697 595 657 L595 657 Z " />
<glyph glyph-name="uni0218" unicode="&#x218;" horiz-adv-x="506" d="M384 212 C384 255 362 273 345 282 C259 327 106 333 106 485 C106 624 206 714 354 714 C406 714 530 702 530 640 C530 612 504 585 467 585 C432 585 412 612 346 612 C283 612 221 587 221 503 C221 460 245 443 261 434 C348 386 500 382 500 232 C500 80 381 -9 234 -9 C167 -9 46 12 46 70 C46 98 74 126 105 126 C135 126 169 93 249 93 C338 93 384 139 384 212 L384 212 Z M303 -97 C303 -151 231 -238 197 -238 C188 -238 179 -233 181 -221 C184 -200 211 -187 227 -159 C193 -157 170 -142 175 -105 C180 -74 203 -51 246 -51 C286 -51 303 -72 303 -97 L303 -97 Z " />
<glyph glyph-name="uni0219" unicode="&#x219;" horiz-adv-x="426" d="M97 343 C97 442 167 513 297 513 C353 513 431 499 431 446 C431 416 410 399 381 399 C349 399 337 421 284 421 C257 421 206 415 206 367 C206 282 409 315 409 165 C409 61 336 -7 204 -7 C149 -7 50 5 50 55 C50 71 67 119 113 107 C130 103 171 84 213 84 C261 84 301 109 301 148 C301 230 97 194 97 343 L97 343 Z M263 -97 C263 -151 191 -238 157 -238 C148 -238 139 -233 141 -221 C144 -200 171 -187 187 -159 C153 -157 130 -142 135 -105 C140 -74 163 -51 206 -51 C246 -51 263 -72 263 -97 L263 -97 Z " />
<glyph glyph-name="uni021A" unicode="&#x21a;" horiz-adv-x="503" d="M202 42 L281 602 L160 602 C128 602 108 626 112 653 C115 676 143 705 174 705 L526 705 C554 705 579 682 575 653 C571 626 542 602 512 602 L391 602 L312 42 C308 15 280 -10 250 -10 C219 -10 198 15 202 42 L202 42 Z M301 -97 C301 -151 229 -238 195 -238 C186 -238 177 -233 179 -221 C182 -200 209 -187 225 -159 C191 -157 168 -142 173 -105 C178 -74 201 -51 244 -51 C284 -51 301 -72 301 -97 L301 -97 Z " />
<glyph glyph-name="uni021B" unicode="&#x21b;" horiz-adv-x="341" d="M98 205 L155 608 C159 636 181 658 216 658 C250 658 267 635 263 608 L246 484 L334 484 C362 484 383 463 379 435 C375 408 349 387 321 387 L232 387 L207 212 C195 124 198 92 258 92 C265 92 273 93 277 93 C320 93 342 82 337 48 C331 2 292 -4 253 -4 C106 -4 79 68 98 205 L98 205 Z M272 -97 C272 -151 200 -238 166 -238 C157 -238 148 -233 150 -221 C153 -200 180 -187 196 -159 C162 -157 139 -142 144 -105 C149 -74 172 -51 215 -51 C255 -51 272 -72 272 -97 L272 -97 Z " />
<glyph glyph-name="dotlessj" unicode="&#x237;" horiz-adv-x="265" d="M251 467 L186 0 C170 -113 94 -195 -17 -195 C-40 -195 -57 -181 -59 -159 L-59 -150 C-59 -120 -29 -105 -9 -101 C37 -91 68 -66 77 -4 L143 467 C147 495 174 518 205 518 C235 518 255 495 251 467 L251 467 Z " />
<glyph glyph-name="circumflex" unicode="&#x2c6;" horiz-adv-x="416" d="M299 625 C270 604 228 560 202 560 C184 560 164 573 164 592 C164 610 186 630 203 642 L280 697 C289 703 298 708 311 708 C324 708 333 703 340 697 L401 642 C413 632 427 614 427 599 C427 575 400 560 378 560 C352 560 322 604 299 625 L299 625 Z " />
<glyph glyph-name="caron" unicode="&#x2c7;" horiz-adv-x="411" d="M301 642 C333 665 370 710 404 710 C426 710 443 699 443 678 C443 662 435 653 422 641 C396 618 320 556 289 556 C258 556 200 618 180 641 C173 650 168 658 168 669 C168 695 191 710 218 710 C252 710 275 665 301 642 L301 642 Z " />
<glyph glyph-name="breve" unicode="&#x2d8;" horiz-adv-x="387" d="M283 639 C313 639 332 657 350 675 C362 687 373 694 390 694 C411 694 432 683 419 648 C398 593 320 562 271 562 C219 562 153 596 148 648 C145 683 170 694 191 694 C210 694 218 684 225 675 C238 657 252 639 283 639 L283 639 Z " />
<glyph glyph-name="dotaccent" unicode="&#x2d9;" horiz-adv-x="264" d="M277 633 C277 599 246 571 211 571 C180 571 160 597 164 627 C168 656 196 681 227 681 C256 681 277 660 277 633 L277 633 Z " />
<glyph glyph-name="ring" unicode="&#x2da;" horiz-adv-x="591" d="M477 656 C477 592 421 540 358 540 C299 540 259 586 267 644 C275 701 328 748 387 748 C440 748 477 707 477 656 L477 656 Z M422 650 C422 674 404 694 379 694 C352 694 327 671 323 644 C319 617 338 595 365 595 C395 595 422 620 422 650 L422 650 Z " />
<glyph glyph-name="ogonek" unicode="&#x2db;" horiz-adv-x="342" d="M248 -158 C248 -200 191 -207 155 -207 C94 -207 55 -181 55 -126 C55 -83 80 -40 114 0 L195 0 L176 -26 C158 -51 143 -79 143 -101 C143 -119 154 -129 178 -129 C200 -129 208 -126 216 -126 C233 -126 248 -141 248 -158 L248 -158 Z " />
<glyph glyph-name="tilde" unicode="&#x2dc;" horiz-adv-x="395" d="M434 651 C434 610 377 580 338 579 C290 579 266 612 237 615 C204 617 196 584 169 584 C152 584 135 596 135 614 C135 656 183 690 230 690 C279 690 300 656 331 654 C365 654 371 685 399 686 C418 686 434 671 434 651 L434 651 Z " />
<glyph glyph-name="hungarumlaut" unicode="&#x2dd;" horiz-adv-x="430" d="M158 615 L234 707 C248 722 259 739 283 739 C302 739 319 720 319 700 C319 690 315 684 307 675 L235 585 C221 568 209 558 189 558 C168 558 152 576 152 596 C152 606 154 610 158 615 L158 615 Z M311 615 L387 707 C399 722 412 739 435 739 C454 739 473 719 473 700 C473 693 470 688 465 682 L387 585 C374 569 363 558 342 558 C321 558 304 576 304 596 C304 605 307 610 311 615 L311 615 Z " />
<glyph glyph-name="uni0400" unicode="&#x400;" horiz-adv-x="494" d="M474 58 C474 26 444 0 411 0 L146 0 C105 0 70 14 76 59 L159 646 C163 675 193 705 229 705 L500 705 C530 705 552 681 548 652 C544 623 516 602 486 602 L263 602 L235 405 L439 405 C466 405 490 383 486 354 C482 325 454 302 424 302 L220 302 L192 102 L425 102 C452 102 474 82 474 58 L474 58 Z M372 907 C396 879 444 833 444 809 C444 784 420 765 396 765 C379 765 370 772 360 785 L296 863 C290 871 287 879 287 887 C287 913 312 932 333 932 C350 932 356 927 364 917 L372 907 L372 907 Z " />
<glyph glyph-name="uni0401" unicode="&#x401;" horiz-adv-x="494" d="M474 58 C474 26 444 0 411 0 L146 0 C105 0 70 14 76 59 L159 646 C163 675 193 705 229 705 L500 705 C530 705 552 681 548 652 C544 623 516 602 486 602 L263 602 L235 405 L439 405 C466 405 490 383 486 354 C482 325 454 302 424 302 L220 302 L192 102 L425 102 C452 102 474 82 474 58 L474 58 Z M535 840 C535 806 504 778 470 778 C439 778 417 804 421 834 C425 863 455 888 486 888 C514 888 535 867 535 840 L535 840 Z M361 840 C361 806 330 778 295 778 C264 778 244 804 248 834 C252 863 280 888 311 888 C340 888 361 867 361 840 L361 840 Z " />
<glyph glyph-name="uni0402" unicode="&#x402;" horiz-adv-x="664" d="M162 42 L241 603 L159 603 C127 603 108 628 112 653 C115 678 143 705 174 705 L526 705 C554 705 579 683 575 654 C571 626 541 603 511 603 L350 603 L326 432 C366 448 408 455 445 455 C570 455 641 390 641 265 C641 104 553 -10 424 -10 C362 -10 322 21 327 57 C331 84 356 105 383 105 C404 105 403 93 431 93 C493 93 530 152 530 252 C530 325 495 352 424 352 C388 352 347 344 311 325 L272 42 C268 15 239 -10 209 -10 C178 -10 158 15 162 42 L162 42 Z " />
<glyph glyph-name="uni0403" unicode="&#x403;" horiz-adv-x="466" d="M420 907 L432 917 C444 927 450 932 467 932 C484 932 502 917 502 896 C502 884 496 874 484 863 L398 785 C384 772 374 765 357 765 C336 765 320 780 320 802 C320 829 387 877 420 907 L420 907 Z M262 603 L184 43 C180 16 151 -9 121 -9 C90 -9 70 16 74 43 L159 648 C163 676 192 705 227 705 L499 705 C529 705 549 681 546 654 C542 625 514 603 484 603 L262 603 L262 603 Z " />
<glyph glyph-name="uni0404" unicode="&#x404;" horiz-adv-x="502" d="M75 250 L104 456 C126 612 215 714 380 714 C474 714 559 673 559 623 C559 595 532 570 501 570 C482 570 476 576 463 586 C441 603 407 617 372 617 C270 617 228 555 214 456 L207 405 L378 405 C403 405 424 386 424 360 C424 328 396 301 363 301 L192 301 L185 250 C171 151 195 89 297 89 C361 89 405 135 440 135 C466 135 485 116 485 93 C485 38 381 -8 279 -8 C114 -8 53 94 75 250 L75 250 Z " />
<glyph glyph-name="uni0405" unicode="&#x405;" horiz-adv-x="506" d="M384 212 C384 255 362 273 345 282 C259 327 106 333 106 485 C106 624 206 714 354 714 C406 714 530 702 530 640 C530 612 504 585 467 585 C432 585 412 612 346 612 C283 612 221 587 221 503 C221 460 245 443 261 434 C348 386 500 382 500 232 C500 80 381 -9 234 -9 C167 -9 46 12 46 70 C46 98 74 126 105 126 C135 126 169 93 249 93 C338 93 384 139 384 212 L384 212 Z " />
<glyph glyph-name="uni0406" unicode="&#x406;" horiz-adv-x="247" d="M74 42 L161 662 C165 690 192 714 223 714 C253 714 275 690 271 662 L184 42 C180 15 151 -10 121 -10 C90 -10 70 15 74 42 L74 42 Z " />
<glyph glyph-name="uni0407" unicode="&#x407;" horiz-adv-x="247" d="M74 42 L161 662 C165 690 192 714 223 714 C253 714 275 690 271 662 L184 42 C180 15 151 -10 121 -10 C90 -10 70 15 74 42 L74 42 Z M385 840 C385 806 354 778 320 778 C289 778 267 804 271 834 C275 863 305 888 336 888 C364 888 385 867 385 840 L385 840 Z M211 840 C211 806 180 778 145 778 C114 778 94 804 98 834 C102 863 130 888 161 888 C190 888 211 867 211 840 L211 840 Z " />
<glyph glyph-name="uni0408" unicode="&#x408;" horiz-adv-x="405" d="M430 662 L369 230 C348 81 284 -10 118 -10 C85 -10 19 -6 26 47 C31 80 62 98 84 98 C101 98 116 92 144 92 C223 92 247 145 259 230 L320 662 C324 691 350 714 382 714 C411 714 434 690 430 662 L430 662 Z " />
<glyph glyph-name="uni0409" unicode="&#x409;" horiz-adv-x="904" d="M521 603 L357 603 L267 175 C244 67 193 -7 102 -7 C57 -7 20 -7 20 34 C20 76 46 98 78 98 C85 98 88 95 105 95 C131 95 147 120 158 171 L261 650 C267 684 298 705 327 705 L588 705 C620 705 643 680 639 650 L612 456 L691 456 C822 456 902 387 902 264 C902 136 829 0 627 0 L500 0 C466 0 440 27 445 60 L521 603 L521 603 Z M562 102 L617 102 C743 102 791 156 791 252 C791 321 751 353 676 353 L597 353 L562 102 L562 102 Z " />
<glyph glyph-name="uni040A" unicode="&#x40a;" horiz-adv-x="868" d="M220 301 L184 43 C180 15 152 -9 122 -9 C91 -9 70 15 74 43 L161 662 C165 690 192 714 223 714 C253 714 275 690 271 662 L235 404 L458 404 L494 660 C498 690 527 714 556 714 C586 714 608 689 604 660 L575 456 L655 456 C786 456 866 387 866 264 C866 136 793 0 591 0 L464 0 C430 0 404 27 409 60 L443 301 L220 301 L220 301 Z M561 353 L525 102 L605 102 C736 102 755 193 755 252 C755 321 716 353 641 353 L561 353 L561 353 Z " />
<glyph glyph-name="uni040B" unicode="&#x40b;" horiz-adv-x="664" d="M575 659 C575 629 544 603 512 603 L351 603 L326 430 C366 447 406 455 448 455 C586 455 658 374 638 229 L612 44 C608 16 579 -10 549 -10 C520 -10 498 15 502 44 L528 228 C540 317 505 352 425 352 C386 352 347 344 312 325 L272 42 C268 15 239 -10 209 -10 C178 -10 158 15 162 42 L241 603 L160 603 C128 603 108 627 112 653 C115 677 143 705 174 705 L526 705 C552 705 575 685 575 659 L575 659 Z " />
<glyph glyph-name="uni040C" unicode="&#x40c;" horiz-adv-x="536" d="M450 907 L462 917 C474 927 480 932 497 932 C514 932 532 917 532 896 C532 884 526 874 514 863 L428 785 C414 772 404 765 387 765 C366 765 350 780 350 802 C350 829 417 877 450 907 L450 907 Z M271 662 L235 404 L270 404 L514 690 C528 707 545 714 563 714 C596 714 612 683 609 659 C607 651 604 643 597 633 L353 352 L518 72 C522 61 523 53 522 45 C519 22 494 -10 461 -10 C443 -10 428 -2 419 14 L254 301 L220 301 L184 43 C180 15 151 -10 121 -10 C90 -10 70 15 74 43 L161 662 C165 690 192 714 223 714 C253 714 275 690 271 662 L271 662 Z " />
<glyph glyph-name="uni040D" unicode="&#x40d;" horiz-adv-x="609" d="M380 907 C404 879 452 833 452 809 C452 784 428 765 404 765 C387 765 378 772 368 785 L304 863 C298 871 295 879 295 887 C295 913 320 932 341 932 C358 932 364 927 372 917 L380 907 L380 907 Z M125 -10 C90 -10 70 16 74 46 L161 661 C165 690 191 714 222 714 C252 714 275 690 271 661 L209 217 C266 298 473 607 529 684 C542 702 566 714 588 714 C621 714 643 690 638 658 L552 43 C548 15 520 -10 490 -10 C460 -10 438 15 442 43 L504 485 L183 19 C170 2 146 -10 125 -10 L125 -10 Z " />
<glyph glyph-name="uni040E" unicode="&#x40e;" horiz-adv-x="523" d="M379 839 C409 839 428 857 446 875 C458 887 469 894 486 894 C507 894 528 883 515 848 C494 793 416 762 367 762 C315 762 249 796 244 848 C241 883 266 894 287 894 C306 894 314 884 321 875 C334 857 348 839 379 839 L379 839 Z M590 646 L370 228 C301 96 243 -4 107 -7 C77 -7 58 11 58 36 C58 63 82 90 117 92 C171 95 199 114 233 174 L113 647 C112 650 112 655 112 657 C112 691 140 714 174 714 C194 714 212 702 218 680 L274 453 C287 401 294 347 304 294 C364 424 427 553 494 680 C505 702 528 714 549 714 C574 714 596 695 596 669 C596 659 592 650 590 646 L590 646 Z " />
<glyph glyph-name="uni040F" unicode="&#x40f;" horiz-adv-x="599" d="M228 -112 L244 0 L123 0 C92 0 71 24 75 52 L161 662 C165 691 192 715 223 715 C253 715 275 691 271 662 L192 102 L435 102 L514 662 C518 691 547 715 576 715 C606 715 628 691 624 662 L538 52 C534 24 505 0 476 0 L354 0 L338 -112 C334 -139 306 -164 276 -164 C245 -164 224 -139 228 -112 L228 -112 Z " />
<glyph glyph-name="uni0410" unicode="&#x410;" horiz-adv-x="569" d="M187 149 L133 29 C122 5 93 -9 75 -9 C47 -9 25 9 25 36 C25 44 28 56 30 61 L308 654 C324 688 345 714 384 714 C423 714 435 689 442 654 L554 61 C555 59 555 54 555 50 C555 14 525 -9 490 -9 C454 -9 446 16 438 52 L420 149 L187 149 L187 149 Z M361 549 C321 443 275 346 231 245 L404 245 C387 346 367 445 361 549 L361 549 Z " />
<glyph glyph-name="uni0411" unicode="&#x411;" horiz-adv-x="551" d="M505 603 L263 603 L240 437 L340 437 C471 437 552 371 552 252 C552 128 479 0 278 0 L131 0 C97 0 72 27 77 60 L159 648 C163 676 192 705 227 705 L519 705 C547 705 567 684 567 659 C567 628 538 603 505 603 L505 603 Z M193 102 L293 102 C421 102 441 183 441 239 C441 303 401 334 325 334 L225 334 L193 102 L193 102 Z " />
<glyph glyph-name="uni0412" unicode="&#x412;" horiz-adv-x="562" d="M237 417 L352 417 C402 417 463 448 473 515 C479 561 461 603 390 603 L263 603 L237 417 L237 417 Z M340 314 L222 314 L193 102 L310 102 C393 102 439 143 448 205 C458 275 410 314 340 314 L340 314 Z M296 0 L131 0 C95 0 72 27 77 60 L159 645 C164 679 196 705 230 705 L399 705 C539 705 596 612 583 516 C572 438 516 395 445 365 C505 342 572 304 558 205 C542 90 440 0 296 0 L296 0 Z " />
<glyph glyph-name="uni0413" unicode="&#x413;" horiz-adv-x="466" d="M262 603 L184 43 C180 16 151 -9 121 -9 C90 -9 70 16 74 43 L159 648 C163 676 192 705 227 705 L499 705 C529 705 549 681 546 654 C542 625 514 603 484 603 L262 603 L262 603 Z " />
<glyph glyph-name="uni0414" unicode="&#x414;" horiz-adv-x="648" d="M600 705 C632 705 656 680 652 650 L575 102 C613 102 638 81 632 40 L617 -66 C611 -107 593 -139 551 -139 C520 -139 500 -117 504 -88 L516 0 L130 0 L118 -88 C114 -115 85 -139 57 -139 C16 -139 7 -108 13 -66 L28 40 C34 83 66 102 105 102 C143 144 173 229 195 344 L254 650 C258 684 294 705 319 705 L600 705 L600 705 Z M305 343 C286 243 259 160 220 102 L465 102 L535 603 L351 603 L305 343 L305 343 Z " />
<glyph glyph-name="uni0415" unicode="&#x415;" horiz-adv-x="494" d="M474 58 C474 26 444 0 411 0 L146 0 C105 0 70 14 76 59 L159 646 C163 675 193 705 229 705 L500 705 C530 705 552 681 548 652 C544 623 516 602 486 602 L263 602 L235 405 L439 405 C466 405 490 383 486 354 C482 325 454 302 424 302 L220 302 L192 102 L425 102 C452 102 474 82 474 58 L474 58 Z " />
<glyph glyph-name="uni0416" unicode="&#x416;" horiz-adv-x="766" d="M531 662 L495 404 L519 404 C584 486 663 588 730 671 C747 692 765 712 791 712 C822 712 839 688 839 665 C839 655 837 645 828 634 L609 352 L749 70 C752 64 753 56 753 50 C753 23 727 -8 690 -8 C661 -8 650 15 640 33 L504 301 L481 301 L448 67 C443 30 425 -9 382 -9 C351 -9 330 15 334 43 L370 301 L346 301 L135 33 C117 12 99 -8 73 -8 C42 -8 26 15 26 39 C26 53 30 61 37 70 C109 164 183 258 256 352 C210 446 162 540 116 634 C113 640 112 647 112 652 C112 682 136 712 174 712 C201 712 213 690 224 671 L361 404 L385 404 L418 639 C423 676 440 714 484 714 C514 714 535 690 531 662 L531 662 Z " />
<glyph glyph-name="uni0417" unicode="&#x417;" horiz-adv-x="505" d="M499 219 C499 101 392 -9 237 -9 C159 -9 37 20 37 80 C37 109 65 133 95 133 C103 133 110 131 118 126 C152 107 185 87 240 87 C336 87 390 145 390 212 C390 282 319 300 245 308 C221 311 188 311 188 350 C188 406 227 406 253 408 C333 415 420 446 420 533 C420 575 394 618 323 618 C291 618 258 610 236 600 C211 589 189 571 166 571 C143 571 123 589 123 612 C123 674 254 714 343 714 C469 714 526 627 526 542 C526 457 474 402 387 364 C454 337 499 292 499 219 L499 219 Z " />
<glyph glyph-name="uni0418" unicode="&#x418;" horiz-adv-x="614" d="M125 -10 C90 -10 70 16 74 46 L161 661 C165 690 191 714 222 714 C252 714 275 690 271 661 L209 217 C266 298 473 607 529 684 C542 702 566 714 588 714 C621 714 643 690 638 658 L552 43 C548 15 520 -10 490 -10 C460 -10 438 15 442 43 L504 485 L183 19 C170 2 146 -10 125 -10 L125 -10 Z " />
<glyph glyph-name="uni0419" unicode="&#x419;" horiz-adv-x="609" d="M422 839 C452 839 471 857 489 875 C501 887 512 894 529 894 C550 894 571 883 558 848 C537 793 459 762 410 762 C358 762 292 796 287 848 C284 883 309 894 330 894 C349 894 357 884 364 875 C377 857 391 839 422 839 L422 839 Z M125 -10 C90 -10 70 16 74 46 L161 661 C165 690 191 714 222 714 C252 714 275 690 271 661 L209 217 C266 298 473 607 529 684 C542 702 566 714 588 714 C621 714 643 690 638 658 L552 43 C548 15 520 -10 490 -10 C460 -10 438 15 442 43 L504 485 L183 19 C170 2 146 -10 125 -10 L125 -10 Z " />
<glyph glyph-name="uni041A" unicode="&#x41a;" horiz-adv-x="536" d="M271 662 L235 404 L270 404 L514 690 C528 707 545 714 563 714 C596 714 612 683 609 659 C607 651 604 643 597 633 L353 352 L518 72 C522 61 523 53 522 45 C519 22 494 -10 461 -10 C443 -10 428 -2 419 14 L254 301 L220 301 L184 43 C180 15 151 -10 121 -10 C90 -10 70 15 74 43 L161 662 C165 690 192 714 223 714 C253 714 275 690 271 662 L271 662 Z " />
<glyph glyph-name="uni041B" unicode="&#x41b;" horiz-adv-x="637" d="M574 43 C569 14 541 -7 512 -7 C481 -7 460 14 464 43 L543 603 L357 603 L267 175 C244 67 193 -7 102 -7 C59 -7 17 -6 17 36 C17 79 48 98 77 98 C84 98 88 96 95 95 L105 95 C131 95 147 120 158 171 L261 650 C268 684 298 705 327 705 L608 705 C640 705 663 680 659 650 L574 43 L574 43 Z " />
<glyph glyph-name="uni041C" unicode="&#x41c;" horiz-adv-x="724" d="M756 660 L669 41 C665 14 637 -10 608 -10 C578 -10 555 14 559 41 L618 457 L439 173 C426 152 405 142 383 142 C361 142 343 152 336 173 L238 457 L180 41 C176 14 147 -10 116 -10 C86 -10 66 14 70 41 L157 660 C161 691 188 714 221 714 C247 714 265 703 273 682 L406 296 L646 683 C661 706 683 714 706 714 C738 714 760 690 756 660 L756 660 Z " />
<glyph glyph-name="uni041D" unicode="&#x41d;" horiz-adv-x="600" d="M537 43 C533 15 504 -10 474 -10 C445 -10 423 15 427 43 L463 301 L220 301 L184 43 C180 15 151 -10 121 -10 C90 -10 70 15 74 43 L161 662 C165 690 192 714 223 714 C253 714 275 690 271 662 L235 404 L478 404 L514 662 C518 690 547 714 576 714 C605 714 628 690 624 662 L537 43 L537 43 Z " />
<glyph glyph-name="uni041E" unicode="&#x41e;" horiz-adv-x="580" d="M289 -10 C126 -10 60 106 80 250 L109 456 C129 596 214 714 390 714 C566 714 619 596 599 456 L570 250 C550 106 452 -10 289 -10 L289 -10 Z M376 612 C277 612 232 549 219 456 L190 250 C177 157 210 93 303 93 C395 93 447 157 460 250 L489 456 C502 549 475 612 376 612 L376 612 Z " />
<glyph glyph-name="uni041F" unicode="&#x41f;" horiz-adv-x="599" d="M537 43 C533 15 504 -10 474 -10 C445 -10 423 15 427 43 L506 603 L263 603 L184 43 C180 15 151 -10 121 -10 C90 -10 70 15 74 43 L160 653 C164 681 191 706 222 706 L575 706 C604 706 627 681 623 653 L537 43 L537 43 Z " />
<glyph glyph-name="uni0420" unicode="&#x420;" horiz-adv-x="550" d="M313 250 L213 250 L184 44 C180 16 151 -10 121 -10 C92 -10 70 15 74 44 L159 645 C163 677 196 705 230 705 L377 705 C554 705 602 595 585 476 C564 331 459 250 313 250 L313 250 Z M262 602 L227 352 L327 352 C412 352 463 392 475 477 C484 539 468 602 362 602 L262 602 L262 602 Z " />
<glyph glyph-name="uni0421" unicode="&#x421;" horiz-adv-x="501" d="M75 250 L104 456 C126 612 215 714 380 714 C474 714 559 673 559 623 C559 595 532 570 501 570 C482 570 476 576 463 586 L459 589 C434 608 407 617 372 617 C270 617 228 555 214 456 L185 250 C171 151 195 89 297 89 C332 89 361 100 392 116 L398 119 C415 127 421 135 440 135 C466 135 485 116 485 93 C485 38 381 -8 279 -8 C114 -8 53 94 75 250 L75 250 Z " />
<glyph glyph-name="uni0422" unicode="&#x422;" horiz-adv-x="503" d="M202 42 L281 602 L160 602 C128 602 108 626 112 653 C115 676 143 705 174 705 L526 705 C554 705 579 682 575 653 C571 626 542 602 512 602 L391 602 L312 42 C308 15 280 -10 250 -10 C219 -10 198 15 202 42 L202 42 Z " />
<glyph glyph-name="uni0423" unicode="&#x423;" horiz-adv-x="523" d="M590 646 L370 228 C301 96 243 -4 107 -7 C77 -7 58 11 58 36 C58 63 82 90 117 92 C171 95 199 114 233 174 L113 647 C112 650 112 655 112 657 C112 691 140 714 174 714 C194 714 212 702 218 680 L274 453 C287 401 294 347 304 294 C364 424 427 553 494 680 C505 702 528 714 549 714 C574 714 596 695 596 669 C596 659 592 650 590 646 L590 646 Z " />
<glyph glyph-name="uni0424" unicode="&#x424;" horiz-adv-x="770" d="M336 42 L352 153 L302 153 C156 153 73 234 94 380 C110 499 189 610 366 610 L416 610 L423 662 C427 690 457 714 485 714 C518 714 537 690 533 662 L526 610 L576 610 C753 610 800 499 784 380 C763 234 658 153 512 153 L462 153 L446 42 C442 15 414 -10 384 -10 C353 -10 332 15 336 42 L336 42 Z M561 507 L511 507 L476 256 L526 256 C611 256 662 296 674 381 C682 443 667 507 561 507 L561 507 Z M316 256 L366 256 L401 507 L351 507 C245 507 212 443 204 381 C192 296 231 256 316 256 L316 256 Z " />
<glyph glyph-name="uni0425" unicode="&#x425;" horiz-adv-x="518" d="M298 277 C239 193 178 109 117 25 C106 10 88 -9 61 -9 C35 -9 15 13 15 38 C15 50 22 64 27 71 C101 170 173 268 247 366 L122 635 C119 641 118 650 118 657 C118 686 148 714 178 714 C203 714 219 695 228 674 L323 456 L480 674 C492 691 517 713 543 714 C567 714 587 694 587 668 C587 656 582 645 576 635 L376 366 L511 71 C514 66 516 57 516 48 C516 19 485 -9 456 -9 C429 -9 416 8 409 25 L298 277 L298 277 Z " />
<glyph glyph-name="uni0426" unicode="&#x426;" horiz-adv-x="624" d="M123 0 C92 0 71 24 75 52 L161 661 C165 690 192 714 223 714 C253 714 275 690 271 661 L192 102 L435 102 L514 661 C518 690 547 714 576 714 C606 714 628 690 624 661 L545 102 L570 102 C599 102 622 78 618 50 L596 -105 C592 -134 562 -158 533 -158 C504 -158 482 -134 486 -105 L501 0 L452 0 L451 0 L123 0 L123 0 Z " />
<glyph glyph-name="uni0427" unicode="&#x427;" horiz-adv-x="567" d="M441 378 L481 660 C485 689 513 714 544 714 C573 714 595 690 591 660 L505 44 C501 15 471 -9 442 -9 C411 -9 391 16 395 44 L427 274 C386 256 345 250 307 250 C167 250 95 331 115 476 L141 660 C145 689 173 714 204 714 C233 714 255 690 251 660 L226 477 C214 388 249 352 327 352 C365 352 405 361 441 378 L441 378 Z " />
<glyph glyph-name="uni0428" unicode="&#x428;" horiz-adv-x="780" d="M804 661 L718 52 C714 24 685 0 656 0 L123 0 C92 0 71 24 75 52 L161 661 C165 690 192 714 223 714 C253 714 275 690 271 661 L192 102 L348 102 L427 662 C431 690 458 714 489 714 C519 714 541 690 537 662 L458 102 L615 102 L694 661 C698 690 727 714 756 714 C786 714 808 690 804 661 L804 661 Z " />
<glyph glyph-name="uni0429" unicode="&#x429;" horiz-adv-x="804" d="M123 0 C92 0 71 24 75 52 L161 661 C165 690 192 714 223 714 C253 714 275 690 271 661 L192 102 L348 102 L427 662 C431 690 458 714 489 714 C519 714 541 690 537 662 L458 102 L615 102 L694 661 C698 690 727 714 756 714 C786 714 808 690 804 661 L725 102 L750 102 C779 102 802 78 798 50 L776 -101 C772 -129 744 -154 714 -154 C685 -154 662 -129 666 -101 L680 0 L123 0 L123 0 Z " />
<glyph glyph-name="uni042A" unicode="&#x42a;" horiz-adv-x="679" d="M195 60 L271 603 L154 603 C126 603 107 622 107 648 C107 678 135 705 169 705 L336 705 C370 705 392 676 388 648 L361 456 L461 456 C592 456 672 387 672 264 C672 136 599 0 397 0 L250 0 C216 0 190 27 195 60 L195 60 Z M311 102 L411 102 C541 102 561 193 561 252 C561 321 521 353 446 353 L346 353 L311 102 L311 102 Z " />
<glyph glyph-name="uni042B" unicode="&#x42b;" horiz-adv-x="755" d="M242 456 L337 456 C469 456 549 387 549 264 C549 136 476 0 273 0 L131 0 C97 0 72 27 77 60 L161 660 C165 690 195 714 224 714 C254 714 275 689 271 660 L242 456 L242 456 Z M228 353 L193 102 L288 102 C418 102 437 193 437 252 C437 321 398 353 323 353 L228 353 L228 353 Z M582 42 L669 662 C673 690 701 714 732 714 C762 714 783 690 779 662 L692 42 C688 15 660 -9 630 -9 C599 -9 578 15 582 42 L582 42 Z " />
<glyph glyph-name="uni042C" unicode="&#x42c;" horiz-adv-x="560" d="M242 456 L342 456 C474 456 554 387 554 264 C554 136 481 0 278 0 L131 0 C97 0 72 27 77 60 L161 660 C165 690 195 714 224 714 C254 714 275 689 271 660 L242 456 L242 456 Z M228 353 L193 102 L293 102 C423 102 442 193 442 252 C442 321 403 353 328 353 L228 353 L228 353 Z " />
<glyph glyph-name="uni042D" unicode="&#x42d;" horiz-adv-x="518" d="M538 456 L509 250 C487 94 398 -8 233 -8 C139 -8 54 32 54 83 C54 110 81 135 112 135 C130 135 136 128 150 119 C177 100 205 89 242 89 C344 89 385 151 399 250 L406 301 L235 301 C208 301 189 322 189 348 C189 380 220 405 250 405 L421 405 L428 456 C442 555 418 617 316 617 C288 617 261 611 237 598 C217 587 196 570 173 570 C147 570 128 589 128 613 C128 667 232 714 334 714 C499 714 560 612 538 456 L538 456 Z " />
<glyph glyph-name="uni042E" unicode="&#x42e;" horiz-adv-x="798" d="M516 -10 C360 -10 297 102 317 240 L326 302 L220 302 L184 43 C180 15 151 -10 121 -10 C90 -10 70 15 74 43 L161 662 C165 690 192 714 223 714 C253 714 275 690 271 662 L235 404 L340 404 L348 465 C367 601 449 714 618 714 C787 714 837 601 818 465 L787 240 C767 102 672 -10 516 -10 L516 -10 Z M604 612 C512 612 470 553 458 465 L427 240 C414 153 445 93 531 93 C616 93 665 153 677 240 L708 465 C721 553 696 612 604 612 L604 612 Z " />
<glyph glyph-name="uni042F" unicode="&#x42f;" horiz-adv-x="581" d="M135 499 C150 601 220 705 397 705 L551 705 C584 705 608 678 604 645 L519 44 C515 15 488 -10 458 -10 C428 -10 405 16 409 44 L445 298 L372 298 L161 16 C149 0 131 -9 112 -9 C90 -9 57 13 61 41 C62 51 67 64 74 73 L254 308 C167 331 121 396 135 499 L135 499 Z M245 499 C236 434 272 399 347 399 L459 399 L488 603 L382 603 C282 603 252 549 245 499 L245 499 Z " />
<glyph glyph-name="uni0430" unicode="&#x430;" horiz-adv-x="502" d="M216 -8 C103 -8 55 70 71 185 L88 305 C105 424 169 513 312 513 C442 513 487 439 469 309 L440 106 C436 77 449 75 461 74 C480 72 486 61 486 46 C486 12 463 -4 422 -4 C389 -4 363 7 347 41 C305 9 269 -8 216 -8 L216 -8 Z M250 85 C279 85 299 93 334 118 L364 333 C372 390 357 418 298 418 C234 418 207 384 196 305 L179 185 C170 118 191 85 250 85 L250 85 Z " />
<glyph glyph-name="uni0431" unicode="&#x431;" horiz-adv-x="485" d="M105 465 C123 593 199 680 349 695 C370 697 393 695 451 720 C454 721 463 724 473 724 C498 724 516 706 516 682 C516 613 386 607 340 603 C282 598 230 580 211 445 C240 472 279 487 324 487 C443 487 502 407 487 305 L468 174 C453 72 373 -7 241 -7 C109 -7 50 72 64 174 L105 465 L105 465 Z M254 87 C316 87 352 120 360 174 L379 306 C386 359 363 392 301 392 C242 392 201 362 192 311 L172 174 C164 120 192 87 254 87 L254 87 Z " />
<glyph glyph-name="uni0432" unicode="&#x432;" horiz-adv-x="488" d="M254 -8 C118 -8 54 72 69 174 L92 332 C107 435 192 514 326 514 C440 514 490 454 490 383 C490 325 464 284 392 257 C444 237 468 203 468 157 C468 68 390 -8 254 -8 L254 -8 Z M275 85 C333 85 362 110 362 160 C362 188 347 216 284 216 L183 216 L177 174 C169 120 207 85 275 85 L275 85 Z M200 333 L195 295 L297 295 C375 295 381 339 381 365 C381 402 357 419 313 419 C251 419 207 386 200 333 L200 333 Z " />
<glyph glyph-name="uni0433" unicode="&#x433;" horiz-adv-x="426" d="M434 384 C434 175 167 244 167 136 C167 104 198 84 239 84 C281 84 328 103 346 107 C386 116 395 84 395 65 C395 7 282 -7 223 -7 C115 -7 60 43 60 123 C60 334 328 266 328 379 C328 416 286 421 263 421 C210 421 192 399 160 399 C136 399 121 411 121 434 C121 497 214 513 276 513 C381 513 434 462 434 384 L434 384 Z " />
<glyph glyph-name="uni0434" unicode="&#x434;" horiz-adv-x="537" d="M536 321 C499 56 406 -10 275 -10 C110 -10 56 94 76 233 C95 371 179 480 311 480 C345 480 399 472 440 442 C444 484 437 515 433 529 C419 577 376 615 298 619 C273 620 256 625 263 665 C269 694 285 708 337 708 C437 708 501 657 527 590 C550 531 552 437 536 321 L536 321 Z M420 279 L428 339 C401 367 345 385 305 385 C242 385 197 329 184 238 C172 151 196 87 283 87 C366 87 402 146 420 279 L420 279 Z " />
<glyph glyph-name="uni0435" unicode="&#x435;" horiz-adv-x="459" d="M269 197 C241 197 213 199 181 204 L175 158 C169 113 196 84 259 84 C296 84 324 94 359 109 C362 111 370 114 382 114 C416 114 427 89 424 69 C416 9 296 -8 237 -8 C114 -8 54 66 68 163 L92 340 C106 438 186 513 315 513 C436 513 487 447 472 347 C459 253 396 197 269 197 L269 197 Z M366 350 C373 403 349 424 300 424 C244 424 208 394 201 346 L193 287 C226 283 265 281 280 281 C337 281 360 308 366 350 L366 350 Z " />
<glyph glyph-name="uni0436" unicode="&#x436;" horiz-adv-x="628" d="M335 12 C328 2 315 -5 302 -5 C268 -5 264 27 268 59 L289 208 L261 196 L118 16 C105 0 89 -7 71 -7 C40 -7 22 14 26 42 C31 57 38 69 48 81 L183 251 L89 436 C84 445 83 456 85 465 C90 492 115 508 141 508 C165 508 180 492 191 471 C219 416 249 361 276 305 L303 305 L322 442 C326 472 347 510 386 510 C427 510 435 475 430 442 L411 305 L436 305 C480 360 524 414 568 470 C586 493 603 509 628 509 C660 509 676 488 672 459 C667 445 658 432 649 421 L514 251 L609 66 C613 58 615 45 613 36 C608 9 583 -6 556 -6 C527 -6 516 12 506 32 L424 194 L397 208 L376 59 C373 36 355 17 335 12 L335 12 Z " />
<glyph glyph-name="uni0437" unicode="&#x437;" horiz-adv-x="428" d="M432 388 C432 326 403 281 326 258 C384 241 410 207 410 158 C410 63 339 -7 202 -7 C147 -7 42 4 42 58 C42 80 61 110 95 110 C106 110 115 106 119 104 C143 93 171 82 214 82 C271 82 304 100 304 155 C304 178 289 207 192 214 C171 216 152 223 152 249 C152 294 190 295 218 298 C307 307 325 347 325 376 C325 407 303 424 255 424 C207 424 185 403 155 402 C114 400 106 428 106 442 C106 496 207 513 272 513 C380 513 432 461 432 388 L432 388 Z " />
<glyph glyph-name="uni0438" unicode="&#x438;" horiz-adv-x="529" d="M386 32 C337 3 286 -8 240 -8 C127 -8 79 70 95 185 L134 461 C138 489 160 510 195 510 C229 510 246 489 242 461 L203 185 C194 121 215 85 267 85 C297 85 331 95 365 112 C365 121 365 129 366 136 L412 461 C416 489 437 510 473 510 C509 510 524 489 520 461 L473 126 C468 91 475 87 483 73 C488 66 492 58 491 46 C487 17 459 -2 433 -2 C411 -2 396 12 386 32 L386 32 Z " />
<glyph glyph-name="uni0439" unicode="&#x439;" horiz-adv-x="529" d="M355 639 C385 639 404 657 422 675 C434 687 445 694 462 694 C483 694 504 683 491 648 C470 593 392 562 343 562 C291 562 225 596 220 648 C217 683 242 694 263 694 C282 694 290 684 297 675 C310 657 324 639 355 639 L355 639 Z M386 32 C337 3 286 -8 240 -8 C127 -8 79 70 95 185 L134 461 C138 489 160 510 195 510 C229 510 246 489 242 461 L203 185 C194 121 215 85 267 85 C297 85 331 95 365 112 C365 121 365 129 366 136 L412 461 C416 489 437 510 473 510 C509 510 524 489 520 461 L473 126 C468 91 475 87 483 73 C488 66 492 58 491 46 C487 17 459 -2 433 -2 C411 -2 396 12 386 32 L386 32 Z " />
<glyph glyph-name="uni043A" unicode="&#x43a;" horiz-adv-x="456" d="M206 207 L183 46 C179 18 151 -6 121 -6 C90 -6 71 18 75 46 L133 460 C137 487 162 511 193 511 C223 511 245 487 241 459 L219 305 L256 305 L394 469 C412 490 431 508 457 508 C482 508 502 492 502 469 C502 460 497 445 489 435 L332 251 L437 66 C442 58 444 46 442 37 C437 9 412 -6 385 -6 C356 -6 344 12 334 31 L237 207 L206 207 L206 207 Z " />
<glyph glyph-name="uni043B" unicode="&#x43b;" horiz-adv-x="551" d="M489 43 C485 14 458 -7 428 -7 C397 -7 377 14 381 43 L433 415 L302 415 C283 332 265 250 247 167 C224 63 176 -4 88 -4 C53 -4 18 2 18 36 C18 71 46 91 71 91 C80 91 82 89 90 89 C116 89 131 113 143 163 L210 455 C217 485 241 505 265 505 L505 505 C539 505 549 476 546 454 L489 43 L489 43 Z " />
<glyph glyph-name="uni043C" unicode="&#x43c;" horiz-adv-x="660" d="M341 78 L339 78 C317 78 299 90 292 108 L216 295 L181 43 C177 15 149 -8 120 -8 C90 -8 70 15 74 43 L132 457 C136 488 164 510 197 510 C222 510 236 498 245 479 L359 212 L547 479 C561 498 579 510 605 510 C637 510 658 488 654 457 L596 43 C592 15 564 -8 536 -8 C505 -8 485 15 489 43 L524 295 L396 108 C383 90 363 78 341 78 L341 78 Z " />
<glyph glyph-name="uni043D" unicode="&#x43d;" horiz-adv-x="534" d="M182 43 C178 14 151 -8 121 -8 C90 -8 70 14 74 43 L133 460 C136 487 163 510 194 510 C224 510 245 487 241 460 L219 305 L401 305 L423 460 C426 487 453 510 484 510 C514 510 535 487 531 460 L472 43 C468 14 441 -8 411 -8 C380 -8 360 14 364 43 L388 216 L206 216 L182 43 L182 43 Z " />
<glyph glyph-name="uni043E" unicode="&#x43e;" horiz-adv-x="494" d="M246 -8 C114 -8 55 72 69 174 L91 332 C106 435 187 514 319 514 C451 514 511 435 496 332 L473 174 C459 72 378 -8 246 -8 L246 -8 Z M259 87 C321 87 357 120 365 174 L388 333 C395 386 368 419 306 419 C244 419 207 386 200 333 L177 174 C170 120 197 87 259 87 L259 87 Z " />
<glyph glyph-name="uni043F" unicode="&#x43f;" horiz-adv-x="524" d="M182 43 C178 14 151 -7 121 -7 C90 -7 70 14 74 43 L132 454 C136 482 162 505 193 505 L473 505 C503 505 524 482 520 454 L462 43 C458 14 431 -7 401 -7 C370 -7 350 14 354 43 L406 415 L234 415 L182 43 L182 43 Z " />
<glyph glyph-name="uni0440" unicode="&#x440;" horiz-adv-x="503" d="M278 -7 C247 -7 216 -2 182 13 L157 -164 C153 -192 130 -214 96 -214 C61 -214 45 -191 49 -164 L123 363 C127 391 125 406 117 421 C112 429 109 436 111 447 C115 476 143 495 167 495 C186 495 200 485 210 469 C259 495 307 513 359 513 C469 513 519 435 503 321 L486 198 C469 79 413 -7 278 -7 L278 -7 Z M231 363 L194 101 C223 89 257 84 279 84 C340 84 367 120 378 198 L395 321 C404 386 382 420 328 420 C300 420 266 410 231 393 C232 382 232 372 231 363 L231 363 Z " />
<glyph glyph-name="uni0441" unicode="&#x441;" horiz-adv-x="416" d="M71 180 L91 323 C106 428 176 510 310 510 C363 510 463 496 455 436 C452 415 435 394 401 394 C393 394 386 395 376 398 C356 408 338 418 305 418 C238 418 207 383 199 323 L179 180 C170 120 191 84 258 84 C291 84 312 94 335 104 C343 107 350 109 360 109 C395 109 406 87 403 66 C394 7 290 -8 236 -8 C103 -8 56 75 71 180 L71 180 Z " />
<glyph glyph-name="uni0442" unicode="&#x442;" horiz-adv-x="798" d="M634 102 L667 337 C674 382 653 418 604 418 C570 418 532 400 502 374 C503 363 504 351 502 339 L460 43 C456 15 435 -7 399 -7 C363 -7 348 15 352 43 L390 317 C399 376 395 418 337 418 C303 418 264 403 232 385 C232 378 232 370 231 364 L186 43 C182 15 161 -7 125 -7 C89 -7 74 15 78 43 L123 364 C129 408 123 410 118 420 C112 432 109 439 110 449 C114 477 140 496 168 496 C188 496 201 485 210 469 C259 497 309 513 357 513 C405 513 440 497 466 466 C519 496 566 513 621 513 C734 513 791 443 776 339 L743 108 C740 87 740 78 751 64 C756 58 761 52 761 42 C761 12 735 -8 698 -8 C666 -8 620 5 634 102 L634 102 Z " />
<glyph glyph-name="uni0443" unicode="&#x443;" horiz-adv-x="529" d="M530 461 L459 -37 C444 -142 374 -224 239 -224 C189 -224 95 -209 95 -158 C95 -131 121 -108 151 -108 C157 -108 164 -108 173 -112 C195 -121 212 -132 244 -132 C311 -132 344 -97 352 -37 L360 20 C324 3 287 -7 243 -7 C110 -7 79 73 94 179 L133 461 C137 489 159 510 194 510 C228 510 245 489 241 461 L202 179 C194 120 212 84 272 84 C307 84 343 95 374 120 L422 461 C425 489 446 510 482 510 C518 510 534 489 530 461 L530 461 Z " />
<glyph glyph-name="uni0444" unicode="&#x444;" horiz-adv-x="624" d="M234 -163 L256 -6 C117 -1 58 95 76 221 L86 293 C103 414 188 507 328 512 L351 673 C355 700 381 723 412 723 C442 723 463 701 459 673 L436 512 C577 512 636 411 620 293 L610 221 C593 98 504 -6 364 -6 L342 -163 C338 -191 311 -213 281 -213 C250 -213 230 -191 234 -163 L234 -163 Z M424 417 C422 409 421 401 420 394 L377 89 C451 98 496 141 507 221 L517 294 C527 366 497 412 424 417 L424 417 Z M269 89 L315 416 C241 411 199 365 189 294 L179 221 C168 144 197 95 269 89 L269 89 Z " />
<glyph glyph-name="uni0445" unicode="&#x445;" horiz-adv-x="451" d="M326 257 L433 68 C437 62 438 55 438 49 C438 19 411 -8 375 -8 C350 -8 341 2 329 24 L250 171 L122 17 C108 0 92 -8 74 -8 C46 -8 26 10 26 37 C26 47 29 57 37 66 L198 256 L99 435 C95 442 93 450 93 457 C93 483 121 510 154 510 C184 510 195 489 205 472 L276 343 L387 480 C402 498 416 510 441 510 C464 510 488 491 488 466 C488 458 485 446 476 436 L326 257 L326 257 Z " />
<glyph glyph-name="uni0446" unicode="&#x446;" horiz-adv-x="559" d="M370 166 L412 461 C416 489 438 510 473 510 C507 510 524 489 520 461 L478 166 C469 102 479 95 490 91 C522 79 556 74 551 35 L533 -96 C529 -122 501 -146 472 -146 C441 -146 421 -124 425 -96 L439 6 C422 8 406 25 399 30 C344 4 288 -7 242 -7 C126 -7 79 70 95 185 L134 461 C138 489 160 510 195 510 C229 510 246 489 242 461 L203 185 C194 121 216 85 266 85 C297 85 333 95 368 113 C366 129 368 147 370 166 L370 166 Z " />
<glyph glyph-name="uni0447" unicode="&#x447;" horiz-adv-x="493" d="M217 460 L198 327 C194 294 199 262 262 262 C278 262 317 267 354 273 L380 460 C384 487 410 510 441 510 C471 510 492 487 488 460 L430 43 C426 14 398 -8 368 -8 C337 -8 318 14 322 43 L342 186 C308 176 277 173 253 173 C123 173 76 231 90 327 L109 460 C113 487 139 510 170 510 C200 510 221 487 217 460 L217 460 Z " />
<glyph glyph-name="uni0448" unicode="&#x448;" horiz-adv-x="792" d="M240 461 L199 166 C193 120 212 84 263 84 C294 84 333 103 363 128 C361 139 363 151 365 164 L403 439 C408 474 419 510 467 510 C501 510 518 489 514 461 L476 185 C468 126 471 84 529 84 C561 84 600 99 632 116 L677 439 C682 474 693 510 741 510 C787 510 790 474 785 439 L741 121 C736 87 763 76 763 49 C763 19 732 -1 706 -1 C682 -1 665 12 654 31 C606 6 556 -10 509 -10 C460 -10 425 5 400 36 C348 7 297 -10 248 -10 C130 -10 76 60 91 164 L129 439 C134 474 145 510 193 510 C227 510 244 489 240 461 L240 461 Z " />
<glyph glyph-name="uni0449" unicode="&#x449;" horiz-adv-x="828" d="M740 -147 C709 -147 689 -125 693 -96 L707 6 C690 10 677 19 667 32 C620 7 564 -11 509 -11 C460 -11 425 5 400 36 C348 7 297 -11 248 -11 C130 -11 76 60 91 164 L132 461 C136 489 158 510 193 510 C227 510 244 489 240 461 L199 166 C192 120 212 84 263 84 C295 84 333 100 363 122 C362 135 363 149 365 164 L406 461 C410 489 432 510 467 510 C501 510 518 489 514 461 L476 185 C467 126 471 84 529 84 C564 84 604 99 636 118 C635 133 636 149 639 166 L680 461 C684 489 705 510 741 510 C777 510 792 489 788 461 L747 166 C739 113 749 85 773 85 C803 85 823 63 819 35 L801 -96 C797 -125 770 -147 740 -147 L740 -147 Z " />
<glyph glyph-name="uni044A" unicode="&#x44a;" horiz-adv-x="555" d="M327 -7 C197 -7 144 72 158 174 L191 412 L120 412 C94 412 75 430 75 453 C75 482 104 505 133 505 L258 505 C302 505 307 467 302 433 L285 313 C312 326 344 333 375 333 C487 333 548 268 548 183 C548 76 463 -7 327 -7 L327 -7 Z M356 238 C294 238 264 208 264 157 C264 114 289 87 340 87 C403 87 439 121 439 175 C439 214 414 238 356 238 L356 238 Z " />
<glyph glyph-name="uni044B" unicode="&#x44b;" horiz-adv-x="689" d="M626 43 C622 14 595 -8 565 -8 C534 -8 514 14 518 43 L576 460 C580 487 607 510 638 510 C668 510 689 487 685 460 L626 43 L626 43 Z M241 460 L220 313 C247 326 278 333 310 333 C422 333 482 268 482 183 C482 76 397 -7 262 -7 C132 -7 78 72 92 174 L133 460 C137 487 163 510 194 510 C224 510 245 487 241 460 L241 460 Z M290 238 C225 238 199 208 199 157 C199 114 224 87 275 87 C336 87 374 121 374 175 C374 214 347 238 290 238 L290 238 Z " />
<glyph glyph-name="uni044C" unicode="&#x44c;" horiz-adv-x="492" d="M241 460 L220 313 C247 326 278 333 310 333 C422 333 482 268 482 183 C482 76 397 -7 262 -7 C132 -7 78 72 92 174 L133 460 C137 487 163 510 194 510 C224 510 245 487 241 460 L241 460 Z M290 238 C225 238 199 208 199 157 C199 114 224 87 275 87 C336 87 374 121 374 175 C374 214 347 238 290 238 L290 238 Z " />
<glyph glyph-name="uni044D" unicode="&#x44d;" horiz-adv-x="413" d="M293 207 L155 207 C130 207 110 225 110 249 C110 277 137 300 168 300 L306 300 C316 374 302 418 238 418 C191 418 159 394 128 394 C104 394 85 412 85 434 C85 493 202 510 259 510 C387 510 432 424 416 313 L398 189 C382 78 315 -7 187 -7 C133 -7 32 8 32 59 C32 85 58 109 88 109 C119 109 144 84 191 84 C251 84 279 123 290 189 L293 207 L293 207 Z " />
<glyph glyph-name="uni044E" unicode="&#x44e;" horiz-adv-x="711" d="M182 43 C178 14 151 -8 121 -8 C90 -8 70 14 74 43 L133 460 C136 487 163 510 194 510 C224 510 245 487 241 460 L219 305 L314 305 L318 331 C332 434 412 513 542 513 C673 513 732 434 717 331 L694 174 C680 72 600 -8 469 -8 C339 -8 280 72 295 174 L301 216 L206 216 L182 43 L182 43 Z M482 87 C543 87 578 120 586 174 L609 332 C616 385 590 418 529 418 C469 418 433 385 426 332 L404 174 C396 120 422 87 482 87 L482 87 Z " />
<glyph glyph-name="uni044F" unicode="&#x44f;" horiz-adv-x="507" d="M383 -8 C352 -8 332 15 336 43 L357 195 L292 195 L143 16 C129 0 114 -8 96 -8 C66 -8 47 9 50 36 C51 45 56 58 62 66 L180 206 C111 227 88 277 98 352 C111 443 180 505 301 505 L455 505 C485 505 506 481 502 454 L444 43 C440 15 413 -8 383 -8 L383 -8 Z M204 339 C204 312 219 284 283 284 L370 284 L388 414 L290 414 C233 414 204 389 204 339 L204 339 Z " />
<glyph glyph-name="uni0450" unicode="&#x450;" horiz-adv-x="459" d="M269 197 C241 197 213 199 181 204 L175 158 C169 113 196 84 259 84 C296 84 324 94 359 109 C362 111 370 114 382 114 C416 114 427 89 424 69 C416 9 296 -8 237 -8 C114 -8 54 66 68 163 L92 340 C106 438 186 513 315 513 C436 513 487 447 472 347 C459 253 396 197 269 197 L269 197 Z M366 350 C373 403 349 424 300 424 C244 424 208 394 201 346 L193 287 C226 283 265 281 280 281 C337 281 360 308 366 350 L366 350 Z M313 707 C337 679 385 633 385 609 C385 584 361 565 337 565 C320 565 311 572 301 585 L237 663 C231 671 228 679 228 687 C228 713 253 732 274 732 C291 732 297 727 305 717 L313 707 L313 707 Z " />
<glyph glyph-name="uni0451" unicode="&#x451;" horiz-adv-x="459" d="M269 197 C241 197 213 199 181 204 L175 158 C169 113 196 84 259 84 C296 84 324 94 359 109 C362 111 370 114 382 114 C416 114 427 89 424 69 C416 9 296 -8 237 -8 C114 -8 54 66 68 163 L92 340 C106 438 186 513 315 513 C436 513 487 447 472 347 C459 253 396 197 269 197 L269 197 Z M366 350 C373 403 349 424 300 424 C244 424 208 394 201 346 L193 287 C226 283 265 281 280 281 C337 281 360 308 366 350 L366 350 Z M473 640 C473 606 442 578 408 578 C377 578 355 604 359 634 C363 663 393 688 424 688 C452 688 473 667 473 640 L473 640 Z M299 640 C299 606 268 578 233 578 C202 578 182 604 186 634 C190 663 218 688 249 688 C278 688 299 667 299 640 L299 640 Z " />
<glyph glyph-name="uni0452" unicode="&#x452;" horiz-adv-x="602" d="M428 30 L464 288 C474 356 457 389 406 389 C371 389 329 374 299 344 L260 63 C255 26 238 -7 197 -7 C166 -7 146 14 150 43 L223 559 L145 559 C121 559 104 576 104 597 C104 622 128 645 157 645 L234 645 L239 678 C242 701 269 729 299 729 C329 729 350 707 346 678 L341 645 L416 645 C440 645 457 627 457 606 C457 581 431 559 404 559 L329 559 L314 452 C348 473 388 485 429 485 C546 485 588 404 572 289 L541 68 C519 -89 453 -190 328 -202 C302 -202 285 -184 285 -160 C285 -128 314 -115 334 -110 C382 -98 416 -57 428 30 L428 30 Z " />
<glyph glyph-name="uni0453" unicode="&#x453;" horiz-adv-x="426" d="M347 707 L359 717 C371 727 377 732 394 732 C411 732 429 717 429 696 C429 684 423 674 411 663 L325 585 C311 572 301 565 284 565 C263 565 247 580 247 602 C247 629 314 677 347 707 L347 707 Z M434 384 C434 175 167 244 167 136 C167 104 198 84 239 84 C281 84 328 103 346 107 C386 116 395 84 395 65 C395 7 282 -7 223 -7 C115 -7 60 43 60 123 C60 334 328 266 328 379 C328 416 286 421 263 421 C210 421 192 399 160 399 C136 399 121 411 121 434 C121 497 214 513 276 513 C381 513 434 462 434 384 L434 384 Z " />
<glyph glyph-name="uni0454" unicode="&#x454;" horiz-adv-x="416" d="M320 207 L182 207 L179 185 C170 122 190 84 253 84 C282 84 300 92 322 99 L342 106 C346 107 350 108 355 108 C387 108 403 93 403 71 C403 8 288 -7 231 -7 C102 -7 56 77 71 185 L90 318 C105 426 174 510 305 510 C357 510 455 497 455 442 C455 413 431 394 397 394 C393 394 389 395 385 396 C356 404 338 418 300 418 C237 418 208 381 198 318 L195 300 L333 300 C358 300 378 282 378 259 C378 230 350 207 320 207 L320 207 Z " />
<glyph glyph-name="uni0455" unicode="&#x455;" horiz-adv-x="431" d="M97 343 C97 442 167 513 297 513 C353 513 431 499 431 446 C431 416 410 399 381 399 C349 399 337 421 284 421 C257 421 206 415 206 367 C206 282 409 315 409 165 C409 61 336 -7 204 -7 C149 -7 50 5 50 55 C50 71 67 119 113 107 C130 103 171 84 213 84 C261 84 301 109 301 148 C301 230 97 194 97 343 L97 343 Z " />
<glyph glyph-name="uni0456" unicode="&#x456;" horiz-adv-x="265" d="M287 656 C282 623 251 597 216 597 C183 597 161 621 161 650 C161 685 194 715 233 715 C268 715 292 688 287 656 L287 656 Z M93 102 L143 460 C147 487 173 510 204 510 C234 510 255 487 251 460 L201 108 C199 87 198 78 209 64 C214 58 219 52 219 42 C219 12 193 -8 156 -8 C124 -8 79 5 93 102 L93 102 Z " />
<glyph glyph-name="uni0457" unicode="&#x457;" horiz-adv-x="265" d="M371 630 C371 595 338 566 303 566 C270 566 247 593 251 624 C256 655 286 681 319 681 C349 681 371 659 371 630 L371 630 Z M187 631 C187 596 155 566 119 566 C86 566 65 593 69 624 C74 655 102 681 135 681 C166 681 187 659 187 631 L187 631 Z M92 102 L142 460 C146 487 172 510 203 510 C233 510 254 487 250 460 L201 108 C198 87 198 78 209 64 C214 58 218 52 218 42 C218 12 193 -8 156 -8 C124 -8 78 5 92 102 L92 102 Z " />
<glyph glyph-name="uni0458" unicode="&#x458;" horiz-adv-x="265" d="M257 460 L191 -11 C175 -122 98 -202 -11 -202 C-38 -202 -54 -184 -54 -160 C-54 -129 -24 -114 -4 -110 C42 -101 73 -75 82 -14 L149 460 C153 487 179 510 210 510 C240 510 261 487 257 460 L257 460 Z M294 662 C294 626 260 597 222 597 C189 597 167 621 167 650 C167 685 200 715 239 715 C271 715 294 691 294 662 L294 662 Z " />
<glyph glyph-name="uni0459" unicode="&#x459;" horiz-adv-x="761" d="M487 505 C521 505 532 476 529 454 L509 310 L581 310 C700 310 750 262 750 179 C750 74 682 0 550 0 L411 0 C381 0 360 23 364 50 L415 415 L306 415 L250 167 C227 63 180 -4 91 -4 C57 -4 24 -6 24 32 C24 73 51 91 80 91 C84 91 85 90 90 90 C117 90 133 109 145 163 L212 455 C219 485 243 505 267 505 L487 505 L487 505 Z M568 220 L496 220 L478 90 L561 90 C612 90 642 117 642 166 C642 194 628 220 568 220 L568 220 Z " />
<glyph glyph-name="uni045A" unicode="&#x45a;" horiz-adv-x="742" d="M182 43 C178 14 151 -8 121 -8 C90 -8 70 14 74 43 L133 460 C136 487 163 510 194 510 C224 510 245 487 241 460 L219 305 L381 305 L403 460 C406 487 433 510 464 510 C494 510 515 487 511 460 L489 305 L561 305 C695 305 742 250 728 152 C716 62 648 0 531 0 L392 0 C361 0 341 23 345 50 L368 216 L206 216 L182 43 L182 43 Z M548 216 L476 216 L459 90 L542 90 C588 90 616 111 622 155 C626 184 617 216 548 216 L548 216 Z " />
<glyph glyph-name="uni045B" unicode="&#x45b;" horiz-adv-x="602" d="M457 606 C457 581 431 559 404 559 L329 559 L315 455 C348 474 388 485 429 485 C546 485 590 414 576 314 L538 43 C534 14 506 -8 477 -8 C446 -8 426 14 430 43 L468 313 C475 363 457 389 406 389 C371 389 329 374 299 344 L257 43 C253 14 227 -8 197 -8 C166 -8 146 14 150 43 L223 559 L145 559 C118 559 101 578 104 602 C108 625 130 645 157 645 L234 645 L239 678 C243 704 268 729 299 729 C329 729 350 707 346 678 L341 645 L416 645 C439 645 457 627 457 606 L457 606 Z " />
<glyph glyph-name="uni045C" unicode="&#x45c;" horiz-adv-x="456" d="M386 707 L398 717 C410 727 416 732 433 732 C450 732 468 717 468 696 C468 684 462 674 450 663 L364 585 C350 572 340 565 323 565 C302 565 286 580 286 602 C286 629 353 677 386 707 L386 707 Z M206 207 L183 46 C179 18 151 -6 121 -6 C90 -6 71 18 75 46 L133 460 C137 487 162 511 193 511 C223 511 245 487 241 459 L219 305 L256 305 L394 469 C412 490 431 508 457 508 C482 508 502 492 502 469 C502 460 497 445 489 435 L332 251 L437 66 C442 58 444 46 442 37 C437 9 412 -6 385 -6 C356 -6 344 12 334 31 L237 207 L206 207 L206 207 Z " />
<glyph glyph-name="uni045D" unicode="&#x45d;" horiz-adv-x="529" d="M332 707 C356 679 404 633 404 609 C404 584 380 565 356 565 C339 565 330 572 320 585 L256 663 C250 671 247 679 247 687 C247 713 272 732 293 732 C310 732 316 727 324 717 L332 707 L332 707 Z M386 32 C337 3 286 -8 240 -8 C127 -8 79 70 95 185 L134 461 C138 489 160 510 195 510 C229 510 246 489 242 461 L203 185 C194 121 215 85 267 85 C297 85 331 95 365 112 C365 121 365 129 366 136 L412 461 C416 489 437 510 473 510 C509 510 524 489 520 461 L473 126 C468 91 475 87 483 73 C488 66 492 58 491 46 C487 17 459 -2 433 -2 C411 -2 396 12 386 32 L386 32 Z " />
<glyph glyph-name="uni045E" unicode="&#x45e;" horiz-adv-x="529" d="M530 461 L459 -37 C444 -142 374 -224 239 -224 C189 -224 95 -209 95 -158 C95 -131 121 -108 151 -108 C157 -108 164 -108 173 -112 C195 -121 212 -132 244 -132 C311 -132 344 -97 352 -37 L360 20 C324 3 287 -7 243 -7 C110 -7 79 73 94 179 L133 461 C137 489 159 510 194 510 C228 510 245 489 241 461 L202 179 C194 120 212 84 272 84 C307 84 343 95 374 120 L422 461 C425 489 446 510 482 510 C518 510 534 489 530 461 L530 461 Z M355 639 C385 639 404 657 422 675 C434 687 445 694 462 694 C483 694 504 683 491 648 C470 593 392 562 343 562 C291 562 225 596 220 648 C217 683 242 694 263 694 C282 694 290 684 297 675 C310 657 324 639 355 639 L355 639 Z " />
<glyph glyph-name="uni045F" unicode="&#x45f;" horiz-adv-x="524" d="M303 -92 C299 -120 272 -142 242 -142 C211 -142 191 -120 195 -92 L208 0 L122 0 C93 0 71 21 75 50 L133 462 C137 489 164 512 194 512 C237 512 243 476 237 436 L188 89 L360 89 L409 436 C415 477 429 512 474 512 C504 512 525 490 521 462 L463 50 C459 22 432 0 402 0 L316 0 L303 -92 L303 -92 Z " />
<glyph glyph-name="uni0462" unicode="&#x462;" horiz-adv-x="664" d="M569 616 C569 588 540 565 511 565 L345 565 L327 437 L427 437 C559 437 639 371 639 252 C639 128 567 0 366 0 L219 0 C173 0 161 39 167 82 L235 565 L149 565 C122 565 105 585 105 606 C105 630 132 658 162 658 L248 658 L255 710 C259 736 287 762 318 762 C348 762 369 738 365 710 L358 658 L524 658 C548 658 569 639 569 616 L569 616 Z M280 102 L380 102 C508 102 528 183 528 239 C528 303 488 334 413 334 L313 334 L280 102 L280 102 Z " />
<glyph glyph-name="uni0463" unicode="&#x463;" horiz-adv-x="602" d="M450 558 C450 534 425 512 398 512 L324 512 L302 357 L389 357 C509 357 562 303 562 213 C562 89 490 0 352 0 L198 0 C157 0 149 32 154 69 L216 512 L153 512 C129 512 98 527 98 552 C98 581 130 598 165 598 L228 598 L236 654 C241 689 260 719 299 719 C337 719 349 688 344 654 L336 598 L410 598 C426 598 450 579 450 558 L450 558 Z M377 268 L290 268 L265 90 L363 90 C421 90 453 129 453 199 C453 234 438 268 377 268 L377 268 Z " />
<glyph glyph-name="uni0490" unicode="&#x490;" horiz-adv-x="466" d="M159 648 C163 676 192 705 227 705 L443 705 L454 784 C458 812 486 837 517 837 C547 837 568 812 564 784 L546 654 C542 625 515 603 485 603 L263 603 L184 43 C180 16 152 -9 122 -9 C91 -9 70 16 74 43 L159 648 L159 648 Z " />
<glyph glyph-name="uni0491" unicode="&#x491;" horiz-adv-x="412" d="M361 505 L373 588 C377 614 404 639 434 639 C475 639 483 604 478 567 L463 462 C457 421 418 412 379 412 L234 412 L182 43 C178 17 150 -7 121 -7 C90 -7 70 14 74 43 L132 458 C136 485 161 505 190 505 L361 505 L361 505 Z " />
<glyph glyph-name="Wgrave" unicode="&#x1e80;" horiz-adv-x="803" d="M509 51 L485 299 C478 367 476 436 472 505 C419 352 363 201 307 49 C295 22 274 -9 231 -9 C196 -9 174 20 171 50 C148 254 126 459 106 663 C110 693 145 711 173 711 C195 711 215 699 218 672 C227 578 237 484 247 391 C254 326 255 259 260 194 C285 262 306 335 333 404 L426 648 C442 690 457 714 501 714 C543 714 554 688 558 648 L581 404 C588 334 589 263 595 193 C618 259 640 325 665 391 L771 671 C782 696 803 711 826 711 C852 711 882 697 882 667 C882 660 881 656 878 650 L645 50 C631 19 608 -9 569 -9 C530 -9 512 20 509 51 L509 51 Z M526 907 C550 879 598 833 598 809 C598 784 574 765 550 765 C533 765 524 772 514 785 L450 863 C444 871 441 879 441 887 C441 913 466 932 487 932 C504 932 510 927 518 917 L526 907 L526 907 Z " />
<glyph glyph-name="wgrave" unicode="&#x1e81;" horiz-adv-x="675" d="M717 452 L544 44 C529 10 511 -7 473 -7 C446 -7 420 7 417 34 L387 351 C348 244 310 139 267 34 C255 4 234 -7 201 -7 C165 -7 148 12 143 45 L84 452 L84 457 C84 484 112 510 145 510 C167 510 187 497 190 474 L213 286 C219 235 218 183 221 131 C243 191 260 251 283 310 L344 467 C354 492 378 510 410 510 C441 510 458 492 461 467 L478 310 C484 251 486 191 491 131 C508 183 523 235 543 286 L617 474 C625 494 651 510 673 510 C699 510 720 491 720 466 C720 459 718 454 717 452 L717 452 Z M435 707 C459 679 507 633 507 609 C507 584 483 565 459 565 C442 565 433 572 423 585 L359 663 C353 671 350 679 350 687 C350 713 375 732 396 732 C413 732 419 727 427 717 L435 707 L435 707 Z " />
<glyph glyph-name="Wacute" unicode="&#x1e82;" horiz-adv-x="803" d="M509 51 L485 299 C478 367 476 436 472 505 C419 352 363 201 307 49 C295 22 274 -9 231 -9 C196 -9 174 20 171 50 C148 254 126 459 106 663 C110 693 145 711 173 711 C195 711 215 699 218 672 C227 578 237 484 247 391 C254 326 255 259 260 194 C285 262 306 335 333 404 L426 648 C442 690 457 714 501 714 C543 714 554 688 558 648 L581 404 C588 334 589 263 595 193 C618 259 640 325 665 391 L771 671 C782 696 803 711 826 711 C852 711 882 697 882 667 C882 660 881 656 878 650 L645 50 C631 19 608 -9 569 -9 C530 -9 512 20 509 51 L509 51 Z M529 907 L541 917 C553 927 559 932 576 932 C593 932 611 917 611 896 C611 884 605 874 593 863 L507 785 C493 772 483 765 466 765 C445 765 429 780 429 802 C429 829 496 877 529 907 L529 907 Z " />
</font>
</svg>
